%TF.GenerationSoftware,KiCad,Pcbnew,7.0.1*%
%TF.CreationDate,2023-05-31T21:26:11+02:00*%
%TF.ProjectId,SwedishChainsaw,53776564-6973-4684-9368-61696e736177,rev?*%
%TF.SameCoordinates,Original*%
%TF.FileFunction,Legend,Bot*%
%TF.FilePolarity,Positive*%
%FSLAX46Y46*%
G04 Gerber Fmt 4.6, Leading zero omitted, Abs format (unit mm)*
G04 Created by KiCad (PCBNEW 7.0.1) date 2023-05-31 21:26:11*
%MOMM*%
%LPD*%
G01*
G04 APERTURE LIST*
G04 Aperture macros list*
%AMRoundRect*
0 Rectangle with rounded corners*
0 $1 Rounding radius*
0 $2 $3 $4 $5 $6 $7 $8 $9 X,Y pos of 4 corners*
0 Add a 4 corners polygon primitive as box body*
4,1,4,$2,$3,$4,$5,$6,$7,$8,$9,$2,$3,0*
0 Add four circle primitives for the rounded corners*
1,1,$1+$1,$2,$3*
1,1,$1+$1,$4,$5*
1,1,$1+$1,$6,$7*
1,1,$1+$1,$8,$9*
0 Add four rect primitives between the rounded corners*
20,1,$1+$1,$2,$3,$4,$5,0*
20,1,$1+$1,$4,$5,$6,$7,0*
20,1,$1+$1,$6,$7,$8,$9,0*
20,1,$1+$1,$8,$9,$2,$3,0*%
G04 Aperture macros list end*
%ADD10C,0.150000*%
%ADD11C,0.120000*%
%ADD12R,1.325000X1.325000*%
%ADD13C,1.390000*%
%ADD14C,1.390034*%
%ADD15C,1.340148*%
%ADD16C,1.360000*%
%ADD17C,1.360036*%
%ADD18C,1.360588*%
%ADD19C,1.310152*%
%ADD20RoundRect,0.250000X-0.550000X-0.550000X0.550000X-0.550000X0.550000X0.550000X-0.550000X0.550000X0*%
%ADD21C,3.240000*%
%ADD22R,1.800000X1.800000*%
%ADD23C,1.800000*%
%ADD24C,1.400000*%
%ADD25O,1.400000X1.400000*%
%ADD26O,1.800000X1.800000*%
%ADD27C,1.600000*%
%ADD28R,1.500000X1.500000*%
%ADD29C,1.500000*%
%ADD30R,1.600000X1.600000*%
%ADD31C,2.000000*%
%ADD32R,1.200000X1.200000*%
%ADD33C,1.200000*%
%ADD34R,2.200000X2.200000*%
%ADD35O,2.200000X2.200000*%
G04 APERTURE END LIST*
D10*
%TO.C,R25*%
X75602857Y-75962619D02*
X75936190Y-75486428D01*
X76174285Y-75962619D02*
X76174285Y-74962619D01*
X76174285Y-74962619D02*
X75793333Y-74962619D01*
X75793333Y-74962619D02*
X75698095Y-75010238D01*
X75698095Y-75010238D02*
X75650476Y-75057857D01*
X75650476Y-75057857D02*
X75602857Y-75153095D01*
X75602857Y-75153095D02*
X75602857Y-75295952D01*
X75602857Y-75295952D02*
X75650476Y-75391190D01*
X75650476Y-75391190D02*
X75698095Y-75438809D01*
X75698095Y-75438809D02*
X75793333Y-75486428D01*
X75793333Y-75486428D02*
X76174285Y-75486428D01*
X75221904Y-75057857D02*
X75174285Y-75010238D01*
X75174285Y-75010238D02*
X75079047Y-74962619D01*
X75079047Y-74962619D02*
X74840952Y-74962619D01*
X74840952Y-74962619D02*
X74745714Y-75010238D01*
X74745714Y-75010238D02*
X74698095Y-75057857D01*
X74698095Y-75057857D02*
X74650476Y-75153095D01*
X74650476Y-75153095D02*
X74650476Y-75248333D01*
X74650476Y-75248333D02*
X74698095Y-75391190D01*
X74698095Y-75391190D02*
X75269523Y-75962619D01*
X75269523Y-75962619D02*
X74650476Y-75962619D01*
X73745714Y-74962619D02*
X74221904Y-74962619D01*
X74221904Y-74962619D02*
X74269523Y-75438809D01*
X74269523Y-75438809D02*
X74221904Y-75391190D01*
X74221904Y-75391190D02*
X74126666Y-75343571D01*
X74126666Y-75343571D02*
X73888571Y-75343571D01*
X73888571Y-75343571D02*
X73793333Y-75391190D01*
X73793333Y-75391190D02*
X73745714Y-75438809D01*
X73745714Y-75438809D02*
X73698095Y-75534047D01*
X73698095Y-75534047D02*
X73698095Y-75772142D01*
X73698095Y-75772142D02*
X73745714Y-75867380D01*
X73745714Y-75867380D02*
X73793333Y-75915000D01*
X73793333Y-75915000D02*
X73888571Y-75962619D01*
X73888571Y-75962619D02*
X74126666Y-75962619D01*
X74126666Y-75962619D02*
X74221904Y-75915000D01*
X74221904Y-75915000D02*
X74269523Y-75867380D01*
%TO.C,R23*%
X63762619Y-105417142D02*
X63286428Y-105083809D01*
X63762619Y-104845714D02*
X62762619Y-104845714D01*
X62762619Y-104845714D02*
X62762619Y-105226666D01*
X62762619Y-105226666D02*
X62810238Y-105321904D01*
X62810238Y-105321904D02*
X62857857Y-105369523D01*
X62857857Y-105369523D02*
X62953095Y-105417142D01*
X62953095Y-105417142D02*
X63095952Y-105417142D01*
X63095952Y-105417142D02*
X63191190Y-105369523D01*
X63191190Y-105369523D02*
X63238809Y-105321904D01*
X63238809Y-105321904D02*
X63286428Y-105226666D01*
X63286428Y-105226666D02*
X63286428Y-104845714D01*
X62857857Y-105798095D02*
X62810238Y-105845714D01*
X62810238Y-105845714D02*
X62762619Y-105940952D01*
X62762619Y-105940952D02*
X62762619Y-106179047D01*
X62762619Y-106179047D02*
X62810238Y-106274285D01*
X62810238Y-106274285D02*
X62857857Y-106321904D01*
X62857857Y-106321904D02*
X62953095Y-106369523D01*
X62953095Y-106369523D02*
X63048333Y-106369523D01*
X63048333Y-106369523D02*
X63191190Y-106321904D01*
X63191190Y-106321904D02*
X63762619Y-105750476D01*
X63762619Y-105750476D02*
X63762619Y-106369523D01*
X62762619Y-106702857D02*
X62762619Y-107321904D01*
X62762619Y-107321904D02*
X63143571Y-106988571D01*
X63143571Y-106988571D02*
X63143571Y-107131428D01*
X63143571Y-107131428D02*
X63191190Y-107226666D01*
X63191190Y-107226666D02*
X63238809Y-107274285D01*
X63238809Y-107274285D02*
X63334047Y-107321904D01*
X63334047Y-107321904D02*
X63572142Y-107321904D01*
X63572142Y-107321904D02*
X63667380Y-107274285D01*
X63667380Y-107274285D02*
X63715000Y-107226666D01*
X63715000Y-107226666D02*
X63762619Y-107131428D01*
X63762619Y-107131428D02*
X63762619Y-106845714D01*
X63762619Y-106845714D02*
X63715000Y-106750476D01*
X63715000Y-106750476D02*
X63667380Y-106702857D01*
%TO.C,R2*%
X48462619Y-103793333D02*
X47986428Y-103460000D01*
X48462619Y-103221905D02*
X47462619Y-103221905D01*
X47462619Y-103221905D02*
X47462619Y-103602857D01*
X47462619Y-103602857D02*
X47510238Y-103698095D01*
X47510238Y-103698095D02*
X47557857Y-103745714D01*
X47557857Y-103745714D02*
X47653095Y-103793333D01*
X47653095Y-103793333D02*
X47795952Y-103793333D01*
X47795952Y-103793333D02*
X47891190Y-103745714D01*
X47891190Y-103745714D02*
X47938809Y-103698095D01*
X47938809Y-103698095D02*
X47986428Y-103602857D01*
X47986428Y-103602857D02*
X47986428Y-103221905D01*
X47557857Y-104174286D02*
X47510238Y-104221905D01*
X47510238Y-104221905D02*
X47462619Y-104317143D01*
X47462619Y-104317143D02*
X47462619Y-104555238D01*
X47462619Y-104555238D02*
X47510238Y-104650476D01*
X47510238Y-104650476D02*
X47557857Y-104698095D01*
X47557857Y-104698095D02*
X47653095Y-104745714D01*
X47653095Y-104745714D02*
X47748333Y-104745714D01*
X47748333Y-104745714D02*
X47891190Y-104698095D01*
X47891190Y-104698095D02*
X48462619Y-104126667D01*
X48462619Y-104126667D02*
X48462619Y-104745714D01*
%TO.C,D6*%
X77712619Y-82261905D02*
X76712619Y-82261905D01*
X76712619Y-82261905D02*
X76712619Y-82500000D01*
X76712619Y-82500000D02*
X76760238Y-82642857D01*
X76760238Y-82642857D02*
X76855476Y-82738095D01*
X76855476Y-82738095D02*
X76950714Y-82785714D01*
X76950714Y-82785714D02*
X77141190Y-82833333D01*
X77141190Y-82833333D02*
X77284047Y-82833333D01*
X77284047Y-82833333D02*
X77474523Y-82785714D01*
X77474523Y-82785714D02*
X77569761Y-82738095D01*
X77569761Y-82738095D02*
X77665000Y-82642857D01*
X77665000Y-82642857D02*
X77712619Y-82500000D01*
X77712619Y-82500000D02*
X77712619Y-82261905D01*
X76712619Y-83690476D02*
X76712619Y-83500000D01*
X76712619Y-83500000D02*
X76760238Y-83404762D01*
X76760238Y-83404762D02*
X76807857Y-83357143D01*
X76807857Y-83357143D02*
X76950714Y-83261905D01*
X76950714Y-83261905D02*
X77141190Y-83214286D01*
X77141190Y-83214286D02*
X77522142Y-83214286D01*
X77522142Y-83214286D02*
X77617380Y-83261905D01*
X77617380Y-83261905D02*
X77665000Y-83309524D01*
X77665000Y-83309524D02*
X77712619Y-83404762D01*
X77712619Y-83404762D02*
X77712619Y-83595238D01*
X77712619Y-83595238D02*
X77665000Y-83690476D01*
X77665000Y-83690476D02*
X77617380Y-83738095D01*
X77617380Y-83738095D02*
X77522142Y-83785714D01*
X77522142Y-83785714D02*
X77284047Y-83785714D01*
X77284047Y-83785714D02*
X77188809Y-83738095D01*
X77188809Y-83738095D02*
X77141190Y-83690476D01*
X77141190Y-83690476D02*
X77093571Y-83595238D01*
X77093571Y-83595238D02*
X77093571Y-83404762D01*
X77093571Y-83404762D02*
X77141190Y-83309524D01*
X77141190Y-83309524D02*
X77188809Y-83261905D01*
X77188809Y-83261905D02*
X77284047Y-83214286D01*
X77062619Y-81338095D02*
X76062619Y-81338095D01*
X77062619Y-81909523D02*
X76491190Y-81480952D01*
X76062619Y-81909523D02*
X76634047Y-81338095D01*
%TO.C,R10*%
X85432857Y-101962619D02*
X85766190Y-101486428D01*
X86004285Y-101962619D02*
X86004285Y-100962619D01*
X86004285Y-100962619D02*
X85623333Y-100962619D01*
X85623333Y-100962619D02*
X85528095Y-101010238D01*
X85528095Y-101010238D02*
X85480476Y-101057857D01*
X85480476Y-101057857D02*
X85432857Y-101153095D01*
X85432857Y-101153095D02*
X85432857Y-101295952D01*
X85432857Y-101295952D02*
X85480476Y-101391190D01*
X85480476Y-101391190D02*
X85528095Y-101438809D01*
X85528095Y-101438809D02*
X85623333Y-101486428D01*
X85623333Y-101486428D02*
X86004285Y-101486428D01*
X84480476Y-101962619D02*
X85051904Y-101962619D01*
X84766190Y-101962619D02*
X84766190Y-100962619D01*
X84766190Y-100962619D02*
X84861428Y-101105476D01*
X84861428Y-101105476D02*
X84956666Y-101200714D01*
X84956666Y-101200714D02*
X85051904Y-101248333D01*
X83861428Y-100962619D02*
X83766190Y-100962619D01*
X83766190Y-100962619D02*
X83670952Y-101010238D01*
X83670952Y-101010238D02*
X83623333Y-101057857D01*
X83623333Y-101057857D02*
X83575714Y-101153095D01*
X83575714Y-101153095D02*
X83528095Y-101343571D01*
X83528095Y-101343571D02*
X83528095Y-101581666D01*
X83528095Y-101581666D02*
X83575714Y-101772142D01*
X83575714Y-101772142D02*
X83623333Y-101867380D01*
X83623333Y-101867380D02*
X83670952Y-101915000D01*
X83670952Y-101915000D02*
X83766190Y-101962619D01*
X83766190Y-101962619D02*
X83861428Y-101962619D01*
X83861428Y-101962619D02*
X83956666Y-101915000D01*
X83956666Y-101915000D02*
X84004285Y-101867380D01*
X84004285Y-101867380D02*
X84051904Y-101772142D01*
X84051904Y-101772142D02*
X84099523Y-101581666D01*
X84099523Y-101581666D02*
X84099523Y-101343571D01*
X84099523Y-101343571D02*
X84051904Y-101153095D01*
X84051904Y-101153095D02*
X84004285Y-101057857D01*
X84004285Y-101057857D02*
X83956666Y-101010238D01*
X83956666Y-101010238D02*
X83861428Y-100962619D01*
%TO.C,R22*%
X86642857Y-78212619D02*
X86976190Y-77736428D01*
X87214285Y-78212619D02*
X87214285Y-77212619D01*
X87214285Y-77212619D02*
X86833333Y-77212619D01*
X86833333Y-77212619D02*
X86738095Y-77260238D01*
X86738095Y-77260238D02*
X86690476Y-77307857D01*
X86690476Y-77307857D02*
X86642857Y-77403095D01*
X86642857Y-77403095D02*
X86642857Y-77545952D01*
X86642857Y-77545952D02*
X86690476Y-77641190D01*
X86690476Y-77641190D02*
X86738095Y-77688809D01*
X86738095Y-77688809D02*
X86833333Y-77736428D01*
X86833333Y-77736428D02*
X87214285Y-77736428D01*
X86261904Y-77307857D02*
X86214285Y-77260238D01*
X86214285Y-77260238D02*
X86119047Y-77212619D01*
X86119047Y-77212619D02*
X85880952Y-77212619D01*
X85880952Y-77212619D02*
X85785714Y-77260238D01*
X85785714Y-77260238D02*
X85738095Y-77307857D01*
X85738095Y-77307857D02*
X85690476Y-77403095D01*
X85690476Y-77403095D02*
X85690476Y-77498333D01*
X85690476Y-77498333D02*
X85738095Y-77641190D01*
X85738095Y-77641190D02*
X86309523Y-78212619D01*
X86309523Y-78212619D02*
X85690476Y-78212619D01*
X85309523Y-77307857D02*
X85261904Y-77260238D01*
X85261904Y-77260238D02*
X85166666Y-77212619D01*
X85166666Y-77212619D02*
X84928571Y-77212619D01*
X84928571Y-77212619D02*
X84833333Y-77260238D01*
X84833333Y-77260238D02*
X84785714Y-77307857D01*
X84785714Y-77307857D02*
X84738095Y-77403095D01*
X84738095Y-77403095D02*
X84738095Y-77498333D01*
X84738095Y-77498333D02*
X84785714Y-77641190D01*
X84785714Y-77641190D02*
X85357142Y-78212619D01*
X85357142Y-78212619D02*
X84738095Y-78212619D01*
%TO.C,C8*%
X68867380Y-94333333D02*
X68915000Y-94285714D01*
X68915000Y-94285714D02*
X68962619Y-94142857D01*
X68962619Y-94142857D02*
X68962619Y-94047619D01*
X68962619Y-94047619D02*
X68915000Y-93904762D01*
X68915000Y-93904762D02*
X68819761Y-93809524D01*
X68819761Y-93809524D02*
X68724523Y-93761905D01*
X68724523Y-93761905D02*
X68534047Y-93714286D01*
X68534047Y-93714286D02*
X68391190Y-93714286D01*
X68391190Y-93714286D02*
X68200714Y-93761905D01*
X68200714Y-93761905D02*
X68105476Y-93809524D01*
X68105476Y-93809524D02*
X68010238Y-93904762D01*
X68010238Y-93904762D02*
X67962619Y-94047619D01*
X67962619Y-94047619D02*
X67962619Y-94142857D01*
X67962619Y-94142857D02*
X68010238Y-94285714D01*
X68010238Y-94285714D02*
X68057857Y-94333333D01*
X68391190Y-94904762D02*
X68343571Y-94809524D01*
X68343571Y-94809524D02*
X68295952Y-94761905D01*
X68295952Y-94761905D02*
X68200714Y-94714286D01*
X68200714Y-94714286D02*
X68153095Y-94714286D01*
X68153095Y-94714286D02*
X68057857Y-94761905D01*
X68057857Y-94761905D02*
X68010238Y-94809524D01*
X68010238Y-94809524D02*
X67962619Y-94904762D01*
X67962619Y-94904762D02*
X67962619Y-95095238D01*
X67962619Y-95095238D02*
X68010238Y-95190476D01*
X68010238Y-95190476D02*
X68057857Y-95238095D01*
X68057857Y-95238095D02*
X68153095Y-95285714D01*
X68153095Y-95285714D02*
X68200714Y-95285714D01*
X68200714Y-95285714D02*
X68295952Y-95238095D01*
X68295952Y-95238095D02*
X68343571Y-95190476D01*
X68343571Y-95190476D02*
X68391190Y-95095238D01*
X68391190Y-95095238D02*
X68391190Y-94904762D01*
X68391190Y-94904762D02*
X68438809Y-94809524D01*
X68438809Y-94809524D02*
X68486428Y-94761905D01*
X68486428Y-94761905D02*
X68581666Y-94714286D01*
X68581666Y-94714286D02*
X68772142Y-94714286D01*
X68772142Y-94714286D02*
X68867380Y-94761905D01*
X68867380Y-94761905D02*
X68915000Y-94809524D01*
X68915000Y-94809524D02*
X68962619Y-94904762D01*
X68962619Y-94904762D02*
X68962619Y-95095238D01*
X68962619Y-95095238D02*
X68915000Y-95190476D01*
X68915000Y-95190476D02*
X68867380Y-95238095D01*
X68867380Y-95238095D02*
X68772142Y-95285714D01*
X68772142Y-95285714D02*
X68581666Y-95285714D01*
X68581666Y-95285714D02*
X68486428Y-95238095D01*
X68486428Y-95238095D02*
X68438809Y-95190476D01*
X68438809Y-95190476D02*
X68391190Y-95095238D01*
%TO.C,C11*%
X100617380Y-80607142D02*
X100665000Y-80559523D01*
X100665000Y-80559523D02*
X100712619Y-80416666D01*
X100712619Y-80416666D02*
X100712619Y-80321428D01*
X100712619Y-80321428D02*
X100665000Y-80178571D01*
X100665000Y-80178571D02*
X100569761Y-80083333D01*
X100569761Y-80083333D02*
X100474523Y-80035714D01*
X100474523Y-80035714D02*
X100284047Y-79988095D01*
X100284047Y-79988095D02*
X100141190Y-79988095D01*
X100141190Y-79988095D02*
X99950714Y-80035714D01*
X99950714Y-80035714D02*
X99855476Y-80083333D01*
X99855476Y-80083333D02*
X99760238Y-80178571D01*
X99760238Y-80178571D02*
X99712619Y-80321428D01*
X99712619Y-80321428D02*
X99712619Y-80416666D01*
X99712619Y-80416666D02*
X99760238Y-80559523D01*
X99760238Y-80559523D02*
X99807857Y-80607142D01*
X100712619Y-81559523D02*
X100712619Y-80988095D01*
X100712619Y-81273809D02*
X99712619Y-81273809D01*
X99712619Y-81273809D02*
X99855476Y-81178571D01*
X99855476Y-81178571D02*
X99950714Y-81083333D01*
X99950714Y-81083333D02*
X99998333Y-80988095D01*
X100712619Y-82511904D02*
X100712619Y-81940476D01*
X100712619Y-82226190D02*
X99712619Y-82226190D01*
X99712619Y-82226190D02*
X99855476Y-82130952D01*
X99855476Y-82130952D02*
X99950714Y-82035714D01*
X99950714Y-82035714D02*
X99998333Y-81940476D01*
%TO.C,R15*%
X81352857Y-90712619D02*
X81686190Y-90236428D01*
X81924285Y-90712619D02*
X81924285Y-89712619D01*
X81924285Y-89712619D02*
X81543333Y-89712619D01*
X81543333Y-89712619D02*
X81448095Y-89760238D01*
X81448095Y-89760238D02*
X81400476Y-89807857D01*
X81400476Y-89807857D02*
X81352857Y-89903095D01*
X81352857Y-89903095D02*
X81352857Y-90045952D01*
X81352857Y-90045952D02*
X81400476Y-90141190D01*
X81400476Y-90141190D02*
X81448095Y-90188809D01*
X81448095Y-90188809D02*
X81543333Y-90236428D01*
X81543333Y-90236428D02*
X81924285Y-90236428D01*
X80400476Y-90712619D02*
X80971904Y-90712619D01*
X80686190Y-90712619D02*
X80686190Y-89712619D01*
X80686190Y-89712619D02*
X80781428Y-89855476D01*
X80781428Y-89855476D02*
X80876666Y-89950714D01*
X80876666Y-89950714D02*
X80971904Y-89998333D01*
X79495714Y-89712619D02*
X79971904Y-89712619D01*
X79971904Y-89712619D02*
X80019523Y-90188809D01*
X80019523Y-90188809D02*
X79971904Y-90141190D01*
X79971904Y-90141190D02*
X79876666Y-90093571D01*
X79876666Y-90093571D02*
X79638571Y-90093571D01*
X79638571Y-90093571D02*
X79543333Y-90141190D01*
X79543333Y-90141190D02*
X79495714Y-90188809D01*
X79495714Y-90188809D02*
X79448095Y-90284047D01*
X79448095Y-90284047D02*
X79448095Y-90522142D01*
X79448095Y-90522142D02*
X79495714Y-90617380D01*
X79495714Y-90617380D02*
X79543333Y-90665000D01*
X79543333Y-90665000D02*
X79638571Y-90712619D01*
X79638571Y-90712619D02*
X79876666Y-90712619D01*
X79876666Y-90712619D02*
X79971904Y-90665000D01*
X79971904Y-90665000D02*
X80019523Y-90617380D01*
%TO.C,C24*%
X69617380Y-59107142D02*
X69665000Y-59059523D01*
X69665000Y-59059523D02*
X69712619Y-58916666D01*
X69712619Y-58916666D02*
X69712619Y-58821428D01*
X69712619Y-58821428D02*
X69665000Y-58678571D01*
X69665000Y-58678571D02*
X69569761Y-58583333D01*
X69569761Y-58583333D02*
X69474523Y-58535714D01*
X69474523Y-58535714D02*
X69284047Y-58488095D01*
X69284047Y-58488095D02*
X69141190Y-58488095D01*
X69141190Y-58488095D02*
X68950714Y-58535714D01*
X68950714Y-58535714D02*
X68855476Y-58583333D01*
X68855476Y-58583333D02*
X68760238Y-58678571D01*
X68760238Y-58678571D02*
X68712619Y-58821428D01*
X68712619Y-58821428D02*
X68712619Y-58916666D01*
X68712619Y-58916666D02*
X68760238Y-59059523D01*
X68760238Y-59059523D02*
X68807857Y-59107142D01*
X68807857Y-59488095D02*
X68760238Y-59535714D01*
X68760238Y-59535714D02*
X68712619Y-59630952D01*
X68712619Y-59630952D02*
X68712619Y-59869047D01*
X68712619Y-59869047D02*
X68760238Y-59964285D01*
X68760238Y-59964285D02*
X68807857Y-60011904D01*
X68807857Y-60011904D02*
X68903095Y-60059523D01*
X68903095Y-60059523D02*
X68998333Y-60059523D01*
X68998333Y-60059523D02*
X69141190Y-60011904D01*
X69141190Y-60011904D02*
X69712619Y-59440476D01*
X69712619Y-59440476D02*
X69712619Y-60059523D01*
X69045952Y-60916666D02*
X69712619Y-60916666D01*
X68665000Y-60678571D02*
X69379285Y-60440476D01*
X69379285Y-60440476D02*
X69379285Y-61059523D01*
%TO.C,R5*%
X93476666Y-101462619D02*
X93809999Y-100986428D01*
X94048094Y-101462619D02*
X94048094Y-100462619D01*
X94048094Y-100462619D02*
X93667142Y-100462619D01*
X93667142Y-100462619D02*
X93571904Y-100510238D01*
X93571904Y-100510238D02*
X93524285Y-100557857D01*
X93524285Y-100557857D02*
X93476666Y-100653095D01*
X93476666Y-100653095D02*
X93476666Y-100795952D01*
X93476666Y-100795952D02*
X93524285Y-100891190D01*
X93524285Y-100891190D02*
X93571904Y-100938809D01*
X93571904Y-100938809D02*
X93667142Y-100986428D01*
X93667142Y-100986428D02*
X94048094Y-100986428D01*
X92571904Y-100462619D02*
X93048094Y-100462619D01*
X93048094Y-100462619D02*
X93095713Y-100938809D01*
X93095713Y-100938809D02*
X93048094Y-100891190D01*
X93048094Y-100891190D02*
X92952856Y-100843571D01*
X92952856Y-100843571D02*
X92714761Y-100843571D01*
X92714761Y-100843571D02*
X92619523Y-100891190D01*
X92619523Y-100891190D02*
X92571904Y-100938809D01*
X92571904Y-100938809D02*
X92524285Y-101034047D01*
X92524285Y-101034047D02*
X92524285Y-101272142D01*
X92524285Y-101272142D02*
X92571904Y-101367380D01*
X92571904Y-101367380D02*
X92619523Y-101415000D01*
X92619523Y-101415000D02*
X92714761Y-101462619D01*
X92714761Y-101462619D02*
X92952856Y-101462619D01*
X92952856Y-101462619D02*
X93048094Y-101415000D01*
X93048094Y-101415000D02*
X93095713Y-101367380D01*
%TO.C,D4*%
X89212619Y-83761905D02*
X88212619Y-83761905D01*
X88212619Y-83761905D02*
X88212619Y-84000000D01*
X88212619Y-84000000D02*
X88260238Y-84142857D01*
X88260238Y-84142857D02*
X88355476Y-84238095D01*
X88355476Y-84238095D02*
X88450714Y-84285714D01*
X88450714Y-84285714D02*
X88641190Y-84333333D01*
X88641190Y-84333333D02*
X88784047Y-84333333D01*
X88784047Y-84333333D02*
X88974523Y-84285714D01*
X88974523Y-84285714D02*
X89069761Y-84238095D01*
X89069761Y-84238095D02*
X89165000Y-84142857D01*
X89165000Y-84142857D02*
X89212619Y-84000000D01*
X89212619Y-84000000D02*
X89212619Y-83761905D01*
X88545952Y-85190476D02*
X89212619Y-85190476D01*
X88165000Y-84952381D02*
X88879285Y-84714286D01*
X88879285Y-84714286D02*
X88879285Y-85333333D01*
X89212619Y-82488095D02*
X88212619Y-82488095D01*
X89212619Y-83059523D02*
X88641190Y-82630952D01*
X88212619Y-83059523D02*
X88784047Y-82488095D01*
%TO.C,C20*%
X77392857Y-61867380D02*
X77440476Y-61915000D01*
X77440476Y-61915000D02*
X77583333Y-61962619D01*
X77583333Y-61962619D02*
X77678571Y-61962619D01*
X77678571Y-61962619D02*
X77821428Y-61915000D01*
X77821428Y-61915000D02*
X77916666Y-61819761D01*
X77916666Y-61819761D02*
X77964285Y-61724523D01*
X77964285Y-61724523D02*
X78011904Y-61534047D01*
X78011904Y-61534047D02*
X78011904Y-61391190D01*
X78011904Y-61391190D02*
X77964285Y-61200714D01*
X77964285Y-61200714D02*
X77916666Y-61105476D01*
X77916666Y-61105476D02*
X77821428Y-61010238D01*
X77821428Y-61010238D02*
X77678571Y-60962619D01*
X77678571Y-60962619D02*
X77583333Y-60962619D01*
X77583333Y-60962619D02*
X77440476Y-61010238D01*
X77440476Y-61010238D02*
X77392857Y-61057857D01*
X77011904Y-61057857D02*
X76964285Y-61010238D01*
X76964285Y-61010238D02*
X76869047Y-60962619D01*
X76869047Y-60962619D02*
X76630952Y-60962619D01*
X76630952Y-60962619D02*
X76535714Y-61010238D01*
X76535714Y-61010238D02*
X76488095Y-61057857D01*
X76488095Y-61057857D02*
X76440476Y-61153095D01*
X76440476Y-61153095D02*
X76440476Y-61248333D01*
X76440476Y-61248333D02*
X76488095Y-61391190D01*
X76488095Y-61391190D02*
X77059523Y-61962619D01*
X77059523Y-61962619D02*
X76440476Y-61962619D01*
X75821428Y-60962619D02*
X75726190Y-60962619D01*
X75726190Y-60962619D02*
X75630952Y-61010238D01*
X75630952Y-61010238D02*
X75583333Y-61057857D01*
X75583333Y-61057857D02*
X75535714Y-61153095D01*
X75535714Y-61153095D02*
X75488095Y-61343571D01*
X75488095Y-61343571D02*
X75488095Y-61581666D01*
X75488095Y-61581666D02*
X75535714Y-61772142D01*
X75535714Y-61772142D02*
X75583333Y-61867380D01*
X75583333Y-61867380D02*
X75630952Y-61915000D01*
X75630952Y-61915000D02*
X75726190Y-61962619D01*
X75726190Y-61962619D02*
X75821428Y-61962619D01*
X75821428Y-61962619D02*
X75916666Y-61915000D01*
X75916666Y-61915000D02*
X75964285Y-61867380D01*
X75964285Y-61867380D02*
X76011904Y-61772142D01*
X76011904Y-61772142D02*
X76059523Y-61581666D01*
X76059523Y-61581666D02*
X76059523Y-61343571D01*
X76059523Y-61343571D02*
X76011904Y-61153095D01*
X76011904Y-61153095D02*
X75964285Y-61057857D01*
X75964285Y-61057857D02*
X75916666Y-61010238D01*
X75916666Y-61010238D02*
X75821428Y-60962619D01*
%TO.C,R12*%
X100962619Y-109107142D02*
X100486428Y-108773809D01*
X100962619Y-108535714D02*
X99962619Y-108535714D01*
X99962619Y-108535714D02*
X99962619Y-108916666D01*
X99962619Y-108916666D02*
X100010238Y-109011904D01*
X100010238Y-109011904D02*
X100057857Y-109059523D01*
X100057857Y-109059523D02*
X100153095Y-109107142D01*
X100153095Y-109107142D02*
X100295952Y-109107142D01*
X100295952Y-109107142D02*
X100391190Y-109059523D01*
X100391190Y-109059523D02*
X100438809Y-109011904D01*
X100438809Y-109011904D02*
X100486428Y-108916666D01*
X100486428Y-108916666D02*
X100486428Y-108535714D01*
X100962619Y-110059523D02*
X100962619Y-109488095D01*
X100962619Y-109773809D02*
X99962619Y-109773809D01*
X99962619Y-109773809D02*
X100105476Y-109678571D01*
X100105476Y-109678571D02*
X100200714Y-109583333D01*
X100200714Y-109583333D02*
X100248333Y-109488095D01*
X100057857Y-110440476D02*
X100010238Y-110488095D01*
X100010238Y-110488095D02*
X99962619Y-110583333D01*
X99962619Y-110583333D02*
X99962619Y-110821428D01*
X99962619Y-110821428D02*
X100010238Y-110916666D01*
X100010238Y-110916666D02*
X100057857Y-110964285D01*
X100057857Y-110964285D02*
X100153095Y-111011904D01*
X100153095Y-111011904D02*
X100248333Y-111011904D01*
X100248333Y-111011904D02*
X100391190Y-110964285D01*
X100391190Y-110964285D02*
X100962619Y-110392857D01*
X100962619Y-110392857D02*
X100962619Y-111011904D01*
%TO.C,Q1*%
X77095238Y-102557857D02*
X77190476Y-102510238D01*
X77190476Y-102510238D02*
X77285714Y-102415000D01*
X77285714Y-102415000D02*
X77428571Y-102272142D01*
X77428571Y-102272142D02*
X77523809Y-102224523D01*
X77523809Y-102224523D02*
X77619047Y-102224523D01*
X77571428Y-102462619D02*
X77666666Y-102415000D01*
X77666666Y-102415000D02*
X77761904Y-102319761D01*
X77761904Y-102319761D02*
X77809523Y-102129285D01*
X77809523Y-102129285D02*
X77809523Y-101795952D01*
X77809523Y-101795952D02*
X77761904Y-101605476D01*
X77761904Y-101605476D02*
X77666666Y-101510238D01*
X77666666Y-101510238D02*
X77571428Y-101462619D01*
X77571428Y-101462619D02*
X77380952Y-101462619D01*
X77380952Y-101462619D02*
X77285714Y-101510238D01*
X77285714Y-101510238D02*
X77190476Y-101605476D01*
X77190476Y-101605476D02*
X77142857Y-101795952D01*
X77142857Y-101795952D02*
X77142857Y-102129285D01*
X77142857Y-102129285D02*
X77190476Y-102319761D01*
X77190476Y-102319761D02*
X77285714Y-102415000D01*
X77285714Y-102415000D02*
X77380952Y-102462619D01*
X77380952Y-102462619D02*
X77571428Y-102462619D01*
X76190476Y-102462619D02*
X76761904Y-102462619D01*
X76476190Y-102462619D02*
X76476190Y-101462619D01*
X76476190Y-101462619D02*
X76571428Y-101605476D01*
X76571428Y-101605476D02*
X76666666Y-101700714D01*
X76666666Y-101700714D02*
X76761904Y-101748333D01*
%TO.C,C16*%
X65117380Y-77107142D02*
X65165000Y-77059523D01*
X65165000Y-77059523D02*
X65212619Y-76916666D01*
X65212619Y-76916666D02*
X65212619Y-76821428D01*
X65212619Y-76821428D02*
X65165000Y-76678571D01*
X65165000Y-76678571D02*
X65069761Y-76583333D01*
X65069761Y-76583333D02*
X64974523Y-76535714D01*
X64974523Y-76535714D02*
X64784047Y-76488095D01*
X64784047Y-76488095D02*
X64641190Y-76488095D01*
X64641190Y-76488095D02*
X64450714Y-76535714D01*
X64450714Y-76535714D02*
X64355476Y-76583333D01*
X64355476Y-76583333D02*
X64260238Y-76678571D01*
X64260238Y-76678571D02*
X64212619Y-76821428D01*
X64212619Y-76821428D02*
X64212619Y-76916666D01*
X64212619Y-76916666D02*
X64260238Y-77059523D01*
X64260238Y-77059523D02*
X64307857Y-77107142D01*
X65212619Y-78059523D02*
X65212619Y-77488095D01*
X65212619Y-77773809D02*
X64212619Y-77773809D01*
X64212619Y-77773809D02*
X64355476Y-77678571D01*
X64355476Y-77678571D02*
X64450714Y-77583333D01*
X64450714Y-77583333D02*
X64498333Y-77488095D01*
X64212619Y-78916666D02*
X64212619Y-78726190D01*
X64212619Y-78726190D02*
X64260238Y-78630952D01*
X64260238Y-78630952D02*
X64307857Y-78583333D01*
X64307857Y-78583333D02*
X64450714Y-78488095D01*
X64450714Y-78488095D02*
X64641190Y-78440476D01*
X64641190Y-78440476D02*
X65022142Y-78440476D01*
X65022142Y-78440476D02*
X65117380Y-78488095D01*
X65117380Y-78488095D02*
X65165000Y-78535714D01*
X65165000Y-78535714D02*
X65212619Y-78630952D01*
X65212619Y-78630952D02*
X65212619Y-78821428D01*
X65212619Y-78821428D02*
X65165000Y-78916666D01*
X65165000Y-78916666D02*
X65117380Y-78964285D01*
X65117380Y-78964285D02*
X65022142Y-79011904D01*
X65022142Y-79011904D02*
X64784047Y-79011904D01*
X64784047Y-79011904D02*
X64688809Y-78964285D01*
X64688809Y-78964285D02*
X64641190Y-78916666D01*
X64641190Y-78916666D02*
X64593571Y-78821428D01*
X64593571Y-78821428D02*
X64593571Y-78630952D01*
X64593571Y-78630952D02*
X64641190Y-78535714D01*
X64641190Y-78535714D02*
X64688809Y-78488095D01*
X64688809Y-78488095D02*
X64784047Y-78440476D01*
%TO.C,R14*%
X72462619Y-93897142D02*
X71986428Y-93563809D01*
X72462619Y-93325714D02*
X71462619Y-93325714D01*
X71462619Y-93325714D02*
X71462619Y-93706666D01*
X71462619Y-93706666D02*
X71510238Y-93801904D01*
X71510238Y-93801904D02*
X71557857Y-93849523D01*
X71557857Y-93849523D02*
X71653095Y-93897142D01*
X71653095Y-93897142D02*
X71795952Y-93897142D01*
X71795952Y-93897142D02*
X71891190Y-93849523D01*
X71891190Y-93849523D02*
X71938809Y-93801904D01*
X71938809Y-93801904D02*
X71986428Y-93706666D01*
X71986428Y-93706666D02*
X71986428Y-93325714D01*
X72462619Y-94849523D02*
X72462619Y-94278095D01*
X72462619Y-94563809D02*
X71462619Y-94563809D01*
X71462619Y-94563809D02*
X71605476Y-94468571D01*
X71605476Y-94468571D02*
X71700714Y-94373333D01*
X71700714Y-94373333D02*
X71748333Y-94278095D01*
X71795952Y-95706666D02*
X72462619Y-95706666D01*
X71415000Y-95468571D02*
X72129285Y-95230476D01*
X72129285Y-95230476D02*
X72129285Y-95849523D01*
%TO.C,C19*%
X94142857Y-57617380D02*
X94190476Y-57665000D01*
X94190476Y-57665000D02*
X94333333Y-57712619D01*
X94333333Y-57712619D02*
X94428571Y-57712619D01*
X94428571Y-57712619D02*
X94571428Y-57665000D01*
X94571428Y-57665000D02*
X94666666Y-57569761D01*
X94666666Y-57569761D02*
X94714285Y-57474523D01*
X94714285Y-57474523D02*
X94761904Y-57284047D01*
X94761904Y-57284047D02*
X94761904Y-57141190D01*
X94761904Y-57141190D02*
X94714285Y-56950714D01*
X94714285Y-56950714D02*
X94666666Y-56855476D01*
X94666666Y-56855476D02*
X94571428Y-56760238D01*
X94571428Y-56760238D02*
X94428571Y-56712619D01*
X94428571Y-56712619D02*
X94333333Y-56712619D01*
X94333333Y-56712619D02*
X94190476Y-56760238D01*
X94190476Y-56760238D02*
X94142857Y-56807857D01*
X93190476Y-57712619D02*
X93761904Y-57712619D01*
X93476190Y-57712619D02*
X93476190Y-56712619D01*
X93476190Y-56712619D02*
X93571428Y-56855476D01*
X93571428Y-56855476D02*
X93666666Y-56950714D01*
X93666666Y-56950714D02*
X93761904Y-56998333D01*
X92714285Y-57712619D02*
X92523809Y-57712619D01*
X92523809Y-57712619D02*
X92428571Y-57665000D01*
X92428571Y-57665000D02*
X92380952Y-57617380D01*
X92380952Y-57617380D02*
X92285714Y-57474523D01*
X92285714Y-57474523D02*
X92238095Y-57284047D01*
X92238095Y-57284047D02*
X92238095Y-56903095D01*
X92238095Y-56903095D02*
X92285714Y-56807857D01*
X92285714Y-56807857D02*
X92333333Y-56760238D01*
X92333333Y-56760238D02*
X92428571Y-56712619D01*
X92428571Y-56712619D02*
X92619047Y-56712619D01*
X92619047Y-56712619D02*
X92714285Y-56760238D01*
X92714285Y-56760238D02*
X92761904Y-56807857D01*
X92761904Y-56807857D02*
X92809523Y-56903095D01*
X92809523Y-56903095D02*
X92809523Y-57141190D01*
X92809523Y-57141190D02*
X92761904Y-57236428D01*
X92761904Y-57236428D02*
X92714285Y-57284047D01*
X92714285Y-57284047D02*
X92619047Y-57331666D01*
X92619047Y-57331666D02*
X92428571Y-57331666D01*
X92428571Y-57331666D02*
X92333333Y-57284047D01*
X92333333Y-57284047D02*
X92285714Y-57236428D01*
X92285714Y-57236428D02*
X92238095Y-57141190D01*
%TO.C,C9*%
X90916666Y-93617380D02*
X90964285Y-93665000D01*
X90964285Y-93665000D02*
X91107142Y-93712619D01*
X91107142Y-93712619D02*
X91202380Y-93712619D01*
X91202380Y-93712619D02*
X91345237Y-93665000D01*
X91345237Y-93665000D02*
X91440475Y-93569761D01*
X91440475Y-93569761D02*
X91488094Y-93474523D01*
X91488094Y-93474523D02*
X91535713Y-93284047D01*
X91535713Y-93284047D02*
X91535713Y-93141190D01*
X91535713Y-93141190D02*
X91488094Y-92950714D01*
X91488094Y-92950714D02*
X91440475Y-92855476D01*
X91440475Y-92855476D02*
X91345237Y-92760238D01*
X91345237Y-92760238D02*
X91202380Y-92712619D01*
X91202380Y-92712619D02*
X91107142Y-92712619D01*
X91107142Y-92712619D02*
X90964285Y-92760238D01*
X90964285Y-92760238D02*
X90916666Y-92807857D01*
X90440475Y-93712619D02*
X90249999Y-93712619D01*
X90249999Y-93712619D02*
X90154761Y-93665000D01*
X90154761Y-93665000D02*
X90107142Y-93617380D01*
X90107142Y-93617380D02*
X90011904Y-93474523D01*
X90011904Y-93474523D02*
X89964285Y-93284047D01*
X89964285Y-93284047D02*
X89964285Y-92903095D01*
X89964285Y-92903095D02*
X90011904Y-92807857D01*
X90011904Y-92807857D02*
X90059523Y-92760238D01*
X90059523Y-92760238D02*
X90154761Y-92712619D01*
X90154761Y-92712619D02*
X90345237Y-92712619D01*
X90345237Y-92712619D02*
X90440475Y-92760238D01*
X90440475Y-92760238D02*
X90488094Y-92807857D01*
X90488094Y-92807857D02*
X90535713Y-92903095D01*
X90535713Y-92903095D02*
X90535713Y-93141190D01*
X90535713Y-93141190D02*
X90488094Y-93236428D01*
X90488094Y-93236428D02*
X90440475Y-93284047D01*
X90440475Y-93284047D02*
X90345237Y-93331666D01*
X90345237Y-93331666D02*
X90154761Y-93331666D01*
X90154761Y-93331666D02*
X90059523Y-93284047D01*
X90059523Y-93284047D02*
X90011904Y-93236428D01*
X90011904Y-93236428D02*
X89964285Y-93141190D01*
%TO.C,C18*%
X98867380Y-66357142D02*
X98915000Y-66309523D01*
X98915000Y-66309523D02*
X98962619Y-66166666D01*
X98962619Y-66166666D02*
X98962619Y-66071428D01*
X98962619Y-66071428D02*
X98915000Y-65928571D01*
X98915000Y-65928571D02*
X98819761Y-65833333D01*
X98819761Y-65833333D02*
X98724523Y-65785714D01*
X98724523Y-65785714D02*
X98534047Y-65738095D01*
X98534047Y-65738095D02*
X98391190Y-65738095D01*
X98391190Y-65738095D02*
X98200714Y-65785714D01*
X98200714Y-65785714D02*
X98105476Y-65833333D01*
X98105476Y-65833333D02*
X98010238Y-65928571D01*
X98010238Y-65928571D02*
X97962619Y-66071428D01*
X97962619Y-66071428D02*
X97962619Y-66166666D01*
X97962619Y-66166666D02*
X98010238Y-66309523D01*
X98010238Y-66309523D02*
X98057857Y-66357142D01*
X98962619Y-67309523D02*
X98962619Y-66738095D01*
X98962619Y-67023809D02*
X97962619Y-67023809D01*
X97962619Y-67023809D02*
X98105476Y-66928571D01*
X98105476Y-66928571D02*
X98200714Y-66833333D01*
X98200714Y-66833333D02*
X98248333Y-66738095D01*
X98391190Y-67880952D02*
X98343571Y-67785714D01*
X98343571Y-67785714D02*
X98295952Y-67738095D01*
X98295952Y-67738095D02*
X98200714Y-67690476D01*
X98200714Y-67690476D02*
X98153095Y-67690476D01*
X98153095Y-67690476D02*
X98057857Y-67738095D01*
X98057857Y-67738095D02*
X98010238Y-67785714D01*
X98010238Y-67785714D02*
X97962619Y-67880952D01*
X97962619Y-67880952D02*
X97962619Y-68071428D01*
X97962619Y-68071428D02*
X98010238Y-68166666D01*
X98010238Y-68166666D02*
X98057857Y-68214285D01*
X98057857Y-68214285D02*
X98153095Y-68261904D01*
X98153095Y-68261904D02*
X98200714Y-68261904D01*
X98200714Y-68261904D02*
X98295952Y-68214285D01*
X98295952Y-68214285D02*
X98343571Y-68166666D01*
X98343571Y-68166666D02*
X98391190Y-68071428D01*
X98391190Y-68071428D02*
X98391190Y-67880952D01*
X98391190Y-67880952D02*
X98438809Y-67785714D01*
X98438809Y-67785714D02*
X98486428Y-67738095D01*
X98486428Y-67738095D02*
X98581666Y-67690476D01*
X98581666Y-67690476D02*
X98772142Y-67690476D01*
X98772142Y-67690476D02*
X98867380Y-67738095D01*
X98867380Y-67738095D02*
X98915000Y-67785714D01*
X98915000Y-67785714D02*
X98962619Y-67880952D01*
X98962619Y-67880952D02*
X98962619Y-68071428D01*
X98962619Y-68071428D02*
X98915000Y-68166666D01*
X98915000Y-68166666D02*
X98867380Y-68214285D01*
X98867380Y-68214285D02*
X98772142Y-68261904D01*
X98772142Y-68261904D02*
X98581666Y-68261904D01*
X98581666Y-68261904D02*
X98486428Y-68214285D01*
X98486428Y-68214285D02*
X98438809Y-68166666D01*
X98438809Y-68166666D02*
X98391190Y-68071428D01*
%TO.C,R6*%
X77666666Y-107212619D02*
X77999999Y-106736428D01*
X78238094Y-107212619D02*
X78238094Y-106212619D01*
X78238094Y-106212619D02*
X77857142Y-106212619D01*
X77857142Y-106212619D02*
X77761904Y-106260238D01*
X77761904Y-106260238D02*
X77714285Y-106307857D01*
X77714285Y-106307857D02*
X77666666Y-106403095D01*
X77666666Y-106403095D02*
X77666666Y-106545952D01*
X77666666Y-106545952D02*
X77714285Y-106641190D01*
X77714285Y-106641190D02*
X77761904Y-106688809D01*
X77761904Y-106688809D02*
X77857142Y-106736428D01*
X77857142Y-106736428D02*
X78238094Y-106736428D01*
X76809523Y-106212619D02*
X76999999Y-106212619D01*
X76999999Y-106212619D02*
X77095237Y-106260238D01*
X77095237Y-106260238D02*
X77142856Y-106307857D01*
X77142856Y-106307857D02*
X77238094Y-106450714D01*
X77238094Y-106450714D02*
X77285713Y-106641190D01*
X77285713Y-106641190D02*
X77285713Y-107022142D01*
X77285713Y-107022142D02*
X77238094Y-107117380D01*
X77238094Y-107117380D02*
X77190475Y-107165000D01*
X77190475Y-107165000D02*
X77095237Y-107212619D01*
X77095237Y-107212619D02*
X76904761Y-107212619D01*
X76904761Y-107212619D02*
X76809523Y-107165000D01*
X76809523Y-107165000D02*
X76761904Y-107117380D01*
X76761904Y-107117380D02*
X76714285Y-107022142D01*
X76714285Y-107022142D02*
X76714285Y-106784047D01*
X76714285Y-106784047D02*
X76761904Y-106688809D01*
X76761904Y-106688809D02*
X76809523Y-106641190D01*
X76809523Y-106641190D02*
X76904761Y-106593571D01*
X76904761Y-106593571D02*
X77095237Y-106593571D01*
X77095237Y-106593571D02*
X77190475Y-106641190D01*
X77190475Y-106641190D02*
X77238094Y-106688809D01*
X77238094Y-106688809D02*
X77285713Y-106784047D01*
%TO.C,R11*%
X103212619Y-109357142D02*
X102736428Y-109023809D01*
X103212619Y-108785714D02*
X102212619Y-108785714D01*
X102212619Y-108785714D02*
X102212619Y-109166666D01*
X102212619Y-109166666D02*
X102260238Y-109261904D01*
X102260238Y-109261904D02*
X102307857Y-109309523D01*
X102307857Y-109309523D02*
X102403095Y-109357142D01*
X102403095Y-109357142D02*
X102545952Y-109357142D01*
X102545952Y-109357142D02*
X102641190Y-109309523D01*
X102641190Y-109309523D02*
X102688809Y-109261904D01*
X102688809Y-109261904D02*
X102736428Y-109166666D01*
X102736428Y-109166666D02*
X102736428Y-108785714D01*
X103212619Y-110309523D02*
X103212619Y-109738095D01*
X103212619Y-110023809D02*
X102212619Y-110023809D01*
X102212619Y-110023809D02*
X102355476Y-109928571D01*
X102355476Y-109928571D02*
X102450714Y-109833333D01*
X102450714Y-109833333D02*
X102498333Y-109738095D01*
X103212619Y-111261904D02*
X103212619Y-110690476D01*
X103212619Y-110976190D02*
X102212619Y-110976190D01*
X102212619Y-110976190D02*
X102355476Y-110880952D01*
X102355476Y-110880952D02*
X102450714Y-110785714D01*
X102450714Y-110785714D02*
X102498333Y-110690476D01*
%TO.C,R28*%
X93182857Y-62962619D02*
X93516190Y-62486428D01*
X93754285Y-62962619D02*
X93754285Y-61962619D01*
X93754285Y-61962619D02*
X93373333Y-61962619D01*
X93373333Y-61962619D02*
X93278095Y-62010238D01*
X93278095Y-62010238D02*
X93230476Y-62057857D01*
X93230476Y-62057857D02*
X93182857Y-62153095D01*
X93182857Y-62153095D02*
X93182857Y-62295952D01*
X93182857Y-62295952D02*
X93230476Y-62391190D01*
X93230476Y-62391190D02*
X93278095Y-62438809D01*
X93278095Y-62438809D02*
X93373333Y-62486428D01*
X93373333Y-62486428D02*
X93754285Y-62486428D01*
X92801904Y-62057857D02*
X92754285Y-62010238D01*
X92754285Y-62010238D02*
X92659047Y-61962619D01*
X92659047Y-61962619D02*
X92420952Y-61962619D01*
X92420952Y-61962619D02*
X92325714Y-62010238D01*
X92325714Y-62010238D02*
X92278095Y-62057857D01*
X92278095Y-62057857D02*
X92230476Y-62153095D01*
X92230476Y-62153095D02*
X92230476Y-62248333D01*
X92230476Y-62248333D02*
X92278095Y-62391190D01*
X92278095Y-62391190D02*
X92849523Y-62962619D01*
X92849523Y-62962619D02*
X92230476Y-62962619D01*
X91659047Y-62391190D02*
X91754285Y-62343571D01*
X91754285Y-62343571D02*
X91801904Y-62295952D01*
X91801904Y-62295952D02*
X91849523Y-62200714D01*
X91849523Y-62200714D02*
X91849523Y-62153095D01*
X91849523Y-62153095D02*
X91801904Y-62057857D01*
X91801904Y-62057857D02*
X91754285Y-62010238D01*
X91754285Y-62010238D02*
X91659047Y-61962619D01*
X91659047Y-61962619D02*
X91468571Y-61962619D01*
X91468571Y-61962619D02*
X91373333Y-62010238D01*
X91373333Y-62010238D02*
X91325714Y-62057857D01*
X91325714Y-62057857D02*
X91278095Y-62153095D01*
X91278095Y-62153095D02*
X91278095Y-62200714D01*
X91278095Y-62200714D02*
X91325714Y-62295952D01*
X91325714Y-62295952D02*
X91373333Y-62343571D01*
X91373333Y-62343571D02*
X91468571Y-62391190D01*
X91468571Y-62391190D02*
X91659047Y-62391190D01*
X91659047Y-62391190D02*
X91754285Y-62438809D01*
X91754285Y-62438809D02*
X91801904Y-62486428D01*
X91801904Y-62486428D02*
X91849523Y-62581666D01*
X91849523Y-62581666D02*
X91849523Y-62772142D01*
X91849523Y-62772142D02*
X91801904Y-62867380D01*
X91801904Y-62867380D02*
X91754285Y-62915000D01*
X91754285Y-62915000D02*
X91659047Y-62962619D01*
X91659047Y-62962619D02*
X91468571Y-62962619D01*
X91468571Y-62962619D02*
X91373333Y-62915000D01*
X91373333Y-62915000D02*
X91325714Y-62867380D01*
X91325714Y-62867380D02*
X91278095Y-62772142D01*
X91278095Y-62772142D02*
X91278095Y-62581666D01*
X91278095Y-62581666D02*
X91325714Y-62486428D01*
X91325714Y-62486428D02*
X91373333Y-62438809D01*
X91373333Y-62438809D02*
X91468571Y-62391190D01*
%TO.C,C22*%
X68847970Y-67117380D02*
X68895589Y-67165000D01*
X68895589Y-67165000D02*
X69038446Y-67212619D01*
X69038446Y-67212619D02*
X69133684Y-67212619D01*
X69133684Y-67212619D02*
X69276541Y-67165000D01*
X69276541Y-67165000D02*
X69371779Y-67069761D01*
X69371779Y-67069761D02*
X69419398Y-66974523D01*
X69419398Y-66974523D02*
X69467017Y-66784047D01*
X69467017Y-66784047D02*
X69467017Y-66641190D01*
X69467017Y-66641190D02*
X69419398Y-66450714D01*
X69419398Y-66450714D02*
X69371779Y-66355476D01*
X69371779Y-66355476D02*
X69276541Y-66260238D01*
X69276541Y-66260238D02*
X69133684Y-66212619D01*
X69133684Y-66212619D02*
X69038446Y-66212619D01*
X69038446Y-66212619D02*
X68895589Y-66260238D01*
X68895589Y-66260238D02*
X68847970Y-66307857D01*
X68467017Y-66307857D02*
X68419398Y-66260238D01*
X68419398Y-66260238D02*
X68324160Y-66212619D01*
X68324160Y-66212619D02*
X68086065Y-66212619D01*
X68086065Y-66212619D02*
X67990827Y-66260238D01*
X67990827Y-66260238D02*
X67943208Y-66307857D01*
X67943208Y-66307857D02*
X67895589Y-66403095D01*
X67895589Y-66403095D02*
X67895589Y-66498333D01*
X67895589Y-66498333D02*
X67943208Y-66641190D01*
X67943208Y-66641190D02*
X68514636Y-67212619D01*
X68514636Y-67212619D02*
X67895589Y-67212619D01*
X67514636Y-66307857D02*
X67467017Y-66260238D01*
X67467017Y-66260238D02*
X67371779Y-66212619D01*
X67371779Y-66212619D02*
X67133684Y-66212619D01*
X67133684Y-66212619D02*
X67038446Y-66260238D01*
X67038446Y-66260238D02*
X66990827Y-66307857D01*
X66990827Y-66307857D02*
X66943208Y-66403095D01*
X66943208Y-66403095D02*
X66943208Y-66498333D01*
X66943208Y-66498333D02*
X66990827Y-66641190D01*
X66990827Y-66641190D02*
X67562255Y-67212619D01*
X67562255Y-67212619D02*
X66943208Y-67212619D01*
%TO.C,C2*%
X49166666Y-114412268D02*
X49214285Y-114459888D01*
X49214285Y-114459888D02*
X49357142Y-114507507D01*
X49357142Y-114507507D02*
X49452380Y-114507507D01*
X49452380Y-114507507D02*
X49595237Y-114459888D01*
X49595237Y-114459888D02*
X49690475Y-114364649D01*
X49690475Y-114364649D02*
X49738094Y-114269411D01*
X49738094Y-114269411D02*
X49785713Y-114078935D01*
X49785713Y-114078935D02*
X49785713Y-113936078D01*
X49785713Y-113936078D02*
X49738094Y-113745602D01*
X49738094Y-113745602D02*
X49690475Y-113650364D01*
X49690475Y-113650364D02*
X49595237Y-113555126D01*
X49595237Y-113555126D02*
X49452380Y-113507507D01*
X49452380Y-113507507D02*
X49357142Y-113507507D01*
X49357142Y-113507507D02*
X49214285Y-113555126D01*
X49214285Y-113555126D02*
X49166666Y-113602745D01*
X48785713Y-113602745D02*
X48738094Y-113555126D01*
X48738094Y-113555126D02*
X48642856Y-113507507D01*
X48642856Y-113507507D02*
X48404761Y-113507507D01*
X48404761Y-113507507D02*
X48309523Y-113555126D01*
X48309523Y-113555126D02*
X48261904Y-113602745D01*
X48261904Y-113602745D02*
X48214285Y-113697983D01*
X48214285Y-113697983D02*
X48214285Y-113793221D01*
X48214285Y-113793221D02*
X48261904Y-113936078D01*
X48261904Y-113936078D02*
X48833332Y-114507507D01*
X48833332Y-114507507D02*
X48214285Y-114507507D01*
%TO.C,R21*%
X103212619Y-80647142D02*
X102736428Y-80313809D01*
X103212619Y-80075714D02*
X102212619Y-80075714D01*
X102212619Y-80075714D02*
X102212619Y-80456666D01*
X102212619Y-80456666D02*
X102260238Y-80551904D01*
X102260238Y-80551904D02*
X102307857Y-80599523D01*
X102307857Y-80599523D02*
X102403095Y-80647142D01*
X102403095Y-80647142D02*
X102545952Y-80647142D01*
X102545952Y-80647142D02*
X102641190Y-80599523D01*
X102641190Y-80599523D02*
X102688809Y-80551904D01*
X102688809Y-80551904D02*
X102736428Y-80456666D01*
X102736428Y-80456666D02*
X102736428Y-80075714D01*
X102307857Y-81028095D02*
X102260238Y-81075714D01*
X102260238Y-81075714D02*
X102212619Y-81170952D01*
X102212619Y-81170952D02*
X102212619Y-81409047D01*
X102212619Y-81409047D02*
X102260238Y-81504285D01*
X102260238Y-81504285D02*
X102307857Y-81551904D01*
X102307857Y-81551904D02*
X102403095Y-81599523D01*
X102403095Y-81599523D02*
X102498333Y-81599523D01*
X102498333Y-81599523D02*
X102641190Y-81551904D01*
X102641190Y-81551904D02*
X103212619Y-80980476D01*
X103212619Y-80980476D02*
X103212619Y-81599523D01*
X103212619Y-82551904D02*
X103212619Y-81980476D01*
X103212619Y-82266190D02*
X102212619Y-82266190D01*
X102212619Y-82266190D02*
X102355476Y-82170952D01*
X102355476Y-82170952D02*
X102450714Y-82075714D01*
X102450714Y-82075714D02*
X102498333Y-81980476D01*
%TO.C,R30*%
X86892857Y-57962619D02*
X87226190Y-57486428D01*
X87464285Y-57962619D02*
X87464285Y-56962619D01*
X87464285Y-56962619D02*
X87083333Y-56962619D01*
X87083333Y-56962619D02*
X86988095Y-57010238D01*
X86988095Y-57010238D02*
X86940476Y-57057857D01*
X86940476Y-57057857D02*
X86892857Y-57153095D01*
X86892857Y-57153095D02*
X86892857Y-57295952D01*
X86892857Y-57295952D02*
X86940476Y-57391190D01*
X86940476Y-57391190D02*
X86988095Y-57438809D01*
X86988095Y-57438809D02*
X87083333Y-57486428D01*
X87083333Y-57486428D02*
X87464285Y-57486428D01*
X86559523Y-56962619D02*
X85940476Y-56962619D01*
X85940476Y-56962619D02*
X86273809Y-57343571D01*
X86273809Y-57343571D02*
X86130952Y-57343571D01*
X86130952Y-57343571D02*
X86035714Y-57391190D01*
X86035714Y-57391190D02*
X85988095Y-57438809D01*
X85988095Y-57438809D02*
X85940476Y-57534047D01*
X85940476Y-57534047D02*
X85940476Y-57772142D01*
X85940476Y-57772142D02*
X85988095Y-57867380D01*
X85988095Y-57867380D02*
X86035714Y-57915000D01*
X86035714Y-57915000D02*
X86130952Y-57962619D01*
X86130952Y-57962619D02*
X86416666Y-57962619D01*
X86416666Y-57962619D02*
X86511904Y-57915000D01*
X86511904Y-57915000D02*
X86559523Y-57867380D01*
X85321428Y-56962619D02*
X85226190Y-56962619D01*
X85226190Y-56962619D02*
X85130952Y-57010238D01*
X85130952Y-57010238D02*
X85083333Y-57057857D01*
X85083333Y-57057857D02*
X85035714Y-57153095D01*
X85035714Y-57153095D02*
X84988095Y-57343571D01*
X84988095Y-57343571D02*
X84988095Y-57581666D01*
X84988095Y-57581666D02*
X85035714Y-57772142D01*
X85035714Y-57772142D02*
X85083333Y-57867380D01*
X85083333Y-57867380D02*
X85130952Y-57915000D01*
X85130952Y-57915000D02*
X85226190Y-57962619D01*
X85226190Y-57962619D02*
X85321428Y-57962619D01*
X85321428Y-57962619D02*
X85416666Y-57915000D01*
X85416666Y-57915000D02*
X85464285Y-57867380D01*
X85464285Y-57867380D02*
X85511904Y-57772142D01*
X85511904Y-57772142D02*
X85559523Y-57581666D01*
X85559523Y-57581666D02*
X85559523Y-57343571D01*
X85559523Y-57343571D02*
X85511904Y-57153095D01*
X85511904Y-57153095D02*
X85464285Y-57057857D01*
X85464285Y-57057857D02*
X85416666Y-57010238D01*
X85416666Y-57010238D02*
X85321428Y-56962619D01*
%TO.C,D5*%
X81162619Y-81661905D02*
X80162619Y-81661905D01*
X80162619Y-81661905D02*
X80162619Y-81900000D01*
X80162619Y-81900000D02*
X80210238Y-82042857D01*
X80210238Y-82042857D02*
X80305476Y-82138095D01*
X80305476Y-82138095D02*
X80400714Y-82185714D01*
X80400714Y-82185714D02*
X80591190Y-82233333D01*
X80591190Y-82233333D02*
X80734047Y-82233333D01*
X80734047Y-82233333D02*
X80924523Y-82185714D01*
X80924523Y-82185714D02*
X81019761Y-82138095D01*
X81019761Y-82138095D02*
X81115000Y-82042857D01*
X81115000Y-82042857D02*
X81162619Y-81900000D01*
X81162619Y-81900000D02*
X81162619Y-81661905D01*
X80162619Y-83138095D02*
X80162619Y-82661905D01*
X80162619Y-82661905D02*
X80638809Y-82614286D01*
X80638809Y-82614286D02*
X80591190Y-82661905D01*
X80591190Y-82661905D02*
X80543571Y-82757143D01*
X80543571Y-82757143D02*
X80543571Y-82995238D01*
X80543571Y-82995238D02*
X80591190Y-83090476D01*
X80591190Y-83090476D02*
X80638809Y-83138095D01*
X80638809Y-83138095D02*
X80734047Y-83185714D01*
X80734047Y-83185714D02*
X80972142Y-83185714D01*
X80972142Y-83185714D02*
X81067380Y-83138095D01*
X81067380Y-83138095D02*
X81115000Y-83090476D01*
X81115000Y-83090476D02*
X81162619Y-82995238D01*
X81162619Y-82995238D02*
X81162619Y-82757143D01*
X81162619Y-82757143D02*
X81115000Y-82661905D01*
X81115000Y-82661905D02*
X81067380Y-82614286D01*
X81162619Y-83638095D02*
X80162619Y-83638095D01*
X81162619Y-84209523D02*
X80591190Y-83780952D01*
X80162619Y-84209523D02*
X80734047Y-83638095D01*
%TO.C,C25*%
X51117380Y-92607142D02*
X51165000Y-92559523D01*
X51165000Y-92559523D02*
X51212619Y-92416666D01*
X51212619Y-92416666D02*
X51212619Y-92321428D01*
X51212619Y-92321428D02*
X51165000Y-92178571D01*
X51165000Y-92178571D02*
X51069761Y-92083333D01*
X51069761Y-92083333D02*
X50974523Y-92035714D01*
X50974523Y-92035714D02*
X50784047Y-91988095D01*
X50784047Y-91988095D02*
X50641190Y-91988095D01*
X50641190Y-91988095D02*
X50450714Y-92035714D01*
X50450714Y-92035714D02*
X50355476Y-92083333D01*
X50355476Y-92083333D02*
X50260238Y-92178571D01*
X50260238Y-92178571D02*
X50212619Y-92321428D01*
X50212619Y-92321428D02*
X50212619Y-92416666D01*
X50212619Y-92416666D02*
X50260238Y-92559523D01*
X50260238Y-92559523D02*
X50307857Y-92607142D01*
X50307857Y-92988095D02*
X50260238Y-93035714D01*
X50260238Y-93035714D02*
X50212619Y-93130952D01*
X50212619Y-93130952D02*
X50212619Y-93369047D01*
X50212619Y-93369047D02*
X50260238Y-93464285D01*
X50260238Y-93464285D02*
X50307857Y-93511904D01*
X50307857Y-93511904D02*
X50403095Y-93559523D01*
X50403095Y-93559523D02*
X50498333Y-93559523D01*
X50498333Y-93559523D02*
X50641190Y-93511904D01*
X50641190Y-93511904D02*
X51212619Y-92940476D01*
X51212619Y-92940476D02*
X51212619Y-93559523D01*
X50212619Y-94464285D02*
X50212619Y-93988095D01*
X50212619Y-93988095D02*
X50688809Y-93940476D01*
X50688809Y-93940476D02*
X50641190Y-93988095D01*
X50641190Y-93988095D02*
X50593571Y-94083333D01*
X50593571Y-94083333D02*
X50593571Y-94321428D01*
X50593571Y-94321428D02*
X50641190Y-94416666D01*
X50641190Y-94416666D02*
X50688809Y-94464285D01*
X50688809Y-94464285D02*
X50784047Y-94511904D01*
X50784047Y-94511904D02*
X51022142Y-94511904D01*
X51022142Y-94511904D02*
X51117380Y-94464285D01*
X51117380Y-94464285D02*
X51165000Y-94416666D01*
X51165000Y-94416666D02*
X51212619Y-94321428D01*
X51212619Y-94321428D02*
X51212619Y-94083333D01*
X51212619Y-94083333D02*
X51165000Y-93988095D01*
X51165000Y-93988095D02*
X51117380Y-93940476D01*
%TO.C,C4*%
X87367380Y-107333333D02*
X87415000Y-107285714D01*
X87415000Y-107285714D02*
X87462619Y-107142857D01*
X87462619Y-107142857D02*
X87462619Y-107047619D01*
X87462619Y-107047619D02*
X87415000Y-106904762D01*
X87415000Y-106904762D02*
X87319761Y-106809524D01*
X87319761Y-106809524D02*
X87224523Y-106761905D01*
X87224523Y-106761905D02*
X87034047Y-106714286D01*
X87034047Y-106714286D02*
X86891190Y-106714286D01*
X86891190Y-106714286D02*
X86700714Y-106761905D01*
X86700714Y-106761905D02*
X86605476Y-106809524D01*
X86605476Y-106809524D02*
X86510238Y-106904762D01*
X86510238Y-106904762D02*
X86462619Y-107047619D01*
X86462619Y-107047619D02*
X86462619Y-107142857D01*
X86462619Y-107142857D02*
X86510238Y-107285714D01*
X86510238Y-107285714D02*
X86557857Y-107333333D01*
X86795952Y-108190476D02*
X87462619Y-108190476D01*
X86415000Y-107952381D02*
X87129285Y-107714286D01*
X87129285Y-107714286D02*
X87129285Y-108333333D01*
%TO.C,R29*%
X59642857Y-65712619D02*
X59976190Y-65236428D01*
X60214285Y-65712619D02*
X60214285Y-64712619D01*
X60214285Y-64712619D02*
X59833333Y-64712619D01*
X59833333Y-64712619D02*
X59738095Y-64760238D01*
X59738095Y-64760238D02*
X59690476Y-64807857D01*
X59690476Y-64807857D02*
X59642857Y-64903095D01*
X59642857Y-64903095D02*
X59642857Y-65045952D01*
X59642857Y-65045952D02*
X59690476Y-65141190D01*
X59690476Y-65141190D02*
X59738095Y-65188809D01*
X59738095Y-65188809D02*
X59833333Y-65236428D01*
X59833333Y-65236428D02*
X60214285Y-65236428D01*
X59261904Y-64807857D02*
X59214285Y-64760238D01*
X59214285Y-64760238D02*
X59119047Y-64712619D01*
X59119047Y-64712619D02*
X58880952Y-64712619D01*
X58880952Y-64712619D02*
X58785714Y-64760238D01*
X58785714Y-64760238D02*
X58738095Y-64807857D01*
X58738095Y-64807857D02*
X58690476Y-64903095D01*
X58690476Y-64903095D02*
X58690476Y-64998333D01*
X58690476Y-64998333D02*
X58738095Y-65141190D01*
X58738095Y-65141190D02*
X59309523Y-65712619D01*
X59309523Y-65712619D02*
X58690476Y-65712619D01*
X58214285Y-65712619D02*
X58023809Y-65712619D01*
X58023809Y-65712619D02*
X57928571Y-65665000D01*
X57928571Y-65665000D02*
X57880952Y-65617380D01*
X57880952Y-65617380D02*
X57785714Y-65474523D01*
X57785714Y-65474523D02*
X57738095Y-65284047D01*
X57738095Y-65284047D02*
X57738095Y-64903095D01*
X57738095Y-64903095D02*
X57785714Y-64807857D01*
X57785714Y-64807857D02*
X57833333Y-64760238D01*
X57833333Y-64760238D02*
X57928571Y-64712619D01*
X57928571Y-64712619D02*
X58119047Y-64712619D01*
X58119047Y-64712619D02*
X58214285Y-64760238D01*
X58214285Y-64760238D02*
X58261904Y-64807857D01*
X58261904Y-64807857D02*
X58309523Y-64903095D01*
X58309523Y-64903095D02*
X58309523Y-65141190D01*
X58309523Y-65141190D02*
X58261904Y-65236428D01*
X58261904Y-65236428D02*
X58214285Y-65284047D01*
X58214285Y-65284047D02*
X58119047Y-65331666D01*
X58119047Y-65331666D02*
X57928571Y-65331666D01*
X57928571Y-65331666D02*
X57833333Y-65284047D01*
X57833333Y-65284047D02*
X57785714Y-65236428D01*
X57785714Y-65236428D02*
X57738095Y-65141190D01*
%TO.C,R32*%
X65462619Y-87147142D02*
X64986428Y-86813809D01*
X65462619Y-86575714D02*
X64462619Y-86575714D01*
X64462619Y-86575714D02*
X64462619Y-86956666D01*
X64462619Y-86956666D02*
X64510238Y-87051904D01*
X64510238Y-87051904D02*
X64557857Y-87099523D01*
X64557857Y-87099523D02*
X64653095Y-87147142D01*
X64653095Y-87147142D02*
X64795952Y-87147142D01*
X64795952Y-87147142D02*
X64891190Y-87099523D01*
X64891190Y-87099523D02*
X64938809Y-87051904D01*
X64938809Y-87051904D02*
X64986428Y-86956666D01*
X64986428Y-86956666D02*
X64986428Y-86575714D01*
X64462619Y-87480476D02*
X64462619Y-88099523D01*
X64462619Y-88099523D02*
X64843571Y-87766190D01*
X64843571Y-87766190D02*
X64843571Y-87909047D01*
X64843571Y-87909047D02*
X64891190Y-88004285D01*
X64891190Y-88004285D02*
X64938809Y-88051904D01*
X64938809Y-88051904D02*
X65034047Y-88099523D01*
X65034047Y-88099523D02*
X65272142Y-88099523D01*
X65272142Y-88099523D02*
X65367380Y-88051904D01*
X65367380Y-88051904D02*
X65415000Y-88004285D01*
X65415000Y-88004285D02*
X65462619Y-87909047D01*
X65462619Y-87909047D02*
X65462619Y-87623333D01*
X65462619Y-87623333D02*
X65415000Y-87528095D01*
X65415000Y-87528095D02*
X65367380Y-87480476D01*
X64557857Y-88480476D02*
X64510238Y-88528095D01*
X64510238Y-88528095D02*
X64462619Y-88623333D01*
X64462619Y-88623333D02*
X64462619Y-88861428D01*
X64462619Y-88861428D02*
X64510238Y-88956666D01*
X64510238Y-88956666D02*
X64557857Y-89004285D01*
X64557857Y-89004285D02*
X64653095Y-89051904D01*
X64653095Y-89051904D02*
X64748333Y-89051904D01*
X64748333Y-89051904D02*
X64891190Y-89004285D01*
X64891190Y-89004285D02*
X65462619Y-88432857D01*
X65462619Y-88432857D02*
X65462619Y-89051904D01*
%TO.C,R7*%
X77666666Y-104962619D02*
X77999999Y-104486428D01*
X78238094Y-104962619D02*
X78238094Y-103962619D01*
X78238094Y-103962619D02*
X77857142Y-103962619D01*
X77857142Y-103962619D02*
X77761904Y-104010238D01*
X77761904Y-104010238D02*
X77714285Y-104057857D01*
X77714285Y-104057857D02*
X77666666Y-104153095D01*
X77666666Y-104153095D02*
X77666666Y-104295952D01*
X77666666Y-104295952D02*
X77714285Y-104391190D01*
X77714285Y-104391190D02*
X77761904Y-104438809D01*
X77761904Y-104438809D02*
X77857142Y-104486428D01*
X77857142Y-104486428D02*
X78238094Y-104486428D01*
X77333332Y-103962619D02*
X76666666Y-103962619D01*
X76666666Y-103962619D02*
X77095237Y-104962619D01*
%TO.C,C6*%
X80416666Y-96117380D02*
X80464285Y-96165000D01*
X80464285Y-96165000D02*
X80607142Y-96212619D01*
X80607142Y-96212619D02*
X80702380Y-96212619D01*
X80702380Y-96212619D02*
X80845237Y-96165000D01*
X80845237Y-96165000D02*
X80940475Y-96069761D01*
X80940475Y-96069761D02*
X80988094Y-95974523D01*
X80988094Y-95974523D02*
X81035713Y-95784047D01*
X81035713Y-95784047D02*
X81035713Y-95641190D01*
X81035713Y-95641190D02*
X80988094Y-95450714D01*
X80988094Y-95450714D02*
X80940475Y-95355476D01*
X80940475Y-95355476D02*
X80845237Y-95260238D01*
X80845237Y-95260238D02*
X80702380Y-95212619D01*
X80702380Y-95212619D02*
X80607142Y-95212619D01*
X80607142Y-95212619D02*
X80464285Y-95260238D01*
X80464285Y-95260238D02*
X80416666Y-95307857D01*
X79559523Y-95212619D02*
X79749999Y-95212619D01*
X79749999Y-95212619D02*
X79845237Y-95260238D01*
X79845237Y-95260238D02*
X79892856Y-95307857D01*
X79892856Y-95307857D02*
X79988094Y-95450714D01*
X79988094Y-95450714D02*
X80035713Y-95641190D01*
X80035713Y-95641190D02*
X80035713Y-96022142D01*
X80035713Y-96022142D02*
X79988094Y-96117380D01*
X79988094Y-96117380D02*
X79940475Y-96165000D01*
X79940475Y-96165000D02*
X79845237Y-96212619D01*
X79845237Y-96212619D02*
X79654761Y-96212619D01*
X79654761Y-96212619D02*
X79559523Y-96165000D01*
X79559523Y-96165000D02*
X79511904Y-96117380D01*
X79511904Y-96117380D02*
X79464285Y-96022142D01*
X79464285Y-96022142D02*
X79464285Y-95784047D01*
X79464285Y-95784047D02*
X79511904Y-95688809D01*
X79511904Y-95688809D02*
X79559523Y-95641190D01*
X79559523Y-95641190D02*
X79654761Y-95593571D01*
X79654761Y-95593571D02*
X79845237Y-95593571D01*
X79845237Y-95593571D02*
X79940475Y-95641190D01*
X79940475Y-95641190D02*
X79988094Y-95688809D01*
X79988094Y-95688809D02*
X80035713Y-95784047D01*
%TO.C,C17*%
X99617380Y-59107142D02*
X99665000Y-59059523D01*
X99665000Y-59059523D02*
X99712619Y-58916666D01*
X99712619Y-58916666D02*
X99712619Y-58821428D01*
X99712619Y-58821428D02*
X99665000Y-58678571D01*
X99665000Y-58678571D02*
X99569761Y-58583333D01*
X99569761Y-58583333D02*
X99474523Y-58535714D01*
X99474523Y-58535714D02*
X99284047Y-58488095D01*
X99284047Y-58488095D02*
X99141190Y-58488095D01*
X99141190Y-58488095D02*
X98950714Y-58535714D01*
X98950714Y-58535714D02*
X98855476Y-58583333D01*
X98855476Y-58583333D02*
X98760238Y-58678571D01*
X98760238Y-58678571D02*
X98712619Y-58821428D01*
X98712619Y-58821428D02*
X98712619Y-58916666D01*
X98712619Y-58916666D02*
X98760238Y-59059523D01*
X98760238Y-59059523D02*
X98807857Y-59107142D01*
X99712619Y-60059523D02*
X99712619Y-59488095D01*
X99712619Y-59773809D02*
X98712619Y-59773809D01*
X98712619Y-59773809D02*
X98855476Y-59678571D01*
X98855476Y-59678571D02*
X98950714Y-59583333D01*
X98950714Y-59583333D02*
X98998333Y-59488095D01*
X98712619Y-60392857D02*
X98712619Y-61059523D01*
X98712619Y-61059523D02*
X99712619Y-60630952D01*
%TO.C,C5*%
X93166666Y-103867380D02*
X93214285Y-103915000D01*
X93214285Y-103915000D02*
X93357142Y-103962619D01*
X93357142Y-103962619D02*
X93452380Y-103962619D01*
X93452380Y-103962619D02*
X93595237Y-103915000D01*
X93595237Y-103915000D02*
X93690475Y-103819761D01*
X93690475Y-103819761D02*
X93738094Y-103724523D01*
X93738094Y-103724523D02*
X93785713Y-103534047D01*
X93785713Y-103534047D02*
X93785713Y-103391190D01*
X93785713Y-103391190D02*
X93738094Y-103200714D01*
X93738094Y-103200714D02*
X93690475Y-103105476D01*
X93690475Y-103105476D02*
X93595237Y-103010238D01*
X93595237Y-103010238D02*
X93452380Y-102962619D01*
X93452380Y-102962619D02*
X93357142Y-102962619D01*
X93357142Y-102962619D02*
X93214285Y-103010238D01*
X93214285Y-103010238D02*
X93166666Y-103057857D01*
X92261904Y-102962619D02*
X92738094Y-102962619D01*
X92738094Y-102962619D02*
X92785713Y-103438809D01*
X92785713Y-103438809D02*
X92738094Y-103391190D01*
X92738094Y-103391190D02*
X92642856Y-103343571D01*
X92642856Y-103343571D02*
X92404761Y-103343571D01*
X92404761Y-103343571D02*
X92309523Y-103391190D01*
X92309523Y-103391190D02*
X92261904Y-103438809D01*
X92261904Y-103438809D02*
X92214285Y-103534047D01*
X92214285Y-103534047D02*
X92214285Y-103772142D01*
X92214285Y-103772142D02*
X92261904Y-103867380D01*
X92261904Y-103867380D02*
X92309523Y-103915000D01*
X92309523Y-103915000D02*
X92404761Y-103962619D01*
X92404761Y-103962619D02*
X92642856Y-103962619D01*
X92642856Y-103962619D02*
X92738094Y-103915000D01*
X92738094Y-103915000D02*
X92785713Y-103867380D01*
%TO.C,R17*%
X75212619Y-94107142D02*
X74736428Y-93773809D01*
X75212619Y-93535714D02*
X74212619Y-93535714D01*
X74212619Y-93535714D02*
X74212619Y-93916666D01*
X74212619Y-93916666D02*
X74260238Y-94011904D01*
X74260238Y-94011904D02*
X74307857Y-94059523D01*
X74307857Y-94059523D02*
X74403095Y-94107142D01*
X74403095Y-94107142D02*
X74545952Y-94107142D01*
X74545952Y-94107142D02*
X74641190Y-94059523D01*
X74641190Y-94059523D02*
X74688809Y-94011904D01*
X74688809Y-94011904D02*
X74736428Y-93916666D01*
X74736428Y-93916666D02*
X74736428Y-93535714D01*
X75212619Y-95059523D02*
X75212619Y-94488095D01*
X75212619Y-94773809D02*
X74212619Y-94773809D01*
X74212619Y-94773809D02*
X74355476Y-94678571D01*
X74355476Y-94678571D02*
X74450714Y-94583333D01*
X74450714Y-94583333D02*
X74498333Y-94488095D01*
X74212619Y-95392857D02*
X74212619Y-96059523D01*
X74212619Y-96059523D02*
X75212619Y-95630952D01*
%TO.C,Q3*%
X72557857Y-87154761D02*
X72510238Y-87059523D01*
X72510238Y-87059523D02*
X72415000Y-86964285D01*
X72415000Y-86964285D02*
X72272142Y-86821428D01*
X72272142Y-86821428D02*
X72224523Y-86726190D01*
X72224523Y-86726190D02*
X72224523Y-86630952D01*
X72462619Y-86678571D02*
X72415000Y-86583333D01*
X72415000Y-86583333D02*
X72319761Y-86488095D01*
X72319761Y-86488095D02*
X72129285Y-86440476D01*
X72129285Y-86440476D02*
X71795952Y-86440476D01*
X71795952Y-86440476D02*
X71605476Y-86488095D01*
X71605476Y-86488095D02*
X71510238Y-86583333D01*
X71510238Y-86583333D02*
X71462619Y-86678571D01*
X71462619Y-86678571D02*
X71462619Y-86869047D01*
X71462619Y-86869047D02*
X71510238Y-86964285D01*
X71510238Y-86964285D02*
X71605476Y-87059523D01*
X71605476Y-87059523D02*
X71795952Y-87107142D01*
X71795952Y-87107142D02*
X72129285Y-87107142D01*
X72129285Y-87107142D02*
X72319761Y-87059523D01*
X72319761Y-87059523D02*
X72415000Y-86964285D01*
X72415000Y-86964285D02*
X72462619Y-86869047D01*
X72462619Y-86869047D02*
X72462619Y-86678571D01*
X71462619Y-87440476D02*
X71462619Y-88059523D01*
X71462619Y-88059523D02*
X71843571Y-87726190D01*
X71843571Y-87726190D02*
X71843571Y-87869047D01*
X71843571Y-87869047D02*
X71891190Y-87964285D01*
X71891190Y-87964285D02*
X71938809Y-88011904D01*
X71938809Y-88011904D02*
X72034047Y-88059523D01*
X72034047Y-88059523D02*
X72272142Y-88059523D01*
X72272142Y-88059523D02*
X72367380Y-88011904D01*
X72367380Y-88011904D02*
X72415000Y-87964285D01*
X72415000Y-87964285D02*
X72462619Y-87869047D01*
X72462619Y-87869047D02*
X72462619Y-87583333D01*
X72462619Y-87583333D02*
X72415000Y-87488095D01*
X72415000Y-87488095D02*
X72367380Y-87440476D01*
%TO.C,R31*%
X76392857Y-70962619D02*
X76726190Y-70486428D01*
X76964285Y-70962619D02*
X76964285Y-69962619D01*
X76964285Y-69962619D02*
X76583333Y-69962619D01*
X76583333Y-69962619D02*
X76488095Y-70010238D01*
X76488095Y-70010238D02*
X76440476Y-70057857D01*
X76440476Y-70057857D02*
X76392857Y-70153095D01*
X76392857Y-70153095D02*
X76392857Y-70295952D01*
X76392857Y-70295952D02*
X76440476Y-70391190D01*
X76440476Y-70391190D02*
X76488095Y-70438809D01*
X76488095Y-70438809D02*
X76583333Y-70486428D01*
X76583333Y-70486428D02*
X76964285Y-70486428D01*
X76059523Y-69962619D02*
X75440476Y-69962619D01*
X75440476Y-69962619D02*
X75773809Y-70343571D01*
X75773809Y-70343571D02*
X75630952Y-70343571D01*
X75630952Y-70343571D02*
X75535714Y-70391190D01*
X75535714Y-70391190D02*
X75488095Y-70438809D01*
X75488095Y-70438809D02*
X75440476Y-70534047D01*
X75440476Y-70534047D02*
X75440476Y-70772142D01*
X75440476Y-70772142D02*
X75488095Y-70867380D01*
X75488095Y-70867380D02*
X75535714Y-70915000D01*
X75535714Y-70915000D02*
X75630952Y-70962619D01*
X75630952Y-70962619D02*
X75916666Y-70962619D01*
X75916666Y-70962619D02*
X76011904Y-70915000D01*
X76011904Y-70915000D02*
X76059523Y-70867380D01*
X74488095Y-70962619D02*
X75059523Y-70962619D01*
X74773809Y-70962619D02*
X74773809Y-69962619D01*
X74773809Y-69962619D02*
X74869047Y-70105476D01*
X74869047Y-70105476D02*
X74964285Y-70200714D01*
X74964285Y-70200714D02*
X75059523Y-70248333D01*
%TO.C,C21*%
X82617380Y-68857142D02*
X82665000Y-68809523D01*
X82665000Y-68809523D02*
X82712619Y-68666666D01*
X82712619Y-68666666D02*
X82712619Y-68571428D01*
X82712619Y-68571428D02*
X82665000Y-68428571D01*
X82665000Y-68428571D02*
X82569761Y-68333333D01*
X82569761Y-68333333D02*
X82474523Y-68285714D01*
X82474523Y-68285714D02*
X82284047Y-68238095D01*
X82284047Y-68238095D02*
X82141190Y-68238095D01*
X82141190Y-68238095D02*
X81950714Y-68285714D01*
X81950714Y-68285714D02*
X81855476Y-68333333D01*
X81855476Y-68333333D02*
X81760238Y-68428571D01*
X81760238Y-68428571D02*
X81712619Y-68571428D01*
X81712619Y-68571428D02*
X81712619Y-68666666D01*
X81712619Y-68666666D02*
X81760238Y-68809523D01*
X81760238Y-68809523D02*
X81807857Y-68857142D01*
X81807857Y-69238095D02*
X81760238Y-69285714D01*
X81760238Y-69285714D02*
X81712619Y-69380952D01*
X81712619Y-69380952D02*
X81712619Y-69619047D01*
X81712619Y-69619047D02*
X81760238Y-69714285D01*
X81760238Y-69714285D02*
X81807857Y-69761904D01*
X81807857Y-69761904D02*
X81903095Y-69809523D01*
X81903095Y-69809523D02*
X81998333Y-69809523D01*
X81998333Y-69809523D02*
X82141190Y-69761904D01*
X82141190Y-69761904D02*
X82712619Y-69190476D01*
X82712619Y-69190476D02*
X82712619Y-69809523D01*
X82712619Y-70761904D02*
X82712619Y-70190476D01*
X82712619Y-70476190D02*
X81712619Y-70476190D01*
X81712619Y-70476190D02*
X81855476Y-70380952D01*
X81855476Y-70380952D02*
X81950714Y-70285714D01*
X81950714Y-70285714D02*
X81998333Y-70190476D01*
%TO.C,R27*%
X59642857Y-63212619D02*
X59976190Y-62736428D01*
X60214285Y-63212619D02*
X60214285Y-62212619D01*
X60214285Y-62212619D02*
X59833333Y-62212619D01*
X59833333Y-62212619D02*
X59738095Y-62260238D01*
X59738095Y-62260238D02*
X59690476Y-62307857D01*
X59690476Y-62307857D02*
X59642857Y-62403095D01*
X59642857Y-62403095D02*
X59642857Y-62545952D01*
X59642857Y-62545952D02*
X59690476Y-62641190D01*
X59690476Y-62641190D02*
X59738095Y-62688809D01*
X59738095Y-62688809D02*
X59833333Y-62736428D01*
X59833333Y-62736428D02*
X60214285Y-62736428D01*
X59261904Y-62307857D02*
X59214285Y-62260238D01*
X59214285Y-62260238D02*
X59119047Y-62212619D01*
X59119047Y-62212619D02*
X58880952Y-62212619D01*
X58880952Y-62212619D02*
X58785714Y-62260238D01*
X58785714Y-62260238D02*
X58738095Y-62307857D01*
X58738095Y-62307857D02*
X58690476Y-62403095D01*
X58690476Y-62403095D02*
X58690476Y-62498333D01*
X58690476Y-62498333D02*
X58738095Y-62641190D01*
X58738095Y-62641190D02*
X59309523Y-63212619D01*
X59309523Y-63212619D02*
X58690476Y-63212619D01*
X58357142Y-62212619D02*
X57690476Y-62212619D01*
X57690476Y-62212619D02*
X58119047Y-63212619D01*
%TO.C,D3*%
X92962619Y-82011905D02*
X91962619Y-82011905D01*
X91962619Y-82011905D02*
X91962619Y-82250000D01*
X91962619Y-82250000D02*
X92010238Y-82392857D01*
X92010238Y-82392857D02*
X92105476Y-82488095D01*
X92105476Y-82488095D02*
X92200714Y-82535714D01*
X92200714Y-82535714D02*
X92391190Y-82583333D01*
X92391190Y-82583333D02*
X92534047Y-82583333D01*
X92534047Y-82583333D02*
X92724523Y-82535714D01*
X92724523Y-82535714D02*
X92819761Y-82488095D01*
X92819761Y-82488095D02*
X92915000Y-82392857D01*
X92915000Y-82392857D02*
X92962619Y-82250000D01*
X92962619Y-82250000D02*
X92962619Y-82011905D01*
X91962619Y-82916667D02*
X91962619Y-83535714D01*
X91962619Y-83535714D02*
X92343571Y-83202381D01*
X92343571Y-83202381D02*
X92343571Y-83345238D01*
X92343571Y-83345238D02*
X92391190Y-83440476D01*
X92391190Y-83440476D02*
X92438809Y-83488095D01*
X92438809Y-83488095D02*
X92534047Y-83535714D01*
X92534047Y-83535714D02*
X92772142Y-83535714D01*
X92772142Y-83535714D02*
X92867380Y-83488095D01*
X92867380Y-83488095D02*
X92915000Y-83440476D01*
X92915000Y-83440476D02*
X92962619Y-83345238D01*
X92962619Y-83345238D02*
X92962619Y-83059524D01*
X92962619Y-83059524D02*
X92915000Y-82964286D01*
X92915000Y-82964286D02*
X92867380Y-82916667D01*
X92962619Y-84738095D02*
X91962619Y-84738095D01*
X92962619Y-85309523D02*
X92391190Y-84880952D01*
X91962619Y-85309523D02*
X92534047Y-84738095D01*
%TO.C,R24*%
X47712619Y-77357142D02*
X47236428Y-77023809D01*
X47712619Y-76785714D02*
X46712619Y-76785714D01*
X46712619Y-76785714D02*
X46712619Y-77166666D01*
X46712619Y-77166666D02*
X46760238Y-77261904D01*
X46760238Y-77261904D02*
X46807857Y-77309523D01*
X46807857Y-77309523D02*
X46903095Y-77357142D01*
X46903095Y-77357142D02*
X47045952Y-77357142D01*
X47045952Y-77357142D02*
X47141190Y-77309523D01*
X47141190Y-77309523D02*
X47188809Y-77261904D01*
X47188809Y-77261904D02*
X47236428Y-77166666D01*
X47236428Y-77166666D02*
X47236428Y-76785714D01*
X46807857Y-77738095D02*
X46760238Y-77785714D01*
X46760238Y-77785714D02*
X46712619Y-77880952D01*
X46712619Y-77880952D02*
X46712619Y-78119047D01*
X46712619Y-78119047D02*
X46760238Y-78214285D01*
X46760238Y-78214285D02*
X46807857Y-78261904D01*
X46807857Y-78261904D02*
X46903095Y-78309523D01*
X46903095Y-78309523D02*
X46998333Y-78309523D01*
X46998333Y-78309523D02*
X47141190Y-78261904D01*
X47141190Y-78261904D02*
X47712619Y-77690476D01*
X47712619Y-77690476D02*
X47712619Y-78309523D01*
X47045952Y-79166666D02*
X47712619Y-79166666D01*
X46665000Y-78928571D02*
X47379285Y-78690476D01*
X47379285Y-78690476D02*
X47379285Y-79309523D01*
%TO.C,D2*%
X96712619Y-82011905D02*
X95712619Y-82011905D01*
X95712619Y-82011905D02*
X95712619Y-82250000D01*
X95712619Y-82250000D02*
X95760238Y-82392857D01*
X95760238Y-82392857D02*
X95855476Y-82488095D01*
X95855476Y-82488095D02*
X95950714Y-82535714D01*
X95950714Y-82535714D02*
X96141190Y-82583333D01*
X96141190Y-82583333D02*
X96284047Y-82583333D01*
X96284047Y-82583333D02*
X96474523Y-82535714D01*
X96474523Y-82535714D02*
X96569761Y-82488095D01*
X96569761Y-82488095D02*
X96665000Y-82392857D01*
X96665000Y-82392857D02*
X96712619Y-82250000D01*
X96712619Y-82250000D02*
X96712619Y-82011905D01*
X95807857Y-82964286D02*
X95760238Y-83011905D01*
X95760238Y-83011905D02*
X95712619Y-83107143D01*
X95712619Y-83107143D02*
X95712619Y-83345238D01*
X95712619Y-83345238D02*
X95760238Y-83440476D01*
X95760238Y-83440476D02*
X95807857Y-83488095D01*
X95807857Y-83488095D02*
X95903095Y-83535714D01*
X95903095Y-83535714D02*
X95998333Y-83535714D01*
X95998333Y-83535714D02*
X96141190Y-83488095D01*
X96141190Y-83488095D02*
X96712619Y-82916667D01*
X96712619Y-82916667D02*
X96712619Y-83535714D01*
X96712619Y-84738095D02*
X95712619Y-84738095D01*
X96712619Y-85309523D02*
X96141190Y-84880952D01*
X95712619Y-85309523D02*
X96284047Y-84738095D01*
%TO.C,R19*%
X71962619Y-102857142D02*
X71486428Y-102523809D01*
X71962619Y-102285714D02*
X70962619Y-102285714D01*
X70962619Y-102285714D02*
X70962619Y-102666666D01*
X70962619Y-102666666D02*
X71010238Y-102761904D01*
X71010238Y-102761904D02*
X71057857Y-102809523D01*
X71057857Y-102809523D02*
X71153095Y-102857142D01*
X71153095Y-102857142D02*
X71295952Y-102857142D01*
X71295952Y-102857142D02*
X71391190Y-102809523D01*
X71391190Y-102809523D02*
X71438809Y-102761904D01*
X71438809Y-102761904D02*
X71486428Y-102666666D01*
X71486428Y-102666666D02*
X71486428Y-102285714D01*
X71962619Y-103809523D02*
X71962619Y-103238095D01*
X71962619Y-103523809D02*
X70962619Y-103523809D01*
X70962619Y-103523809D02*
X71105476Y-103428571D01*
X71105476Y-103428571D02*
X71200714Y-103333333D01*
X71200714Y-103333333D02*
X71248333Y-103238095D01*
X71962619Y-104285714D02*
X71962619Y-104476190D01*
X71962619Y-104476190D02*
X71915000Y-104571428D01*
X71915000Y-104571428D02*
X71867380Y-104619047D01*
X71867380Y-104619047D02*
X71724523Y-104714285D01*
X71724523Y-104714285D02*
X71534047Y-104761904D01*
X71534047Y-104761904D02*
X71153095Y-104761904D01*
X71153095Y-104761904D02*
X71057857Y-104714285D01*
X71057857Y-104714285D02*
X71010238Y-104666666D01*
X71010238Y-104666666D02*
X70962619Y-104571428D01*
X70962619Y-104571428D02*
X70962619Y-104380952D01*
X70962619Y-104380952D02*
X71010238Y-104285714D01*
X71010238Y-104285714D02*
X71057857Y-104238095D01*
X71057857Y-104238095D02*
X71153095Y-104190476D01*
X71153095Y-104190476D02*
X71391190Y-104190476D01*
X71391190Y-104190476D02*
X71486428Y-104238095D01*
X71486428Y-104238095D02*
X71534047Y-104285714D01*
X71534047Y-104285714D02*
X71581666Y-104380952D01*
X71581666Y-104380952D02*
X71581666Y-104571428D01*
X71581666Y-104571428D02*
X71534047Y-104666666D01*
X71534047Y-104666666D02*
X71486428Y-104714285D01*
X71486428Y-104714285D02*
X71391190Y-104761904D01*
%TO.C,R20*%
X69462619Y-102857142D02*
X68986428Y-102523809D01*
X69462619Y-102285714D02*
X68462619Y-102285714D01*
X68462619Y-102285714D02*
X68462619Y-102666666D01*
X68462619Y-102666666D02*
X68510238Y-102761904D01*
X68510238Y-102761904D02*
X68557857Y-102809523D01*
X68557857Y-102809523D02*
X68653095Y-102857142D01*
X68653095Y-102857142D02*
X68795952Y-102857142D01*
X68795952Y-102857142D02*
X68891190Y-102809523D01*
X68891190Y-102809523D02*
X68938809Y-102761904D01*
X68938809Y-102761904D02*
X68986428Y-102666666D01*
X68986428Y-102666666D02*
X68986428Y-102285714D01*
X68557857Y-103238095D02*
X68510238Y-103285714D01*
X68510238Y-103285714D02*
X68462619Y-103380952D01*
X68462619Y-103380952D02*
X68462619Y-103619047D01*
X68462619Y-103619047D02*
X68510238Y-103714285D01*
X68510238Y-103714285D02*
X68557857Y-103761904D01*
X68557857Y-103761904D02*
X68653095Y-103809523D01*
X68653095Y-103809523D02*
X68748333Y-103809523D01*
X68748333Y-103809523D02*
X68891190Y-103761904D01*
X68891190Y-103761904D02*
X69462619Y-103190476D01*
X69462619Y-103190476D02*
X69462619Y-103809523D01*
X68462619Y-104428571D02*
X68462619Y-104523809D01*
X68462619Y-104523809D02*
X68510238Y-104619047D01*
X68510238Y-104619047D02*
X68557857Y-104666666D01*
X68557857Y-104666666D02*
X68653095Y-104714285D01*
X68653095Y-104714285D02*
X68843571Y-104761904D01*
X68843571Y-104761904D02*
X69081666Y-104761904D01*
X69081666Y-104761904D02*
X69272142Y-104714285D01*
X69272142Y-104714285D02*
X69367380Y-104666666D01*
X69367380Y-104666666D02*
X69415000Y-104619047D01*
X69415000Y-104619047D02*
X69462619Y-104523809D01*
X69462619Y-104523809D02*
X69462619Y-104428571D01*
X69462619Y-104428571D02*
X69415000Y-104333333D01*
X69415000Y-104333333D02*
X69367380Y-104285714D01*
X69367380Y-104285714D02*
X69272142Y-104238095D01*
X69272142Y-104238095D02*
X69081666Y-104190476D01*
X69081666Y-104190476D02*
X68843571Y-104190476D01*
X68843571Y-104190476D02*
X68653095Y-104238095D01*
X68653095Y-104238095D02*
X68557857Y-104285714D01*
X68557857Y-104285714D02*
X68510238Y-104333333D01*
X68510238Y-104333333D02*
X68462619Y-104428571D01*
%TO.C,C13*%
X86642857Y-74867380D02*
X86690476Y-74915000D01*
X86690476Y-74915000D02*
X86833333Y-74962619D01*
X86833333Y-74962619D02*
X86928571Y-74962619D01*
X86928571Y-74962619D02*
X87071428Y-74915000D01*
X87071428Y-74915000D02*
X87166666Y-74819761D01*
X87166666Y-74819761D02*
X87214285Y-74724523D01*
X87214285Y-74724523D02*
X87261904Y-74534047D01*
X87261904Y-74534047D02*
X87261904Y-74391190D01*
X87261904Y-74391190D02*
X87214285Y-74200714D01*
X87214285Y-74200714D02*
X87166666Y-74105476D01*
X87166666Y-74105476D02*
X87071428Y-74010238D01*
X87071428Y-74010238D02*
X86928571Y-73962619D01*
X86928571Y-73962619D02*
X86833333Y-73962619D01*
X86833333Y-73962619D02*
X86690476Y-74010238D01*
X86690476Y-74010238D02*
X86642857Y-74057857D01*
X85690476Y-74962619D02*
X86261904Y-74962619D01*
X85976190Y-74962619D02*
X85976190Y-73962619D01*
X85976190Y-73962619D02*
X86071428Y-74105476D01*
X86071428Y-74105476D02*
X86166666Y-74200714D01*
X86166666Y-74200714D02*
X86261904Y-74248333D01*
X85357142Y-73962619D02*
X84738095Y-73962619D01*
X84738095Y-73962619D02*
X85071428Y-74343571D01*
X85071428Y-74343571D02*
X84928571Y-74343571D01*
X84928571Y-74343571D02*
X84833333Y-74391190D01*
X84833333Y-74391190D02*
X84785714Y-74438809D01*
X84785714Y-74438809D02*
X84738095Y-74534047D01*
X84738095Y-74534047D02*
X84738095Y-74772142D01*
X84738095Y-74772142D02*
X84785714Y-74867380D01*
X84785714Y-74867380D02*
X84833333Y-74915000D01*
X84833333Y-74915000D02*
X84928571Y-74962619D01*
X84928571Y-74962619D02*
X85214285Y-74962619D01*
X85214285Y-74962619D02*
X85309523Y-74915000D01*
X85309523Y-74915000D02*
X85357142Y-74867380D01*
%TO.C,R8*%
X90962619Y-109203333D02*
X90486428Y-108870000D01*
X90962619Y-108631905D02*
X89962619Y-108631905D01*
X89962619Y-108631905D02*
X89962619Y-109012857D01*
X89962619Y-109012857D02*
X90010238Y-109108095D01*
X90010238Y-109108095D02*
X90057857Y-109155714D01*
X90057857Y-109155714D02*
X90153095Y-109203333D01*
X90153095Y-109203333D02*
X90295952Y-109203333D01*
X90295952Y-109203333D02*
X90391190Y-109155714D01*
X90391190Y-109155714D02*
X90438809Y-109108095D01*
X90438809Y-109108095D02*
X90486428Y-109012857D01*
X90486428Y-109012857D02*
X90486428Y-108631905D01*
X90391190Y-109774762D02*
X90343571Y-109679524D01*
X90343571Y-109679524D02*
X90295952Y-109631905D01*
X90295952Y-109631905D02*
X90200714Y-109584286D01*
X90200714Y-109584286D02*
X90153095Y-109584286D01*
X90153095Y-109584286D02*
X90057857Y-109631905D01*
X90057857Y-109631905D02*
X90010238Y-109679524D01*
X90010238Y-109679524D02*
X89962619Y-109774762D01*
X89962619Y-109774762D02*
X89962619Y-109965238D01*
X89962619Y-109965238D02*
X90010238Y-110060476D01*
X90010238Y-110060476D02*
X90057857Y-110108095D01*
X90057857Y-110108095D02*
X90153095Y-110155714D01*
X90153095Y-110155714D02*
X90200714Y-110155714D01*
X90200714Y-110155714D02*
X90295952Y-110108095D01*
X90295952Y-110108095D02*
X90343571Y-110060476D01*
X90343571Y-110060476D02*
X90391190Y-109965238D01*
X90391190Y-109965238D02*
X90391190Y-109774762D01*
X90391190Y-109774762D02*
X90438809Y-109679524D01*
X90438809Y-109679524D02*
X90486428Y-109631905D01*
X90486428Y-109631905D02*
X90581666Y-109584286D01*
X90581666Y-109584286D02*
X90772142Y-109584286D01*
X90772142Y-109584286D02*
X90867380Y-109631905D01*
X90867380Y-109631905D02*
X90915000Y-109679524D01*
X90915000Y-109679524D02*
X90962619Y-109774762D01*
X90962619Y-109774762D02*
X90962619Y-109965238D01*
X90962619Y-109965238D02*
X90915000Y-110060476D01*
X90915000Y-110060476D02*
X90867380Y-110108095D01*
X90867380Y-110108095D02*
X90772142Y-110155714D01*
X90772142Y-110155714D02*
X90581666Y-110155714D01*
X90581666Y-110155714D02*
X90486428Y-110108095D01*
X90486428Y-110108095D02*
X90438809Y-110060476D01*
X90438809Y-110060476D02*
X90391190Y-109965238D01*
%TO.C,R26*%
X62182857Y-83212619D02*
X62516190Y-82736428D01*
X62754285Y-83212619D02*
X62754285Y-82212619D01*
X62754285Y-82212619D02*
X62373333Y-82212619D01*
X62373333Y-82212619D02*
X62278095Y-82260238D01*
X62278095Y-82260238D02*
X62230476Y-82307857D01*
X62230476Y-82307857D02*
X62182857Y-82403095D01*
X62182857Y-82403095D02*
X62182857Y-82545952D01*
X62182857Y-82545952D02*
X62230476Y-82641190D01*
X62230476Y-82641190D02*
X62278095Y-82688809D01*
X62278095Y-82688809D02*
X62373333Y-82736428D01*
X62373333Y-82736428D02*
X62754285Y-82736428D01*
X61801904Y-82307857D02*
X61754285Y-82260238D01*
X61754285Y-82260238D02*
X61659047Y-82212619D01*
X61659047Y-82212619D02*
X61420952Y-82212619D01*
X61420952Y-82212619D02*
X61325714Y-82260238D01*
X61325714Y-82260238D02*
X61278095Y-82307857D01*
X61278095Y-82307857D02*
X61230476Y-82403095D01*
X61230476Y-82403095D02*
X61230476Y-82498333D01*
X61230476Y-82498333D02*
X61278095Y-82641190D01*
X61278095Y-82641190D02*
X61849523Y-83212619D01*
X61849523Y-83212619D02*
X61230476Y-83212619D01*
X60373333Y-82212619D02*
X60563809Y-82212619D01*
X60563809Y-82212619D02*
X60659047Y-82260238D01*
X60659047Y-82260238D02*
X60706666Y-82307857D01*
X60706666Y-82307857D02*
X60801904Y-82450714D01*
X60801904Y-82450714D02*
X60849523Y-82641190D01*
X60849523Y-82641190D02*
X60849523Y-83022142D01*
X60849523Y-83022142D02*
X60801904Y-83117380D01*
X60801904Y-83117380D02*
X60754285Y-83165000D01*
X60754285Y-83165000D02*
X60659047Y-83212619D01*
X60659047Y-83212619D02*
X60468571Y-83212619D01*
X60468571Y-83212619D02*
X60373333Y-83165000D01*
X60373333Y-83165000D02*
X60325714Y-83117380D01*
X60325714Y-83117380D02*
X60278095Y-83022142D01*
X60278095Y-83022142D02*
X60278095Y-82784047D01*
X60278095Y-82784047D02*
X60325714Y-82688809D01*
X60325714Y-82688809D02*
X60373333Y-82641190D01*
X60373333Y-82641190D02*
X60468571Y-82593571D01*
X60468571Y-82593571D02*
X60659047Y-82593571D01*
X60659047Y-82593571D02*
X60754285Y-82641190D01*
X60754285Y-82641190D02*
X60801904Y-82688809D01*
X60801904Y-82688809D02*
X60849523Y-82784047D01*
%TO.C,R3*%
X82666666Y-113462619D02*
X82999999Y-112986428D01*
X83238094Y-113462619D02*
X83238094Y-112462619D01*
X83238094Y-112462619D02*
X82857142Y-112462619D01*
X82857142Y-112462619D02*
X82761904Y-112510238D01*
X82761904Y-112510238D02*
X82714285Y-112557857D01*
X82714285Y-112557857D02*
X82666666Y-112653095D01*
X82666666Y-112653095D02*
X82666666Y-112795952D01*
X82666666Y-112795952D02*
X82714285Y-112891190D01*
X82714285Y-112891190D02*
X82761904Y-112938809D01*
X82761904Y-112938809D02*
X82857142Y-112986428D01*
X82857142Y-112986428D02*
X83238094Y-112986428D01*
X82333332Y-112462619D02*
X81714285Y-112462619D01*
X81714285Y-112462619D02*
X82047618Y-112843571D01*
X82047618Y-112843571D02*
X81904761Y-112843571D01*
X81904761Y-112843571D02*
X81809523Y-112891190D01*
X81809523Y-112891190D02*
X81761904Y-112938809D01*
X81761904Y-112938809D02*
X81714285Y-113034047D01*
X81714285Y-113034047D02*
X81714285Y-113272142D01*
X81714285Y-113272142D02*
X81761904Y-113367380D01*
X81761904Y-113367380D02*
X81809523Y-113415000D01*
X81809523Y-113415000D02*
X81904761Y-113462619D01*
X81904761Y-113462619D02*
X82190475Y-113462619D01*
X82190475Y-113462619D02*
X82285713Y-113415000D01*
X82285713Y-113415000D02*
X82333332Y-113367380D01*
%TO.C,R13*%
X81332857Y-92962619D02*
X81666190Y-92486428D01*
X81904285Y-92962619D02*
X81904285Y-91962619D01*
X81904285Y-91962619D02*
X81523333Y-91962619D01*
X81523333Y-91962619D02*
X81428095Y-92010238D01*
X81428095Y-92010238D02*
X81380476Y-92057857D01*
X81380476Y-92057857D02*
X81332857Y-92153095D01*
X81332857Y-92153095D02*
X81332857Y-92295952D01*
X81332857Y-92295952D02*
X81380476Y-92391190D01*
X81380476Y-92391190D02*
X81428095Y-92438809D01*
X81428095Y-92438809D02*
X81523333Y-92486428D01*
X81523333Y-92486428D02*
X81904285Y-92486428D01*
X80380476Y-92962619D02*
X80951904Y-92962619D01*
X80666190Y-92962619D02*
X80666190Y-91962619D01*
X80666190Y-91962619D02*
X80761428Y-92105476D01*
X80761428Y-92105476D02*
X80856666Y-92200714D01*
X80856666Y-92200714D02*
X80951904Y-92248333D01*
X80047142Y-91962619D02*
X79428095Y-91962619D01*
X79428095Y-91962619D02*
X79761428Y-92343571D01*
X79761428Y-92343571D02*
X79618571Y-92343571D01*
X79618571Y-92343571D02*
X79523333Y-92391190D01*
X79523333Y-92391190D02*
X79475714Y-92438809D01*
X79475714Y-92438809D02*
X79428095Y-92534047D01*
X79428095Y-92534047D02*
X79428095Y-92772142D01*
X79428095Y-92772142D02*
X79475714Y-92867380D01*
X79475714Y-92867380D02*
X79523333Y-92915000D01*
X79523333Y-92915000D02*
X79618571Y-92962619D01*
X79618571Y-92962619D02*
X79904285Y-92962619D01*
X79904285Y-92962619D02*
X79999523Y-92915000D01*
X79999523Y-92915000D02*
X80047142Y-92867380D01*
%TO.C,C12*%
X94392857Y-76367380D02*
X94440476Y-76415000D01*
X94440476Y-76415000D02*
X94583333Y-76462619D01*
X94583333Y-76462619D02*
X94678571Y-76462619D01*
X94678571Y-76462619D02*
X94821428Y-76415000D01*
X94821428Y-76415000D02*
X94916666Y-76319761D01*
X94916666Y-76319761D02*
X94964285Y-76224523D01*
X94964285Y-76224523D02*
X95011904Y-76034047D01*
X95011904Y-76034047D02*
X95011904Y-75891190D01*
X95011904Y-75891190D02*
X94964285Y-75700714D01*
X94964285Y-75700714D02*
X94916666Y-75605476D01*
X94916666Y-75605476D02*
X94821428Y-75510238D01*
X94821428Y-75510238D02*
X94678571Y-75462619D01*
X94678571Y-75462619D02*
X94583333Y-75462619D01*
X94583333Y-75462619D02*
X94440476Y-75510238D01*
X94440476Y-75510238D02*
X94392857Y-75557857D01*
X93440476Y-76462619D02*
X94011904Y-76462619D01*
X93726190Y-76462619D02*
X93726190Y-75462619D01*
X93726190Y-75462619D02*
X93821428Y-75605476D01*
X93821428Y-75605476D02*
X93916666Y-75700714D01*
X93916666Y-75700714D02*
X94011904Y-75748333D01*
X93059523Y-75557857D02*
X93011904Y-75510238D01*
X93011904Y-75510238D02*
X92916666Y-75462619D01*
X92916666Y-75462619D02*
X92678571Y-75462619D01*
X92678571Y-75462619D02*
X92583333Y-75510238D01*
X92583333Y-75510238D02*
X92535714Y-75557857D01*
X92535714Y-75557857D02*
X92488095Y-75653095D01*
X92488095Y-75653095D02*
X92488095Y-75748333D01*
X92488095Y-75748333D02*
X92535714Y-75891190D01*
X92535714Y-75891190D02*
X93107142Y-76462619D01*
X93107142Y-76462619D02*
X92488095Y-76462619D01*
%TO.C,C23*%
X69117380Y-76357142D02*
X69165000Y-76309523D01*
X69165000Y-76309523D02*
X69212619Y-76166666D01*
X69212619Y-76166666D02*
X69212619Y-76071428D01*
X69212619Y-76071428D02*
X69165000Y-75928571D01*
X69165000Y-75928571D02*
X69069761Y-75833333D01*
X69069761Y-75833333D02*
X68974523Y-75785714D01*
X68974523Y-75785714D02*
X68784047Y-75738095D01*
X68784047Y-75738095D02*
X68641190Y-75738095D01*
X68641190Y-75738095D02*
X68450714Y-75785714D01*
X68450714Y-75785714D02*
X68355476Y-75833333D01*
X68355476Y-75833333D02*
X68260238Y-75928571D01*
X68260238Y-75928571D02*
X68212619Y-76071428D01*
X68212619Y-76071428D02*
X68212619Y-76166666D01*
X68212619Y-76166666D02*
X68260238Y-76309523D01*
X68260238Y-76309523D02*
X68307857Y-76357142D01*
X68307857Y-76738095D02*
X68260238Y-76785714D01*
X68260238Y-76785714D02*
X68212619Y-76880952D01*
X68212619Y-76880952D02*
X68212619Y-77119047D01*
X68212619Y-77119047D02*
X68260238Y-77214285D01*
X68260238Y-77214285D02*
X68307857Y-77261904D01*
X68307857Y-77261904D02*
X68403095Y-77309523D01*
X68403095Y-77309523D02*
X68498333Y-77309523D01*
X68498333Y-77309523D02*
X68641190Y-77261904D01*
X68641190Y-77261904D02*
X69212619Y-76690476D01*
X69212619Y-76690476D02*
X69212619Y-77309523D01*
X68212619Y-77642857D02*
X68212619Y-78261904D01*
X68212619Y-78261904D02*
X68593571Y-77928571D01*
X68593571Y-77928571D02*
X68593571Y-78071428D01*
X68593571Y-78071428D02*
X68641190Y-78166666D01*
X68641190Y-78166666D02*
X68688809Y-78214285D01*
X68688809Y-78214285D02*
X68784047Y-78261904D01*
X68784047Y-78261904D02*
X69022142Y-78261904D01*
X69022142Y-78261904D02*
X69117380Y-78214285D01*
X69117380Y-78214285D02*
X69165000Y-78166666D01*
X69165000Y-78166666D02*
X69212619Y-78071428D01*
X69212619Y-78071428D02*
X69212619Y-77785714D01*
X69212619Y-77785714D02*
X69165000Y-77690476D01*
X69165000Y-77690476D02*
X69117380Y-77642857D01*
%TO.C,C7*%
X101166666Y-106117380D02*
X101214285Y-106165000D01*
X101214285Y-106165000D02*
X101357142Y-106212619D01*
X101357142Y-106212619D02*
X101452380Y-106212619D01*
X101452380Y-106212619D02*
X101595237Y-106165000D01*
X101595237Y-106165000D02*
X101690475Y-106069761D01*
X101690475Y-106069761D02*
X101738094Y-105974523D01*
X101738094Y-105974523D02*
X101785713Y-105784047D01*
X101785713Y-105784047D02*
X101785713Y-105641190D01*
X101785713Y-105641190D02*
X101738094Y-105450714D01*
X101738094Y-105450714D02*
X101690475Y-105355476D01*
X101690475Y-105355476D02*
X101595237Y-105260238D01*
X101595237Y-105260238D02*
X101452380Y-105212619D01*
X101452380Y-105212619D02*
X101357142Y-105212619D01*
X101357142Y-105212619D02*
X101214285Y-105260238D01*
X101214285Y-105260238D02*
X101166666Y-105307857D01*
X100833332Y-105212619D02*
X100166666Y-105212619D01*
X100166666Y-105212619D02*
X100595237Y-106212619D01*
%TO.C,C15*%
X57394781Y-78607142D02*
X57442401Y-78559523D01*
X57442401Y-78559523D02*
X57490020Y-78416666D01*
X57490020Y-78416666D02*
X57490020Y-78321428D01*
X57490020Y-78321428D02*
X57442401Y-78178571D01*
X57442401Y-78178571D02*
X57347162Y-78083333D01*
X57347162Y-78083333D02*
X57251924Y-78035714D01*
X57251924Y-78035714D02*
X57061448Y-77988095D01*
X57061448Y-77988095D02*
X56918591Y-77988095D01*
X56918591Y-77988095D02*
X56728115Y-78035714D01*
X56728115Y-78035714D02*
X56632877Y-78083333D01*
X56632877Y-78083333D02*
X56537639Y-78178571D01*
X56537639Y-78178571D02*
X56490020Y-78321428D01*
X56490020Y-78321428D02*
X56490020Y-78416666D01*
X56490020Y-78416666D02*
X56537639Y-78559523D01*
X56537639Y-78559523D02*
X56585258Y-78607142D01*
X57490020Y-79559523D02*
X57490020Y-78988095D01*
X57490020Y-79273809D02*
X56490020Y-79273809D01*
X56490020Y-79273809D02*
X56632877Y-79178571D01*
X56632877Y-79178571D02*
X56728115Y-79083333D01*
X56728115Y-79083333D02*
X56775734Y-78988095D01*
X56490020Y-80464285D02*
X56490020Y-79988095D01*
X56490020Y-79988095D02*
X56966210Y-79940476D01*
X56966210Y-79940476D02*
X56918591Y-79988095D01*
X56918591Y-79988095D02*
X56870972Y-80083333D01*
X56870972Y-80083333D02*
X56870972Y-80321428D01*
X56870972Y-80321428D02*
X56918591Y-80416666D01*
X56918591Y-80416666D02*
X56966210Y-80464285D01*
X56966210Y-80464285D02*
X57061448Y-80511904D01*
X57061448Y-80511904D02*
X57299543Y-80511904D01*
X57299543Y-80511904D02*
X57394781Y-80464285D01*
X57394781Y-80464285D02*
X57442401Y-80416666D01*
X57442401Y-80416666D02*
X57490020Y-80321428D01*
X57490020Y-80321428D02*
X57490020Y-80083333D01*
X57490020Y-80083333D02*
X57442401Y-79988095D01*
X57442401Y-79988095D02*
X57394781Y-79940476D01*
%TO.C,R9*%
X93462619Y-109583333D02*
X92986428Y-109250000D01*
X93462619Y-109011905D02*
X92462619Y-109011905D01*
X92462619Y-109011905D02*
X92462619Y-109392857D01*
X92462619Y-109392857D02*
X92510238Y-109488095D01*
X92510238Y-109488095D02*
X92557857Y-109535714D01*
X92557857Y-109535714D02*
X92653095Y-109583333D01*
X92653095Y-109583333D02*
X92795952Y-109583333D01*
X92795952Y-109583333D02*
X92891190Y-109535714D01*
X92891190Y-109535714D02*
X92938809Y-109488095D01*
X92938809Y-109488095D02*
X92986428Y-109392857D01*
X92986428Y-109392857D02*
X92986428Y-109011905D01*
X93462619Y-110059524D02*
X93462619Y-110250000D01*
X93462619Y-110250000D02*
X93415000Y-110345238D01*
X93415000Y-110345238D02*
X93367380Y-110392857D01*
X93367380Y-110392857D02*
X93224523Y-110488095D01*
X93224523Y-110488095D02*
X93034047Y-110535714D01*
X93034047Y-110535714D02*
X92653095Y-110535714D01*
X92653095Y-110535714D02*
X92557857Y-110488095D01*
X92557857Y-110488095D02*
X92510238Y-110440476D01*
X92510238Y-110440476D02*
X92462619Y-110345238D01*
X92462619Y-110345238D02*
X92462619Y-110154762D01*
X92462619Y-110154762D02*
X92510238Y-110059524D01*
X92510238Y-110059524D02*
X92557857Y-110011905D01*
X92557857Y-110011905D02*
X92653095Y-109964286D01*
X92653095Y-109964286D02*
X92891190Y-109964286D01*
X92891190Y-109964286D02*
X92986428Y-110011905D01*
X92986428Y-110011905D02*
X93034047Y-110059524D01*
X93034047Y-110059524D02*
X93081666Y-110154762D01*
X93081666Y-110154762D02*
X93081666Y-110345238D01*
X93081666Y-110345238D02*
X93034047Y-110440476D01*
X93034047Y-110440476D02*
X92986428Y-110488095D01*
X92986428Y-110488095D02*
X92891190Y-110535714D01*
%TO.C,Q2*%
X98557857Y-109614761D02*
X98510238Y-109519523D01*
X98510238Y-109519523D02*
X98415000Y-109424285D01*
X98415000Y-109424285D02*
X98272142Y-109281428D01*
X98272142Y-109281428D02*
X98224523Y-109186190D01*
X98224523Y-109186190D02*
X98224523Y-109090952D01*
X98462619Y-109138571D02*
X98415000Y-109043333D01*
X98415000Y-109043333D02*
X98319761Y-108948095D01*
X98319761Y-108948095D02*
X98129285Y-108900476D01*
X98129285Y-108900476D02*
X97795952Y-108900476D01*
X97795952Y-108900476D02*
X97605476Y-108948095D01*
X97605476Y-108948095D02*
X97510238Y-109043333D01*
X97510238Y-109043333D02*
X97462619Y-109138571D01*
X97462619Y-109138571D02*
X97462619Y-109329047D01*
X97462619Y-109329047D02*
X97510238Y-109424285D01*
X97510238Y-109424285D02*
X97605476Y-109519523D01*
X97605476Y-109519523D02*
X97795952Y-109567142D01*
X97795952Y-109567142D02*
X98129285Y-109567142D01*
X98129285Y-109567142D02*
X98319761Y-109519523D01*
X98319761Y-109519523D02*
X98415000Y-109424285D01*
X98415000Y-109424285D02*
X98462619Y-109329047D01*
X98462619Y-109329047D02*
X98462619Y-109138571D01*
X97557857Y-109948095D02*
X97510238Y-109995714D01*
X97510238Y-109995714D02*
X97462619Y-110090952D01*
X97462619Y-110090952D02*
X97462619Y-110329047D01*
X97462619Y-110329047D02*
X97510238Y-110424285D01*
X97510238Y-110424285D02*
X97557857Y-110471904D01*
X97557857Y-110471904D02*
X97653095Y-110519523D01*
X97653095Y-110519523D02*
X97748333Y-110519523D01*
X97748333Y-110519523D02*
X97891190Y-110471904D01*
X97891190Y-110471904D02*
X98462619Y-109900476D01*
X98462619Y-109900476D02*
X98462619Y-110519523D01*
%TO.C,D1*%
X59238094Y-112962619D02*
X59238094Y-111962619D01*
X59238094Y-111962619D02*
X58999999Y-111962619D01*
X58999999Y-111962619D02*
X58857142Y-112010238D01*
X58857142Y-112010238D02*
X58761904Y-112105476D01*
X58761904Y-112105476D02*
X58714285Y-112200714D01*
X58714285Y-112200714D02*
X58666666Y-112391190D01*
X58666666Y-112391190D02*
X58666666Y-112534047D01*
X58666666Y-112534047D02*
X58714285Y-112724523D01*
X58714285Y-112724523D02*
X58761904Y-112819761D01*
X58761904Y-112819761D02*
X58857142Y-112915000D01*
X58857142Y-112915000D02*
X58999999Y-112962619D01*
X58999999Y-112962619D02*
X59238094Y-112962619D01*
X57714285Y-112962619D02*
X58285713Y-112962619D01*
X57999999Y-112962619D02*
X57999999Y-111962619D01*
X57999999Y-111962619D02*
X58095237Y-112105476D01*
X58095237Y-112105476D02*
X58190475Y-112200714D01*
X58190475Y-112200714D02*
X58285713Y-112248333D01*
X55511904Y-113712619D02*
X55511904Y-112712619D01*
X54940476Y-113712619D02*
X55369047Y-113141190D01*
X54940476Y-112712619D02*
X55511904Y-113284047D01*
%TO.C,C10*%
X101117380Y-88107142D02*
X101165000Y-88059523D01*
X101165000Y-88059523D02*
X101212619Y-87916666D01*
X101212619Y-87916666D02*
X101212619Y-87821428D01*
X101212619Y-87821428D02*
X101165000Y-87678571D01*
X101165000Y-87678571D02*
X101069761Y-87583333D01*
X101069761Y-87583333D02*
X100974523Y-87535714D01*
X100974523Y-87535714D02*
X100784047Y-87488095D01*
X100784047Y-87488095D02*
X100641190Y-87488095D01*
X100641190Y-87488095D02*
X100450714Y-87535714D01*
X100450714Y-87535714D02*
X100355476Y-87583333D01*
X100355476Y-87583333D02*
X100260238Y-87678571D01*
X100260238Y-87678571D02*
X100212619Y-87821428D01*
X100212619Y-87821428D02*
X100212619Y-87916666D01*
X100212619Y-87916666D02*
X100260238Y-88059523D01*
X100260238Y-88059523D02*
X100307857Y-88107142D01*
X101212619Y-89059523D02*
X101212619Y-88488095D01*
X101212619Y-88773809D02*
X100212619Y-88773809D01*
X100212619Y-88773809D02*
X100355476Y-88678571D01*
X100355476Y-88678571D02*
X100450714Y-88583333D01*
X100450714Y-88583333D02*
X100498333Y-88488095D01*
X100212619Y-89678571D02*
X100212619Y-89773809D01*
X100212619Y-89773809D02*
X100260238Y-89869047D01*
X100260238Y-89869047D02*
X100307857Y-89916666D01*
X100307857Y-89916666D02*
X100403095Y-89964285D01*
X100403095Y-89964285D02*
X100593571Y-90011904D01*
X100593571Y-90011904D02*
X100831666Y-90011904D01*
X100831666Y-90011904D02*
X101022142Y-89964285D01*
X101022142Y-89964285D02*
X101117380Y-89916666D01*
X101117380Y-89916666D02*
X101165000Y-89869047D01*
X101165000Y-89869047D02*
X101212619Y-89773809D01*
X101212619Y-89773809D02*
X101212619Y-89678571D01*
X101212619Y-89678571D02*
X101165000Y-89583333D01*
X101165000Y-89583333D02*
X101117380Y-89535714D01*
X101117380Y-89535714D02*
X101022142Y-89488095D01*
X101022142Y-89488095D02*
X100831666Y-89440476D01*
X100831666Y-89440476D02*
X100593571Y-89440476D01*
X100593571Y-89440476D02*
X100403095Y-89488095D01*
X100403095Y-89488095D02*
X100307857Y-89535714D01*
X100307857Y-89535714D02*
X100260238Y-89583333D01*
X100260238Y-89583333D02*
X100212619Y-89678571D01*
%TO.C,R4*%
X77666666Y-109712619D02*
X77999999Y-109236428D01*
X78238094Y-109712619D02*
X78238094Y-108712619D01*
X78238094Y-108712619D02*
X77857142Y-108712619D01*
X77857142Y-108712619D02*
X77761904Y-108760238D01*
X77761904Y-108760238D02*
X77714285Y-108807857D01*
X77714285Y-108807857D02*
X77666666Y-108903095D01*
X77666666Y-108903095D02*
X77666666Y-109045952D01*
X77666666Y-109045952D02*
X77714285Y-109141190D01*
X77714285Y-109141190D02*
X77761904Y-109188809D01*
X77761904Y-109188809D02*
X77857142Y-109236428D01*
X77857142Y-109236428D02*
X78238094Y-109236428D01*
X76809523Y-109045952D02*
X76809523Y-109712619D01*
X77047618Y-108665000D02*
X77285713Y-109379285D01*
X77285713Y-109379285D02*
X76666666Y-109379285D01*
%TO.C,R1*%
X50962619Y-103833333D02*
X50486428Y-103500000D01*
X50962619Y-103261905D02*
X49962619Y-103261905D01*
X49962619Y-103261905D02*
X49962619Y-103642857D01*
X49962619Y-103642857D02*
X50010238Y-103738095D01*
X50010238Y-103738095D02*
X50057857Y-103785714D01*
X50057857Y-103785714D02*
X50153095Y-103833333D01*
X50153095Y-103833333D02*
X50295952Y-103833333D01*
X50295952Y-103833333D02*
X50391190Y-103785714D01*
X50391190Y-103785714D02*
X50438809Y-103738095D01*
X50438809Y-103738095D02*
X50486428Y-103642857D01*
X50486428Y-103642857D02*
X50486428Y-103261905D01*
X50962619Y-104785714D02*
X50962619Y-104214286D01*
X50962619Y-104500000D02*
X49962619Y-104500000D01*
X49962619Y-104500000D02*
X50105476Y-104404762D01*
X50105476Y-104404762D02*
X50200714Y-104309524D01*
X50200714Y-104309524D02*
X50248333Y-104214286D01*
%TO.C,C1*%
X60117380Y-107015712D02*
X60165000Y-106968093D01*
X60165000Y-106968093D02*
X60212619Y-106825236D01*
X60212619Y-106825236D02*
X60212619Y-106729998D01*
X60212619Y-106729998D02*
X60165000Y-106587141D01*
X60165000Y-106587141D02*
X60069761Y-106491903D01*
X60069761Y-106491903D02*
X59974523Y-106444284D01*
X59974523Y-106444284D02*
X59784047Y-106396665D01*
X59784047Y-106396665D02*
X59641190Y-106396665D01*
X59641190Y-106396665D02*
X59450714Y-106444284D01*
X59450714Y-106444284D02*
X59355476Y-106491903D01*
X59355476Y-106491903D02*
X59260238Y-106587141D01*
X59260238Y-106587141D02*
X59212619Y-106729998D01*
X59212619Y-106729998D02*
X59212619Y-106825236D01*
X59212619Y-106825236D02*
X59260238Y-106968093D01*
X59260238Y-106968093D02*
X59307857Y-107015712D01*
X60212619Y-107968093D02*
X60212619Y-107396665D01*
X60212619Y-107682379D02*
X59212619Y-107682379D01*
X59212619Y-107682379D02*
X59355476Y-107587141D01*
X59355476Y-107587141D02*
X59450714Y-107491903D01*
X59450714Y-107491903D02*
X59498333Y-107396665D01*
%TO.C,R16*%
X81392857Y-88462619D02*
X81726190Y-87986428D01*
X81964285Y-88462619D02*
X81964285Y-87462619D01*
X81964285Y-87462619D02*
X81583333Y-87462619D01*
X81583333Y-87462619D02*
X81488095Y-87510238D01*
X81488095Y-87510238D02*
X81440476Y-87557857D01*
X81440476Y-87557857D02*
X81392857Y-87653095D01*
X81392857Y-87653095D02*
X81392857Y-87795952D01*
X81392857Y-87795952D02*
X81440476Y-87891190D01*
X81440476Y-87891190D02*
X81488095Y-87938809D01*
X81488095Y-87938809D02*
X81583333Y-87986428D01*
X81583333Y-87986428D02*
X81964285Y-87986428D01*
X80440476Y-88462619D02*
X81011904Y-88462619D01*
X80726190Y-88462619D02*
X80726190Y-87462619D01*
X80726190Y-87462619D02*
X80821428Y-87605476D01*
X80821428Y-87605476D02*
X80916666Y-87700714D01*
X80916666Y-87700714D02*
X81011904Y-87748333D01*
X79583333Y-87462619D02*
X79773809Y-87462619D01*
X79773809Y-87462619D02*
X79869047Y-87510238D01*
X79869047Y-87510238D02*
X79916666Y-87557857D01*
X79916666Y-87557857D02*
X80011904Y-87700714D01*
X80011904Y-87700714D02*
X80059523Y-87891190D01*
X80059523Y-87891190D02*
X80059523Y-88272142D01*
X80059523Y-88272142D02*
X80011904Y-88367380D01*
X80011904Y-88367380D02*
X79964285Y-88415000D01*
X79964285Y-88415000D02*
X79869047Y-88462619D01*
X79869047Y-88462619D02*
X79678571Y-88462619D01*
X79678571Y-88462619D02*
X79583333Y-88415000D01*
X79583333Y-88415000D02*
X79535714Y-88367380D01*
X79535714Y-88367380D02*
X79488095Y-88272142D01*
X79488095Y-88272142D02*
X79488095Y-88034047D01*
X79488095Y-88034047D02*
X79535714Y-87938809D01*
X79535714Y-87938809D02*
X79583333Y-87891190D01*
X79583333Y-87891190D02*
X79678571Y-87843571D01*
X79678571Y-87843571D02*
X79869047Y-87843571D01*
X79869047Y-87843571D02*
X79964285Y-87891190D01*
X79964285Y-87891190D02*
X80011904Y-87938809D01*
X80011904Y-87938809D02*
X80059523Y-88034047D01*
%TO.C,C3*%
X83367380Y-107333333D02*
X83415000Y-107285714D01*
X83415000Y-107285714D02*
X83462619Y-107142857D01*
X83462619Y-107142857D02*
X83462619Y-107047619D01*
X83462619Y-107047619D02*
X83415000Y-106904762D01*
X83415000Y-106904762D02*
X83319761Y-106809524D01*
X83319761Y-106809524D02*
X83224523Y-106761905D01*
X83224523Y-106761905D02*
X83034047Y-106714286D01*
X83034047Y-106714286D02*
X82891190Y-106714286D01*
X82891190Y-106714286D02*
X82700714Y-106761905D01*
X82700714Y-106761905D02*
X82605476Y-106809524D01*
X82605476Y-106809524D02*
X82510238Y-106904762D01*
X82510238Y-106904762D02*
X82462619Y-107047619D01*
X82462619Y-107047619D02*
X82462619Y-107142857D01*
X82462619Y-107142857D02*
X82510238Y-107285714D01*
X82510238Y-107285714D02*
X82557857Y-107333333D01*
X82462619Y-107666667D02*
X82462619Y-108285714D01*
X82462619Y-108285714D02*
X82843571Y-107952381D01*
X82843571Y-107952381D02*
X82843571Y-108095238D01*
X82843571Y-108095238D02*
X82891190Y-108190476D01*
X82891190Y-108190476D02*
X82938809Y-108238095D01*
X82938809Y-108238095D02*
X83034047Y-108285714D01*
X83034047Y-108285714D02*
X83272142Y-108285714D01*
X83272142Y-108285714D02*
X83367380Y-108238095D01*
X83367380Y-108238095D02*
X83415000Y-108190476D01*
X83415000Y-108190476D02*
X83462619Y-108095238D01*
X83462619Y-108095238D02*
X83462619Y-107809524D01*
X83462619Y-107809524D02*
X83415000Y-107714286D01*
X83415000Y-107714286D02*
X83367380Y-107666667D01*
%TO.C,C14*%
X59367380Y-97357142D02*
X59415000Y-97309523D01*
X59415000Y-97309523D02*
X59462619Y-97166666D01*
X59462619Y-97166666D02*
X59462619Y-97071428D01*
X59462619Y-97071428D02*
X59415000Y-96928571D01*
X59415000Y-96928571D02*
X59319761Y-96833333D01*
X59319761Y-96833333D02*
X59224523Y-96785714D01*
X59224523Y-96785714D02*
X59034047Y-96738095D01*
X59034047Y-96738095D02*
X58891190Y-96738095D01*
X58891190Y-96738095D02*
X58700714Y-96785714D01*
X58700714Y-96785714D02*
X58605476Y-96833333D01*
X58605476Y-96833333D02*
X58510238Y-96928571D01*
X58510238Y-96928571D02*
X58462619Y-97071428D01*
X58462619Y-97071428D02*
X58462619Y-97166666D01*
X58462619Y-97166666D02*
X58510238Y-97309523D01*
X58510238Y-97309523D02*
X58557857Y-97357142D01*
X59462619Y-98309523D02*
X59462619Y-97738095D01*
X59462619Y-98023809D02*
X58462619Y-98023809D01*
X58462619Y-98023809D02*
X58605476Y-97928571D01*
X58605476Y-97928571D02*
X58700714Y-97833333D01*
X58700714Y-97833333D02*
X58748333Y-97738095D01*
X58795952Y-99166666D02*
X59462619Y-99166666D01*
X58415000Y-98928571D02*
X59129285Y-98690476D01*
X59129285Y-98690476D02*
X59129285Y-99309523D01*
%TO.C,R18*%
X99392857Y-94962619D02*
X99726190Y-94486428D01*
X99964285Y-94962619D02*
X99964285Y-93962619D01*
X99964285Y-93962619D02*
X99583333Y-93962619D01*
X99583333Y-93962619D02*
X99488095Y-94010238D01*
X99488095Y-94010238D02*
X99440476Y-94057857D01*
X99440476Y-94057857D02*
X99392857Y-94153095D01*
X99392857Y-94153095D02*
X99392857Y-94295952D01*
X99392857Y-94295952D02*
X99440476Y-94391190D01*
X99440476Y-94391190D02*
X99488095Y-94438809D01*
X99488095Y-94438809D02*
X99583333Y-94486428D01*
X99583333Y-94486428D02*
X99964285Y-94486428D01*
X98440476Y-94962619D02*
X99011904Y-94962619D01*
X98726190Y-94962619D02*
X98726190Y-93962619D01*
X98726190Y-93962619D02*
X98821428Y-94105476D01*
X98821428Y-94105476D02*
X98916666Y-94200714D01*
X98916666Y-94200714D02*
X99011904Y-94248333D01*
X97869047Y-94391190D02*
X97964285Y-94343571D01*
X97964285Y-94343571D02*
X98011904Y-94295952D01*
X98011904Y-94295952D02*
X98059523Y-94200714D01*
X98059523Y-94200714D02*
X98059523Y-94153095D01*
X98059523Y-94153095D02*
X98011904Y-94057857D01*
X98011904Y-94057857D02*
X97964285Y-94010238D01*
X97964285Y-94010238D02*
X97869047Y-93962619D01*
X97869047Y-93962619D02*
X97678571Y-93962619D01*
X97678571Y-93962619D02*
X97583333Y-94010238D01*
X97583333Y-94010238D02*
X97535714Y-94057857D01*
X97535714Y-94057857D02*
X97488095Y-94153095D01*
X97488095Y-94153095D02*
X97488095Y-94200714D01*
X97488095Y-94200714D02*
X97535714Y-94295952D01*
X97535714Y-94295952D02*
X97583333Y-94343571D01*
X97583333Y-94343571D02*
X97678571Y-94391190D01*
X97678571Y-94391190D02*
X97869047Y-94391190D01*
X97869047Y-94391190D02*
X97964285Y-94438809D01*
X97964285Y-94438809D02*
X98011904Y-94486428D01*
X98011904Y-94486428D02*
X98059523Y-94581666D01*
X98059523Y-94581666D02*
X98059523Y-94772142D01*
X98059523Y-94772142D02*
X98011904Y-94867380D01*
X98011904Y-94867380D02*
X97964285Y-94915000D01*
X97964285Y-94915000D02*
X97869047Y-94962619D01*
X97869047Y-94962619D02*
X97678571Y-94962619D01*
X97678571Y-94962619D02*
X97583333Y-94915000D01*
X97583333Y-94915000D02*
X97535714Y-94867380D01*
X97535714Y-94867380D02*
X97488095Y-94772142D01*
X97488095Y-94772142D02*
X97488095Y-94581666D01*
X97488095Y-94581666D02*
X97535714Y-94486428D01*
X97535714Y-94486428D02*
X97583333Y-94438809D01*
X97583333Y-94438809D02*
X97678571Y-94391190D01*
D11*
%TO.C,R25*%
X73080000Y-74580000D02*
X76920000Y-74580000D01*
X73080000Y-76420000D02*
X76920000Y-76420000D01*
%TO.C,R23*%
X63250000Y-103190000D02*
X63250000Y-104140000D01*
X64170000Y-104140000D02*
X64170000Y-107980000D01*
X62330000Y-104140000D02*
X64170000Y-104140000D01*
X64170000Y-107980000D02*
X62330000Y-107980000D01*
X62330000Y-107980000D02*
X62330000Y-104140000D01*
X63250000Y-108930000D02*
X63250000Y-107980000D01*
%TO.C,R2*%
X48920000Y-102080000D02*
X48920000Y-105920000D01*
X47080000Y-102080000D02*
X47080000Y-105920000D01*
%TO.C,D6*%
X78720000Y-79090000D02*
X78720000Y-84530000D01*
X78390000Y-79090000D02*
X78720000Y-79090000D01*
X76110000Y-79090000D02*
X75780000Y-79090000D01*
X75780000Y-79090000D02*
X75780000Y-84530000D01*
X75780000Y-79870000D02*
X78720000Y-79870000D01*
X75780000Y-79990000D02*
X78720000Y-79990000D01*
X75780000Y-80110000D02*
X78720000Y-80110000D01*
X78720000Y-84530000D02*
X78390000Y-84530000D01*
X75780000Y-84530000D02*
X76110000Y-84530000D01*
%TO.C,R10*%
X82870000Y-100580000D02*
X86710000Y-100580000D01*
X82870000Y-102420000D02*
X86710000Y-102420000D01*
%TO.C,R22*%
X84080000Y-76830000D02*
X87920000Y-76830000D01*
X84080000Y-78670000D02*
X87920000Y-78670000D01*
%TO.C,C8*%
X67430000Y-96770000D02*
X67430000Y-92230000D01*
X67445000Y-96770000D02*
X67430000Y-96770000D01*
X69570000Y-96770000D02*
X69555000Y-96770000D01*
X69570000Y-96770000D02*
X69570000Y-92230000D01*
X67445000Y-92230000D02*
X67430000Y-92230000D01*
X69570000Y-92230000D02*
X69555000Y-92230000D01*
%TO.C,C11*%
X99180000Y-83520000D02*
X99180000Y-78980000D01*
X99195000Y-83520000D02*
X99180000Y-83520000D01*
X101320000Y-83520000D02*
X101305000Y-83520000D01*
X101320000Y-83520000D02*
X101320000Y-78980000D01*
X99195000Y-78980000D02*
X99180000Y-78980000D01*
X101320000Y-78980000D02*
X101305000Y-78980000D01*
%TO.C,R15*%
X78830000Y-89330000D02*
X82670000Y-89330000D01*
X78830000Y-91170000D02*
X82670000Y-91170000D01*
%TO.C,C24*%
X67880000Y-62620000D02*
X67880000Y-57380000D01*
X68195000Y-62620000D02*
X67880000Y-62620000D01*
X70620000Y-62620000D02*
X70305000Y-62620000D01*
X70620000Y-62620000D02*
X70620000Y-57380000D01*
X68195000Y-57380000D02*
X67880000Y-57380000D01*
X70620000Y-57380000D02*
X70305000Y-57380000D01*
%TO.C,R5*%
X96180000Y-101000000D02*
X95230000Y-101000000D01*
X95230000Y-101920000D02*
X91390000Y-101920000D01*
X95230000Y-100080000D02*
X95230000Y-101920000D01*
X91390000Y-101920000D02*
X91390000Y-100080000D01*
X91390000Y-100080000D02*
X95230000Y-100080000D01*
X90440000Y-101000000D02*
X91390000Y-101000000D01*
%TO.C,D4*%
X90220000Y-81280000D02*
X90220000Y-86720000D01*
X89890000Y-81280000D02*
X90220000Y-81280000D01*
X87610000Y-81280000D02*
X87280000Y-81280000D01*
X87280000Y-81280000D02*
X87280000Y-86720000D01*
X87280000Y-82060000D02*
X90220000Y-82060000D01*
X87280000Y-82180000D02*
X90220000Y-82180000D01*
X87280000Y-82300000D02*
X90220000Y-82300000D01*
X90220000Y-86720000D02*
X89890000Y-86720000D01*
X87280000Y-86720000D02*
X87610000Y-86720000D01*
%TO.C,C20*%
X73630000Y-59179000D02*
X79870000Y-59179000D01*
X73630000Y-60575000D02*
X73630000Y-59179000D01*
X73630000Y-63821000D02*
X73630000Y-62425000D01*
X73630000Y-63821000D02*
X79870000Y-63821000D01*
X79870000Y-60575000D02*
X79870000Y-59179000D01*
X79870000Y-63821000D02*
X79870000Y-62425000D01*
%TO.C,R12*%
X101420000Y-107830000D02*
X101420000Y-111670000D01*
X99580000Y-107830000D02*
X99580000Y-111670000D01*
%TO.C,Q1*%
X75200000Y-98650000D02*
X78800000Y-98650000D01*
X75200001Y-98650001D02*
G75*
G03*
X74675817Y-99377205I1799999J-1849999D01*
G01*
X74643600Y-101598807D02*
G75*
G03*
X77000000Y-103100000I2356400J1098807D01*
G01*
X79324183Y-99377205D02*
G75*
G03*
X78799999Y-98650001I-2324183J-1122795D01*
G01*
X77000000Y-103099999D02*
G75*
G03*
X79356399Y-101598807I0J2599999D01*
G01*
%TO.C,C16*%
X63029000Y-80670000D02*
X63029000Y-75330000D01*
X63695000Y-80670000D02*
X63029000Y-80670000D01*
X66471000Y-80670000D02*
X65805000Y-80670000D01*
X66471000Y-80670000D02*
X66471000Y-75330000D01*
X63695000Y-75330000D02*
X63029000Y-75330000D01*
X66471000Y-75330000D02*
X65805000Y-75330000D01*
%TO.C,R14*%
X71080000Y-96420000D02*
X71080000Y-92580000D01*
X72920000Y-96420000D02*
X72920000Y-92580000D01*
%TO.C,C19*%
X90880000Y-55880000D02*
X96120000Y-55880000D01*
X90880000Y-56195000D02*
X90880000Y-55880000D01*
X90880000Y-58620000D02*
X90880000Y-58305000D01*
X90880000Y-58620000D02*
X96120000Y-58620000D01*
X96120000Y-56195000D02*
X96120000Y-55880000D01*
X96120000Y-58620000D02*
X96120000Y-58305000D01*
%TO.C,C9*%
X93554775Y-95525000D02*
X93054775Y-95525000D01*
X93304775Y-95275000D02*
X93304775Y-95775000D01*
X90750000Y-98040000D02*
X90750000Y-99580000D01*
X90750000Y-94420000D02*
X90750000Y-95960000D01*
X90710000Y-98040000D02*
X90710000Y-99580000D01*
X90710000Y-94420000D02*
X90710000Y-95960000D01*
X90670000Y-98040000D02*
X90670000Y-99579000D01*
X90670000Y-94421000D02*
X90670000Y-95960000D01*
X90630000Y-98040000D02*
X90630000Y-99578000D01*
X90630000Y-94422000D02*
X90630000Y-95960000D01*
X90590000Y-98040000D02*
X90590000Y-99576000D01*
X90590000Y-94424000D02*
X90590000Y-95960000D01*
X90550000Y-98040000D02*
X90550000Y-99573000D01*
X90550000Y-94427000D02*
X90550000Y-95960000D01*
X90510000Y-98040000D02*
X90510000Y-99569000D01*
X90510000Y-94431000D02*
X90510000Y-95960000D01*
X90470000Y-98040000D02*
X90470000Y-99565000D01*
X90470000Y-94435000D02*
X90470000Y-95960000D01*
X90430000Y-98040000D02*
X90430000Y-99561000D01*
X90430000Y-94439000D02*
X90430000Y-95960000D01*
X90390000Y-98040000D02*
X90390000Y-99556000D01*
X90390000Y-94444000D02*
X90390000Y-95960000D01*
X90350000Y-98040000D02*
X90350000Y-99550000D01*
X90350000Y-94450000D02*
X90350000Y-95960000D01*
X90310000Y-98040000D02*
X90310000Y-99543000D01*
X90310000Y-94457000D02*
X90310000Y-95960000D01*
X90270000Y-98040000D02*
X90270000Y-99536000D01*
X90270000Y-94464000D02*
X90270000Y-95960000D01*
X90230000Y-98040000D02*
X90230000Y-99528000D01*
X90230000Y-94472000D02*
X90230000Y-95960000D01*
X90190000Y-98040000D02*
X90190000Y-99520000D01*
X90190000Y-94480000D02*
X90190000Y-95960000D01*
X90150000Y-98040000D02*
X90150000Y-99511000D01*
X90150000Y-94489000D02*
X90150000Y-95960000D01*
X90110000Y-98040000D02*
X90110000Y-99501000D01*
X90110000Y-94499000D02*
X90110000Y-95960000D01*
X90070000Y-98040000D02*
X90070000Y-99491000D01*
X90070000Y-94509000D02*
X90070000Y-95960000D01*
X90029000Y-98040000D02*
X90029000Y-99480000D01*
X90029000Y-94520000D02*
X90029000Y-95960000D01*
X89989000Y-98040000D02*
X89989000Y-99468000D01*
X89989000Y-94532000D02*
X89989000Y-95960000D01*
X89949000Y-98040000D02*
X89949000Y-99455000D01*
X89949000Y-94545000D02*
X89949000Y-95960000D01*
X89909000Y-98040000D02*
X89909000Y-99442000D01*
X89909000Y-94558000D02*
X89909000Y-95960000D01*
X89869000Y-98040000D02*
X89869000Y-99428000D01*
X89869000Y-94572000D02*
X89869000Y-95960000D01*
X89829000Y-98040000D02*
X89829000Y-99414000D01*
X89829000Y-94586000D02*
X89829000Y-95960000D01*
X89789000Y-98040000D02*
X89789000Y-99398000D01*
X89789000Y-94602000D02*
X89789000Y-95960000D01*
X89749000Y-98040000D02*
X89749000Y-99382000D01*
X89749000Y-94618000D02*
X89749000Y-95960000D01*
X89709000Y-98040000D02*
X89709000Y-99365000D01*
X89709000Y-94635000D02*
X89709000Y-95960000D01*
X89669000Y-98040000D02*
X89669000Y-99348000D01*
X89669000Y-94652000D02*
X89669000Y-95960000D01*
X89629000Y-98040000D02*
X89629000Y-99329000D01*
X89629000Y-94671000D02*
X89629000Y-95960000D01*
X89589000Y-98040000D02*
X89589000Y-99310000D01*
X89589000Y-94690000D02*
X89589000Y-95960000D01*
X89549000Y-98040000D02*
X89549000Y-99290000D01*
X89549000Y-94710000D02*
X89549000Y-95960000D01*
X89509000Y-98040000D02*
X89509000Y-99268000D01*
X89509000Y-94732000D02*
X89509000Y-95960000D01*
X89469000Y-98040000D02*
X89469000Y-99247000D01*
X89469000Y-94753000D02*
X89469000Y-95960000D01*
X89429000Y-98040000D02*
X89429000Y-99224000D01*
X89429000Y-94776000D02*
X89429000Y-95960000D01*
X89389000Y-98040000D02*
X89389000Y-99200000D01*
X89389000Y-94800000D02*
X89389000Y-95960000D01*
X89349000Y-98040000D02*
X89349000Y-99175000D01*
X89349000Y-94825000D02*
X89349000Y-95960000D01*
X89309000Y-98040000D02*
X89309000Y-99149000D01*
X89309000Y-94851000D02*
X89309000Y-95960000D01*
X89269000Y-98040000D02*
X89269000Y-99122000D01*
X89269000Y-94878000D02*
X89269000Y-95960000D01*
X89229000Y-98040000D02*
X89229000Y-99095000D01*
X89229000Y-94905000D02*
X89229000Y-95960000D01*
X89189000Y-98040000D02*
X89189000Y-99065000D01*
X89189000Y-94935000D02*
X89189000Y-95960000D01*
X89149000Y-98040000D02*
X89149000Y-99035000D01*
X89149000Y-94965000D02*
X89149000Y-95960000D01*
X89109000Y-98040000D02*
X89109000Y-99004000D01*
X89109000Y-94996000D02*
X89109000Y-95960000D01*
X89069000Y-98040000D02*
X89069000Y-98971000D01*
X89069000Y-95029000D02*
X89069000Y-95960000D01*
X89029000Y-98040000D02*
X89029000Y-98937000D01*
X89029000Y-95063000D02*
X89029000Y-95960000D01*
X88989000Y-98040000D02*
X88989000Y-98901000D01*
X88989000Y-95099000D02*
X88989000Y-95960000D01*
X88949000Y-98040000D02*
X88949000Y-98864000D01*
X88949000Y-95136000D02*
X88949000Y-95960000D01*
X88909000Y-98040000D02*
X88909000Y-98826000D01*
X88909000Y-95174000D02*
X88909000Y-95960000D01*
X88869000Y-98040000D02*
X88869000Y-98785000D01*
X88869000Y-95215000D02*
X88869000Y-95960000D01*
X88829000Y-98040000D02*
X88829000Y-98743000D01*
X88829000Y-95257000D02*
X88829000Y-95960000D01*
X88789000Y-98040000D02*
X88789000Y-98699000D01*
X88789000Y-95301000D02*
X88789000Y-95960000D01*
X88749000Y-98040000D02*
X88749000Y-98653000D01*
X88749000Y-95347000D02*
X88749000Y-95960000D01*
X88709000Y-95395000D02*
X88709000Y-98605000D01*
X88669000Y-95446000D02*
X88669000Y-98554000D01*
X88629000Y-95500000D02*
X88629000Y-98500000D01*
X88589000Y-95557000D02*
X88589000Y-98443000D01*
X88549000Y-95617000D02*
X88549000Y-98383000D01*
X88509000Y-95681000D02*
X88509000Y-98319000D01*
X88469000Y-95749000D02*
X88469000Y-98251000D01*
X88429000Y-95822000D02*
X88429000Y-98178000D01*
X88389000Y-95902000D02*
X88389000Y-98098000D01*
X88349000Y-95989000D02*
X88349000Y-98011000D01*
X88309000Y-96085000D02*
X88309000Y-97915000D01*
X88269000Y-96195000D02*
X88269000Y-97805000D01*
X88229000Y-96323000D02*
X88229000Y-97677000D01*
X88189000Y-96482000D02*
X88189000Y-97518000D01*
X88149000Y-96716000D02*
X88149000Y-97284000D01*
X93370000Y-97000000D02*
G75*
G03*
X93370000Y-97000000I-2620000J0D01*
G01*
%TO.C,C18*%
X96179000Y-70370000D02*
X96179000Y-64130000D01*
X97575000Y-70370000D02*
X96179000Y-70370000D01*
X100821000Y-70370000D02*
X99425000Y-70370000D01*
X100821000Y-70370000D02*
X100821000Y-64130000D01*
X97575000Y-64130000D02*
X96179000Y-64130000D01*
X100821000Y-64130000D02*
X99425000Y-64130000D01*
%TO.C,R6*%
X75580000Y-105830000D02*
X79420000Y-105830000D01*
X75580000Y-107670000D02*
X79420000Y-107670000D01*
%TO.C,R11*%
X102750000Y-112870000D02*
X102750000Y-111920000D01*
X101830000Y-111920000D02*
X101830000Y-108080000D01*
X103670000Y-111920000D02*
X101830000Y-111920000D01*
X101830000Y-108080000D02*
X103670000Y-108080000D01*
X103670000Y-108080000D02*
X103670000Y-111920000D01*
X102750000Y-107130000D02*
X102750000Y-108080000D01*
%TO.C,R28*%
X94420000Y-63420000D02*
X90580000Y-63420000D01*
X94420000Y-61580000D02*
X90580000Y-61580000D01*
%TO.C,C22*%
X71009888Y-69025000D02*
X70509888Y-69025000D01*
X70759888Y-68775000D02*
X70759888Y-69275000D01*
X68205113Y-71540000D02*
X68205113Y-73080000D01*
X68205113Y-67920000D02*
X68205113Y-69460000D01*
X68165113Y-71540000D02*
X68165113Y-73080000D01*
X68165113Y-67920000D02*
X68165113Y-69460000D01*
X68125113Y-71540000D02*
X68125113Y-73079000D01*
X68125113Y-67921000D02*
X68125113Y-69460000D01*
X68085113Y-71540000D02*
X68085113Y-73078000D01*
X68085113Y-67922000D02*
X68085113Y-69460000D01*
X68045113Y-71540000D02*
X68045113Y-73076000D01*
X68045113Y-67924000D02*
X68045113Y-69460000D01*
X68005113Y-71540000D02*
X68005113Y-73073000D01*
X68005113Y-67927000D02*
X68005113Y-69460000D01*
X67965113Y-71540000D02*
X67965113Y-73069000D01*
X67965113Y-67931000D02*
X67965113Y-69460000D01*
X67925113Y-71540000D02*
X67925113Y-73065000D01*
X67925113Y-67935000D02*
X67925113Y-69460000D01*
X67885113Y-71540000D02*
X67885113Y-73061000D01*
X67885113Y-67939000D02*
X67885113Y-69460000D01*
X67845113Y-71540000D02*
X67845113Y-73056000D01*
X67845113Y-67944000D02*
X67845113Y-69460000D01*
X67805113Y-71540000D02*
X67805113Y-73050000D01*
X67805113Y-67950000D02*
X67805113Y-69460000D01*
X67765113Y-71540000D02*
X67765113Y-73043000D01*
X67765113Y-67957000D02*
X67765113Y-69460000D01*
X67725113Y-71540000D02*
X67725113Y-73036000D01*
X67725113Y-67964000D02*
X67725113Y-69460000D01*
X67685113Y-71540000D02*
X67685113Y-73028000D01*
X67685113Y-67972000D02*
X67685113Y-69460000D01*
X67645113Y-71540000D02*
X67645113Y-73020000D01*
X67645113Y-67980000D02*
X67645113Y-69460000D01*
X67605113Y-71540000D02*
X67605113Y-73011000D01*
X67605113Y-67989000D02*
X67605113Y-69460000D01*
X67565113Y-71540000D02*
X67565113Y-73001000D01*
X67565113Y-67999000D02*
X67565113Y-69460000D01*
X67525113Y-71540000D02*
X67525113Y-72991000D01*
X67525113Y-68009000D02*
X67525113Y-69460000D01*
X67484113Y-71540000D02*
X67484113Y-72980000D01*
X67484113Y-68020000D02*
X67484113Y-69460000D01*
X67444113Y-71540000D02*
X67444113Y-72968000D01*
X67444113Y-68032000D02*
X67444113Y-69460000D01*
X67404113Y-71540000D02*
X67404113Y-72955000D01*
X67404113Y-68045000D02*
X67404113Y-69460000D01*
X67364113Y-71540000D02*
X67364113Y-72942000D01*
X67364113Y-68058000D02*
X67364113Y-69460000D01*
X67324113Y-71540000D02*
X67324113Y-72928000D01*
X67324113Y-68072000D02*
X67324113Y-69460000D01*
X67284113Y-71540000D02*
X67284113Y-72914000D01*
X67284113Y-68086000D02*
X67284113Y-69460000D01*
X67244113Y-71540000D02*
X67244113Y-72898000D01*
X67244113Y-68102000D02*
X67244113Y-69460000D01*
X67204113Y-71540000D02*
X67204113Y-72882000D01*
X67204113Y-68118000D02*
X67204113Y-69460000D01*
X67164113Y-71540000D02*
X67164113Y-72865000D01*
X67164113Y-68135000D02*
X67164113Y-69460000D01*
X67124113Y-71540000D02*
X67124113Y-72848000D01*
X67124113Y-68152000D02*
X67124113Y-69460000D01*
X67084113Y-71540000D02*
X67084113Y-72829000D01*
X67084113Y-68171000D02*
X67084113Y-69460000D01*
X67044113Y-71540000D02*
X67044113Y-72810000D01*
X67044113Y-68190000D02*
X67044113Y-69460000D01*
X67004113Y-71540000D02*
X67004113Y-72790000D01*
X67004113Y-68210000D02*
X67004113Y-69460000D01*
X66964113Y-71540000D02*
X66964113Y-72768000D01*
X66964113Y-68232000D02*
X66964113Y-69460000D01*
X66924113Y-71540000D02*
X66924113Y-72747000D01*
X66924113Y-68253000D02*
X66924113Y-69460000D01*
X66884113Y-71540000D02*
X66884113Y-72724000D01*
X66884113Y-68276000D02*
X66884113Y-69460000D01*
X66844113Y-71540000D02*
X66844113Y-72700000D01*
X66844113Y-68300000D02*
X66844113Y-69460000D01*
X66804113Y-71540000D02*
X66804113Y-72675000D01*
X66804113Y-68325000D02*
X66804113Y-69460000D01*
X66764113Y-71540000D02*
X66764113Y-72649000D01*
X66764113Y-68351000D02*
X66764113Y-69460000D01*
X66724113Y-71540000D02*
X66724113Y-72622000D01*
X66724113Y-68378000D02*
X66724113Y-69460000D01*
X66684113Y-71540000D02*
X66684113Y-72595000D01*
X66684113Y-68405000D02*
X66684113Y-69460000D01*
X66644113Y-71540000D02*
X66644113Y-72565000D01*
X66644113Y-68435000D02*
X66644113Y-69460000D01*
X66604113Y-71540000D02*
X66604113Y-72535000D01*
X66604113Y-68465000D02*
X66604113Y-69460000D01*
X66564113Y-71540000D02*
X66564113Y-72504000D01*
X66564113Y-68496000D02*
X66564113Y-69460000D01*
X66524113Y-71540000D02*
X66524113Y-72471000D01*
X66524113Y-68529000D02*
X66524113Y-69460000D01*
X66484113Y-71540000D02*
X66484113Y-72437000D01*
X66484113Y-68563000D02*
X66484113Y-69460000D01*
X66444113Y-71540000D02*
X66444113Y-72401000D01*
X66444113Y-68599000D02*
X66444113Y-69460000D01*
X66404113Y-71540000D02*
X66404113Y-72364000D01*
X66404113Y-68636000D02*
X66404113Y-69460000D01*
X66364113Y-71540000D02*
X66364113Y-72326000D01*
X66364113Y-68674000D02*
X66364113Y-69460000D01*
X66324113Y-71540000D02*
X66324113Y-72285000D01*
X66324113Y-68715000D02*
X66324113Y-69460000D01*
X66284113Y-71540000D02*
X66284113Y-72243000D01*
X66284113Y-68757000D02*
X66284113Y-69460000D01*
X66244113Y-71540000D02*
X66244113Y-72199000D01*
X66244113Y-68801000D02*
X66244113Y-69460000D01*
X66204113Y-71540000D02*
X66204113Y-72153000D01*
X66204113Y-68847000D02*
X66204113Y-69460000D01*
X66164113Y-68895000D02*
X66164113Y-72105000D01*
X66124113Y-68946000D02*
X66124113Y-72054000D01*
X66084113Y-69000000D02*
X66084113Y-72000000D01*
X66044113Y-69057000D02*
X66044113Y-71943000D01*
X66004113Y-69117000D02*
X66004113Y-71883000D01*
X65964113Y-69181000D02*
X65964113Y-71819000D01*
X65924113Y-69249000D02*
X65924113Y-71751000D01*
X65884113Y-69322000D02*
X65884113Y-71678000D01*
X65844113Y-69402000D02*
X65844113Y-71598000D01*
X65804113Y-69489000D02*
X65804113Y-71511000D01*
X65764113Y-69585000D02*
X65764113Y-71415000D01*
X65724113Y-69695000D02*
X65724113Y-71305000D01*
X65684113Y-69823000D02*
X65684113Y-71177000D01*
X65644113Y-69982000D02*
X65644113Y-71018000D01*
X65604113Y-70216000D02*
X65604113Y-70784000D01*
X70825113Y-70500000D02*
G75*
G03*
X70825113Y-70500000I-2620000J0D01*
G01*
%TO.C,C2*%
X47525000Y-107740113D02*
X47525000Y-108240113D01*
X47275000Y-107990113D02*
X47775000Y-107990113D01*
X46420000Y-110544888D02*
X51580000Y-110544888D01*
X46420000Y-110584888D02*
X51580000Y-110584888D01*
X46421000Y-110624888D02*
X51579000Y-110624888D01*
X46422000Y-110664888D02*
X51578000Y-110664888D01*
X46424000Y-110704888D02*
X51576000Y-110704888D01*
X46427000Y-110744888D02*
X51573000Y-110744888D01*
X50040000Y-110784888D02*
X51569000Y-110784888D01*
X46431000Y-110784888D02*
X47960000Y-110784888D01*
X50040000Y-110824888D02*
X51565000Y-110824888D01*
X46435000Y-110824888D02*
X47960000Y-110824888D01*
X50040000Y-110864888D02*
X51561000Y-110864888D01*
X46439000Y-110864888D02*
X47960000Y-110864888D01*
X50040000Y-110904888D02*
X51556000Y-110904888D01*
X46444000Y-110904888D02*
X47960000Y-110904888D01*
X50040000Y-110944888D02*
X51550000Y-110944888D01*
X46450000Y-110944888D02*
X47960000Y-110944888D01*
X50040000Y-110984888D02*
X51543000Y-110984888D01*
X46457000Y-110984888D02*
X47960000Y-110984888D01*
X50040000Y-111024888D02*
X51536000Y-111024888D01*
X46464000Y-111024888D02*
X47960000Y-111024888D01*
X50040000Y-111064888D02*
X51528000Y-111064888D01*
X46472000Y-111064888D02*
X47960000Y-111064888D01*
X50040000Y-111104888D02*
X51520000Y-111104888D01*
X46480000Y-111104888D02*
X47960000Y-111104888D01*
X50040000Y-111144888D02*
X51511000Y-111144888D01*
X46489000Y-111144888D02*
X47960000Y-111144888D01*
X50040000Y-111184888D02*
X51501000Y-111184888D01*
X46499000Y-111184888D02*
X47960000Y-111184888D01*
X50040000Y-111224888D02*
X51491000Y-111224888D01*
X46509000Y-111224888D02*
X47960000Y-111224888D01*
X50040000Y-111265888D02*
X51480000Y-111265888D01*
X46520000Y-111265888D02*
X47960000Y-111265888D01*
X50040000Y-111305888D02*
X51468000Y-111305888D01*
X46532000Y-111305888D02*
X47960000Y-111305888D01*
X50040000Y-111345888D02*
X51455000Y-111345888D01*
X46545000Y-111345888D02*
X47960000Y-111345888D01*
X50040000Y-111385888D02*
X51442000Y-111385888D01*
X46558000Y-111385888D02*
X47960000Y-111385888D01*
X50040000Y-111425888D02*
X51428000Y-111425888D01*
X46572000Y-111425888D02*
X47960000Y-111425888D01*
X50040000Y-111465888D02*
X51414000Y-111465888D01*
X46586000Y-111465888D02*
X47960000Y-111465888D01*
X50040000Y-111505888D02*
X51398000Y-111505888D01*
X46602000Y-111505888D02*
X47960000Y-111505888D01*
X50040000Y-111545888D02*
X51382000Y-111545888D01*
X46618000Y-111545888D02*
X47960000Y-111545888D01*
X50040000Y-111585888D02*
X51365000Y-111585888D01*
X46635000Y-111585888D02*
X47960000Y-111585888D01*
X50040000Y-111625888D02*
X51348000Y-111625888D01*
X46652000Y-111625888D02*
X47960000Y-111625888D01*
X50040000Y-111665888D02*
X51329000Y-111665888D01*
X46671000Y-111665888D02*
X47960000Y-111665888D01*
X50040000Y-111705888D02*
X51310000Y-111705888D01*
X46690000Y-111705888D02*
X47960000Y-111705888D01*
X50040000Y-111745888D02*
X51290000Y-111745888D01*
X46710000Y-111745888D02*
X47960000Y-111745888D01*
X50040000Y-111785888D02*
X51268000Y-111785888D01*
X46732000Y-111785888D02*
X47960000Y-111785888D01*
X50040000Y-111825888D02*
X51247000Y-111825888D01*
X46753000Y-111825888D02*
X47960000Y-111825888D01*
X50040000Y-111865888D02*
X51224000Y-111865888D01*
X46776000Y-111865888D02*
X47960000Y-111865888D01*
X50040000Y-111905888D02*
X51200000Y-111905888D01*
X46800000Y-111905888D02*
X47960000Y-111905888D01*
X50040000Y-111945888D02*
X51175000Y-111945888D01*
X46825000Y-111945888D02*
X47960000Y-111945888D01*
X50040000Y-111985888D02*
X51149000Y-111985888D01*
X46851000Y-111985888D02*
X47960000Y-111985888D01*
X50040000Y-112025888D02*
X51122000Y-112025888D01*
X46878000Y-112025888D02*
X47960000Y-112025888D01*
X50040000Y-112065888D02*
X51095000Y-112065888D01*
X46905000Y-112065888D02*
X47960000Y-112065888D01*
X50040000Y-112105888D02*
X51065000Y-112105888D01*
X46935000Y-112105888D02*
X47960000Y-112105888D01*
X50040000Y-112145888D02*
X51035000Y-112145888D01*
X46965000Y-112145888D02*
X47960000Y-112145888D01*
X50040000Y-112185888D02*
X51004000Y-112185888D01*
X46996000Y-112185888D02*
X47960000Y-112185888D01*
X50040000Y-112225888D02*
X50971000Y-112225888D01*
X47029000Y-112225888D02*
X47960000Y-112225888D01*
X50040000Y-112265888D02*
X50937000Y-112265888D01*
X47063000Y-112265888D02*
X47960000Y-112265888D01*
X50040000Y-112305888D02*
X50901000Y-112305888D01*
X47099000Y-112305888D02*
X47960000Y-112305888D01*
X50040000Y-112345888D02*
X50864000Y-112345888D01*
X47136000Y-112345888D02*
X47960000Y-112345888D01*
X50040000Y-112385888D02*
X50826000Y-112385888D01*
X47174000Y-112385888D02*
X47960000Y-112385888D01*
X50040000Y-112425888D02*
X50785000Y-112425888D01*
X47215000Y-112425888D02*
X47960000Y-112425888D01*
X50040000Y-112465888D02*
X50743000Y-112465888D01*
X47257000Y-112465888D02*
X47960000Y-112465888D01*
X50040000Y-112505888D02*
X50699000Y-112505888D01*
X47301000Y-112505888D02*
X47960000Y-112505888D01*
X50040000Y-112545888D02*
X50653000Y-112545888D01*
X47347000Y-112545888D02*
X47960000Y-112545888D01*
X50040000Y-112585888D02*
X50605000Y-112585888D01*
X47395000Y-112585888D02*
X47960000Y-112585888D01*
X50040000Y-112625888D02*
X50554000Y-112625888D01*
X47446000Y-112625888D02*
X47960000Y-112625888D01*
X50040000Y-112665888D02*
X50500000Y-112665888D01*
X47500000Y-112665888D02*
X47960000Y-112665888D01*
X50040000Y-112705888D02*
X50443000Y-112705888D01*
X47557000Y-112705888D02*
X47960000Y-112705888D01*
X50040000Y-112745888D02*
X50383000Y-112745888D01*
X47617000Y-112745888D02*
X47960000Y-112745888D01*
X50040000Y-112785888D02*
X50319000Y-112785888D01*
X47681000Y-112785888D02*
X47960000Y-112785888D01*
X50040000Y-112825888D02*
X50251000Y-112825888D01*
X47749000Y-112825888D02*
X47960000Y-112825888D01*
X47822000Y-112865888D02*
X50178000Y-112865888D01*
X47902000Y-112905888D02*
X50098000Y-112905888D01*
X47989000Y-112945888D02*
X50011000Y-112945888D01*
X48085000Y-112985888D02*
X49915000Y-112985888D01*
X48195000Y-113025888D02*
X49805000Y-113025888D01*
X48323000Y-113065888D02*
X49677000Y-113065888D01*
X48482000Y-113105888D02*
X49518000Y-113105888D01*
X48716000Y-113145888D02*
X49284000Y-113145888D01*
X51620000Y-110544888D02*
G75*
G03*
X51620000Y-110544888I-2620000J0D01*
G01*
%TO.C,R21*%
X101830000Y-83170000D02*
X101830000Y-79330000D01*
X103670000Y-83170000D02*
X103670000Y-79330000D01*
%TO.C,R30*%
X88170000Y-58420000D02*
X84330000Y-58420000D01*
X88170000Y-56580000D02*
X84330000Y-56580000D01*
%TO.C,D5*%
X79280000Y-84220000D02*
X79280000Y-78780000D01*
X79610000Y-84220000D02*
X79280000Y-84220000D01*
X81890000Y-84220000D02*
X82220000Y-84220000D01*
X82220000Y-84220000D02*
X82220000Y-78780000D01*
X82220000Y-83440000D02*
X79280000Y-83440000D01*
X82220000Y-83320000D02*
X79280000Y-83320000D01*
X82220000Y-83200000D02*
X79280000Y-83200000D01*
X79280000Y-78780000D02*
X79610000Y-78780000D01*
X82220000Y-78780000D02*
X81890000Y-78780000D01*
%TO.C,C25*%
X49029000Y-95920000D02*
X49029000Y-90580000D01*
X49695000Y-95920000D02*
X49029000Y-95920000D01*
X52471000Y-95920000D02*
X51805000Y-95920000D01*
X52471000Y-95920000D02*
X52471000Y-90580000D01*
X49695000Y-90580000D02*
X49029000Y-90580000D01*
X52471000Y-90580000D02*
X51805000Y-90580000D01*
%TO.C,C4*%
X88870000Y-103780000D02*
X88870000Y-111220000D01*
X85630000Y-103780000D02*
X88870000Y-103780000D01*
X85630000Y-103780000D02*
X85630000Y-111220000D01*
X85630000Y-111220000D02*
X88870000Y-111220000D01*
%TO.C,R29*%
X60920000Y-66170000D02*
X57080000Y-66170000D01*
X60920000Y-64330000D02*
X57080000Y-64330000D01*
%TO.C,R32*%
X65920000Y-85870000D02*
X65920000Y-89710000D01*
X64080000Y-85870000D02*
X64080000Y-89710000D01*
%TO.C,R7*%
X75580000Y-103580000D02*
X79420000Y-103580000D01*
X75580000Y-105420000D02*
X79420000Y-105420000D01*
%TO.C,C6*%
X76530000Y-94130000D02*
X83970000Y-94130000D01*
X76530000Y-97370000D02*
X76530000Y-94130000D01*
X76530000Y-97370000D02*
X83970000Y-97370000D01*
X83970000Y-97370000D02*
X83970000Y-94130000D01*
%TO.C,C17*%
X97529000Y-62420000D02*
X97529000Y-57080000D01*
X98195000Y-62420000D02*
X97529000Y-62420000D01*
X100971000Y-62420000D02*
X100305000Y-62420000D01*
X100971000Y-62420000D02*
X100971000Y-57080000D01*
X98195000Y-57080000D02*
X97529000Y-57080000D01*
X100971000Y-57080000D02*
X100305000Y-57080000D01*
%TO.C,C5*%
X90730000Y-102430000D02*
X95270000Y-102430000D01*
X90730000Y-102445000D02*
X90730000Y-102430000D01*
X90730000Y-104570000D02*
X90730000Y-104555000D01*
X90730000Y-104570000D02*
X95270000Y-104570000D01*
X95270000Y-102445000D02*
X95270000Y-102430000D01*
X95270000Y-104570000D02*
X95270000Y-104555000D01*
%TO.C,R17*%
X75670000Y-92870000D02*
X75670000Y-96710000D01*
X73830000Y-92870000D02*
X73830000Y-96710000D01*
%TO.C,Q3*%
X75350000Y-85450000D02*
X75350000Y-89050000D01*
X75349999Y-85450001D02*
G75*
G03*
X74622795Y-84925817I-1849999J-1799999D01*
G01*
X72401193Y-84893600D02*
G75*
G03*
X70900000Y-87250000I1098807J-2356400D01*
G01*
X74622795Y-89574183D02*
G75*
G03*
X75349999Y-89049999I-1122795J2324183D01*
G01*
X70900001Y-87250000D02*
G75*
G03*
X72401193Y-89606399I2599999J0D01*
G01*
%TO.C,R31*%
X78620000Y-70500000D02*
X77670000Y-70500000D01*
X77670000Y-71420000D02*
X73830000Y-71420000D01*
X77670000Y-69580000D02*
X77670000Y-71420000D01*
X73830000Y-71420000D02*
X73830000Y-69580000D01*
X73830000Y-69580000D02*
X77670000Y-69580000D01*
X72880000Y-70500000D02*
X73830000Y-70500000D01*
%TO.C,C21*%
X81180000Y-71770000D02*
X81180000Y-67230000D01*
X81195000Y-71770000D02*
X81180000Y-71770000D01*
X83320000Y-71770000D02*
X83305000Y-71770000D01*
X83320000Y-71770000D02*
X83320000Y-67230000D01*
X81195000Y-67230000D02*
X81180000Y-67230000D01*
X83320000Y-67230000D02*
X83305000Y-67230000D01*
%TO.C,R27*%
X60920000Y-63670000D02*
X57080000Y-63670000D01*
X60920000Y-61830000D02*
X57080000Y-61830000D01*
%TO.C,D3*%
X91030000Y-86720000D02*
X91030000Y-81280000D01*
X91360000Y-86720000D02*
X91030000Y-86720000D01*
X93640000Y-86720000D02*
X93970000Y-86720000D01*
X93970000Y-86720000D02*
X93970000Y-81280000D01*
X93970000Y-85940000D02*
X91030000Y-85940000D01*
X93970000Y-85820000D02*
X91030000Y-85820000D01*
X93970000Y-85700000D02*
X91030000Y-85700000D01*
X91030000Y-81280000D02*
X91360000Y-81280000D01*
X93970000Y-81280000D02*
X93640000Y-81280000D01*
%TO.C,R24*%
X47250000Y-75130000D02*
X47250000Y-76080000D01*
X48170000Y-76080000D02*
X48170000Y-79920000D01*
X46330000Y-76080000D02*
X48170000Y-76080000D01*
X48170000Y-79920000D02*
X46330000Y-79920000D01*
X46330000Y-79920000D02*
X46330000Y-76080000D01*
X47250000Y-80870000D02*
X47250000Y-79920000D01*
%TO.C,D2*%
X94780000Y-86720000D02*
X94780000Y-81280000D01*
X95110000Y-86720000D02*
X94780000Y-86720000D01*
X97390000Y-86720000D02*
X97720000Y-86720000D01*
X97720000Y-86720000D02*
X97720000Y-81280000D01*
X97720000Y-85940000D02*
X94780000Y-85940000D01*
X97720000Y-85820000D02*
X94780000Y-85820000D01*
X97720000Y-85700000D02*
X94780000Y-85700000D01*
X94780000Y-81280000D02*
X95110000Y-81280000D01*
X97720000Y-81280000D02*
X97390000Y-81280000D01*
%TO.C,R19*%
X72420000Y-101580000D02*
X72420000Y-105420000D01*
X70580000Y-101580000D02*
X70580000Y-105420000D01*
%TO.C,R20*%
X69000000Y-106370000D02*
X69000000Y-105420000D01*
X68080000Y-105420000D02*
X68080000Y-101580000D01*
X69920000Y-105420000D02*
X68080000Y-105420000D01*
X68080000Y-101580000D02*
X69920000Y-101580000D01*
X69920000Y-101580000D02*
X69920000Y-105420000D01*
X69000000Y-100630000D02*
X69000000Y-101580000D01*
%TO.C,C13*%
X88470000Y-76120000D02*
X83530000Y-76120000D01*
X88470000Y-75805000D02*
X88470000Y-76120000D01*
X88470000Y-73380000D02*
X88470000Y-73695000D01*
X88470000Y-73380000D02*
X83530000Y-73380000D01*
X83530000Y-75805000D02*
X83530000Y-76120000D01*
X83530000Y-73380000D02*
X83530000Y-73695000D01*
%TO.C,R8*%
X90500000Y-112430000D02*
X90500000Y-111480000D01*
X89580000Y-111480000D02*
X89580000Y-107640000D01*
X91420000Y-111480000D02*
X89580000Y-111480000D01*
X89580000Y-107640000D02*
X91420000Y-107640000D01*
X91420000Y-107640000D02*
X91420000Y-111480000D01*
X90500000Y-106690000D02*
X90500000Y-107640000D01*
%TO.C,R26*%
X63670000Y-83670000D02*
X59830000Y-83670000D01*
X63670000Y-81830000D02*
X59830000Y-81830000D01*
%TO.C,R3*%
X80580000Y-112080000D02*
X84420000Y-112080000D01*
X80580000Y-113920000D02*
X84420000Y-113920000D01*
%TO.C,R13*%
X83560000Y-92500000D02*
X82610000Y-92500000D01*
X82610000Y-93420000D02*
X78770000Y-93420000D01*
X82610000Y-91580000D02*
X82610000Y-93420000D01*
X78770000Y-93420000D02*
X78770000Y-91580000D01*
X78770000Y-91580000D02*
X82610000Y-91580000D01*
X77820000Y-92500000D02*
X78770000Y-92500000D01*
%TO.C,C12*%
X97620000Y-78620000D02*
X89880000Y-78620000D01*
X97620000Y-73380000D02*
X97620000Y-78620000D01*
X97620000Y-73380000D02*
X89880000Y-73380000D01*
X89880000Y-73380000D02*
X89880000Y-78620000D01*
%TO.C,C23*%
X67380000Y-79620000D02*
X67380000Y-74380000D01*
X67695000Y-79620000D02*
X67380000Y-79620000D01*
X70120000Y-79620000D02*
X69805000Y-79620000D01*
X70120000Y-79620000D02*
X70120000Y-74380000D01*
X67695000Y-74380000D02*
X67380000Y-74380000D01*
X70120000Y-74380000D02*
X69805000Y-74380000D01*
%TO.C,C7*%
X98195225Y-103475000D02*
X98695225Y-103475000D01*
X98445225Y-103725000D02*
X98445225Y-103225000D01*
X101000000Y-104580000D02*
X101000000Y-99420000D01*
X101040000Y-104580000D02*
X101040000Y-99420000D01*
X101080000Y-104579000D02*
X101080000Y-99421000D01*
X101120000Y-104578000D02*
X101120000Y-99422000D01*
X101160000Y-104576000D02*
X101160000Y-99424000D01*
X101200000Y-104573000D02*
X101200000Y-99427000D01*
X101240000Y-100960000D02*
X101240000Y-99431000D01*
X101240000Y-104569000D02*
X101240000Y-103040000D01*
X101280000Y-100960000D02*
X101280000Y-99435000D01*
X101280000Y-104565000D02*
X101280000Y-103040000D01*
X101320000Y-100960000D02*
X101320000Y-99439000D01*
X101320000Y-104561000D02*
X101320000Y-103040000D01*
X101360000Y-100960000D02*
X101360000Y-99444000D01*
X101360000Y-104556000D02*
X101360000Y-103040000D01*
X101400000Y-100960000D02*
X101400000Y-99450000D01*
X101400000Y-104550000D02*
X101400000Y-103040000D01*
X101440000Y-100960000D02*
X101440000Y-99457000D01*
X101440000Y-104543000D02*
X101440000Y-103040000D01*
X101480000Y-100960000D02*
X101480000Y-99464000D01*
X101480000Y-104536000D02*
X101480000Y-103040000D01*
X101520000Y-100960000D02*
X101520000Y-99472000D01*
X101520000Y-104528000D02*
X101520000Y-103040000D01*
X101560000Y-100960000D02*
X101560000Y-99480000D01*
X101560000Y-104520000D02*
X101560000Y-103040000D01*
X101600000Y-100960000D02*
X101600000Y-99489000D01*
X101600000Y-104511000D02*
X101600000Y-103040000D01*
X101640000Y-100960000D02*
X101640000Y-99499000D01*
X101640000Y-104501000D02*
X101640000Y-103040000D01*
X101680000Y-100960000D02*
X101680000Y-99509000D01*
X101680000Y-104491000D02*
X101680000Y-103040000D01*
X101721000Y-100960000D02*
X101721000Y-99520000D01*
X101721000Y-104480000D02*
X101721000Y-103040000D01*
X101761000Y-100960000D02*
X101761000Y-99532000D01*
X101761000Y-104468000D02*
X101761000Y-103040000D01*
X101801000Y-100960000D02*
X101801000Y-99545000D01*
X101801000Y-104455000D02*
X101801000Y-103040000D01*
X101841000Y-100960000D02*
X101841000Y-99558000D01*
X101841000Y-104442000D02*
X101841000Y-103040000D01*
X101881000Y-100960000D02*
X101881000Y-99572000D01*
X101881000Y-104428000D02*
X101881000Y-103040000D01*
X101921000Y-100960000D02*
X101921000Y-99586000D01*
X101921000Y-104414000D02*
X101921000Y-103040000D01*
X101961000Y-100960000D02*
X101961000Y-99602000D01*
X101961000Y-104398000D02*
X101961000Y-103040000D01*
X102001000Y-100960000D02*
X102001000Y-99618000D01*
X102001000Y-104382000D02*
X102001000Y-103040000D01*
X102041000Y-100960000D02*
X102041000Y-99635000D01*
X102041000Y-104365000D02*
X102041000Y-103040000D01*
X102081000Y-100960000D02*
X102081000Y-99652000D01*
X102081000Y-104348000D02*
X102081000Y-103040000D01*
X102121000Y-100960000D02*
X102121000Y-99671000D01*
X102121000Y-104329000D02*
X102121000Y-103040000D01*
X102161000Y-100960000D02*
X102161000Y-99690000D01*
X102161000Y-104310000D02*
X102161000Y-103040000D01*
X102201000Y-100960000D02*
X102201000Y-99710000D01*
X102201000Y-104290000D02*
X102201000Y-103040000D01*
X102241000Y-100960000D02*
X102241000Y-99732000D01*
X102241000Y-104268000D02*
X102241000Y-103040000D01*
X102281000Y-100960000D02*
X102281000Y-99753000D01*
X102281000Y-104247000D02*
X102281000Y-103040000D01*
X102321000Y-100960000D02*
X102321000Y-99776000D01*
X102321000Y-104224000D02*
X102321000Y-103040000D01*
X102361000Y-100960000D02*
X102361000Y-99800000D01*
X102361000Y-104200000D02*
X102361000Y-103040000D01*
X102401000Y-100960000D02*
X102401000Y-99825000D01*
X102401000Y-104175000D02*
X102401000Y-103040000D01*
X102441000Y-100960000D02*
X102441000Y-99851000D01*
X102441000Y-104149000D02*
X102441000Y-103040000D01*
X102481000Y-100960000D02*
X102481000Y-99878000D01*
X102481000Y-104122000D02*
X102481000Y-103040000D01*
X102521000Y-100960000D02*
X102521000Y-99905000D01*
X102521000Y-104095000D02*
X102521000Y-103040000D01*
X102561000Y-100960000D02*
X102561000Y-99935000D01*
X102561000Y-104065000D02*
X102561000Y-103040000D01*
X102601000Y-100960000D02*
X102601000Y-99965000D01*
X102601000Y-104035000D02*
X102601000Y-103040000D01*
X102641000Y-100960000D02*
X102641000Y-99996000D01*
X102641000Y-104004000D02*
X102641000Y-103040000D01*
X102681000Y-100960000D02*
X102681000Y-100029000D01*
X102681000Y-103971000D02*
X102681000Y-103040000D01*
X102721000Y-100960000D02*
X102721000Y-100063000D01*
X102721000Y-103937000D02*
X102721000Y-103040000D01*
X102761000Y-100960000D02*
X102761000Y-100099000D01*
X102761000Y-103901000D02*
X102761000Y-103040000D01*
X102801000Y-100960000D02*
X102801000Y-100136000D01*
X102801000Y-103864000D02*
X102801000Y-103040000D01*
X102841000Y-100960000D02*
X102841000Y-100174000D01*
X102841000Y-103826000D02*
X102841000Y-103040000D01*
X102881000Y-100960000D02*
X102881000Y-100215000D01*
X102881000Y-103785000D02*
X102881000Y-103040000D01*
X102921000Y-100960000D02*
X102921000Y-100257000D01*
X102921000Y-103743000D02*
X102921000Y-103040000D01*
X102961000Y-100960000D02*
X102961000Y-100301000D01*
X102961000Y-103699000D02*
X102961000Y-103040000D01*
X103001000Y-100960000D02*
X103001000Y-100347000D01*
X103001000Y-103653000D02*
X103001000Y-103040000D01*
X103041000Y-100960000D02*
X103041000Y-100395000D01*
X103041000Y-103605000D02*
X103041000Y-103040000D01*
X103081000Y-100960000D02*
X103081000Y-100446000D01*
X103081000Y-103554000D02*
X103081000Y-103040000D01*
X103121000Y-100960000D02*
X103121000Y-100500000D01*
X103121000Y-103500000D02*
X103121000Y-103040000D01*
X103161000Y-100960000D02*
X103161000Y-100557000D01*
X103161000Y-103443000D02*
X103161000Y-103040000D01*
X103201000Y-100960000D02*
X103201000Y-100617000D01*
X103201000Y-103383000D02*
X103201000Y-103040000D01*
X103241000Y-100960000D02*
X103241000Y-100681000D01*
X103241000Y-103319000D02*
X103241000Y-103040000D01*
X103281000Y-100960000D02*
X103281000Y-100749000D01*
X103281000Y-103251000D02*
X103281000Y-103040000D01*
X103321000Y-103178000D02*
X103321000Y-100822000D01*
X103361000Y-103098000D02*
X103361000Y-100902000D01*
X103401000Y-103011000D02*
X103401000Y-100989000D01*
X103441000Y-102915000D02*
X103441000Y-101085000D01*
X103481000Y-102805000D02*
X103481000Y-101195000D01*
X103521000Y-102677000D02*
X103521000Y-101323000D01*
X103561000Y-102518000D02*
X103561000Y-101482000D01*
X103601000Y-102284000D02*
X103601000Y-101716000D01*
X103620000Y-102000000D02*
G75*
G03*
X103620000Y-102000000I-2620000J0D01*
G01*
%TO.C,C15*%
X57757600Y-80195000D02*
X58157600Y-80195000D01*
X57957600Y-80395000D02*
X57957600Y-79995000D01*
X60027401Y-78160000D02*
X60027401Y-76920000D01*
X60027401Y-81080000D02*
X60027401Y-79840000D01*
X60067401Y-78160000D02*
X60067401Y-76920000D01*
X60067401Y-81080000D02*
X60067401Y-79840000D01*
X60107401Y-78160000D02*
X60107401Y-76921000D01*
X60107401Y-81079000D02*
X60107401Y-79840000D01*
X60147401Y-78160000D02*
X60147401Y-76923000D01*
X60147401Y-81077000D02*
X60147401Y-79840000D01*
X60187401Y-78160000D02*
X60187401Y-76926000D01*
X60187401Y-81074000D02*
X60187401Y-79840000D01*
X60227401Y-78160000D02*
X60227401Y-76929000D01*
X60227401Y-81071000D02*
X60227401Y-79840000D01*
X60267401Y-78160000D02*
X60267401Y-76933000D01*
X60267401Y-81067000D02*
X60267401Y-79840000D01*
X60307401Y-78160000D02*
X60307401Y-76938000D01*
X60307401Y-81062000D02*
X60307401Y-79840000D01*
X60347401Y-78160000D02*
X60347401Y-76944000D01*
X60347401Y-81056000D02*
X60347401Y-79840000D01*
X60387401Y-78160000D02*
X60387401Y-76950000D01*
X60387401Y-81050000D02*
X60387401Y-79840000D01*
X60427401Y-78160000D02*
X60427401Y-76958000D01*
X60427401Y-81042000D02*
X60427401Y-79840000D01*
X60467401Y-78160000D02*
X60467401Y-76966000D01*
X60467401Y-81034000D02*
X60467401Y-79840000D01*
X60507401Y-78160000D02*
X60507401Y-76975000D01*
X60507401Y-81025000D02*
X60507401Y-79840000D01*
X60547401Y-78160000D02*
X60547401Y-76984000D01*
X60547401Y-81016000D02*
X60547401Y-79840000D01*
X60587401Y-78160000D02*
X60587401Y-76995000D01*
X60587401Y-81005000D02*
X60587401Y-79840000D01*
X60627401Y-78160000D02*
X60627401Y-77006000D01*
X60627401Y-80994000D02*
X60627401Y-79840000D01*
X60667401Y-78160000D02*
X60667401Y-77018000D01*
X60667401Y-80982000D02*
X60667401Y-79840000D01*
X60707401Y-78160000D02*
X60707401Y-77032000D01*
X60707401Y-80968000D02*
X60707401Y-79840000D01*
X60748401Y-78160000D02*
X60748401Y-77046000D01*
X60748401Y-80954000D02*
X60748401Y-79840000D01*
X60788401Y-78160000D02*
X60788401Y-77060000D01*
X60788401Y-80940000D02*
X60788401Y-79840000D01*
X60828401Y-78160000D02*
X60828401Y-77076000D01*
X60828401Y-80924000D02*
X60828401Y-79840000D01*
X60868401Y-78160000D02*
X60868401Y-77093000D01*
X60868401Y-80907000D02*
X60868401Y-79840000D01*
X60908401Y-78160000D02*
X60908401Y-77111000D01*
X60908401Y-80889000D02*
X60908401Y-79840000D01*
X60948401Y-78160000D02*
X60948401Y-77130000D01*
X60948401Y-80870000D02*
X60948401Y-79840000D01*
X60988401Y-78160000D02*
X60988401Y-77149000D01*
X60988401Y-80851000D02*
X60988401Y-79840000D01*
X61028401Y-78160000D02*
X61028401Y-77170000D01*
X61028401Y-80830000D02*
X61028401Y-79840000D01*
X61068401Y-78160000D02*
X61068401Y-77192000D01*
X61068401Y-80808000D02*
X61068401Y-79840000D01*
X61108401Y-78160000D02*
X61108401Y-77215000D01*
X61108401Y-80785000D02*
X61108401Y-79840000D01*
X61148401Y-78160000D02*
X61148401Y-77240000D01*
X61148401Y-80760000D02*
X61148401Y-79840000D01*
X61188401Y-78160000D02*
X61188401Y-77265000D01*
X61188401Y-80735000D02*
X61188401Y-79840000D01*
X61228401Y-78160000D02*
X61228401Y-77292000D01*
X61228401Y-80708000D02*
X61228401Y-79840000D01*
X61268401Y-78160000D02*
X61268401Y-77320000D01*
X61268401Y-80680000D02*
X61268401Y-79840000D01*
X61308401Y-78160000D02*
X61308401Y-77350000D01*
X61308401Y-80650000D02*
X61308401Y-79840000D01*
X61348401Y-78160000D02*
X61348401Y-77381000D01*
X61348401Y-80619000D02*
X61348401Y-79840000D01*
X61388401Y-78160000D02*
X61388401Y-77413000D01*
X61388401Y-80587000D02*
X61388401Y-79840000D01*
X61428401Y-78160000D02*
X61428401Y-77448000D01*
X61428401Y-80552000D02*
X61428401Y-79840000D01*
X61468401Y-78160000D02*
X61468401Y-77484000D01*
X61468401Y-80516000D02*
X61468401Y-79840000D01*
X61508401Y-78160000D02*
X61508401Y-77522000D01*
X61508401Y-80478000D02*
X61508401Y-79840000D01*
X61548401Y-78160000D02*
X61548401Y-77562000D01*
X61548401Y-80438000D02*
X61548401Y-79840000D01*
X61588401Y-78160000D02*
X61588401Y-77604000D01*
X61588401Y-80396000D02*
X61588401Y-79840000D01*
X61628401Y-80351000D02*
X61628401Y-77649000D01*
X61668401Y-80304000D02*
X61668401Y-77696000D01*
X61708401Y-80254000D02*
X61708401Y-77746000D01*
X61748401Y-80200000D02*
X61748401Y-77800000D01*
X61788401Y-80142000D02*
X61788401Y-77858000D01*
X61828401Y-80080000D02*
X61828401Y-77920000D01*
X61868401Y-80013000D02*
X61868401Y-77987000D01*
X61908401Y-79940000D02*
X61908401Y-78060000D01*
X61948401Y-79859000D02*
X61948401Y-78141000D01*
X61988401Y-79768000D02*
X61988401Y-78232000D01*
X62028401Y-79664000D02*
X62028401Y-78336000D01*
X62068401Y-79537000D02*
X62068401Y-78463000D01*
X62108401Y-79370000D02*
X62108401Y-78630000D01*
X62147401Y-79000000D02*
G75*
G03*
X62147401Y-79000000I-2120000J0D01*
G01*
%TO.C,R9*%
X93920000Y-107830000D02*
X93920000Y-111670000D01*
X92080000Y-107830000D02*
X92080000Y-111670000D01*
%TO.C,Q2*%
X94650000Y-111510000D02*
X94650000Y-107910000D01*
X94650001Y-111509999D02*
G75*
G03*
X95377205Y-112034183I1849999J1799999D01*
G01*
X97598807Y-112066400D02*
G75*
G03*
X99100000Y-109710000I-1098807J2356400D01*
G01*
X95377205Y-107385817D02*
G75*
G03*
X94650001Y-107910001I1122795J-2324183D01*
G01*
X99099999Y-109710000D02*
G75*
G03*
X97598807Y-107353601I-2599999J0D01*
G01*
%TO.C,D1*%
X54760000Y-112500000D02*
X55780000Y-112500000D01*
X55780000Y-111030000D02*
X61220000Y-111030000D01*
X55780000Y-113970000D02*
X55780000Y-111030000D01*
X56560000Y-113970000D02*
X56560000Y-111030000D01*
X56680000Y-113970000D02*
X56680000Y-111030000D01*
X56800000Y-113970000D02*
X56800000Y-111030000D01*
X61220000Y-111030000D02*
X61220000Y-113970000D01*
X61220000Y-113970000D02*
X55780000Y-113970000D01*
X62240000Y-112500000D02*
X61220000Y-112500000D01*
%TO.C,C10*%
X99130000Y-92470000D02*
X99130000Y-85030000D01*
X102370000Y-92470000D02*
X99130000Y-92470000D01*
X102370000Y-92470000D02*
X102370000Y-85030000D01*
X102370000Y-85030000D02*
X99130000Y-85030000D01*
%TO.C,R4*%
X75580000Y-108330000D02*
X79420000Y-108330000D01*
X75580000Y-110170000D02*
X79420000Y-110170000D01*
%TO.C,R1*%
X51420000Y-102080000D02*
X51420000Y-105920000D01*
X49580000Y-102080000D02*
X49580000Y-105920000D01*
%TO.C,C1*%
X57339000Y-110682620D02*
X57339000Y-110052620D01*
X57654000Y-110367620D02*
X57024000Y-110367620D01*
X58730000Y-107182379D02*
X52270000Y-107182379D01*
X58730000Y-107142379D02*
X52270000Y-107142379D01*
X58730000Y-107102379D02*
X52270000Y-107102379D01*
X58728000Y-107062379D02*
X52272000Y-107062379D01*
X58727000Y-107022379D02*
X52273000Y-107022379D01*
X58724000Y-106982379D02*
X52276000Y-106982379D01*
X54460000Y-106942379D02*
X52278000Y-106942379D01*
X58722000Y-106942379D02*
X56540000Y-106942379D01*
X54460000Y-106902379D02*
X52282000Y-106902379D01*
X58718000Y-106902379D02*
X56540000Y-106902379D01*
X54460000Y-106862379D02*
X52285000Y-106862379D01*
X58715000Y-106862379D02*
X56540000Y-106862379D01*
X54460000Y-106822379D02*
X52289000Y-106822379D01*
X58711000Y-106822379D02*
X56540000Y-106822379D01*
X54460000Y-106782379D02*
X52294000Y-106782379D01*
X58706000Y-106782379D02*
X56540000Y-106782379D01*
X54460000Y-106742379D02*
X52299000Y-106742379D01*
X58701000Y-106742379D02*
X56540000Y-106742379D01*
X54460000Y-106702379D02*
X52305000Y-106702379D01*
X58695000Y-106702379D02*
X56540000Y-106702379D01*
X54460000Y-106662379D02*
X52311000Y-106662379D01*
X58689000Y-106662379D02*
X56540000Y-106662379D01*
X54460000Y-106622379D02*
X52318000Y-106622379D01*
X58682000Y-106622379D02*
X56540000Y-106622379D01*
X54460000Y-106582379D02*
X52325000Y-106582379D01*
X58675000Y-106582379D02*
X56540000Y-106582379D01*
X54460000Y-106542379D02*
X52333000Y-106542379D01*
X58667000Y-106542379D02*
X56540000Y-106542379D01*
X54460000Y-106502379D02*
X52341000Y-106502379D01*
X58659000Y-106502379D02*
X56540000Y-106502379D01*
X54460000Y-106461379D02*
X52350000Y-106461379D01*
X58650000Y-106461379D02*
X56540000Y-106461379D01*
X54460000Y-106421379D02*
X52359000Y-106421379D01*
X58641000Y-106421379D02*
X56540000Y-106421379D01*
X54460000Y-106381379D02*
X52369000Y-106381379D01*
X58631000Y-106381379D02*
X56540000Y-106381379D01*
X54460000Y-106341379D02*
X52379000Y-106341379D01*
X58621000Y-106341379D02*
X56540000Y-106341379D01*
X54460000Y-106301379D02*
X52390000Y-106301379D01*
X58610000Y-106301379D02*
X56540000Y-106301379D01*
X54460000Y-106261379D02*
X52402000Y-106261379D01*
X58598000Y-106261379D02*
X56540000Y-106261379D01*
X54460000Y-106221379D02*
X52414000Y-106221379D01*
X58586000Y-106221379D02*
X56540000Y-106221379D01*
X54460000Y-106181379D02*
X52426000Y-106181379D01*
X58574000Y-106181379D02*
X56540000Y-106181379D01*
X54460000Y-106141379D02*
X52439000Y-106141379D01*
X58561000Y-106141379D02*
X56540000Y-106141379D01*
X54460000Y-106101379D02*
X52453000Y-106101379D01*
X58547000Y-106101379D02*
X56540000Y-106101379D01*
X54460000Y-106061379D02*
X52467000Y-106061379D01*
X58533000Y-106061379D02*
X56540000Y-106061379D01*
X54460000Y-106021379D02*
X52482000Y-106021379D01*
X58518000Y-106021379D02*
X56540000Y-106021379D01*
X54460000Y-105981379D02*
X52498000Y-105981379D01*
X58502000Y-105981379D02*
X56540000Y-105981379D01*
X54460000Y-105941379D02*
X52514000Y-105941379D01*
X58486000Y-105941379D02*
X56540000Y-105941379D01*
X54460000Y-105901379D02*
X52530000Y-105901379D01*
X58470000Y-105901379D02*
X56540000Y-105901379D01*
X54460000Y-105861379D02*
X52548000Y-105861379D01*
X58452000Y-105861379D02*
X56540000Y-105861379D01*
X54460000Y-105821379D02*
X52566000Y-105821379D01*
X58434000Y-105821379D02*
X56540000Y-105821379D01*
X54460000Y-105781379D02*
X52584000Y-105781379D01*
X58416000Y-105781379D02*
X56540000Y-105781379D01*
X54460000Y-105741379D02*
X52604000Y-105741379D01*
X58396000Y-105741379D02*
X56540000Y-105741379D01*
X54460000Y-105701379D02*
X52624000Y-105701379D01*
X58376000Y-105701379D02*
X56540000Y-105701379D01*
X54460000Y-105661379D02*
X52644000Y-105661379D01*
X58356000Y-105661379D02*
X56540000Y-105661379D01*
X54460000Y-105621379D02*
X52666000Y-105621379D01*
X58334000Y-105621379D02*
X56540000Y-105621379D01*
X54460000Y-105581379D02*
X52688000Y-105581379D01*
X58312000Y-105581379D02*
X56540000Y-105581379D01*
X54460000Y-105541379D02*
X52710000Y-105541379D01*
X58290000Y-105541379D02*
X56540000Y-105541379D01*
X54460000Y-105501379D02*
X52734000Y-105501379D01*
X58266000Y-105501379D02*
X56540000Y-105501379D01*
X54460000Y-105461379D02*
X52758000Y-105461379D01*
X58242000Y-105461379D02*
X56540000Y-105461379D01*
X54460000Y-105421379D02*
X52784000Y-105421379D01*
X58216000Y-105421379D02*
X56540000Y-105421379D01*
X54460000Y-105381379D02*
X52810000Y-105381379D01*
X58190000Y-105381379D02*
X56540000Y-105381379D01*
X54460000Y-105341379D02*
X52836000Y-105341379D01*
X58164000Y-105341379D02*
X56540000Y-105341379D01*
X54460000Y-105301379D02*
X52864000Y-105301379D01*
X58136000Y-105301379D02*
X56540000Y-105301379D01*
X54460000Y-105261379D02*
X52893000Y-105261379D01*
X58107000Y-105261379D02*
X56540000Y-105261379D01*
X54460000Y-105221379D02*
X52922000Y-105221379D01*
X58078000Y-105221379D02*
X56540000Y-105221379D01*
X54460000Y-105181379D02*
X52952000Y-105181379D01*
X58048000Y-105181379D02*
X56540000Y-105181379D01*
X54460000Y-105141379D02*
X52984000Y-105141379D01*
X58016000Y-105141379D02*
X56540000Y-105141379D01*
X54460000Y-105101379D02*
X53016000Y-105101379D01*
X57984000Y-105101379D02*
X56540000Y-105101379D01*
X54460000Y-105061379D02*
X53050000Y-105061379D01*
X57950000Y-105061379D02*
X56540000Y-105061379D01*
X54460000Y-105021379D02*
X53084000Y-105021379D01*
X57916000Y-105021379D02*
X56540000Y-105021379D01*
X54460000Y-104981379D02*
X53120000Y-104981379D01*
X57880000Y-104981379D02*
X56540000Y-104981379D01*
X54460000Y-104941379D02*
X53157000Y-104941379D01*
X57843000Y-104941379D02*
X56540000Y-104941379D01*
X54460000Y-104901379D02*
X53195000Y-104901379D01*
X57805000Y-104901379D02*
X56540000Y-104901379D01*
X57765000Y-104861379D02*
X53235000Y-104861379D01*
X57724000Y-104821379D02*
X53276000Y-104821379D01*
X57682000Y-104781379D02*
X53318000Y-104781379D01*
X57637000Y-104741379D02*
X53363000Y-104741379D01*
X57592000Y-104701379D02*
X53408000Y-104701379D01*
X57544000Y-104661379D02*
X53456000Y-104661379D01*
X57495000Y-104621379D02*
X53505000Y-104621379D01*
X57444000Y-104581379D02*
X53556000Y-104581379D01*
X57390000Y-104541379D02*
X53610000Y-104541379D01*
X57334000Y-104501379D02*
X53666000Y-104501379D01*
X57276000Y-104461379D02*
X53724000Y-104461379D01*
X57214000Y-104421379D02*
X53786000Y-104421379D01*
X57150000Y-104381379D02*
X53850000Y-104381379D01*
X57081000Y-104341379D02*
X53919000Y-104341379D01*
X57009000Y-104301379D02*
X53991000Y-104301379D01*
X56932000Y-104261379D02*
X54068000Y-104261379D01*
X56850000Y-104221379D02*
X54150000Y-104221379D01*
X56762000Y-104181379D02*
X54238000Y-104181379D01*
X56665000Y-104141379D02*
X54335000Y-104141379D01*
X56559000Y-104101379D02*
X54441000Y-104101379D01*
X56440000Y-104061379D02*
X54560000Y-104061379D01*
X56302000Y-104021379D02*
X54698000Y-104021379D01*
X56133000Y-103981379D02*
X54867000Y-103981379D01*
X55902000Y-103941379D02*
X55098000Y-103941379D01*
X58770000Y-107182379D02*
G75*
G03*
X58770000Y-107182379I-3270000J0D01*
G01*
%TO.C,R16*%
X77880000Y-88000000D02*
X78830000Y-88000000D01*
X78830000Y-87080000D02*
X82670000Y-87080000D01*
X78830000Y-88920000D02*
X78830000Y-87080000D01*
X82670000Y-87080000D02*
X82670000Y-88920000D01*
X82670000Y-88920000D02*
X78830000Y-88920000D01*
X83620000Y-88000000D02*
X82670000Y-88000000D01*
%TO.C,C3*%
X81380000Y-111220000D02*
X81380000Y-103780000D01*
X84620000Y-111220000D02*
X81380000Y-111220000D01*
X84620000Y-111220000D02*
X84620000Y-103780000D01*
X84620000Y-103780000D02*
X81380000Y-103780000D01*
%TO.C,C14*%
X61620000Y-94130000D02*
X61620000Y-101870000D01*
X56380000Y-94130000D02*
X61620000Y-94130000D01*
X56380000Y-94130000D02*
X56380000Y-101870000D01*
X56380000Y-101870000D02*
X61620000Y-101870000D01*
%TO.C,R18*%
X96830000Y-93580000D02*
X100670000Y-93580000D01*
X96830000Y-95420000D02*
X100670000Y-95420000D01*
%TD*%
%LPC*%
D12*
%TO.C,U2*%
X72937500Y-65712500D03*
D13*
X75480000Y-65720000D03*
D14*
X78020000Y-65720000D03*
D15*
X80560000Y-65720000D03*
D16*
X80560000Y-57780000D03*
D17*
X78020000Y-57780000D03*
D18*
X75480000Y-57780000D03*
D19*
X72940000Y-57780000D03*
%TD*%
D20*
%TO.C,Vin*%
X72250000Y-113000000D03*
%TD*%
%TO.C,OUT*%
X66250000Y-106000000D03*
%TD*%
D12*
%TO.C,U3*%
X72687500Y-80712500D03*
D13*
X75230000Y-80720000D03*
D14*
X77770000Y-80720000D03*
D15*
X80310000Y-80720000D03*
D16*
X80310000Y-72780000D03*
D17*
X77770000Y-72780000D03*
D18*
X75230000Y-72780000D03*
D19*
X72690000Y-72780000D03*
%TD*%
D20*
%TO.C,GND*%
X77750000Y-113000000D03*
%TD*%
D21*
%TO.C,RV3*%
X95800000Y-67500000D03*
X86200000Y-67500000D03*
D22*
X93500000Y-60000000D03*
D23*
X91000000Y-60000000D03*
X88500000Y-60000000D03*
%TD*%
D21*
%TO.C,RV4*%
X63800000Y-98250000D03*
X54200000Y-98250000D03*
D22*
X61500000Y-90750000D03*
D23*
X59000000Y-90750000D03*
X56500000Y-90750000D03*
%TD*%
D12*
%TO.C,U1*%
X56962500Y-87252500D03*
D13*
X56970000Y-84710000D03*
D14*
X56970000Y-82170000D03*
D15*
X56970000Y-79630000D03*
D16*
X49030000Y-79630000D03*
D17*
X49030000Y-82170000D03*
D18*
X49030000Y-84710000D03*
D19*
X49030000Y-87250000D03*
%TD*%
D21*
%TO.C,RV1*%
X95800000Y-98250000D03*
X86200000Y-98250000D03*
D22*
X93500000Y-90750000D03*
D23*
X91000000Y-90750000D03*
X88500000Y-90750000D03*
%TD*%
D20*
%TO.C,IN*%
X75000000Y-112250000D03*
%TD*%
D21*
%TO.C,RV2*%
X63800000Y-67500000D03*
X54200000Y-67500000D03*
D22*
X61500000Y-60000000D03*
D23*
X59000000Y-60000000D03*
X56500000Y-60000000D03*
%TD*%
D24*
%TO.C,R25*%
X72460000Y-75500000D03*
D25*
X77540000Y-75500000D03*
%TD*%
D24*
%TO.C,R23*%
X63250000Y-102250000D03*
D25*
X63250000Y-109870000D03*
%TD*%
D24*
%TO.C,R2*%
X48000000Y-101460000D03*
D25*
X48000000Y-106540000D03*
%TD*%
D22*
%TO.C,D6*%
X77250000Y-78000000D03*
D26*
X77250000Y-85620000D03*
%TD*%
D24*
%TO.C,R10*%
X82250000Y-101500000D03*
D25*
X87330000Y-101500000D03*
%TD*%
D24*
%TO.C,R22*%
X83460000Y-77750000D03*
D25*
X88540000Y-77750000D03*
%TD*%
D27*
%TO.C,C8*%
X68500000Y-97000000D03*
X68500000Y-92000000D03*
%TD*%
%TO.C,C11*%
X100250000Y-83750000D03*
X100250000Y-78750000D03*
%TD*%
D24*
%TO.C,R15*%
X78210000Y-90250000D03*
D25*
X83290000Y-90250000D03*
%TD*%
D27*
%TO.C,C24*%
X69250000Y-62500000D03*
X69250000Y-57500000D03*
%TD*%
D24*
%TO.C,R5*%
X97120000Y-101000000D03*
D25*
X89500000Y-101000000D03*
%TD*%
D22*
%TO.C,D4*%
X88750000Y-80190000D03*
D26*
X88750000Y-87810000D03*
%TD*%
D27*
%TO.C,C20*%
X74250000Y-61500000D03*
X79250000Y-61500000D03*
%TD*%
D24*
%TO.C,R12*%
X100500000Y-107210000D03*
D25*
X100500000Y-112290000D03*
%TD*%
D28*
%TO.C,Q1*%
X74460000Y-100500000D03*
D29*
X77000000Y-100500000D03*
X79540000Y-100500000D03*
%TD*%
D27*
%TO.C,C16*%
X64750000Y-80500000D03*
X64750000Y-75500000D03*
%TD*%
D24*
%TO.C,R14*%
X72000000Y-97040000D03*
D25*
X72000000Y-91960000D03*
%TD*%
D27*
%TO.C,C19*%
X91000000Y-57250000D03*
X96000000Y-57250000D03*
%TD*%
D30*
%TO.C,C9*%
X91750000Y-97000000D03*
D27*
X89750000Y-97000000D03*
%TD*%
%TO.C,C18*%
X98500000Y-69750000D03*
X98500000Y-64750000D03*
%TD*%
D24*
%TO.C,R6*%
X74960000Y-106750000D03*
D25*
X80040000Y-106750000D03*
%TD*%
D24*
%TO.C,R11*%
X102750000Y-113810000D03*
D25*
X102750000Y-106190000D03*
%TD*%
D24*
%TO.C,R28*%
X95040000Y-62500000D03*
D25*
X89960000Y-62500000D03*
%TD*%
D30*
%TO.C,C22*%
X69205113Y-70500000D03*
D27*
X67205113Y-70500000D03*
%TD*%
D30*
%TO.C,C2*%
X49000000Y-109294888D03*
D27*
X49000000Y-111794888D03*
%TD*%
D24*
%TO.C,R21*%
X102750000Y-83790000D03*
D25*
X102750000Y-78710000D03*
%TD*%
D24*
%TO.C,R30*%
X88790000Y-57500000D03*
D25*
X83710000Y-57500000D03*
%TD*%
D22*
%TO.C,D5*%
X80750000Y-85310000D03*
D26*
X80750000Y-77690000D03*
%TD*%
D27*
%TO.C,C25*%
X50750000Y-95750000D03*
X50750000Y-90750000D03*
%TD*%
%TO.C,C4*%
X87250000Y-105000000D03*
X87250000Y-110000000D03*
%TD*%
D24*
%TO.C,R29*%
X61540000Y-65250000D03*
D25*
X56460000Y-65250000D03*
%TD*%
D24*
%TO.C,R32*%
X65000000Y-85250000D03*
D25*
X65000000Y-90330000D03*
%TD*%
D24*
%TO.C,R7*%
X74960000Y-104500000D03*
D25*
X80040000Y-104500000D03*
%TD*%
D27*
%TO.C,C6*%
X77750000Y-95750000D03*
X82750000Y-95750000D03*
%TD*%
%TO.C,C17*%
X99250000Y-62250000D03*
X99250000Y-57250000D03*
%TD*%
%TO.C,C5*%
X90500000Y-103500000D03*
X95500000Y-103500000D03*
%TD*%
D24*
%TO.C,R17*%
X74750000Y-92250000D03*
D25*
X74750000Y-97330000D03*
%TD*%
D28*
%TO.C,Q3*%
X73500000Y-84710000D03*
D29*
X73500000Y-87250000D03*
X73500000Y-89790000D03*
%TD*%
D24*
%TO.C,R31*%
X79560000Y-70500000D03*
D25*
X71940000Y-70500000D03*
%TD*%
D27*
%TO.C,C21*%
X82250000Y-72000000D03*
X82250000Y-67000000D03*
%TD*%
D24*
%TO.C,R27*%
X61540000Y-62750000D03*
D25*
X56460000Y-62750000D03*
%TD*%
D22*
%TO.C,D3*%
X92500000Y-87810000D03*
D26*
X92500000Y-80190000D03*
%TD*%
D24*
%TO.C,R24*%
X47250000Y-74190000D03*
D25*
X47250000Y-81810000D03*
%TD*%
D22*
%TO.C,D2*%
X96250000Y-87810000D03*
D26*
X96250000Y-80190000D03*
%TD*%
D24*
%TO.C,R19*%
X71500000Y-100960000D03*
D25*
X71500000Y-106040000D03*
%TD*%
D24*
%TO.C,R20*%
X69000000Y-107310000D03*
D25*
X69000000Y-99690000D03*
%TD*%
D27*
%TO.C,C13*%
X88500000Y-74750000D03*
X83500000Y-74750000D03*
%TD*%
D24*
%TO.C,R8*%
X90500000Y-113370000D03*
D25*
X90500000Y-105750000D03*
%TD*%
D24*
%TO.C,R26*%
X64290000Y-82750000D03*
D25*
X59210000Y-82750000D03*
%TD*%
D24*
%TO.C,R3*%
X79960000Y-113000000D03*
D25*
X85040000Y-113000000D03*
%TD*%
D24*
%TO.C,R13*%
X84500000Y-92500000D03*
D25*
X76880000Y-92500000D03*
%TD*%
D31*
%TO.C,C12*%
X96250000Y-76000000D03*
X91250000Y-76000000D03*
%TD*%
D27*
%TO.C,C23*%
X68750000Y-79500000D03*
X68750000Y-74500000D03*
%TD*%
D30*
%TO.C,C7*%
X99750000Y-102000000D03*
D27*
X102250000Y-102000000D03*
%TD*%
D32*
%TO.C,C15*%
X59277401Y-79000000D03*
D33*
X60777401Y-79000000D03*
%TD*%
D24*
%TO.C,R9*%
X93000000Y-107210000D03*
D25*
X93000000Y-112290000D03*
%TD*%
D28*
%TO.C,Q2*%
X96500000Y-112250000D03*
D29*
X96500000Y-109710000D03*
X96500000Y-107170000D03*
%TD*%
D34*
%TO.C,D1*%
X53420000Y-112500000D03*
D35*
X63580000Y-112500000D03*
%TD*%
D27*
%TO.C,C10*%
X100750000Y-91250000D03*
X100750000Y-86250000D03*
%TD*%
D24*
%TO.C,R4*%
X74960000Y-109250000D03*
D25*
X80040000Y-109250000D03*
%TD*%
D24*
%TO.C,R1*%
X50500000Y-101460000D03*
D25*
X50500000Y-106540000D03*
%TD*%
D30*
%TO.C,C1*%
X55500000Y-108432379D03*
D27*
X55500000Y-105932379D03*
%TD*%
D24*
%TO.C,R16*%
X76940000Y-88000000D03*
D25*
X84560000Y-88000000D03*
%TD*%
D27*
%TO.C,C3*%
X83000000Y-110000000D03*
X83000000Y-105000000D03*
%TD*%
D31*
%TO.C,C14*%
X59000000Y-95500000D03*
X59000000Y-100500000D03*
%TD*%
D24*
%TO.C,R18*%
X96210000Y-94500000D03*
D25*
X101290000Y-94500000D03*
%TD*%
M02*
