%TF.GenerationSoftware,KiCad,Pcbnew,7.0.1*%
%TF.CreationDate,2023-05-31T21:26:11+02:00*%
%TF.ProjectId,SwedishChainsaw,53776564-6973-4684-9368-61696e736177,rev?*%
%TF.SameCoordinates,Original*%
%TF.FileFunction,Legend,Top*%
%TF.FilePolarity,Positive*%
%FSLAX46Y46*%
G04 Gerber Fmt 4.6, Leading zero omitted, Abs format (unit mm)*
G04 Created by KiCad (PCBNEW 7.0.1) date 2023-05-31 21:26:11*
%MOMM*%
%LPD*%
G01*
G04 APERTURE LIST*
G04 Aperture macros list*
%AMRoundRect*
0 Rectangle with rounded corners*
0 $1 Rounding radius*
0 $2 $3 $4 $5 $6 $7 $8 $9 X,Y pos of 4 corners*
0 Add a 4 corners polygon primitive as box body*
4,1,4,$2,$3,$4,$5,$6,$7,$8,$9,$2,$3,0*
0 Add four circle primitives for the rounded corners*
1,1,$1+$1,$2,$3*
1,1,$1+$1,$4,$5*
1,1,$1+$1,$6,$7*
1,1,$1+$1,$8,$9*
0 Add four rect primitives between the rounded corners*
20,1,$1+$1,$2,$3,$4,$5,0*
20,1,$1+$1,$4,$5,$6,$7,0*
20,1,$1+$1,$6,$7,$8,$9,0*
20,1,$1+$1,$8,$9,$2,$3,0*%
G04 Aperture macros list end*
%ADD10C,0.200000*%
%ADD11C,0.150000*%
%ADD12C,0.127000*%
%ADD13C,0.120000*%
%ADD14R,1.325000X1.325000*%
%ADD15C,1.390000*%
%ADD16C,1.390034*%
%ADD17C,1.340148*%
%ADD18C,1.360000*%
%ADD19C,1.360036*%
%ADD20C,1.360588*%
%ADD21C,1.310152*%
%ADD22RoundRect,0.250000X-0.550000X-0.550000X0.550000X-0.550000X0.550000X0.550000X-0.550000X0.550000X0*%
%ADD23C,3.240000*%
%ADD24R,1.800000X1.800000*%
%ADD25C,1.800000*%
%ADD26C,1.400000*%
%ADD27O,1.400000X1.400000*%
%ADD28O,1.800000X1.800000*%
%ADD29C,1.600000*%
%ADD30R,1.500000X1.500000*%
%ADD31C,1.500000*%
%ADD32R,1.600000X1.600000*%
%ADD33C,2.000000*%
%ADD34R,1.200000X1.200000*%
%ADD35C,1.200000*%
%ADD36R,2.200000X2.200000*%
%ADD37O,2.200000X2.200000*%
G04 APERTURE END LIST*
D10*
G36*
X47028471Y-60667438D02*
G01*
X47026807Y-60677269D01*
X47023376Y-60686486D01*
X47019086Y-60695373D01*
X47013496Y-60705357D01*
X47008088Y-60714135D01*
X47001849Y-60723614D01*
X46994238Y-60733914D01*
X46986305Y-60744176D01*
X46978049Y-60754400D01*
X46969471Y-60764586D01*
X46960571Y-60774734D01*
X46951348Y-60784843D01*
X46941802Y-60794914D01*
X46931934Y-60804947D01*
X46921744Y-60814942D01*
X46911231Y-60824899D01*
X46900395Y-60834817D01*
X46889238Y-60844698D01*
X46877757Y-60854540D01*
X46865954Y-60864344D01*
X46853829Y-60874110D01*
X46841381Y-60883838D01*
X46828690Y-60893213D01*
X46815835Y-60901984D01*
X46802816Y-60910150D01*
X46789632Y-60917711D01*
X46776285Y-60924667D01*
X46762773Y-60931018D01*
X46749097Y-60936765D01*
X46735258Y-60941906D01*
X46721254Y-60946443D01*
X46707086Y-60950375D01*
X46692754Y-60953702D01*
X46678258Y-60956424D01*
X46663597Y-60958541D01*
X46648773Y-60960053D01*
X46633784Y-60960960D01*
X46618632Y-60961263D01*
X46602694Y-60960972D01*
X46587121Y-60960099D01*
X46571912Y-60958644D01*
X46557067Y-60956607D01*
X46542587Y-60953988D01*
X46528472Y-60950787D01*
X46514721Y-60947004D01*
X46501334Y-60942639D01*
X46488312Y-60937692D01*
X46475654Y-60932163D01*
X46463361Y-60926052D01*
X46451432Y-60919360D01*
X46439868Y-60912085D01*
X46428668Y-60904228D01*
X46417833Y-60895789D01*
X46407362Y-60886769D01*
X46397394Y-60877179D01*
X46388070Y-60867034D01*
X46379389Y-60856335D01*
X46371351Y-60845079D01*
X46363956Y-60833269D01*
X46357204Y-60820903D01*
X46351095Y-60807982D01*
X46345629Y-60794506D01*
X46340806Y-60780474D01*
X46336627Y-60765887D01*
X46333090Y-60750745D01*
X46330196Y-60735048D01*
X46327946Y-60718795D01*
X46326338Y-60701987D01*
X46325373Y-60684624D01*
X46325052Y-60666706D01*
X46325184Y-60654394D01*
X46325582Y-60641885D01*
X46326245Y-60629176D01*
X46327174Y-60616270D01*
X46328367Y-60603164D01*
X46329826Y-60589861D01*
X46331550Y-60576359D01*
X46333539Y-60562658D01*
X46335794Y-60548759D01*
X46338313Y-60534662D01*
X46341098Y-60520366D01*
X46344149Y-60505872D01*
X46347464Y-60491179D01*
X46351045Y-60476288D01*
X46354890Y-60461198D01*
X46359002Y-60445910D01*
X46363318Y-60430649D01*
X46367718Y-60415639D01*
X46372202Y-60400882D01*
X46376770Y-60386376D01*
X46381422Y-60372122D01*
X46386158Y-60358120D01*
X46390978Y-60344370D01*
X46395882Y-60330872D01*
X46400870Y-60317625D01*
X46405942Y-60304631D01*
X46411098Y-60291888D01*
X46416338Y-60279398D01*
X46421661Y-60267159D01*
X46427069Y-60255172D01*
X46432561Y-60243437D01*
X46438136Y-60231953D01*
X46444089Y-60220503D01*
X46450161Y-60209292D01*
X46456354Y-60198322D01*
X46462667Y-60187593D01*
X46469101Y-60177104D01*
X46475654Y-60166855D01*
X46482328Y-60156847D01*
X46489122Y-60147079D01*
X46496036Y-60137552D01*
X46503071Y-60128265D01*
X46510225Y-60119218D01*
X46517500Y-60110412D01*
X46524895Y-60101846D01*
X46532410Y-60093521D01*
X46540046Y-60085436D01*
X46547801Y-60077592D01*
X46555656Y-60070080D01*
X46563528Y-60063052D01*
X46571417Y-60056509D01*
X46579324Y-60050450D01*
X46591216Y-60042272D01*
X46603146Y-60035183D01*
X46615115Y-60029186D01*
X46627123Y-60024278D01*
X46639169Y-60020462D01*
X46651254Y-60017735D01*
X46663378Y-60016100D01*
X46675540Y-60015554D01*
X46687327Y-60015954D01*
X46698598Y-60017151D01*
X46709355Y-60019148D01*
X46719596Y-60021943D01*
X46729321Y-60025536D01*
X46738532Y-60029928D01*
X46747228Y-60035119D01*
X46755408Y-60041108D01*
X46763073Y-60047896D01*
X46770223Y-60055482D01*
X46774703Y-60060983D01*
X46780945Y-60069684D01*
X46786573Y-60078749D01*
X46791586Y-60088180D01*
X46795986Y-60097975D01*
X46799772Y-60108135D01*
X46802944Y-60118660D01*
X46805503Y-60129550D01*
X46807447Y-60140805D01*
X46808777Y-60152425D01*
X46809493Y-60164410D01*
X46809630Y-60172602D01*
X46809174Y-60183513D01*
X46807806Y-60194448D01*
X46805527Y-60205406D01*
X46802848Y-60214817D01*
X46800104Y-60222672D01*
X46796512Y-60231883D01*
X46792039Y-60242064D01*
X46787262Y-60251638D01*
X46782182Y-60260604D01*
X46778367Y-60266636D01*
X46772306Y-60274757D01*
X46765203Y-60281645D01*
X46756140Y-60285198D01*
X46746223Y-60283195D01*
X46739170Y-60275501D01*
X46737334Y-60264682D01*
X46739056Y-60254825D01*
X46741918Y-60245317D01*
X46742219Y-60244410D01*
X46745195Y-60234278D01*
X46746932Y-60224627D01*
X46747103Y-60221207D01*
X46746907Y-60210628D01*
X46746316Y-60200265D01*
X46745332Y-60190116D01*
X46743955Y-60180182D01*
X46742184Y-60170462D01*
X46739539Y-60159082D01*
X46739043Y-60157215D01*
X46735657Y-60147045D01*
X46731056Y-60137694D01*
X46725239Y-60129160D01*
X46718206Y-60121445D01*
X46713642Y-60117404D01*
X46705167Y-60111218D01*
X46696412Y-60106551D01*
X46686062Y-60103078D01*
X46675346Y-60101590D01*
X46672609Y-60101528D01*
X46660708Y-60102271D01*
X46648880Y-60104501D01*
X46637124Y-60108217D01*
X46625440Y-60113419D01*
X46613829Y-60120108D01*
X46602290Y-60128284D01*
X46590824Y-60137946D01*
X46579431Y-60149094D01*
X46568110Y-60161729D01*
X46556861Y-60175850D01*
X46545685Y-60191458D01*
X46540124Y-60199819D01*
X46534582Y-60208552D01*
X46529057Y-60217656D01*
X46523551Y-60227133D01*
X46518062Y-60236980D01*
X46512592Y-60247200D01*
X46507140Y-60257790D01*
X46501706Y-60268753D01*
X46496290Y-60280087D01*
X46490893Y-60291793D01*
X46486630Y-60301608D01*
X46482451Y-60311577D01*
X46478356Y-60321697D01*
X46474345Y-60331971D01*
X46470418Y-60342397D01*
X46466575Y-60352976D01*
X46462816Y-60363707D01*
X46459141Y-60374591D01*
X46455550Y-60385628D01*
X46452043Y-60396817D01*
X46448620Y-60408159D01*
X46445280Y-60419654D01*
X46442025Y-60431301D01*
X46438854Y-60443101D01*
X46435766Y-60455054D01*
X46432763Y-60467159D01*
X46429924Y-60479283D01*
X46427267Y-60491351D01*
X46424795Y-60503364D01*
X46422505Y-60515321D01*
X46420398Y-60527223D01*
X46418475Y-60539070D01*
X46416734Y-60550861D01*
X46415177Y-60562597D01*
X46413804Y-60574278D01*
X46412613Y-60585903D01*
X46411605Y-60597473D01*
X46410781Y-60608988D01*
X46410140Y-60620447D01*
X46409682Y-60631851D01*
X46409407Y-60643200D01*
X46409316Y-60654494D01*
X46409535Y-60665892D01*
X46410191Y-60677097D01*
X46411286Y-60688108D01*
X46412819Y-60698927D01*
X46414790Y-60709552D01*
X46417198Y-60719984D01*
X46420045Y-60730223D01*
X46423329Y-60740269D01*
X46427051Y-60750121D01*
X46431212Y-60759780D01*
X46434228Y-60766113D01*
X46439086Y-60775320D01*
X46444318Y-60784167D01*
X46449923Y-60792654D01*
X46455901Y-60800780D01*
X46462253Y-60808545D01*
X46468979Y-60815950D01*
X46476078Y-60822993D01*
X46483550Y-60829677D01*
X46491396Y-60835999D01*
X46499616Y-60841961D01*
X46505303Y-60845736D01*
X46514098Y-60851017D01*
X46523172Y-60855779D01*
X46532525Y-60860022D01*
X46542157Y-60863745D01*
X46552068Y-60866948D01*
X46562258Y-60869632D01*
X46572728Y-60871797D01*
X46583476Y-60873442D01*
X46594503Y-60874568D01*
X46605810Y-60875174D01*
X46613503Y-60875289D01*
X46625888Y-60875100D01*
X46638133Y-60874533D01*
X46650236Y-60873589D01*
X46662199Y-60872267D01*
X46674020Y-60870566D01*
X46685699Y-60868488D01*
X46697238Y-60866033D01*
X46708635Y-60863199D01*
X46719891Y-60859988D01*
X46731006Y-60856398D01*
X46741980Y-60852431D01*
X46752813Y-60848087D01*
X46763504Y-60843364D01*
X46774054Y-60838263D01*
X46784463Y-60832785D01*
X46794731Y-60826929D01*
X46804952Y-60820774D01*
X46815159Y-60814400D01*
X46825354Y-60807807D01*
X46835535Y-60800993D01*
X46845702Y-60793961D01*
X46855856Y-60786709D01*
X46865997Y-60779238D01*
X46876125Y-60771547D01*
X46886239Y-60763637D01*
X46896340Y-60755507D01*
X46906427Y-60747158D01*
X46916501Y-60738589D01*
X46926562Y-60729801D01*
X46936609Y-60720794D01*
X46946643Y-60711567D01*
X46956664Y-60702121D01*
X46962648Y-60693145D01*
X46968479Y-60683391D01*
X46974095Y-60673771D01*
X46976203Y-60670125D01*
X46981585Y-60661400D01*
X46987745Y-60652882D01*
X46994519Y-60645636D01*
X47003425Y-60640312D01*
X47006734Y-60639839D01*
X47016694Y-60641395D01*
X47023831Y-60646922D01*
X47027452Y-60656118D01*
X47028467Y-60666590D01*
X47028471Y-60667438D01*
G37*
G36*
X47873551Y-60539211D02*
G01*
X47872221Y-60548894D01*
X47867303Y-60558736D01*
X47860205Y-60565926D01*
X47850445Y-60571965D01*
X47840278Y-60576119D01*
X47835694Y-60577557D01*
X47825542Y-60580462D01*
X47814685Y-60582766D01*
X47803125Y-60584469D01*
X47792953Y-60585429D01*
X47782292Y-60585972D01*
X47773412Y-60586106D01*
X47762909Y-60586106D01*
X47752399Y-60586106D01*
X47741938Y-60586106D01*
X47733600Y-60586106D01*
X47733147Y-60598213D01*
X47732682Y-60608517D01*
X47732124Y-60619370D01*
X47731476Y-60630773D01*
X47730735Y-60642726D01*
X47729903Y-60655228D01*
X47728980Y-60668280D01*
X47728227Y-60678429D01*
X47727459Y-60688566D01*
X47726713Y-60698368D01*
X47725751Y-60710916D01*
X47724828Y-60722868D01*
X47723942Y-60734226D01*
X47723095Y-60744987D01*
X47722286Y-60755154D01*
X47721328Y-60767025D01*
X47721144Y-60769288D01*
X47716992Y-60813740D01*
X47716992Y-60858436D01*
X47708443Y-60966880D01*
X47706844Y-60980935D01*
X47704519Y-60993608D01*
X47701469Y-61004898D01*
X47697693Y-61014805D01*
X47691530Y-61025865D01*
X47684076Y-61034467D01*
X47675333Y-61040611D01*
X47665300Y-61044298D01*
X47653977Y-61045526D01*
X47643887Y-61043084D01*
X47635534Y-61036940D01*
X47628727Y-61028697D01*
X47623305Y-61019728D01*
X47618109Y-61008852D01*
X47617096Y-61006448D01*
X47613318Y-60996972D01*
X47609304Y-60985782D01*
X47606077Y-60975319D01*
X47603637Y-60965584D01*
X47601748Y-60954862D01*
X47600976Y-60943677D01*
X47603499Y-60934135D01*
X47608555Y-60924614D01*
X47612456Y-60918520D01*
X47617753Y-60909544D01*
X47621920Y-60899713D01*
X47624958Y-60889028D01*
X47626689Y-60878977D01*
X47626866Y-60877487D01*
X47628351Y-60866783D01*
X47629873Y-60854452D01*
X47631041Y-60844137D01*
X47632229Y-60832908D01*
X47633439Y-60820765D01*
X47634671Y-60807706D01*
X47635923Y-60793734D01*
X47636771Y-60783911D01*
X47637627Y-60773681D01*
X47638494Y-60763045D01*
X47639370Y-60752003D01*
X47639811Y-60746329D01*
X47640698Y-60734999D01*
X47641528Y-60723969D01*
X47642301Y-60713239D01*
X47643017Y-60702808D01*
X47643675Y-60692677D01*
X47644276Y-60682845D01*
X47645070Y-60668659D01*
X47645736Y-60655147D01*
X47646273Y-60642309D01*
X47646680Y-60630146D01*
X47646959Y-60618656D01*
X47647110Y-60607840D01*
X47647138Y-60601004D01*
X47635388Y-60602130D01*
X47623096Y-60603432D01*
X47610262Y-60604908D01*
X47600280Y-60606131D01*
X47589994Y-60607453D01*
X47579403Y-60608873D01*
X47568507Y-60610392D01*
X47557307Y-60612010D01*
X47545801Y-60613727D01*
X47537962Y-60614926D01*
X47527461Y-60616121D01*
X47516579Y-60617369D01*
X47503491Y-60618877D01*
X47492227Y-60620177D01*
X47479723Y-60621624D01*
X47465978Y-60623217D01*
X47456125Y-60624360D01*
X47445721Y-60625568D01*
X47434765Y-60626841D01*
X47423258Y-60628178D01*
X47411200Y-60629581D01*
X47399088Y-60630941D01*
X47387359Y-60632214D01*
X47376014Y-60633399D01*
X47365053Y-60634496D01*
X47354475Y-60635506D01*
X47344281Y-60636427D01*
X47334470Y-60637261D01*
X47320473Y-60638347D01*
X47307339Y-60639236D01*
X47295068Y-60639927D01*
X47283660Y-60640421D01*
X47273115Y-60640717D01*
X47263433Y-60640816D01*
X47262692Y-60651718D01*
X47261937Y-60662992D01*
X47261166Y-60674639D01*
X47260380Y-60686657D01*
X47259578Y-60699048D01*
X47258762Y-60711810D01*
X47257930Y-60724945D01*
X47257083Y-60738452D01*
X47256220Y-60752331D01*
X47255342Y-60766582D01*
X47254449Y-60781205D01*
X47253541Y-60796200D01*
X47252617Y-60811567D01*
X47251679Y-60827307D01*
X47250725Y-60843418D01*
X47249755Y-60859902D01*
X47248809Y-60876135D01*
X47247923Y-60891558D01*
X47247099Y-60906170D01*
X47246336Y-60919970D01*
X47245634Y-60932960D01*
X47244993Y-60945139D01*
X47244412Y-60956507D01*
X47243893Y-60967063D01*
X47243229Y-60981378D01*
X47242703Y-60993868D01*
X47242313Y-61004533D01*
X47242008Y-61015915D01*
X47241939Y-61022323D01*
X47242464Y-61032106D01*
X47243726Y-61042336D01*
X47245115Y-61050900D01*
X47246650Y-61060585D01*
X47247843Y-61070744D01*
X47248290Y-61079720D01*
X47246239Y-61090015D01*
X47240885Y-61098872D01*
X47233336Y-61106421D01*
X47227285Y-61110983D01*
X47218564Y-61116598D01*
X47209485Y-61121327D01*
X47199468Y-61124704D01*
X47193335Y-61125394D01*
X47183669Y-61123694D01*
X47175277Y-61118593D01*
X47168161Y-61110092D01*
X47164759Y-61103900D01*
X47160762Y-61094417D01*
X47157746Y-61084559D01*
X47155713Y-61074328D01*
X47154661Y-61063722D01*
X47154501Y-61057494D01*
X47154763Y-61047725D01*
X47155351Y-61037711D01*
X47156140Y-61027346D01*
X47157022Y-61017271D01*
X47157187Y-61015484D01*
X47158183Y-61005009D01*
X47158973Y-60995014D01*
X47159634Y-60983961D01*
X47160015Y-60973563D01*
X47160118Y-60965170D01*
X47163003Y-60953762D01*
X47165399Y-60943046D01*
X47167306Y-60933021D01*
X47168949Y-60921904D01*
X47169888Y-60911783D01*
X47170132Y-60904110D01*
X47171522Y-60893813D01*
X47172823Y-60883563D01*
X47174033Y-60873358D01*
X47175154Y-60863199D01*
X47176186Y-60853086D01*
X47177127Y-60843019D01*
X47177979Y-60832997D01*
X47178742Y-60823021D01*
X47179414Y-60813091D01*
X47179997Y-60803207D01*
X47180490Y-60793369D01*
X47180894Y-60783576D01*
X47181331Y-60768973D01*
X47181567Y-60754473D01*
X47181612Y-60744863D01*
X47181612Y-60730962D01*
X47181612Y-60718107D01*
X47181612Y-60706301D01*
X47181612Y-60695542D01*
X47181612Y-60682826D01*
X47181612Y-60671972D01*
X47181612Y-60661024D01*
X47181612Y-60650586D01*
X47171661Y-60652242D01*
X47161717Y-60653791D01*
X47151779Y-60655234D01*
X47141846Y-60656570D01*
X47131919Y-60657798D01*
X47121997Y-60658920D01*
X47112081Y-60659936D01*
X47102172Y-60660844D01*
X47092267Y-60661645D01*
X47082369Y-60662340D01*
X47072476Y-60662928D01*
X47062589Y-60663408D01*
X47052708Y-60663782D01*
X47042832Y-60664050D01*
X47032962Y-60664210D01*
X47023098Y-60664263D01*
X47012548Y-60663697D01*
X47002513Y-60661996D01*
X46992993Y-60659163D01*
X46983989Y-60655196D01*
X46975499Y-60650095D01*
X46972784Y-60648143D01*
X46965479Y-60641592D01*
X46958868Y-60632667D01*
X46954313Y-60622364D01*
X46952046Y-60612435D01*
X46951290Y-60601493D01*
X46952008Y-60590807D01*
X46954530Y-60580392D01*
X46959463Y-60570813D01*
X46962770Y-60566810D01*
X46970869Y-60561025D01*
X46980826Y-60557472D01*
X46991667Y-60555590D01*
X47002540Y-60554889D01*
X47006489Y-60554842D01*
X47082693Y-60554842D01*
X47096341Y-60554842D01*
X47109349Y-60554842D01*
X47121717Y-60554842D01*
X47133446Y-60554842D01*
X47144535Y-60554842D01*
X47154984Y-60554842D01*
X47164794Y-60554842D01*
X47176878Y-60554842D01*
X47187825Y-60554842D01*
X47195289Y-60554842D01*
X47195289Y-60541167D01*
X47195289Y-60527800D01*
X47195289Y-60514743D01*
X47195289Y-60501994D01*
X47195289Y-60489555D01*
X47195289Y-60477425D01*
X47195289Y-60465604D01*
X47195289Y-60454092D01*
X47195289Y-60442890D01*
X47195289Y-60431996D01*
X47195289Y-60421411D01*
X47195289Y-60411136D01*
X47195289Y-60401170D01*
X47195289Y-60386800D01*
X47195289Y-60373126D01*
X47195289Y-60363053D01*
X47195289Y-60353045D01*
X47195289Y-60343103D01*
X47195289Y-60333226D01*
X47195289Y-60323415D01*
X47195289Y-60303988D01*
X47195289Y-60284823D01*
X47195289Y-60265919D01*
X47195289Y-60247276D01*
X47195289Y-60228895D01*
X47195289Y-60210775D01*
X47195289Y-60192917D01*
X47195289Y-60175320D01*
X47195289Y-60157984D01*
X47195289Y-60140910D01*
X47195289Y-60124098D01*
X47195289Y-60107546D01*
X47195289Y-60091256D01*
X47195289Y-60083210D01*
X47195289Y-60031674D01*
X47196224Y-60021338D01*
X47199029Y-60011913D01*
X47204525Y-60002257D01*
X47211337Y-59994786D01*
X47214829Y-59991863D01*
X47223622Y-59985867D01*
X47232907Y-59981344D01*
X47242683Y-59978294D01*
X47252949Y-59976716D01*
X47259036Y-59976475D01*
X47269279Y-59978200D01*
X47278431Y-59984265D01*
X47284457Y-59993321D01*
X47288101Y-60004075D01*
X47290426Y-60014536D01*
X47292269Y-60025221D01*
X47293631Y-60036129D01*
X47294513Y-60047260D01*
X47294913Y-60058614D01*
X47294940Y-60062449D01*
X47294565Y-60074092D01*
X47293723Y-60085665D01*
X47292776Y-60095662D01*
X47291559Y-60106788D01*
X47290072Y-60119044D01*
X47288313Y-60132428D01*
X47286285Y-60146942D01*
X47284782Y-60157245D01*
X47283159Y-60168050D01*
X47281416Y-60179356D01*
X47279553Y-60191165D01*
X47279553Y-60201122D01*
X47279553Y-60220146D01*
X47279553Y-60237984D01*
X47279553Y-60254634D01*
X47279553Y-60270098D01*
X47279553Y-60284375D01*
X47279553Y-60297464D01*
X47279553Y-60309367D01*
X47279553Y-60320084D01*
X47279553Y-60333932D01*
X47279553Y-60345111D01*
X47279553Y-60355861D01*
X47279553Y-60362623D01*
X47279553Y-60554842D01*
X47293717Y-60554713D01*
X47309160Y-60554323D01*
X47325881Y-60553675D01*
X47343880Y-60552766D01*
X47363158Y-60551599D01*
X47373277Y-60550917D01*
X47383715Y-60550171D01*
X47394472Y-60549360D01*
X47405550Y-60548485D01*
X47416947Y-60547544D01*
X47428663Y-60546538D01*
X47440699Y-60545468D01*
X47453055Y-60544332D01*
X47465730Y-60543132D01*
X47478725Y-60541867D01*
X47492040Y-60540537D01*
X47505674Y-60539142D01*
X47519628Y-60537683D01*
X47533901Y-60536158D01*
X47548494Y-60534568D01*
X47563407Y-60532914D01*
X47578639Y-60531195D01*
X47594191Y-60529411D01*
X47610063Y-60527562D01*
X47626254Y-60525648D01*
X47642764Y-60523669D01*
X47659595Y-60521625D01*
X47660896Y-60510921D01*
X47662057Y-60500062D01*
X47663378Y-60486778D01*
X47664346Y-60476574D01*
X47665385Y-60465292D01*
X47666495Y-60452932D01*
X47667675Y-60439494D01*
X47668926Y-60424978D01*
X47670247Y-60409383D01*
X47671639Y-60392711D01*
X47673102Y-60374960D01*
X47674635Y-60356132D01*
X47675428Y-60346313D01*
X47676239Y-60336225D01*
X47677067Y-60325867D01*
X47677913Y-60315240D01*
X47677930Y-60304013D01*
X47677982Y-60293167D01*
X47678068Y-60282703D01*
X47678188Y-60272620D01*
X47678432Y-60258211D01*
X47678754Y-60244662D01*
X47679154Y-60231971D01*
X47679630Y-60220138D01*
X47680184Y-60209164D01*
X47680815Y-60199049D01*
X47681777Y-60186898D01*
X47682309Y-60181395D01*
X47691591Y-60071730D01*
X47692793Y-60058983D01*
X47693957Y-60046538D01*
X47695082Y-60034396D01*
X47696170Y-60022557D01*
X47697220Y-60011021D01*
X47698231Y-59999788D01*
X47699204Y-59988858D01*
X47700139Y-59978231D01*
X47701036Y-59967907D01*
X47701895Y-59957885D01*
X47703497Y-59938751D01*
X47704948Y-59920829D01*
X47706245Y-59904118D01*
X47707390Y-59888620D01*
X47708382Y-59874332D01*
X47709222Y-59861257D01*
X47709909Y-59849393D01*
X47710443Y-59838741D01*
X47710958Y-59825034D01*
X47711130Y-59814054D01*
X47712122Y-59803613D01*
X47715099Y-59794270D01*
X47720820Y-59785074D01*
X47727006Y-59778883D01*
X47735234Y-59773006D01*
X47745184Y-59768401D01*
X47755867Y-59765922D01*
X47763398Y-59765450D01*
X47774272Y-59767459D01*
X47782895Y-59773487D01*
X47789270Y-59783533D01*
X47792863Y-59794975D01*
X47794613Y-59806138D01*
X47795363Y-59819086D01*
X47795394Y-59822602D01*
X47795060Y-59834883D01*
X47794539Y-59844661D01*
X47793778Y-59856246D01*
X47792776Y-59869639D01*
X47791974Y-59879572D01*
X47791066Y-59890308D01*
X47790051Y-59901848D01*
X47788929Y-59914191D01*
X47787700Y-59927337D01*
X47786364Y-59941286D01*
X47784922Y-59956039D01*
X47783372Y-59971595D01*
X47781716Y-59987955D01*
X47780813Y-59998688D01*
X47779937Y-60009119D01*
X47779087Y-60019248D01*
X47778262Y-60029075D01*
X47776693Y-60047824D01*
X47775228Y-60065365D01*
X47773869Y-60081697D01*
X47772614Y-60096822D01*
X47771465Y-60110739D01*
X47770420Y-60123449D01*
X47769480Y-60134950D01*
X47768645Y-60145243D01*
X47767590Y-60158419D01*
X47766771Y-60168877D01*
X47765930Y-60180267D01*
X47765840Y-60181639D01*
X47764806Y-60195156D01*
X47763780Y-60208594D01*
X47762761Y-60221954D01*
X47761749Y-60235235D01*
X47760746Y-60248439D01*
X47759750Y-60261564D01*
X47758761Y-60274611D01*
X47757780Y-60287580D01*
X47756807Y-60300470D01*
X47755842Y-60313282D01*
X47754884Y-60326017D01*
X47753934Y-60338672D01*
X47752991Y-60351250D01*
X47752056Y-60363749D01*
X47751129Y-60376170D01*
X47750209Y-60388513D01*
X47749314Y-60400526D01*
X47748461Y-60411957D01*
X47747650Y-60422805D01*
X47746881Y-60433072D01*
X47745806Y-60447381D01*
X47744826Y-60460381D01*
X47743940Y-60472071D01*
X47743149Y-60482451D01*
X47742240Y-60494255D01*
X47741341Y-60505736D01*
X47740928Y-60510879D01*
X47751244Y-60508675D01*
X47761624Y-60505469D01*
X47771782Y-60501605D01*
X47774145Y-60500621D01*
X47783641Y-60497798D01*
X47793723Y-60495244D01*
X47803927Y-60493298D01*
X47813729Y-60492349D01*
X47815666Y-60492316D01*
X47825435Y-60493765D01*
X47834606Y-60497486D01*
X47843006Y-60502620D01*
X47851756Y-60509508D01*
X47853035Y-60510635D01*
X47861029Y-60518263D01*
X47867761Y-60526037D01*
X47872830Y-60535081D01*
X47873551Y-60539211D01*
G37*
G36*
X48453216Y-60025474D02*
G01*
X48462852Y-60030441D01*
X48470699Y-60036518D01*
X48478667Y-60044466D01*
X48486758Y-60054283D01*
X48492906Y-60062873D01*
X48499122Y-60072516D01*
X48505408Y-60083210D01*
X48511704Y-60094599D01*
X48517953Y-60106328D01*
X48524155Y-60118396D01*
X48530309Y-60130803D01*
X48536416Y-60143549D01*
X48542476Y-60156634D01*
X48546490Y-60165546D01*
X48550483Y-60174609D01*
X48554455Y-60183822D01*
X48558406Y-60193187D01*
X48562335Y-60202702D01*
X48566244Y-60212367D01*
X48570132Y-60222184D01*
X48573563Y-60231376D01*
X48577170Y-60241366D01*
X48580953Y-60252155D01*
X48584913Y-60263743D01*
X48589048Y-60276129D01*
X48593359Y-60289314D01*
X48597846Y-60303298D01*
X48600936Y-60313064D01*
X48604103Y-60323184D01*
X48607349Y-60333660D01*
X48610673Y-60344491D01*
X48614075Y-60355676D01*
X48615806Y-60361402D01*
X48619203Y-60372673D01*
X48622434Y-60383403D01*
X48625500Y-60393594D01*
X48628399Y-60403244D01*
X48632437Y-60416707D01*
X48636102Y-60428955D01*
X48639392Y-60439988D01*
X48642310Y-60449807D01*
X48645618Y-60461007D01*
X48648821Y-60471971D01*
X48650244Y-60476929D01*
X48660319Y-60475268D01*
X48670394Y-60472972D01*
X48679553Y-60470334D01*
X48689216Y-60467152D01*
X48698604Y-60463984D01*
X48707190Y-60459214D01*
X48713258Y-60454703D01*
X48721609Y-60448775D01*
X48730174Y-60443812D01*
X48731332Y-60443224D01*
X48741468Y-60441209D01*
X48751339Y-60443753D01*
X48752826Y-60444445D01*
X48761962Y-60450068D01*
X48768854Y-60457748D01*
X48773502Y-60467486D01*
X48775701Y-60477469D01*
X48776273Y-60486943D01*
X48775265Y-60496710D01*
X48772546Y-60506156D01*
X48770167Y-60511856D01*
X48765118Y-60520820D01*
X48758175Y-60528439D01*
X48753803Y-60531639D01*
X48744481Y-60537307D01*
X48735402Y-60540933D01*
X48725945Y-60543818D01*
X48714943Y-60546497D01*
X48708862Y-60547759D01*
X48699203Y-60549665D01*
X48689517Y-60551543D01*
X48679836Y-60553352D01*
X48671981Y-60554598D01*
X48672439Y-60565509D01*
X48672926Y-60577033D01*
X48673384Y-60587761D01*
X48673842Y-60598122D01*
X48673935Y-60599783D01*
X48679141Y-60610855D01*
X48683108Y-60620709D01*
X48686899Y-60631448D01*
X48690515Y-60643072D01*
X48693956Y-60655582D01*
X48696421Y-60665546D01*
X48698787Y-60676007D01*
X48701055Y-60686966D01*
X48702512Y-60694549D01*
X48705572Y-60712032D01*
X48708648Y-60729186D01*
X48711740Y-60746012D01*
X48714846Y-60762510D01*
X48717968Y-60778680D01*
X48721105Y-60794521D01*
X48724257Y-60810034D01*
X48727424Y-60825219D01*
X48730607Y-60840076D01*
X48733805Y-60854605D01*
X48737019Y-60868805D01*
X48740247Y-60882677D01*
X48743491Y-60896221D01*
X48746750Y-60909437D01*
X48750025Y-60922325D01*
X48753314Y-60934884D01*
X48755425Y-60944609D01*
X48757486Y-60954546D01*
X48759432Y-60964858D01*
X48760642Y-60974452D01*
X48759306Y-60984765D01*
X48755299Y-60994029D01*
X48748620Y-61002244D01*
X48746964Y-61003761D01*
X48739021Y-61009664D01*
X48729290Y-61013958D01*
X48718604Y-61015866D01*
X48715212Y-61015973D01*
X48704698Y-61014351D01*
X48695139Y-61009485D01*
X48687351Y-61002333D01*
X48684926Y-60999364D01*
X48679171Y-60991304D01*
X48673828Y-60982821D01*
X48669296Y-60974120D01*
X48667585Y-60970055D01*
X48664444Y-60957801D01*
X48661372Y-60945219D01*
X48659113Y-60935567D01*
X48656893Y-60925730D01*
X48654711Y-60915709D01*
X48652568Y-60905503D01*
X48650463Y-60895112D01*
X48648398Y-60884537D01*
X48646370Y-60873777D01*
X48644382Y-60862833D01*
X48642385Y-60851544D01*
X48640332Y-60839843D01*
X48638223Y-60827730D01*
X48636059Y-60815205D01*
X48633838Y-60802268D01*
X48631562Y-60788919D01*
X48629230Y-60775157D01*
X48626842Y-60760983D01*
X48625219Y-60751305D01*
X48623572Y-60741444D01*
X48621899Y-60731400D01*
X48620202Y-60721172D01*
X48618350Y-60709517D01*
X48616619Y-60699566D01*
X48614667Y-60689058D01*
X48612494Y-60677992D01*
X48610099Y-60666370D01*
X48607483Y-60654190D01*
X48604645Y-60641453D01*
X48602372Y-60631535D01*
X48600125Y-60621846D01*
X48597402Y-60610130D01*
X48594992Y-60599788D01*
X48592419Y-60588792D01*
X48589978Y-60578431D01*
X48587636Y-60568685D01*
X48587473Y-60568032D01*
X48577613Y-60569405D01*
X48566778Y-60570959D01*
X48554967Y-60572694D01*
X48542182Y-60574611D01*
X48528421Y-60576709D01*
X48513685Y-60578988D01*
X48497975Y-60581449D01*
X48481289Y-60584091D01*
X48463628Y-60586914D01*
X48444992Y-60589918D01*
X48435308Y-60591488D01*
X48425381Y-60593104D01*
X48415210Y-60594765D01*
X48404795Y-60596471D01*
X48394136Y-60598222D01*
X48383234Y-60600019D01*
X48372088Y-60601861D01*
X48360698Y-60603748D01*
X48349064Y-60605681D01*
X48337186Y-60607659D01*
X48325065Y-60609682D01*
X48312700Y-60611751D01*
X48236985Y-60624940D01*
X48209141Y-60703342D01*
X48170307Y-60814961D01*
X48167311Y-60824418D01*
X48164369Y-60833738D01*
X48158648Y-60851968D01*
X48153142Y-60869650D01*
X48147851Y-60886784D01*
X48142777Y-60903370D01*
X48137918Y-60919409D01*
X48133274Y-60934901D01*
X48128846Y-60949844D01*
X48124634Y-60964240D01*
X48120637Y-60978089D01*
X48116856Y-60991389D01*
X48113291Y-61004142D01*
X48109941Y-61016348D01*
X48106807Y-61028006D01*
X48103889Y-61039116D01*
X48101186Y-61049678D01*
X48098255Y-61060044D01*
X48094103Y-61069645D01*
X48088729Y-61078484D01*
X48082135Y-61086559D01*
X48074594Y-61093291D01*
X48065015Y-61098565D01*
X48055528Y-61101210D01*
X48046475Y-61101946D01*
X48036715Y-61101116D01*
X48026821Y-61098244D01*
X48017929Y-61093321D01*
X48015457Y-61091444D01*
X48008630Y-61084045D01*
X48004332Y-61074977D01*
X48002562Y-61064239D01*
X48002512Y-61061891D01*
X48003565Y-61051495D01*
X48005737Y-61040953D01*
X48008453Y-61030372D01*
X48011218Y-61020730D01*
X48014509Y-61010042D01*
X48018328Y-60998309D01*
X48019364Y-60995212D01*
X48023352Y-60983321D01*
X48026890Y-60972681D01*
X48029978Y-60963293D01*
X48033204Y-60953318D01*
X48036146Y-60943930D01*
X48038660Y-60935129D01*
X48042278Y-60925802D01*
X48045892Y-60915861D01*
X48049495Y-60905649D01*
X48052764Y-60896217D01*
X48056376Y-60885663D01*
X48060332Y-60873987D01*
X48061374Y-60870893D01*
X48064810Y-60860476D01*
X48068430Y-60849652D01*
X48072234Y-60838420D01*
X48076223Y-60826780D01*
X48080397Y-60814732D01*
X48084756Y-60802277D01*
X48089299Y-60789413D01*
X48094026Y-60776142D01*
X48098939Y-60762463D01*
X48102316Y-60753116D01*
X48105776Y-60743589D01*
X48107536Y-60738757D01*
X48110984Y-60729308D01*
X48115806Y-60716108D01*
X48120206Y-60704075D01*
X48124186Y-60693210D01*
X48127745Y-60683513D01*
X48131836Y-60672400D01*
X48135898Y-60661428D01*
X48139622Y-60651517D01*
X48140265Y-60649853D01*
X48129696Y-60652383D01*
X48119514Y-60654845D01*
X48109718Y-60657237D01*
X48097257Y-60660321D01*
X48085484Y-60663282D01*
X48074398Y-60666122D01*
X48063998Y-60668839D01*
X48054286Y-60671434D01*
X48047452Y-60673300D01*
X48037555Y-60675876D01*
X48025480Y-60678915D01*
X48014688Y-60681505D01*
X48003000Y-60684108D01*
X47993316Y-60686008D01*
X47983125Y-60687485D01*
X47979064Y-60687711D01*
X47968846Y-60686551D01*
X47959306Y-60682544D01*
X47951673Y-60675675D01*
X47949755Y-60673056D01*
X47944603Y-60663706D01*
X47941359Y-60653975D01*
X47940024Y-60643861D01*
X47939986Y-60641793D01*
X47940816Y-60631002D01*
X47943688Y-60621413D01*
X47949842Y-60613244D01*
X47950488Y-60612728D01*
X47958978Y-60607418D01*
X47968901Y-60602991D01*
X47978350Y-60599724D01*
X47982240Y-60598562D01*
X47992322Y-60596181D01*
X48002513Y-60593799D01*
X48012810Y-60591418D01*
X48023215Y-60589036D01*
X48033727Y-60586655D01*
X48044347Y-60584274D01*
X48055074Y-60581892D01*
X48065908Y-60579511D01*
X48076850Y-60577130D01*
X48087898Y-60574748D01*
X48095324Y-60573161D01*
X48106177Y-60570859D01*
X48116295Y-60568716D01*
X48128645Y-60566105D01*
X48139689Y-60563777D01*
X48149429Y-60561732D01*
X48159767Y-60559572D01*
X48169482Y-60557563D01*
X48173237Y-60556796D01*
X48176993Y-60545556D01*
X48178091Y-60542142D01*
X48258967Y-60542142D01*
X48408932Y-60515764D01*
X48541800Y-60494515D01*
X48570865Y-60490362D01*
X48567910Y-60479713D01*
X48564797Y-60468358D01*
X48561706Y-60457023D01*
X48559037Y-60447210D01*
X48556067Y-60436272D01*
X48552797Y-60424209D01*
X48549226Y-60411022D01*
X48545355Y-60396709D01*
X48543998Y-60391688D01*
X48541261Y-60381640D01*
X48538545Y-60371828D01*
X48535849Y-60362253D01*
X48531846Y-60348334D01*
X48527890Y-60334948D01*
X48523980Y-60322093D01*
X48520119Y-60309772D01*
X48516304Y-60297982D01*
X48512537Y-60286725D01*
X48508816Y-60276000D01*
X48505143Y-60265808D01*
X48502721Y-60259309D01*
X48499009Y-60249535D01*
X48495108Y-60239722D01*
X48491017Y-60229871D01*
X48486738Y-60219982D01*
X48482270Y-60210053D01*
X48477614Y-60200086D01*
X48472768Y-60190081D01*
X48467733Y-60180037D01*
X48462510Y-60169954D01*
X48457097Y-60159832D01*
X48453384Y-60153063D01*
X48447960Y-60143306D01*
X48442862Y-60134370D01*
X48436573Y-60123730D01*
X48430864Y-60114548D01*
X48424543Y-60105121D01*
X48418155Y-60096814D01*
X48412351Y-60091270D01*
X48400628Y-60119357D01*
X48395835Y-60129344D01*
X48391257Y-60139155D01*
X48386893Y-60148790D01*
X48382744Y-60158249D01*
X48378810Y-60167532D01*
X48375091Y-60176639D01*
X48370465Y-60188508D01*
X48366222Y-60200064D01*
X48362360Y-60211306D01*
X48360572Y-60216810D01*
X48356282Y-60230045D01*
X48351718Y-60244227D01*
X48346879Y-60259354D01*
X48341765Y-60275429D01*
X48336376Y-60292449D01*
X48330713Y-60310416D01*
X48327778Y-60319755D01*
X48324775Y-60329330D01*
X48321703Y-60339142D01*
X48318562Y-60349190D01*
X48315352Y-60359475D01*
X48312074Y-60369996D01*
X48308727Y-60380755D01*
X48305312Y-60391749D01*
X48301828Y-60402981D01*
X48298275Y-60414449D01*
X48294653Y-60426153D01*
X48290963Y-60438094D01*
X48287203Y-60450272D01*
X48283376Y-60462687D01*
X48279479Y-60475338D01*
X48275514Y-60488225D01*
X48271480Y-60501349D01*
X48267378Y-60514710D01*
X48263207Y-60528308D01*
X48258967Y-60542142D01*
X48178091Y-60542142D01*
X48180474Y-60534733D01*
X48183681Y-60524328D01*
X48186614Y-60514340D01*
X48189272Y-60504770D01*
X48192100Y-60493836D01*
X48192533Y-60492072D01*
X48195555Y-60482028D01*
X48198550Y-60472387D01*
X48201873Y-60461952D01*
X48204981Y-60452375D01*
X48207187Y-60445666D01*
X48210736Y-60434844D01*
X48213799Y-60425104D01*
X48216957Y-60414708D01*
X48220210Y-60403656D01*
X48223559Y-60391949D01*
X48226307Y-60382110D01*
X48227704Y-60377034D01*
X48248709Y-60304494D01*
X48251978Y-60292761D01*
X48255161Y-60281348D01*
X48258258Y-60270253D01*
X48261268Y-60259477D01*
X48264192Y-60249019D01*
X48267030Y-60238880D01*
X48269781Y-60229060D01*
X48272446Y-60219558D01*
X48277517Y-60201511D01*
X48282242Y-60184738D01*
X48286622Y-60169240D01*
X48290657Y-60155017D01*
X48294347Y-60142068D01*
X48297691Y-60130394D01*
X48300689Y-60119995D01*
X48304540Y-60106786D01*
X48307613Y-60096444D01*
X48310502Y-60087117D01*
X48314074Y-60077180D01*
X48318166Y-60067058D01*
X48322334Y-60058057D01*
X48325157Y-60052679D01*
X48331343Y-60044892D01*
X48340331Y-60040084D01*
X48348604Y-60039002D01*
X48359260Y-60039311D01*
X48369246Y-60040238D01*
X48380050Y-60042101D01*
X48389943Y-60044806D01*
X48397697Y-60047794D01*
X48402581Y-60039002D01*
X48409848Y-60031735D01*
X48418457Y-60027034D01*
X48428353Y-60024404D01*
X48438493Y-60023427D01*
X48441905Y-60023370D01*
X48453216Y-60025474D01*
G37*
G36*
X49678018Y-60024347D02*
G01*
X49676961Y-60035750D01*
X49673793Y-60045779D01*
X49668512Y-60054435D01*
X49661119Y-60061716D01*
X49651614Y-60067624D01*
X49647976Y-60069288D01*
X49638092Y-60073191D01*
X49627062Y-60076963D01*
X49617415Y-60079887D01*
X49607035Y-60082726D01*
X49595922Y-60085481D01*
X49584076Y-60088153D01*
X49571497Y-60090740D01*
X49564933Y-60092002D01*
X49553665Y-60094192D01*
X49541844Y-60096364D01*
X49529468Y-60098520D01*
X49516539Y-60100658D01*
X49503056Y-60102779D01*
X49489019Y-60104882D01*
X49474428Y-60106969D01*
X49464393Y-60108350D01*
X49454112Y-60109724D01*
X49443584Y-60111090D01*
X49432811Y-60112449D01*
X49421791Y-60113800D01*
X49416189Y-60114473D01*
X49405114Y-60115744D01*
X49394360Y-60116934D01*
X49383926Y-60118042D01*
X49373813Y-60119067D01*
X49364021Y-60120011D01*
X49349933Y-60121273D01*
X49336566Y-60122349D01*
X49323921Y-60123242D01*
X49311997Y-60123949D01*
X49300794Y-60124473D01*
X49290313Y-60124811D01*
X49277459Y-60124975D01*
X49276745Y-60136777D01*
X49276237Y-60146921D01*
X49275705Y-60158885D01*
X49275147Y-60172670D01*
X49274565Y-60188275D01*
X49273959Y-60205700D01*
X49273327Y-60224945D01*
X49273002Y-60235251D01*
X49272671Y-60246011D01*
X49272333Y-60257227D01*
X49271989Y-60268898D01*
X49271640Y-60281023D01*
X49271283Y-60293604D01*
X49270921Y-60306640D01*
X49270553Y-60320131D01*
X49270178Y-60334077D01*
X49269797Y-60348479D01*
X49269410Y-60363335D01*
X49269017Y-60378647D01*
X49268617Y-60394413D01*
X49268211Y-60410635D01*
X49267799Y-60427311D01*
X49267381Y-60444443D01*
X49266957Y-60462030D01*
X49266535Y-60479692D01*
X49266123Y-60497047D01*
X49265722Y-60514095D01*
X49265331Y-60530838D01*
X49264951Y-60547274D01*
X49264581Y-60563404D01*
X49264222Y-60579228D01*
X49263873Y-60594746D01*
X49263535Y-60609957D01*
X49263207Y-60624862D01*
X49262890Y-60639461D01*
X49262583Y-60653753D01*
X49262287Y-60667739D01*
X49262001Y-60681419D01*
X49261726Y-60694793D01*
X49261461Y-60707861D01*
X49261207Y-60720622D01*
X49260963Y-60733077D01*
X49260730Y-60745225D01*
X49260507Y-60757068D01*
X49260295Y-60768604D01*
X49260093Y-60779834D01*
X49259902Y-60790758D01*
X49259721Y-60801375D01*
X49259551Y-60811686D01*
X49259391Y-60821691D01*
X49259103Y-60840782D01*
X49258857Y-60858648D01*
X49258653Y-60875289D01*
X49271867Y-60875289D01*
X49286047Y-60875289D01*
X49296037Y-60875289D01*
X49306457Y-60875289D01*
X49317305Y-60875289D01*
X49328583Y-60875289D01*
X49340291Y-60875289D01*
X49352428Y-60875289D01*
X49364994Y-60875289D01*
X49377989Y-60875289D01*
X49391414Y-60875289D01*
X49405268Y-60875289D01*
X49419551Y-60875289D01*
X49434264Y-60875289D01*
X49449406Y-60875289D01*
X49461967Y-60875289D01*
X49473819Y-60875289D01*
X49484964Y-60875289D01*
X49495400Y-60875289D01*
X49509728Y-60875289D01*
X49522463Y-60875289D01*
X49533605Y-60875289D01*
X49545983Y-60875289D01*
X49557473Y-60875289D01*
X49565422Y-60875289D01*
X49575451Y-60875727D01*
X49585205Y-60877041D01*
X49596238Y-60879680D01*
X49606897Y-60883512D01*
X49615736Y-60887745D01*
X49624777Y-60893801D01*
X49631597Y-60901283D01*
X49636197Y-60910190D01*
X49638576Y-60920524D01*
X49638939Y-60927069D01*
X49638420Y-60936915D01*
X49636311Y-60947376D01*
X49632119Y-60956514D01*
X49630635Y-60958576D01*
X49622220Y-60964976D01*
X49612798Y-60967837D01*
X49602185Y-60968986D01*
X49597662Y-60969078D01*
X49586911Y-60968598D01*
X49576802Y-60967873D01*
X49565885Y-60966991D01*
X49555201Y-60966073D01*
X49550523Y-60965659D01*
X49540482Y-60964165D01*
X49529549Y-60962812D01*
X49519458Y-60961881D01*
X49508956Y-60961331D01*
X49504117Y-60961263D01*
X49490644Y-60961263D01*
X49480432Y-60961263D01*
X49469235Y-60961263D01*
X49457053Y-60961263D01*
X49443887Y-60961263D01*
X49429736Y-60961263D01*
X49414601Y-60961263D01*
X49398481Y-60961263D01*
X49381376Y-60961263D01*
X49363287Y-60961263D01*
X49344213Y-60961263D01*
X49334307Y-60961263D01*
X49324155Y-60961263D01*
X49313756Y-60961263D01*
X49303112Y-60961263D01*
X49292221Y-60961263D01*
X49281084Y-60961263D01*
X49269701Y-60961263D01*
X49258072Y-60961263D01*
X49246196Y-60961263D01*
X49240944Y-60970224D01*
X49233917Y-60978056D01*
X49230076Y-60981290D01*
X49221506Y-60986667D01*
X49212018Y-60989465D01*
X49209560Y-60989595D01*
X49199546Y-60987580D01*
X49191489Y-60982031D01*
X49190997Y-60981535D01*
X49183426Y-60976894D01*
X49122121Y-60976894D01*
X49108931Y-60978935D01*
X49096166Y-60980844D01*
X49083827Y-60982621D01*
X49071914Y-60984267D01*
X49060426Y-60985781D01*
X49049363Y-60987164D01*
X49038726Y-60988415D01*
X49028515Y-60989534D01*
X49018729Y-60990521D01*
X49004848Y-60991755D01*
X48991924Y-60992694D01*
X48979958Y-60993335D01*
X48968949Y-60993681D01*
X48962142Y-60993747D01*
X48950350Y-60993384D01*
X48939275Y-60992297D01*
X48928917Y-60990484D01*
X48919277Y-60987946D01*
X48908236Y-60983754D01*
X48898316Y-60978429D01*
X48889517Y-60971971D01*
X48887892Y-60970544D01*
X48881374Y-60962148D01*
X48877198Y-60952648D01*
X48874754Y-60942905D01*
X48873357Y-60931685D01*
X48872993Y-60921207D01*
X48874504Y-60911544D01*
X48878073Y-60902442D01*
X48883079Y-60893435D01*
X48883740Y-60892386D01*
X48890036Y-60884121D01*
X48898414Y-60877693D01*
X48908408Y-60875289D01*
X48918419Y-60878044D01*
X48927769Y-60881708D01*
X48931123Y-60883105D01*
X48941294Y-60886883D01*
X48950924Y-60889425D01*
X48960989Y-60890799D01*
X48964829Y-60890921D01*
X48974779Y-60890921D01*
X48985580Y-60890921D01*
X48997230Y-60890921D01*
X49009731Y-60890921D01*
X49023082Y-60890921D01*
X49037283Y-60890921D01*
X49047222Y-60890921D01*
X49057540Y-60890921D01*
X49068235Y-60890921D01*
X49079308Y-60890921D01*
X49090759Y-60890921D01*
X49102587Y-60890921D01*
X49114794Y-60890921D01*
X49170481Y-60890921D01*
X49178541Y-60692595D01*
X49178993Y-60682611D01*
X49179520Y-60671071D01*
X49180029Y-60660011D01*
X49180521Y-60649432D01*
X49180997Y-60639334D01*
X49181228Y-60634466D01*
X49181799Y-60623525D01*
X49182229Y-60613355D01*
X49182550Y-60602677D01*
X49182692Y-60591868D01*
X49182693Y-60590746D01*
X49196127Y-60140607D01*
X49179591Y-60139660D01*
X49164180Y-60138775D01*
X49149893Y-60137950D01*
X49136730Y-60137187D01*
X49124690Y-60136485D01*
X49113775Y-60135844D01*
X49103983Y-60135264D01*
X49091403Y-60134508D01*
X49081351Y-60133890D01*
X49070219Y-60133165D01*
X49066434Y-60132791D01*
X49049180Y-60135601D01*
X49032835Y-60138229D01*
X49017398Y-60140676D01*
X49002869Y-60142942D01*
X48989249Y-60145027D01*
X48976537Y-60146930D01*
X48964733Y-60148652D01*
X48953838Y-60150193D01*
X48943850Y-60151553D01*
X48930573Y-60153252D01*
X48919338Y-60154544D01*
X48907538Y-60155631D01*
X48899371Y-60155994D01*
X48889583Y-60155376D01*
X48878423Y-60153092D01*
X48869081Y-60149794D01*
X48859944Y-60145261D01*
X48851014Y-60139490D01*
X48849546Y-60138408D01*
X48841577Y-60131362D01*
X48835258Y-60123594D01*
X48829968Y-60113619D01*
X48826923Y-60102663D01*
X48826099Y-60092491D01*
X48827045Y-60081725D01*
X48829885Y-60072235D01*
X48835262Y-60063185D01*
X48838066Y-60060006D01*
X48846462Y-60053566D01*
X48856385Y-60049512D01*
X48866620Y-60047902D01*
X48870307Y-60047794D01*
X48880137Y-60047981D01*
X48889968Y-60048542D01*
X48892777Y-60048771D01*
X48902608Y-60049412D01*
X48912438Y-60050054D01*
X48915247Y-60050237D01*
X48925861Y-60051503D01*
X48936332Y-60052555D01*
X48946660Y-60053392D01*
X48956845Y-60054015D01*
X48966886Y-60054423D01*
X48976785Y-60054616D01*
X48980704Y-60054633D01*
X48991516Y-60054633D01*
X49002107Y-60054633D01*
X49014422Y-60054633D01*
X49024790Y-60054633D01*
X49036129Y-60054633D01*
X49048438Y-60054633D01*
X49061717Y-60054633D01*
X49075967Y-60054633D01*
X49086005Y-60054633D01*
X49096475Y-60054633D01*
X49106941Y-60054633D01*
X49116904Y-60054633D01*
X49130908Y-60054633D01*
X49143783Y-60054633D01*
X49155529Y-60054633D01*
X49166146Y-60054633D01*
X49178545Y-60054633D01*
X49188937Y-60054633D01*
X49199103Y-60054633D01*
X49203698Y-60054633D01*
X49205274Y-60044230D01*
X49208627Y-60033905D01*
X49213099Y-60024792D01*
X49217376Y-60017997D01*
X49224321Y-60010089D01*
X49232458Y-60004441D01*
X49241785Y-60001052D01*
X49252302Y-59999923D01*
X49262129Y-60002422D01*
X49269267Y-60009165D01*
X49272575Y-60015066D01*
X49276468Y-60024616D01*
X49278986Y-60034117D01*
X49279413Y-60039002D01*
X49289241Y-60038868D01*
X49300163Y-60038467D01*
X49312177Y-60037799D01*
X49325285Y-60036864D01*
X49339487Y-60035662D01*
X49354781Y-60034193D01*
X49371169Y-60032457D01*
X49388651Y-60030453D01*
X49407226Y-60028182D01*
X49416923Y-60026947D01*
X49426894Y-60025645D01*
X49437138Y-60024275D01*
X49447656Y-60022840D01*
X49458446Y-60021337D01*
X49469511Y-60019767D01*
X49480848Y-60018131D01*
X49492459Y-60016428D01*
X49504343Y-60014658D01*
X49516501Y-60012822D01*
X49528931Y-60010918D01*
X49541636Y-60008948D01*
X49554613Y-60006911D01*
X49567864Y-60004808D01*
X49578030Y-60002255D01*
X49588117Y-59998205D01*
X49597829Y-59993209D01*
X49604256Y-59989420D01*
X49612686Y-59984376D01*
X49621292Y-59979712D01*
X49630390Y-59976475D01*
X49640885Y-59977811D01*
X49650998Y-59981818D01*
X49659774Y-59987709D01*
X49662630Y-59990153D01*
X49669362Y-59997419D01*
X49674637Y-60006616D01*
X49677477Y-60016894D01*
X49678018Y-60024347D01*
G37*
G36*
X50551430Y-60905331D02*
G01*
X50548999Y-60914943D01*
X50541706Y-60922194D01*
X50531585Y-60926530D01*
X50520423Y-60928819D01*
X50509707Y-60929783D01*
X50500628Y-60930000D01*
X50491600Y-60924650D01*
X50484163Y-60917963D01*
X50474776Y-60908602D01*
X50467435Y-60900874D01*
X50459228Y-60891959D01*
X50450155Y-60881854D01*
X50440216Y-60870561D01*
X50429410Y-60858079D01*
X50417738Y-60844408D01*
X50405199Y-60829548D01*
X50398605Y-60821672D01*
X50391794Y-60813499D01*
X50384767Y-60805029D01*
X50377523Y-60796262D01*
X50370063Y-60787198D01*
X50362386Y-60777836D01*
X50354660Y-60768355D01*
X50347020Y-60758963D01*
X50339467Y-60749659D01*
X50332001Y-60740444D01*
X50324621Y-60731318D01*
X50317329Y-60722280D01*
X50310123Y-60713332D01*
X50303005Y-60704472D01*
X50295973Y-60695700D01*
X50289027Y-60687018D01*
X50282169Y-60678424D01*
X50275397Y-60669919D01*
X50268713Y-60661503D01*
X50262115Y-60653175D01*
X50255604Y-60644936D01*
X50249180Y-60636786D01*
X50242842Y-60628725D01*
X50236591Y-60620752D01*
X50230428Y-60612868D01*
X50224351Y-60605073D01*
X50212457Y-60589748D01*
X50200911Y-60574779D01*
X50189712Y-60560164D01*
X50178860Y-60545905D01*
X50168356Y-60532000D01*
X50158199Y-60518450D01*
X50152151Y-60510156D01*
X50146183Y-60501821D01*
X50138664Y-60491242D01*
X50132009Y-60481835D01*
X50124482Y-60471166D01*
X50116084Y-60459235D01*
X50110000Y-60450580D01*
X50103530Y-60441364D01*
X50096672Y-60431586D01*
X50089427Y-60421248D01*
X50085659Y-60415868D01*
X50074747Y-60400246D01*
X50064482Y-60385559D01*
X50054864Y-60371807D01*
X50045893Y-60358990D01*
X50037569Y-60347108D01*
X50029891Y-60336161D01*
X50022861Y-60326149D01*
X50016477Y-60317072D01*
X50010740Y-60308930D01*
X50003348Y-60298470D01*
X49997411Y-60290114D01*
X49990750Y-60280862D01*
X49988695Y-60278115D01*
X49988695Y-60363600D01*
X49988695Y-60468869D01*
X49988695Y-60481361D01*
X49988695Y-60493984D01*
X49988695Y-60506739D01*
X49988695Y-60519626D01*
X49988695Y-60532644D01*
X49988695Y-60545794D01*
X49988695Y-60559076D01*
X49988695Y-60572489D01*
X49988695Y-60586034D01*
X49988695Y-60599711D01*
X49988695Y-60613519D01*
X49988695Y-60627459D01*
X49988695Y-60641531D01*
X49988695Y-60655734D01*
X49988695Y-60670069D01*
X49988695Y-60684535D01*
X49988695Y-60698884D01*
X49988695Y-60712864D01*
X49988695Y-60726476D01*
X49988695Y-60739719D01*
X49988695Y-60752594D01*
X49988695Y-60765101D01*
X49988695Y-60777240D01*
X49988695Y-60789010D01*
X49988695Y-60800412D01*
X49988695Y-60811446D01*
X49988695Y-60822112D01*
X49988695Y-60832409D01*
X49988695Y-60842338D01*
X49988695Y-60856541D01*
X49988695Y-60869916D01*
X49986741Y-60879685D01*
X49982833Y-60888967D01*
X49976971Y-60897759D01*
X49970239Y-60905052D01*
X49969155Y-60906064D01*
X49961391Y-60912345D01*
X49952347Y-60917634D01*
X49943119Y-60920909D01*
X49932519Y-60922184D01*
X49922627Y-60921451D01*
X49912323Y-60918474D01*
X49903633Y-60912555D01*
X49901744Y-60910460D01*
X49896850Y-60901439D01*
X49894239Y-60891784D01*
X49892907Y-60881558D01*
X49892472Y-60871471D01*
X49892463Y-60869672D01*
X49892463Y-60858921D01*
X49892463Y-60847106D01*
X49892463Y-60835172D01*
X49892463Y-60824774D01*
X49892463Y-60813136D01*
X49892463Y-60800257D01*
X49892463Y-60786137D01*
X49892463Y-60776034D01*
X49892463Y-60765380D01*
X49893575Y-60755341D01*
X49894652Y-60745405D01*
X49895693Y-60735573D01*
X49896699Y-60725843D01*
X49898605Y-60706693D01*
X49900370Y-60687955D01*
X49901994Y-60669629D01*
X49903477Y-60651715D01*
X49904818Y-60634214D01*
X49906018Y-60617124D01*
X49907077Y-60600447D01*
X49907995Y-60584182D01*
X49908772Y-60568329D01*
X49909407Y-60552889D01*
X49909901Y-60537860D01*
X49910254Y-60523244D01*
X49910466Y-60509039D01*
X49910537Y-60495247D01*
X49910537Y-60484415D01*
X49910537Y-60473655D01*
X49910537Y-60462967D01*
X49910537Y-60452352D01*
X49910537Y-60441810D01*
X49910537Y-60431340D01*
X49910537Y-60420942D01*
X49910537Y-60410617D01*
X49910537Y-60400365D01*
X49910537Y-60390185D01*
X49910537Y-60380077D01*
X49910537Y-60370042D01*
X49910537Y-60360080D01*
X49910537Y-60350190D01*
X49910537Y-60340372D01*
X49910537Y-60330628D01*
X49910537Y-60316586D01*
X49910537Y-60303588D01*
X49910537Y-60291633D01*
X49910537Y-60280722D01*
X49910537Y-60270854D01*
X49910537Y-60259319D01*
X49910537Y-60247509D01*
X49910537Y-60237162D01*
X49910537Y-60234640D01*
X49910537Y-60193852D01*
X49910537Y-60189699D01*
X49911181Y-60179386D01*
X49913377Y-60169253D01*
X49917131Y-60160390D01*
X49924184Y-60153097D01*
X49934028Y-60149369D01*
X49944487Y-60148422D01*
X49951325Y-60148422D01*
X49961230Y-60151146D01*
X49969964Y-60156425D01*
X49977948Y-60162650D01*
X49986817Y-60170652D01*
X49994050Y-60177821D01*
X50001781Y-60185991D01*
X50010010Y-60195161D01*
X50018736Y-60205331D01*
X50027969Y-60216295D01*
X50034357Y-60223981D01*
X50040932Y-60231968D01*
X50047695Y-60240257D01*
X50054644Y-60248848D01*
X50061781Y-60257740D01*
X50069104Y-60266933D01*
X50076615Y-60276428D01*
X50084312Y-60286224D01*
X50092197Y-60296322D01*
X50100268Y-60306722D01*
X50108527Y-60317423D01*
X50116972Y-60328425D01*
X50125605Y-60339729D01*
X50134424Y-60351334D01*
X50138904Y-60357250D01*
X50145673Y-60365859D01*
X50152301Y-60374374D01*
X50158789Y-60382795D01*
X50165137Y-60391123D01*
X50168702Y-60395840D01*
X50174948Y-60403975D01*
X50181077Y-60411922D01*
X50187089Y-60419683D01*
X50193817Y-60428323D01*
X50196301Y-60431500D01*
X50206226Y-60443914D01*
X50215547Y-60455573D01*
X50224262Y-60466476D01*
X50232373Y-60476624D01*
X50239878Y-60486016D01*
X50246779Y-60494652D01*
X50253075Y-60502533D01*
X50261385Y-60512937D01*
X50268334Y-60521641D01*
X50275481Y-60530601D01*
X50281667Y-60538375D01*
X50282519Y-60539455D01*
X50295108Y-60555136D01*
X50307321Y-60570398D01*
X50319158Y-60585239D01*
X50330619Y-60599661D01*
X50341705Y-60613663D01*
X50352414Y-60627245D01*
X50362748Y-60640408D01*
X50372705Y-60653150D01*
X50382287Y-60665473D01*
X50391493Y-60677376D01*
X50400323Y-60688859D01*
X50408777Y-60699923D01*
X50416855Y-60710566D01*
X50424557Y-60720790D01*
X50431884Y-60730594D01*
X50438834Y-60739979D01*
X50445409Y-60748943D01*
X50451607Y-60757488D01*
X50457430Y-60765613D01*
X50467948Y-60780603D01*
X50476962Y-60793914D01*
X50484472Y-60805546D01*
X50490479Y-60815499D01*
X50496670Y-60827280D01*
X50498918Y-60833035D01*
X50493066Y-60825185D01*
X50488782Y-60815633D01*
X50485296Y-60805045D01*
X50482522Y-60794530D01*
X50479867Y-60782477D01*
X50477867Y-60771822D01*
X50475898Y-60760373D01*
X50473959Y-60748130D01*
X50472525Y-60738427D01*
X50471109Y-60728278D01*
X50469709Y-60717682D01*
X50468326Y-60706639D01*
X50466961Y-60695150D01*
X50465613Y-60683215D01*
X50464724Y-60675010D01*
X50463458Y-60662471D01*
X50462317Y-60649860D01*
X50461300Y-60637175D01*
X50460408Y-60624417D01*
X50459640Y-60611587D01*
X50458997Y-60598683D01*
X50458478Y-60585707D01*
X50458084Y-60572657D01*
X50457814Y-60559534D01*
X50457668Y-60546339D01*
X50457641Y-60537501D01*
X50457547Y-60521585D01*
X50457267Y-60505040D01*
X50456799Y-60487865D01*
X50456145Y-60470060D01*
X50455303Y-60451625D01*
X50454275Y-60432561D01*
X50453690Y-60422792D01*
X50453059Y-60412867D01*
X50452381Y-60402784D01*
X50451657Y-60392543D01*
X50450885Y-60382145D01*
X50450067Y-60371590D01*
X50449203Y-60360877D01*
X50448291Y-60350007D01*
X50447333Y-60338979D01*
X50446327Y-60327794D01*
X50445276Y-60316451D01*
X50444177Y-60304952D01*
X50443032Y-60293294D01*
X50441839Y-60281479D01*
X50440601Y-60269507D01*
X50439315Y-60257378D01*
X50437983Y-60245091D01*
X50436603Y-60232646D01*
X50435178Y-60220044D01*
X50433705Y-60207285D01*
X50432483Y-60195055D01*
X50431381Y-60183735D01*
X50430399Y-60173325D01*
X50429277Y-60160861D01*
X50428369Y-60150015D01*
X50427534Y-60138733D01*
X50426973Y-60128532D01*
X50426866Y-60123754D01*
X50427530Y-60112798D01*
X50429519Y-60102920D01*
X50434236Y-60091425D01*
X50441312Y-60081846D01*
X50450746Y-60074183D01*
X50462538Y-60068436D01*
X50472930Y-60065382D01*
X50484649Y-60063407D01*
X50497694Y-60062509D01*
X50502337Y-60062449D01*
X50512504Y-60064464D01*
X50521022Y-60070509D01*
X50527123Y-60079104D01*
X50531347Y-60088927D01*
X50533112Y-60094689D01*
X50535645Y-60106261D01*
X50537362Y-60117673D01*
X50538470Y-60127490D01*
X50539423Y-60138384D01*
X50540222Y-60150356D01*
X50540866Y-60163406D01*
X50541355Y-60177533D01*
X50541595Y-60187550D01*
X50541767Y-60198046D01*
X50541870Y-60209020D01*
X50541905Y-60220474D01*
X50541905Y-60232570D01*
X50541905Y-60245532D01*
X50541905Y-60259360D01*
X50541905Y-60274055D01*
X50541905Y-60289616D01*
X50541905Y-60306043D01*
X50541905Y-60323337D01*
X50541905Y-60341496D01*
X50541905Y-60360522D01*
X50541905Y-60370360D01*
X50541905Y-60380415D01*
X50541905Y-60390686D01*
X50541905Y-60401174D01*
X50541905Y-60411878D01*
X50541905Y-60422799D01*
X50541905Y-60433936D01*
X50541905Y-60445290D01*
X50541905Y-60456861D01*
X50541905Y-60468648D01*
X50541905Y-60480651D01*
X50541905Y-60492872D01*
X50541905Y-60505308D01*
X50541905Y-60517962D01*
X50541924Y-60530030D01*
X50541982Y-60542056D01*
X50542078Y-60554039D01*
X50542214Y-60565978D01*
X50542388Y-60577875D01*
X50542600Y-60589729D01*
X50542851Y-60601540D01*
X50543141Y-60613308D01*
X50543470Y-60625033D01*
X50543837Y-60636715D01*
X50544103Y-60644480D01*
X50544513Y-60655987D01*
X50544919Y-60667246D01*
X50545320Y-60678255D01*
X50545717Y-60689016D01*
X50546110Y-60699527D01*
X50546498Y-60709790D01*
X50546883Y-60719803D01*
X50547263Y-60729568D01*
X50547763Y-60742200D01*
X50548255Y-60754389D01*
X50548822Y-60766516D01*
X50549334Y-60778077D01*
X50549790Y-60789070D01*
X50550190Y-60799497D01*
X50550534Y-60809358D01*
X50550906Y-60821623D01*
X50551179Y-60832881D01*
X50551353Y-60843132D01*
X50551430Y-60854528D01*
X50551430Y-60905331D01*
G37*
G36*
X51413363Y-60675987D02*
G01*
X51412936Y-60689656D01*
X51411654Y-60703278D01*
X51409518Y-60716853D01*
X51406528Y-60730381D01*
X51402683Y-60743861D01*
X51397984Y-60757294D01*
X51392431Y-60770680D01*
X51388254Y-60779578D01*
X51383697Y-60788454D01*
X51378761Y-60797310D01*
X51373445Y-60806145D01*
X51367749Y-60814958D01*
X51364759Y-60819357D01*
X51358562Y-60828017D01*
X51352062Y-60836470D01*
X51345258Y-60844717D01*
X51338152Y-60852758D01*
X51330741Y-60860593D01*
X51323028Y-60868221D01*
X51315010Y-60875644D01*
X51306690Y-60882861D01*
X51298066Y-60889871D01*
X51289139Y-60896676D01*
X51279908Y-60903274D01*
X51270374Y-60909666D01*
X51260537Y-60915852D01*
X51250396Y-60921833D01*
X51239952Y-60927607D01*
X51229204Y-60933175D01*
X51218244Y-60938469D01*
X51207100Y-60943421D01*
X51195773Y-60948032D01*
X51184263Y-60952302D01*
X51172570Y-60956230D01*
X51160694Y-60959816D01*
X51148634Y-60963061D01*
X51136392Y-60965964D01*
X51123966Y-60968526D01*
X51111357Y-60970746D01*
X51098565Y-60972625D01*
X51085589Y-60974162D01*
X51072431Y-60975357D01*
X51059089Y-60976211D01*
X51045564Y-60976723D01*
X51031856Y-60976894D01*
X51020394Y-60976833D01*
X51009214Y-60976650D01*
X50998313Y-60976345D01*
X50987694Y-60975917D01*
X50977354Y-60975368D01*
X50967295Y-60974696D01*
X50957517Y-60973902D01*
X50943376Y-60972482D01*
X50929865Y-60970788D01*
X50916986Y-60968819D01*
X50904738Y-60966575D01*
X50893121Y-60964056D01*
X50882135Y-60961263D01*
X50871965Y-60958231D01*
X50859961Y-60953736D01*
X50849735Y-60948721D01*
X50841287Y-60943188D01*
X50833229Y-60935541D01*
X50827949Y-60927083D01*
X50825282Y-60915863D01*
X50825226Y-60913879D01*
X50827004Y-60903305D01*
X50830844Y-60892997D01*
X50835847Y-60882710D01*
X50841223Y-60873114D01*
X50846314Y-60864768D01*
X50847697Y-60862588D01*
X50853211Y-60854288D01*
X50859815Y-60845469D01*
X50867314Y-60837168D01*
X50875476Y-60830632D01*
X50885044Y-60827208D01*
X50886043Y-60827173D01*
X50896942Y-60828104D01*
X50906187Y-60831887D01*
X50910931Y-60841155D01*
X50910956Y-60842072D01*
X50908306Y-60851722D01*
X50905826Y-60855017D01*
X50900942Y-60863321D01*
X50910318Y-60867836D01*
X50915596Y-60870160D01*
X50924801Y-60873595D01*
X50934934Y-60876625D01*
X50945164Y-60879241D01*
X50954777Y-60881434D01*
X50965380Y-60883639D01*
X50967620Y-60884082D01*
X50979380Y-60886052D01*
X50989346Y-60887388D01*
X50999809Y-60888510D01*
X51010767Y-60889418D01*
X51022222Y-60890113D01*
X51034172Y-60890593D01*
X51046619Y-60890861D01*
X51056280Y-60890921D01*
X51066490Y-60890798D01*
X51076541Y-60890428D01*
X51086434Y-60889813D01*
X51096168Y-60888951D01*
X51110473Y-60887198D01*
X51124421Y-60884890D01*
X51138013Y-60882028D01*
X51151249Y-60878613D01*
X51164128Y-60874644D01*
X51176651Y-60870121D01*
X51188817Y-60865044D01*
X51200628Y-60859413D01*
X51212006Y-60853366D01*
X51222878Y-60847040D01*
X51233244Y-60840435D01*
X51243103Y-60833550D01*
X51252455Y-60826387D01*
X51261301Y-60818944D01*
X51269640Y-60811223D01*
X51277472Y-60803222D01*
X51284798Y-60794943D01*
X51291618Y-60786384D01*
X51295882Y-60780523D01*
X51301819Y-60771625D01*
X51307171Y-60762791D01*
X51311939Y-60754022D01*
X51317389Y-60742430D01*
X51321801Y-60730953D01*
X51325174Y-60719590D01*
X51327510Y-60708341D01*
X51328807Y-60697207D01*
X51329099Y-60688932D01*
X51328601Y-60678436D01*
X51327107Y-60668198D01*
X51324617Y-60658217D01*
X51321131Y-60648494D01*
X51316649Y-60639029D01*
X51311170Y-60629821D01*
X51304696Y-60620871D01*
X51297226Y-60612178D01*
X51288759Y-60603744D01*
X51279297Y-60595566D01*
X51272435Y-60590258D01*
X51261223Y-60582365D01*
X51248744Y-60574533D01*
X51239722Y-60569344D01*
X51230136Y-60564183D01*
X51219988Y-60559048D01*
X51209276Y-60553940D01*
X51198002Y-60548859D01*
X51186165Y-60543804D01*
X51173765Y-60538776D01*
X51160802Y-60533775D01*
X51147276Y-60528800D01*
X51133187Y-60523852D01*
X51118535Y-60518931D01*
X51103321Y-60514037D01*
X51087543Y-60509169D01*
X51072040Y-60504091D01*
X51056978Y-60499117D01*
X51042357Y-60494245D01*
X51028177Y-60489477D01*
X51014437Y-60484812D01*
X51001138Y-60480249D01*
X50988280Y-60475790D01*
X50975863Y-60471434D01*
X50963887Y-60467180D01*
X50952351Y-60463030D01*
X50941256Y-60458983D01*
X50930602Y-60455039D01*
X50920388Y-60451198D01*
X50910616Y-60447460D01*
X50901284Y-60443825D01*
X50892393Y-60440293D01*
X50879652Y-60434908D01*
X50867349Y-60429287D01*
X50855483Y-60423431D01*
X50844056Y-60417338D01*
X50833066Y-60411008D01*
X50822515Y-60404443D01*
X50812401Y-60397642D01*
X50802725Y-60390604D01*
X50793488Y-60383331D01*
X50784688Y-60375821D01*
X50779064Y-60370683D01*
X50771208Y-60362683D01*
X50764124Y-60354343D01*
X50757812Y-60345664D01*
X50752274Y-60336646D01*
X50747508Y-60327289D01*
X50743516Y-60317592D01*
X50740296Y-60307556D01*
X50737848Y-60297182D01*
X50736174Y-60286468D01*
X50735272Y-60275414D01*
X50735101Y-60267857D01*
X50735449Y-60257708D01*
X50736494Y-60247593D01*
X50738235Y-60237512D01*
X50740672Y-60227465D01*
X50743807Y-60217453D01*
X50747637Y-60207476D01*
X50752164Y-60197532D01*
X50757388Y-60187623D01*
X50763308Y-60177749D01*
X50769924Y-60167908D01*
X50777237Y-60158102D01*
X50785247Y-60148331D01*
X50793953Y-60138594D01*
X50803355Y-60128891D01*
X50813454Y-60119222D01*
X50824249Y-60109588D01*
X50835549Y-60100085D01*
X50847162Y-60090812D01*
X50859088Y-60081767D01*
X50871327Y-60072951D01*
X50883879Y-60064365D01*
X50896744Y-60056007D01*
X50909921Y-60047878D01*
X50923412Y-60039979D01*
X50937215Y-60032308D01*
X50951332Y-60024866D01*
X50965761Y-60017653D01*
X50980504Y-60010669D01*
X50995559Y-60003915D01*
X51010927Y-59997389D01*
X51026608Y-59991092D01*
X51042602Y-59985024D01*
X51058713Y-59979257D01*
X51074682Y-59973861D01*
X51090510Y-59968838D01*
X51106197Y-59964187D01*
X51121743Y-59959908D01*
X51137147Y-59956001D01*
X51152411Y-59952466D01*
X51167533Y-59949303D01*
X51182514Y-59946513D01*
X51197353Y-59944094D01*
X51212052Y-59942048D01*
X51226609Y-59940373D01*
X51241025Y-59939071D01*
X51255300Y-59938141D01*
X51269433Y-59937583D01*
X51283426Y-59937397D01*
X51294691Y-59937643D01*
X51304947Y-59938384D01*
X51317052Y-59940140D01*
X51327364Y-59942773D01*
X51337731Y-59947299D01*
X51346472Y-59954540D01*
X51351178Y-59963756D01*
X51351570Y-59965484D01*
X51353283Y-59975668D01*
X51354575Y-59986341D01*
X51355447Y-59997506D01*
X51355859Y-60007467D01*
X51355966Y-60016043D01*
X51354914Y-60027178D01*
X51351136Y-60036554D01*
X51343601Y-60042833D01*
X51333984Y-60044619D01*
X51323916Y-60043172D01*
X51314689Y-60039490D01*
X51305713Y-60034788D01*
X51298325Y-60031430D01*
X51288330Y-60028605D01*
X51279274Y-60026301D01*
X51268930Y-60024403D01*
X51258778Y-60023602D01*
X51248011Y-60023370D01*
X51234093Y-60023701D01*
X51219635Y-60024692D01*
X51209695Y-60025721D01*
X51199515Y-60027043D01*
X51189095Y-60028659D01*
X51178434Y-60030569D01*
X51167533Y-60032773D01*
X51156391Y-60035271D01*
X51145009Y-60038063D01*
X51133386Y-60041148D01*
X51121523Y-60044528D01*
X51109420Y-60048201D01*
X51097076Y-60052168D01*
X51084492Y-60056429D01*
X51071667Y-60060983D01*
X51058866Y-60065753D01*
X51046289Y-60070658D01*
X51033938Y-60075698D01*
X51021811Y-60080874D01*
X51009910Y-60086185D01*
X50998234Y-60091632D01*
X50986783Y-60097214D01*
X50975558Y-60102932D01*
X50964557Y-60108785D01*
X50953782Y-60114774D01*
X50943232Y-60120898D01*
X50932907Y-60127158D01*
X50922807Y-60133553D01*
X50912932Y-60140084D01*
X50903283Y-60146750D01*
X50893859Y-60153551D01*
X50884838Y-60160365D01*
X50876399Y-60167126D01*
X50868542Y-60173836D01*
X50861267Y-60180495D01*
X50851446Y-60190386D01*
X50842935Y-60200161D01*
X50835733Y-60209820D01*
X50829840Y-60219363D01*
X50825257Y-60228791D01*
X50821983Y-60238102D01*
X50819655Y-60250337D01*
X50819364Y-60256378D01*
X50820164Y-60268281D01*
X50822561Y-60279719D01*
X50826556Y-60290692D01*
X50832149Y-60301200D01*
X50837774Y-60309272D01*
X50844422Y-60317045D01*
X50852093Y-60324521D01*
X50860653Y-60331730D01*
X50869969Y-60338703D01*
X50880040Y-60345439D01*
X50890867Y-60351938D01*
X50899483Y-60356657D01*
X50908524Y-60361243D01*
X50917990Y-60365696D01*
X50927881Y-60370016D01*
X50938197Y-60374202D01*
X50941730Y-60375568D01*
X50952871Y-60379691D01*
X50964863Y-60383997D01*
X50977704Y-60388489D01*
X50991395Y-60393165D01*
X51000995Y-60396385D01*
X51010973Y-60399687D01*
X51021328Y-60403071D01*
X51032062Y-60406537D01*
X51043173Y-60410086D01*
X51054662Y-60413716D01*
X51066529Y-60417428D01*
X51078773Y-60421223D01*
X51091396Y-60425099D01*
X51104396Y-60429057D01*
X51114102Y-60431924D01*
X51123652Y-60434814D01*
X51133045Y-60437729D01*
X51151359Y-60443629D01*
X51169046Y-60449624D01*
X51186104Y-60455715D01*
X51202535Y-60461901D01*
X51218339Y-60468183D01*
X51233514Y-60474560D01*
X51248062Y-60481032D01*
X51261982Y-60487600D01*
X51275274Y-60494263D01*
X51287938Y-60501022D01*
X51299975Y-60507876D01*
X51311384Y-60514825D01*
X51322165Y-60521870D01*
X51332318Y-60529010D01*
X51337159Y-60532616D01*
X51346387Y-60539960D01*
X51355020Y-60547519D01*
X51363057Y-60555294D01*
X51370498Y-60563284D01*
X51377345Y-60571490D01*
X51383596Y-60579912D01*
X51389252Y-60588549D01*
X51394312Y-60597402D01*
X51398777Y-60606470D01*
X51402647Y-60615754D01*
X51405921Y-60625254D01*
X51408600Y-60634969D01*
X51410684Y-60644900D01*
X51412172Y-60655047D01*
X51413065Y-60665409D01*
X51413363Y-60675987D01*
G37*
G36*
X51986922Y-60025474D02*
G01*
X51996558Y-60030441D01*
X52004404Y-60036518D01*
X52012372Y-60044466D01*
X52020463Y-60054283D01*
X52026611Y-60062873D01*
X52032828Y-60072516D01*
X52039113Y-60083210D01*
X52045409Y-60094599D01*
X52051658Y-60106328D01*
X52057860Y-60118396D01*
X52064015Y-60130803D01*
X52070122Y-60143549D01*
X52076182Y-60156634D01*
X52080196Y-60165546D01*
X52084188Y-60174609D01*
X52088160Y-60183822D01*
X52092111Y-60193187D01*
X52096041Y-60202702D01*
X52099950Y-60212367D01*
X52103838Y-60222184D01*
X52107269Y-60231376D01*
X52110876Y-60241366D01*
X52114659Y-60252155D01*
X52118618Y-60263743D01*
X52122753Y-60276129D01*
X52127065Y-60289314D01*
X52131552Y-60303298D01*
X52134641Y-60313064D01*
X52137809Y-60323184D01*
X52141054Y-60333660D01*
X52144378Y-60344491D01*
X52147781Y-60355676D01*
X52149511Y-60361402D01*
X52152908Y-60372673D01*
X52156140Y-60383403D01*
X52159205Y-60393594D01*
X52162105Y-60403244D01*
X52166143Y-60416707D01*
X52169807Y-60428955D01*
X52173098Y-60439988D01*
X52176015Y-60449807D01*
X52179324Y-60461007D01*
X52182526Y-60471971D01*
X52183949Y-60476929D01*
X52194024Y-60475268D01*
X52204099Y-60472972D01*
X52213258Y-60470334D01*
X52222921Y-60467152D01*
X52232309Y-60463984D01*
X52240896Y-60459214D01*
X52246964Y-60454703D01*
X52255314Y-60448775D01*
X52263880Y-60443812D01*
X52265038Y-60443224D01*
X52275174Y-60441209D01*
X52285045Y-60443753D01*
X52286531Y-60444445D01*
X52295667Y-60450068D01*
X52302560Y-60457748D01*
X52307208Y-60467486D01*
X52309406Y-60477469D01*
X52309979Y-60486943D01*
X52308971Y-60496710D01*
X52306252Y-60506156D01*
X52303872Y-60511856D01*
X52298824Y-60520820D01*
X52291881Y-60528439D01*
X52287508Y-60531639D01*
X52278187Y-60537307D01*
X52269107Y-60540933D01*
X52259651Y-60543818D01*
X52248648Y-60546497D01*
X52242568Y-60547759D01*
X52232909Y-60549665D01*
X52223223Y-60551543D01*
X52213541Y-60553352D01*
X52205687Y-60554598D01*
X52206145Y-60565509D01*
X52206631Y-60577033D01*
X52207089Y-60587761D01*
X52207547Y-60598122D01*
X52207641Y-60599783D01*
X52212846Y-60610855D01*
X52216814Y-60620709D01*
X52220605Y-60631448D01*
X52224221Y-60643072D01*
X52227661Y-60655582D01*
X52230126Y-60665546D01*
X52232493Y-60676007D01*
X52234760Y-60686966D01*
X52236217Y-60694549D01*
X52239278Y-60712032D01*
X52242354Y-60729186D01*
X52245445Y-60746012D01*
X52248551Y-60762510D01*
X52251673Y-60778680D01*
X52254810Y-60794521D01*
X52257962Y-60810034D01*
X52261130Y-60825219D01*
X52264313Y-60840076D01*
X52267511Y-60854605D01*
X52270724Y-60868805D01*
X52273953Y-60882677D01*
X52277197Y-60896221D01*
X52280456Y-60909437D01*
X52283730Y-60922325D01*
X52287020Y-60934884D01*
X52289131Y-60944609D01*
X52291191Y-60954546D01*
X52293138Y-60964858D01*
X52294347Y-60974452D01*
X52293011Y-60984765D01*
X52289004Y-60994029D01*
X52282326Y-61002244D01*
X52280669Y-61003761D01*
X52272727Y-61009664D01*
X52262995Y-61013958D01*
X52252310Y-61015866D01*
X52248918Y-61015973D01*
X52238404Y-61014351D01*
X52228844Y-61009485D01*
X52221056Y-61002333D01*
X52218632Y-60999364D01*
X52212877Y-60991304D01*
X52207534Y-60982821D01*
X52203002Y-60974120D01*
X52201290Y-60970055D01*
X52198150Y-60957801D01*
X52195078Y-60945219D01*
X52192819Y-60935567D01*
X52190598Y-60925730D01*
X52188416Y-60915709D01*
X52186273Y-60905503D01*
X52184169Y-60895112D01*
X52182103Y-60884537D01*
X52180076Y-60873777D01*
X52178087Y-60862833D01*
X52176090Y-60851544D01*
X52174037Y-60839843D01*
X52171929Y-60827730D01*
X52169764Y-60815205D01*
X52167544Y-60802268D01*
X52165268Y-60788919D01*
X52162936Y-60775157D01*
X52160548Y-60760983D01*
X52158925Y-60751305D01*
X52157277Y-60741444D01*
X52155605Y-60731400D01*
X52153907Y-60721172D01*
X52152055Y-60709517D01*
X52150325Y-60699566D01*
X52148373Y-60689058D01*
X52146199Y-60677992D01*
X52143804Y-60666370D01*
X52141188Y-60654190D01*
X52138351Y-60641453D01*
X52136078Y-60631535D01*
X52133830Y-60621846D01*
X52131107Y-60610130D01*
X52128697Y-60599788D01*
X52126125Y-60588792D01*
X52123683Y-60578431D01*
X52121341Y-60568685D01*
X52121179Y-60568032D01*
X52111318Y-60569405D01*
X52100483Y-60570959D01*
X52088673Y-60572694D01*
X52075887Y-60574611D01*
X52062126Y-60576709D01*
X52047391Y-60578988D01*
X52031680Y-60581449D01*
X52014994Y-60584091D01*
X51997333Y-60586914D01*
X51978697Y-60589918D01*
X51969014Y-60591488D01*
X51959087Y-60593104D01*
X51948915Y-60594765D01*
X51938500Y-60596471D01*
X51927842Y-60598222D01*
X51916939Y-60600019D01*
X51905793Y-60601861D01*
X51894403Y-60603748D01*
X51882769Y-60605681D01*
X51870892Y-60607659D01*
X51858771Y-60609682D01*
X51846406Y-60611751D01*
X51770690Y-60624940D01*
X51742847Y-60703342D01*
X51704012Y-60814961D01*
X51701017Y-60824418D01*
X51698075Y-60833738D01*
X51692353Y-60851968D01*
X51686847Y-60869650D01*
X51681557Y-60886784D01*
X51676482Y-60903370D01*
X51671623Y-60919409D01*
X51666980Y-60934901D01*
X51662552Y-60949844D01*
X51658340Y-60964240D01*
X51654343Y-60978089D01*
X51650562Y-60991389D01*
X51646997Y-61004142D01*
X51643647Y-61016348D01*
X51640513Y-61028006D01*
X51637594Y-61039116D01*
X51634891Y-61049678D01*
X51631960Y-61060044D01*
X51627808Y-61069645D01*
X51622435Y-61078484D01*
X51615840Y-61086559D01*
X51608299Y-61093291D01*
X51598721Y-61098565D01*
X51589234Y-61101210D01*
X51580181Y-61101946D01*
X51570420Y-61101116D01*
X51560526Y-61098244D01*
X51551634Y-61093321D01*
X51549162Y-61091444D01*
X51542336Y-61084045D01*
X51538038Y-61074977D01*
X51536268Y-61064239D01*
X51536217Y-61061891D01*
X51537271Y-61051495D01*
X51539443Y-61040953D01*
X51542158Y-61030372D01*
X51544923Y-61020730D01*
X51548215Y-61010042D01*
X51552033Y-60998309D01*
X51553070Y-60995212D01*
X51557058Y-60983321D01*
X51560596Y-60972681D01*
X51563683Y-60963293D01*
X51566909Y-60953318D01*
X51569851Y-60943930D01*
X51572365Y-60935129D01*
X51575983Y-60925802D01*
X51579598Y-60915861D01*
X51583201Y-60905649D01*
X51586469Y-60896217D01*
X51590082Y-60885663D01*
X51594037Y-60873987D01*
X51595080Y-60870893D01*
X51598515Y-60860476D01*
X51602135Y-60849652D01*
X51605940Y-60838420D01*
X51609929Y-60826780D01*
X51614103Y-60814732D01*
X51618461Y-60802277D01*
X51623004Y-60789413D01*
X51627732Y-60776142D01*
X51632644Y-60762463D01*
X51636022Y-60753116D01*
X51639481Y-60743589D01*
X51641242Y-60738757D01*
X51644690Y-60729308D01*
X51649511Y-60716108D01*
X51653912Y-60704075D01*
X51657892Y-60693210D01*
X51661451Y-60683513D01*
X51665542Y-60672400D01*
X51669604Y-60661428D01*
X51673327Y-60651517D01*
X51673970Y-60649853D01*
X51663401Y-60652383D01*
X51653219Y-60654845D01*
X51643423Y-60657237D01*
X51630963Y-60660321D01*
X51619190Y-60663282D01*
X51608103Y-60666122D01*
X51597704Y-60668839D01*
X51587991Y-60671434D01*
X51581158Y-60673300D01*
X51571260Y-60675876D01*
X51559186Y-60678915D01*
X51548393Y-60681505D01*
X51536706Y-60684108D01*
X51527022Y-60686008D01*
X51516830Y-60687485D01*
X51512770Y-60687711D01*
X51502552Y-60686551D01*
X51493011Y-60682544D01*
X51485378Y-60675675D01*
X51483461Y-60673056D01*
X51478309Y-60663706D01*
X51475065Y-60653975D01*
X51473729Y-60643861D01*
X51473691Y-60641793D01*
X51474522Y-60631002D01*
X51477394Y-60621413D01*
X51483547Y-60613244D01*
X51484193Y-60612728D01*
X51492684Y-60607418D01*
X51502606Y-60602991D01*
X51512055Y-60599724D01*
X51515945Y-60598562D01*
X51526028Y-60596181D01*
X51536218Y-60593799D01*
X51546516Y-60591418D01*
X51556921Y-60589036D01*
X51567433Y-60586655D01*
X51578052Y-60584274D01*
X51588779Y-60581892D01*
X51599614Y-60579511D01*
X51610555Y-60577130D01*
X51621604Y-60574748D01*
X51629030Y-60573161D01*
X51639882Y-60570859D01*
X51650001Y-60568716D01*
X51662351Y-60566105D01*
X51673395Y-60563777D01*
X51683134Y-60561732D01*
X51693473Y-60559572D01*
X51703187Y-60557563D01*
X51706943Y-60556796D01*
X51710698Y-60545556D01*
X51711796Y-60542142D01*
X51792672Y-60542142D01*
X51942637Y-60515764D01*
X52075505Y-60494515D01*
X52104570Y-60490362D01*
X52101615Y-60479713D01*
X52098502Y-60468358D01*
X52095411Y-60457023D01*
X52092742Y-60447210D01*
X52089773Y-60436272D01*
X52086503Y-60424209D01*
X52082932Y-60411022D01*
X52079061Y-60396709D01*
X52077704Y-60391688D01*
X52074966Y-60381640D01*
X52072250Y-60371828D01*
X52069555Y-60362253D01*
X52065551Y-60348334D01*
X52061595Y-60334948D01*
X52057686Y-60322093D01*
X52053824Y-60309772D01*
X52050009Y-60297982D01*
X52046242Y-60286725D01*
X52042522Y-60276000D01*
X52038849Y-60265808D01*
X52036427Y-60259309D01*
X52032714Y-60249535D01*
X52028813Y-60239722D01*
X52024723Y-60229871D01*
X52020444Y-60219982D01*
X52015976Y-60210053D01*
X52011319Y-60200086D01*
X52006473Y-60190081D01*
X52001439Y-60180037D01*
X51996215Y-60169954D01*
X51990803Y-60159832D01*
X51987090Y-60153063D01*
X51981666Y-60143306D01*
X51976568Y-60134370D01*
X51970279Y-60123730D01*
X51964570Y-60114548D01*
X51958249Y-60105121D01*
X51951860Y-60096814D01*
X51946057Y-60091270D01*
X51934333Y-60119357D01*
X51929540Y-60129344D01*
X51924962Y-60139155D01*
X51920599Y-60148790D01*
X51916450Y-60158249D01*
X51912516Y-60167532D01*
X51908796Y-60176639D01*
X51904171Y-60188508D01*
X51899927Y-60200064D01*
X51896065Y-60211306D01*
X51894277Y-60216810D01*
X51889988Y-60230045D01*
X51885423Y-60244227D01*
X51880584Y-60259354D01*
X51875471Y-60275429D01*
X51870082Y-60292449D01*
X51864419Y-60310416D01*
X51861484Y-60319755D01*
X51858480Y-60329330D01*
X51855408Y-60339142D01*
X51852267Y-60349190D01*
X51849058Y-60359475D01*
X51845780Y-60369996D01*
X51842433Y-60380755D01*
X51839017Y-60391749D01*
X51835533Y-60402981D01*
X51831980Y-60414449D01*
X51828358Y-60426153D01*
X51824668Y-60438094D01*
X51820909Y-60450272D01*
X51817081Y-60462687D01*
X51813185Y-60475338D01*
X51809220Y-60488225D01*
X51805186Y-60501349D01*
X51801083Y-60514710D01*
X51796912Y-60528308D01*
X51792672Y-60542142D01*
X51711796Y-60542142D01*
X51714180Y-60534733D01*
X51717387Y-60524328D01*
X51720319Y-60514340D01*
X51722977Y-60504770D01*
X51725805Y-60493836D01*
X51726238Y-60492072D01*
X51729261Y-60482028D01*
X51732256Y-60472387D01*
X51735579Y-60461952D01*
X51738687Y-60452375D01*
X51740893Y-60445666D01*
X51744442Y-60434844D01*
X51747504Y-60425104D01*
X51750662Y-60414708D01*
X51753916Y-60403656D01*
X51757265Y-60391949D01*
X51760012Y-60382110D01*
X51761409Y-60377034D01*
X51782414Y-60304494D01*
X51785683Y-60292761D01*
X51788866Y-60281348D01*
X51791963Y-60270253D01*
X51794973Y-60259477D01*
X51797897Y-60249019D01*
X51800735Y-60238880D01*
X51803486Y-60229060D01*
X51806151Y-60219558D01*
X51811222Y-60201511D01*
X51815948Y-60184738D01*
X51820328Y-60169240D01*
X51824363Y-60155017D01*
X51828052Y-60142068D01*
X51831396Y-60130394D01*
X51834395Y-60119995D01*
X51838245Y-60106786D01*
X51841319Y-60096444D01*
X51844207Y-60087117D01*
X51847780Y-60077180D01*
X51851871Y-60067058D01*
X51856040Y-60058057D01*
X51858862Y-60052679D01*
X51865049Y-60044892D01*
X51874036Y-60040084D01*
X51882309Y-60039002D01*
X51892965Y-60039311D01*
X51902952Y-60040238D01*
X51913756Y-60042101D01*
X51923648Y-60044806D01*
X51931402Y-60047794D01*
X51936287Y-60039002D01*
X51943553Y-60031735D01*
X51952163Y-60027034D01*
X51962059Y-60024404D01*
X51972198Y-60023427D01*
X51975610Y-60023370D01*
X51986922Y-60025474D01*
G37*
G36*
X53241277Y-60119602D02*
G01*
X53241243Y-60132357D01*
X53241143Y-60145221D01*
X53240976Y-60158193D01*
X53240742Y-60171274D01*
X53240442Y-60184464D01*
X53240074Y-60197763D01*
X53239640Y-60211171D01*
X53239139Y-60224687D01*
X53238572Y-60238312D01*
X53237937Y-60252046D01*
X53237236Y-60265889D01*
X53236468Y-60279840D01*
X53235633Y-60293900D01*
X53234732Y-60308069D01*
X53233763Y-60322347D01*
X53232728Y-60336734D01*
X53231684Y-60351070D01*
X53230629Y-60365199D01*
X53229562Y-60379120D01*
X53228484Y-60392833D01*
X53227395Y-60406338D01*
X53226294Y-60419635D01*
X53225181Y-60432724D01*
X53224057Y-60445605D01*
X53222922Y-60458278D01*
X53221775Y-60470743D01*
X53220617Y-60483000D01*
X53219447Y-60495049D01*
X53218266Y-60506890D01*
X53217074Y-60518523D01*
X53215870Y-60529948D01*
X53214654Y-60541165D01*
X53213258Y-60555636D01*
X53212201Y-60565437D01*
X53211043Y-60575359D01*
X53209783Y-60585403D01*
X53208423Y-60595570D01*
X53206961Y-60605859D01*
X53205398Y-60616270D01*
X53203734Y-60626803D01*
X53201969Y-60637458D01*
X53200103Y-60648235D01*
X53198136Y-60659134D01*
X53196068Y-60670156D01*
X53193898Y-60681299D01*
X53191627Y-60692565D01*
X53189255Y-60703953D01*
X53188032Y-60709692D01*
X53185551Y-60721109D01*
X53182994Y-60732338D01*
X53180361Y-60743381D01*
X53177651Y-60754236D01*
X53174865Y-60764905D01*
X53172003Y-60775386D01*
X53169065Y-60785681D01*
X53166050Y-60795788D01*
X53162959Y-60805709D01*
X53159791Y-60815442D01*
X53156547Y-60824988D01*
X53153227Y-60834348D01*
X53149830Y-60843520D01*
X53144593Y-60856928D01*
X53139183Y-60869916D01*
X53133686Y-60882050D01*
X53128095Y-60892991D01*
X53122409Y-60902738D01*
X53116629Y-60911292D01*
X53108775Y-60920840D01*
X53100753Y-60928267D01*
X53090489Y-60934566D01*
X53079964Y-60937550D01*
X53075680Y-60937815D01*
X53065363Y-60934648D01*
X53056427Y-60926891D01*
X53050422Y-60919135D01*
X53044379Y-60909310D01*
X53039822Y-60900584D01*
X53035243Y-60890694D01*
X53030643Y-60879641D01*
X53027564Y-60871625D01*
X53022823Y-60858715D01*
X53017850Y-60844804D01*
X53014405Y-60834974D01*
X53010858Y-60824699D01*
X53007208Y-60813980D01*
X53003455Y-60802817D01*
X52999598Y-60791209D01*
X52995639Y-60779156D01*
X52991576Y-60766658D01*
X52987411Y-60753716D01*
X52983142Y-60740330D01*
X52978771Y-60726498D01*
X52974296Y-60712223D01*
X52969719Y-60697502D01*
X52965038Y-60682337D01*
X52941102Y-60602958D01*
X52937995Y-60592753D01*
X52934840Y-60582530D01*
X52931637Y-60572290D01*
X52928386Y-60562032D01*
X52925088Y-60551758D01*
X52921742Y-60541466D01*
X52918348Y-60531158D01*
X52914907Y-60520832D01*
X52911418Y-60510489D01*
X52907881Y-60500128D01*
X52904297Y-60489751D01*
X52900665Y-60479356D01*
X52896985Y-60468944D01*
X52893257Y-60458515D01*
X52889482Y-60448069D01*
X52885659Y-60437606D01*
X52881931Y-60427397D01*
X52878381Y-60417715D01*
X52873389Y-60404180D01*
X52868796Y-60391829D01*
X52864602Y-60380664D01*
X52860807Y-60370683D01*
X52856369Y-60359219D01*
X52852640Y-60349862D01*
X52848379Y-60339775D01*
X52847313Y-60337466D01*
X52792847Y-60524801D01*
X52787700Y-60542426D01*
X52782641Y-60559703D01*
X52777669Y-60576631D01*
X52772784Y-60593212D01*
X52767987Y-60609444D01*
X52763277Y-60625328D01*
X52758654Y-60640863D01*
X52754119Y-60656051D01*
X52749671Y-60670890D01*
X52745310Y-60685381D01*
X52741036Y-60699523D01*
X52736850Y-60713318D01*
X52732751Y-60726764D01*
X52728740Y-60739862D01*
X52724815Y-60752612D01*
X52720978Y-60765013D01*
X52717228Y-60777067D01*
X52713566Y-60788772D01*
X52709991Y-60800129D01*
X52706503Y-60811137D01*
X52703102Y-60821798D01*
X52699789Y-60832110D01*
X52696563Y-60842074D01*
X52693425Y-60851689D01*
X52687409Y-60869876D01*
X52681743Y-60886669D01*
X52676426Y-60902070D01*
X52671458Y-60916078D01*
X52667527Y-60925637D01*
X52663988Y-60935068D01*
X52663154Y-60937327D01*
X52658575Y-60947229D01*
X52652257Y-60955780D01*
X52644201Y-60962977D01*
X52638974Y-60966392D01*
X52629570Y-60970987D01*
X52618946Y-60974269D01*
X52608647Y-60976063D01*
X52597414Y-60976853D01*
X52594033Y-60976894D01*
X52586062Y-60969429D01*
X52581593Y-60960096D01*
X52577786Y-60949943D01*
X52573773Y-60937401D01*
X52570629Y-60926426D01*
X52567368Y-60914108D01*
X52563991Y-60900446D01*
X52561701Y-60890842D01*
X52559412Y-60881143D01*
X52557122Y-60871349D01*
X52554832Y-60861459D01*
X52552542Y-60851474D01*
X52550252Y-60841393D01*
X52547963Y-60831217D01*
X52545673Y-60820945D01*
X52543383Y-60810578D01*
X52541093Y-60800116D01*
X52538804Y-60789558D01*
X52536514Y-60778905D01*
X52534224Y-60768156D01*
X52531934Y-60757312D01*
X52529644Y-60746373D01*
X52527355Y-60735338D01*
X52524497Y-60722915D01*
X52521725Y-60710865D01*
X52519038Y-60699187D01*
X52516436Y-60687882D01*
X52513920Y-60676950D01*
X52511489Y-60666390D01*
X52509144Y-60656203D01*
X52506884Y-60646388D01*
X52502620Y-60627876D01*
X52498698Y-60610854D01*
X52495118Y-60595323D01*
X52491878Y-60581282D01*
X52488981Y-60568731D01*
X52486425Y-60557670D01*
X52484211Y-60548100D01*
X52481529Y-60536539D01*
X52479150Y-60526340D01*
X52478262Y-60522602D01*
X52474068Y-60505627D01*
X52469973Y-60489198D01*
X52465977Y-60473318D01*
X52462081Y-60457985D01*
X52458284Y-60443200D01*
X52454586Y-60428962D01*
X52450987Y-60415272D01*
X52447487Y-60402130D01*
X52444087Y-60389535D01*
X52440786Y-60377488D01*
X52437584Y-60365988D01*
X52434481Y-60355037D01*
X52431478Y-60344632D01*
X52428574Y-60334776D01*
X52424403Y-60321018D01*
X52423063Y-60316706D01*
X52419132Y-60304460D01*
X52415309Y-60293184D01*
X52411593Y-60282879D01*
X52407985Y-60273543D01*
X52403340Y-60262606D01*
X52398887Y-60253393D01*
X52393588Y-60244303D01*
X52386671Y-60236106D01*
X52378931Y-60229587D01*
X52371375Y-60221481D01*
X52365707Y-60213066D01*
X52361483Y-60202858D01*
X52359830Y-60192229D01*
X52359804Y-60190676D01*
X52361853Y-60181076D01*
X52367272Y-60172299D01*
X52374046Y-60165242D01*
X52377145Y-60162588D01*
X52386137Y-60156391D01*
X52395769Y-60151964D01*
X52406042Y-60149308D01*
X52416957Y-60148422D01*
X52427504Y-60148685D01*
X52437729Y-60149579D01*
X52446510Y-60151109D01*
X52456094Y-60155377D01*
X52463402Y-60162772D01*
X52465806Y-60166496D01*
X52471438Y-60178136D01*
X52476404Y-60191163D01*
X52480068Y-60201895D01*
X52484014Y-60214263D01*
X52488242Y-60228269D01*
X52492753Y-60243912D01*
X52497547Y-60261192D01*
X52502622Y-60280110D01*
X52505266Y-60290182D01*
X52507980Y-60300664D01*
X52510765Y-60311556D01*
X52513621Y-60322856D01*
X52516547Y-60334566D01*
X52519544Y-60346685D01*
X52522611Y-60359214D01*
X52525749Y-60372151D01*
X52528958Y-60385498D01*
X52532237Y-60399255D01*
X52535586Y-60413420D01*
X52539007Y-60427995D01*
X52542498Y-60442979D01*
X52545490Y-60453405D01*
X52548408Y-60464407D01*
X52551133Y-60475231D01*
X52553561Y-60485236D01*
X52556132Y-60496135D01*
X52556664Y-60498422D01*
X52560290Y-60513677D01*
X52563842Y-60528667D01*
X52567320Y-60543391D01*
X52570723Y-60557850D01*
X52574052Y-60572043D01*
X52577306Y-60585972D01*
X52580486Y-60599635D01*
X52583592Y-60613033D01*
X52586623Y-60626166D01*
X52589579Y-60639034D01*
X52592462Y-60651636D01*
X52595269Y-60663973D01*
X52598003Y-60676045D01*
X52600662Y-60687852D01*
X52603246Y-60699393D01*
X52605757Y-60710669D01*
X52608508Y-60721878D01*
X52611145Y-60732789D01*
X52613668Y-60743402D01*
X52616076Y-60753717D01*
X52618370Y-60763735D01*
X52620549Y-60773455D01*
X52623111Y-60785187D01*
X52624563Y-60792002D01*
X52626737Y-60802525D01*
X52628638Y-60813309D01*
X52629878Y-60823352D01*
X52629703Y-60833608D01*
X52629204Y-60835233D01*
X52629598Y-60824125D01*
X52632257Y-60812397D01*
X52635501Y-60800009D01*
X52638585Y-60788965D01*
X52642227Y-60776418D01*
X52646427Y-60762369D01*
X52649538Y-60752168D01*
X52651186Y-60746817D01*
X52656904Y-60729035D01*
X52662455Y-60711593D01*
X52667841Y-60694490D01*
X52673061Y-60677727D01*
X52678115Y-60661304D01*
X52683002Y-60645220D01*
X52687724Y-60629476D01*
X52692280Y-60614071D01*
X52696669Y-60599007D01*
X52700893Y-60584281D01*
X52704951Y-60569896D01*
X52708842Y-60555850D01*
X52712568Y-60542144D01*
X52716128Y-60528777D01*
X52719521Y-60515750D01*
X52722749Y-60503063D01*
X52726091Y-60490436D01*
X52729401Y-60478078D01*
X52732678Y-60465989D01*
X52735923Y-60454169D01*
X52739135Y-60442618D01*
X52742315Y-60431336D01*
X52745463Y-60420323D01*
X52748578Y-60409579D01*
X52751660Y-60399104D01*
X52754710Y-60388899D01*
X52757728Y-60378962D01*
X52760713Y-60369294D01*
X52763666Y-60359896D01*
X52768035Y-60346302D01*
X52772330Y-60333314D01*
X52776510Y-60321019D01*
X52780531Y-60309595D01*
X52784392Y-60299043D01*
X52788095Y-60289362D01*
X52792786Y-60277810D01*
X52797193Y-60267808D01*
X52802306Y-60257483D01*
X52807859Y-60248290D01*
X52808722Y-60247096D01*
X52816079Y-60239829D01*
X52824170Y-60233723D01*
X52832593Y-60228635D01*
X52834612Y-60227557D01*
X52843778Y-60223307D01*
X52853873Y-60220215D01*
X52863871Y-60218842D01*
X52866852Y-60218764D01*
X52876561Y-60220135D01*
X52885258Y-60225122D01*
X52887124Y-60227069D01*
X52893350Y-60235162D01*
X52898287Y-60244328D01*
X52898848Y-60245631D01*
X52903038Y-60254497D01*
X52907397Y-60262728D01*
X52912388Y-60273179D01*
X52916973Y-60283729D01*
X52920757Y-60292919D01*
X52924838Y-60303203D01*
X52929215Y-60314583D01*
X52933889Y-60327057D01*
X52938858Y-60340626D01*
X52942336Y-60350281D01*
X52945945Y-60360421D01*
X52949686Y-60371049D01*
X52953558Y-60382163D01*
X52957474Y-60393479D01*
X52961344Y-60404774D01*
X52965168Y-60416049D01*
X52968946Y-60427302D01*
X52972678Y-60438534D01*
X52976365Y-60449746D01*
X52980005Y-60460936D01*
X52983600Y-60472105D01*
X52987149Y-60483254D01*
X52990653Y-60494381D01*
X52994110Y-60505487D01*
X52997522Y-60516573D01*
X53000888Y-60527637D01*
X53004208Y-60538680D01*
X53007483Y-60549703D01*
X53010711Y-60560704D01*
X53030251Y-60625673D01*
X53033030Y-60635325D01*
X53035749Y-60644740D01*
X53041009Y-60662863D01*
X53046030Y-60680041D01*
X53050813Y-60696274D01*
X53055357Y-60711563D01*
X53059663Y-60725908D01*
X53063730Y-60739308D01*
X53067559Y-60751763D01*
X53071149Y-60763274D01*
X53074501Y-60773841D01*
X53077614Y-60783462D01*
X53081836Y-60796124D01*
X53085522Y-60806661D01*
X53089602Y-60817404D01*
X53094493Y-60806660D01*
X53099215Y-60794761D01*
X53103767Y-60781709D01*
X53108149Y-60767502D01*
X53112361Y-60752140D01*
X53116404Y-60735624D01*
X53120276Y-60717954D01*
X53123979Y-60699129D01*
X53125767Y-60689284D01*
X53127512Y-60679150D01*
X53129215Y-60668727D01*
X53130875Y-60658016D01*
X53132493Y-60647016D01*
X53134068Y-60635728D01*
X53135601Y-60624151D01*
X53137092Y-60612285D01*
X53138540Y-60600131D01*
X53139945Y-60587688D01*
X53141308Y-60574957D01*
X53142629Y-60561937D01*
X53143907Y-60548628D01*
X53145143Y-60535031D01*
X53146336Y-60521145D01*
X53147487Y-60506971D01*
X53148641Y-60495852D01*
X53149720Y-60484172D01*
X53150724Y-60471932D01*
X53151655Y-60459130D01*
X53152510Y-60445767D01*
X53153292Y-60431843D01*
X53153999Y-60417359D01*
X53154631Y-60402313D01*
X53155190Y-60386706D01*
X53155673Y-60370538D01*
X53156083Y-60353810D01*
X53156417Y-60336520D01*
X53156678Y-60318669D01*
X53156864Y-60300257D01*
X53156976Y-60281285D01*
X53157013Y-60261751D01*
X53157013Y-60119602D01*
X53157457Y-60108971D01*
X53158993Y-60098973D01*
X53162285Y-60089493D01*
X53162630Y-60088827D01*
X53169610Y-60081869D01*
X53178979Y-60078752D01*
X53187787Y-60078080D01*
X53198132Y-60079066D01*
X53208284Y-60082022D01*
X53217145Y-60086304D01*
X53223691Y-60090537D01*
X53231385Y-60096933D01*
X53237413Y-60104822D01*
X53240847Y-60114449D01*
X53241277Y-60119602D01*
G37*
D11*
X49282231Y-59448994D02*
G75*
G03*
X48682937Y-58451190I-882231J148994D01*
G01*
X50032234Y-58848994D02*
G75*
G03*
X50801012Y-58933385I399998J100000D01*
G01*
X49947161Y-59040037D02*
G75*
G03*
X50832232Y-59148994I485071J291043D01*
G01*
X50432232Y-59348994D02*
G75*
G03*
X50912232Y-59108994I0J600000D01*
G01*
X49932233Y-58948993D02*
G75*
G03*
X50910806Y-58974393I499999J399999D01*
G01*
X49932232Y-58848994D02*
X50032232Y-58848994D01*
X50832232Y-58948994D02*
X50832232Y-57548994D01*
X50932232Y-58948994D02*
X50832232Y-58948994D01*
X50932232Y-57548994D02*
X50932232Y-58948994D01*
X48438694Y-58492076D02*
X48432232Y-58648994D01*
X48333004Y-58261350D02*
G75*
G03*
X48832232Y-58048994I-50772J812356D01*
G01*
X48326377Y-58419719D02*
G75*
G03*
X48832232Y-58148994I-194145J970725D01*
G01*
X48832231Y-58148993D02*
G75*
G03*
X49080430Y-57733454I-699999J699999D01*
G01*
X48443046Y-58485041D02*
G75*
G03*
X49210161Y-57538821I-310814J1036047D01*
G01*
X49032232Y-58048994D02*
G75*
G03*
X49210161Y-57538821I-900000J600000D01*
G01*
X48438694Y-58492076D02*
G75*
G03*
X49332232Y-57548994I-156462J1043082D01*
G01*
X49191179Y-59196012D02*
G75*
G03*
X48432232Y-58648994I-758947J-252982D01*
G01*
X49232231Y-59348994D02*
G75*
G03*
X48458273Y-58510107I-949999J-100000D01*
G01*
X49282232Y-59448994D02*
G75*
G03*
X48446631Y-58462600I-1000000J0D01*
G01*
X48332232Y-59348994D02*
X48332232Y-57548994D01*
X48232232Y-59348994D02*
X48332232Y-59348994D01*
X48232232Y-57548994D02*
X48232232Y-59348994D01*
X49832232Y-58748994D02*
X49832232Y-58848994D01*
X50132232Y-58748994D02*
X49832232Y-58748994D01*
X50732232Y-57448994D02*
X51032232Y-57448994D01*
X50732232Y-58748994D02*
X50732232Y-57448994D01*
X50132232Y-58748994D02*
G75*
G03*
X50732232Y-58748994I300000J0D01*
G01*
X51032232Y-58848994D02*
X51032232Y-57448994D01*
X49832232Y-58848994D02*
G75*
G03*
X51032232Y-58848994I600000J0D01*
G01*
X48132232Y-59448994D02*
X48432232Y-59448994D01*
X48132232Y-57448994D02*
X48132232Y-59448994D01*
X48432232Y-57448994D02*
X48132232Y-57448994D01*
X48432232Y-58748995D02*
X48432232Y-59448994D01*
X48432232Y-57448994D02*
X48432232Y-58148993D01*
X49432232Y-57448994D02*
X49132231Y-57448994D01*
X49132231Y-59448994D02*
X49432232Y-59448994D01*
X49132230Y-59448994D02*
G75*
G03*
X48432232Y-58748996I-799998J-100000D01*
G01*
X48432232Y-58148992D02*
G75*
G03*
X49132230Y-57448994I-100000J799998D01*
G01*
X48432232Y-58448994D02*
G75*
G03*
X49432232Y-57448994I0J1000000D01*
G01*
X49432232Y-59448994D02*
G75*
G03*
X48432232Y-58448994I-1000000J0D01*
G01*
%TO.C,U2*%
X76210156Y-62515396D02*
X77023390Y-62515396D01*
X77023390Y-62515396D02*
X77119064Y-62467559D01*
X77119064Y-62467559D02*
X77166902Y-62419722D01*
X77166902Y-62419722D02*
X77214739Y-62324047D01*
X77214739Y-62324047D02*
X77214739Y-62132698D01*
X77214739Y-62132698D02*
X77166902Y-62037023D01*
X77166902Y-62037023D02*
X77119064Y-61989186D01*
X77119064Y-61989186D02*
X77023390Y-61941349D01*
X77023390Y-61941349D02*
X76210156Y-61941349D01*
X76305830Y-61510813D02*
X76257993Y-61462976D01*
X76257993Y-61462976D02*
X76210156Y-61367302D01*
X76210156Y-61367302D02*
X76210156Y-61128115D01*
X76210156Y-61128115D02*
X76257993Y-61032441D01*
X76257993Y-61032441D02*
X76305830Y-60984603D01*
X76305830Y-60984603D02*
X76401505Y-60936766D01*
X76401505Y-60936766D02*
X76497180Y-60936766D01*
X76497180Y-60936766D02*
X76640691Y-60984603D01*
X76640691Y-60984603D02*
X77214739Y-61558651D01*
X77214739Y-61558651D02*
X77214739Y-60936766D01*
%TO.C,Vin*%
X71226191Y-110962619D02*
X71559524Y-111962619D01*
X71559524Y-111962619D02*
X71892857Y-110962619D01*
X72226191Y-111962619D02*
X72226191Y-111295952D01*
X72226191Y-110962619D02*
X72178572Y-111010238D01*
X72178572Y-111010238D02*
X72226191Y-111057857D01*
X72226191Y-111057857D02*
X72273810Y-111010238D01*
X72273810Y-111010238D02*
X72226191Y-110962619D01*
X72226191Y-110962619D02*
X72226191Y-111057857D01*
X72702381Y-111295952D02*
X72702381Y-111962619D01*
X72702381Y-111391190D02*
X72750000Y-111343571D01*
X72750000Y-111343571D02*
X72845238Y-111295952D01*
X72845238Y-111295952D02*
X72988095Y-111295952D01*
X72988095Y-111295952D02*
X73083333Y-111343571D01*
X73083333Y-111343571D02*
X73130952Y-111438809D01*
X73130952Y-111438809D02*
X73130952Y-111962619D01*
%TO.C,OUT*%
X65250000Y-103462619D02*
X65440476Y-103462619D01*
X65440476Y-103462619D02*
X65535714Y-103510238D01*
X65535714Y-103510238D02*
X65630952Y-103605476D01*
X65630952Y-103605476D02*
X65678571Y-103795952D01*
X65678571Y-103795952D02*
X65678571Y-104129285D01*
X65678571Y-104129285D02*
X65630952Y-104319761D01*
X65630952Y-104319761D02*
X65535714Y-104415000D01*
X65535714Y-104415000D02*
X65440476Y-104462619D01*
X65440476Y-104462619D02*
X65250000Y-104462619D01*
X65250000Y-104462619D02*
X65154762Y-104415000D01*
X65154762Y-104415000D02*
X65059524Y-104319761D01*
X65059524Y-104319761D02*
X65011905Y-104129285D01*
X65011905Y-104129285D02*
X65011905Y-103795952D01*
X65011905Y-103795952D02*
X65059524Y-103605476D01*
X65059524Y-103605476D02*
X65154762Y-103510238D01*
X65154762Y-103510238D02*
X65250000Y-103462619D01*
X66107143Y-103462619D02*
X66107143Y-104272142D01*
X66107143Y-104272142D02*
X66154762Y-104367380D01*
X66154762Y-104367380D02*
X66202381Y-104415000D01*
X66202381Y-104415000D02*
X66297619Y-104462619D01*
X66297619Y-104462619D02*
X66488095Y-104462619D01*
X66488095Y-104462619D02*
X66583333Y-104415000D01*
X66583333Y-104415000D02*
X66630952Y-104367380D01*
X66630952Y-104367380D02*
X66678571Y-104272142D01*
X66678571Y-104272142D02*
X66678571Y-103462619D01*
X67011905Y-103462619D02*
X67583333Y-103462619D01*
X67297619Y-104462619D02*
X67297619Y-103462619D01*
%TO.C,U3*%
X75900156Y-77485396D02*
X76713390Y-77485396D01*
X76713390Y-77485396D02*
X76809064Y-77437559D01*
X76809064Y-77437559D02*
X76856902Y-77389722D01*
X76856902Y-77389722D02*
X76904739Y-77294047D01*
X76904739Y-77294047D02*
X76904739Y-77102698D01*
X76904739Y-77102698D02*
X76856902Y-77007023D01*
X76856902Y-77007023D02*
X76809064Y-76959186D01*
X76809064Y-76959186D02*
X76713390Y-76911349D01*
X76713390Y-76911349D02*
X75900156Y-76911349D01*
X75900156Y-76528651D02*
X75900156Y-75906766D01*
X75900156Y-75906766D02*
X76282854Y-76241627D01*
X76282854Y-76241627D02*
X76282854Y-76098115D01*
X76282854Y-76098115D02*
X76330691Y-76002441D01*
X76330691Y-76002441D02*
X76378529Y-75954603D01*
X76378529Y-75954603D02*
X76474203Y-75906766D01*
X76474203Y-75906766D02*
X76713390Y-75906766D01*
X76713390Y-75906766D02*
X76809064Y-75954603D01*
X76809064Y-75954603D02*
X76856902Y-76002441D01*
X76856902Y-76002441D02*
X76904739Y-76098115D01*
X76904739Y-76098115D02*
X76904739Y-76385139D01*
X76904739Y-76385139D02*
X76856902Y-76480813D01*
X76856902Y-76480813D02*
X76809064Y-76528651D01*
%TO.C,GND*%
X76988095Y-111010238D02*
X76892857Y-110962619D01*
X76892857Y-110962619D02*
X76750000Y-110962619D01*
X76750000Y-110962619D02*
X76607143Y-111010238D01*
X76607143Y-111010238D02*
X76511905Y-111105476D01*
X76511905Y-111105476D02*
X76464286Y-111200714D01*
X76464286Y-111200714D02*
X76416667Y-111391190D01*
X76416667Y-111391190D02*
X76416667Y-111534047D01*
X76416667Y-111534047D02*
X76464286Y-111724523D01*
X76464286Y-111724523D02*
X76511905Y-111819761D01*
X76511905Y-111819761D02*
X76607143Y-111915000D01*
X76607143Y-111915000D02*
X76750000Y-111962619D01*
X76750000Y-111962619D02*
X76845238Y-111962619D01*
X76845238Y-111962619D02*
X76988095Y-111915000D01*
X76988095Y-111915000D02*
X77035714Y-111867380D01*
X77035714Y-111867380D02*
X77035714Y-111534047D01*
X77035714Y-111534047D02*
X76845238Y-111534047D01*
X77464286Y-111962619D02*
X77464286Y-110962619D01*
X77464286Y-110962619D02*
X78035714Y-111962619D01*
X78035714Y-111962619D02*
X78035714Y-110962619D01*
X78511905Y-111962619D02*
X78511905Y-110962619D01*
X78511905Y-110962619D02*
X78750000Y-110962619D01*
X78750000Y-110962619D02*
X78892857Y-111010238D01*
X78892857Y-111010238D02*
X78988095Y-111105476D01*
X78988095Y-111105476D02*
X79035714Y-111200714D01*
X79035714Y-111200714D02*
X79083333Y-111391190D01*
X79083333Y-111391190D02*
X79083333Y-111534047D01*
X79083333Y-111534047D02*
X79035714Y-111724523D01*
X79035714Y-111724523D02*
X78988095Y-111819761D01*
X78988095Y-111819761D02*
X78892857Y-111915000D01*
X78892857Y-111915000D02*
X78750000Y-111962619D01*
X78750000Y-111962619D02*
X78511905Y-111962619D01*
%TO.C,RV3*%
X91462619Y-67095238D02*
X90986428Y-67428571D01*
X91462619Y-67666666D02*
X90462619Y-67666666D01*
X90462619Y-67666666D02*
X90462619Y-67285714D01*
X90462619Y-67285714D02*
X90510238Y-67190476D01*
X90510238Y-67190476D02*
X90557857Y-67142857D01*
X90557857Y-67142857D02*
X90653095Y-67095238D01*
X90653095Y-67095238D02*
X90795952Y-67095238D01*
X90795952Y-67095238D02*
X90891190Y-67142857D01*
X90891190Y-67142857D02*
X90938809Y-67190476D01*
X90938809Y-67190476D02*
X90986428Y-67285714D01*
X90986428Y-67285714D02*
X90986428Y-67666666D01*
X90462619Y-66809523D02*
X91462619Y-66476190D01*
X91462619Y-66476190D02*
X90462619Y-66142857D01*
X90462619Y-65904761D02*
X90462619Y-65285714D01*
X90462619Y-65285714D02*
X90843571Y-65619047D01*
X90843571Y-65619047D02*
X90843571Y-65476190D01*
X90843571Y-65476190D02*
X90891190Y-65380952D01*
X90891190Y-65380952D02*
X90938809Y-65333333D01*
X90938809Y-65333333D02*
X91034047Y-65285714D01*
X91034047Y-65285714D02*
X91272142Y-65285714D01*
X91272142Y-65285714D02*
X91367380Y-65333333D01*
X91367380Y-65333333D02*
X91415000Y-65380952D01*
X91415000Y-65380952D02*
X91462619Y-65476190D01*
X91462619Y-65476190D02*
X91462619Y-65761904D01*
X91462619Y-65761904D02*
X91415000Y-65857142D01*
X91415000Y-65857142D02*
X91367380Y-65904761D01*
%TO.C,RV4*%
X66762619Y-97795238D02*
X66286428Y-98128571D01*
X66762619Y-98366666D02*
X65762619Y-98366666D01*
X65762619Y-98366666D02*
X65762619Y-97985714D01*
X65762619Y-97985714D02*
X65810238Y-97890476D01*
X65810238Y-97890476D02*
X65857857Y-97842857D01*
X65857857Y-97842857D02*
X65953095Y-97795238D01*
X65953095Y-97795238D02*
X66095952Y-97795238D01*
X66095952Y-97795238D02*
X66191190Y-97842857D01*
X66191190Y-97842857D02*
X66238809Y-97890476D01*
X66238809Y-97890476D02*
X66286428Y-97985714D01*
X66286428Y-97985714D02*
X66286428Y-98366666D01*
X65762619Y-97509523D02*
X66762619Y-97176190D01*
X66762619Y-97176190D02*
X65762619Y-96842857D01*
X66095952Y-96080952D02*
X66762619Y-96080952D01*
X65715000Y-96319047D02*
X66429285Y-96557142D01*
X66429285Y-96557142D02*
X66429285Y-95938095D01*
%TO.C,U1*%
X52264603Y-82710156D02*
X52264603Y-83523390D01*
X52264603Y-83523390D02*
X52312440Y-83619064D01*
X52312440Y-83619064D02*
X52360278Y-83666902D01*
X52360278Y-83666902D02*
X52455952Y-83714739D01*
X52455952Y-83714739D02*
X52647301Y-83714739D01*
X52647301Y-83714739D02*
X52742976Y-83666902D01*
X52742976Y-83666902D02*
X52790813Y-83619064D01*
X52790813Y-83619064D02*
X52838650Y-83523390D01*
X52838650Y-83523390D02*
X52838650Y-82710156D01*
X53843233Y-83714739D02*
X53269186Y-83714739D01*
X53556209Y-83714739D02*
X53556209Y-82710156D01*
X53556209Y-82710156D02*
X53460535Y-82853668D01*
X53460535Y-82853668D02*
X53364860Y-82949342D01*
X53364860Y-82949342D02*
X53269186Y-82997180D01*
%TO.C,RV1*%
X98762619Y-97795238D02*
X98286428Y-98128571D01*
X98762619Y-98366666D02*
X97762619Y-98366666D01*
X97762619Y-98366666D02*
X97762619Y-97985714D01*
X97762619Y-97985714D02*
X97810238Y-97890476D01*
X97810238Y-97890476D02*
X97857857Y-97842857D01*
X97857857Y-97842857D02*
X97953095Y-97795238D01*
X97953095Y-97795238D02*
X98095952Y-97795238D01*
X98095952Y-97795238D02*
X98191190Y-97842857D01*
X98191190Y-97842857D02*
X98238809Y-97890476D01*
X98238809Y-97890476D02*
X98286428Y-97985714D01*
X98286428Y-97985714D02*
X98286428Y-98366666D01*
X97762619Y-97509523D02*
X98762619Y-97176190D01*
X98762619Y-97176190D02*
X97762619Y-96842857D01*
X98762619Y-95985714D02*
X98762619Y-96557142D01*
X98762619Y-96271428D02*
X97762619Y-96271428D01*
X97762619Y-96271428D02*
X97905476Y-96366666D01*
X97905476Y-96366666D02*
X98000714Y-96461904D01*
X98000714Y-96461904D02*
X98048333Y-96557142D01*
%TO.C,IN*%
X74476191Y-111212619D02*
X74476191Y-110212619D01*
X74952381Y-111212619D02*
X74952381Y-110212619D01*
X74952381Y-110212619D02*
X75523809Y-111212619D01*
X75523809Y-111212619D02*
X75523809Y-110212619D01*
%TO.C,RV2*%
X66762619Y-67045238D02*
X66286428Y-67378571D01*
X66762619Y-67616666D02*
X65762619Y-67616666D01*
X65762619Y-67616666D02*
X65762619Y-67235714D01*
X65762619Y-67235714D02*
X65810238Y-67140476D01*
X65810238Y-67140476D02*
X65857857Y-67092857D01*
X65857857Y-67092857D02*
X65953095Y-67045238D01*
X65953095Y-67045238D02*
X66095952Y-67045238D01*
X66095952Y-67045238D02*
X66191190Y-67092857D01*
X66191190Y-67092857D02*
X66238809Y-67140476D01*
X66238809Y-67140476D02*
X66286428Y-67235714D01*
X66286428Y-67235714D02*
X66286428Y-67616666D01*
X65762619Y-66759523D02*
X66762619Y-66426190D01*
X66762619Y-66426190D02*
X65762619Y-66092857D01*
X65857857Y-65807142D02*
X65810238Y-65759523D01*
X65810238Y-65759523D02*
X65762619Y-65664285D01*
X65762619Y-65664285D02*
X65762619Y-65426190D01*
X65762619Y-65426190D02*
X65810238Y-65330952D01*
X65810238Y-65330952D02*
X65857857Y-65283333D01*
X65857857Y-65283333D02*
X65953095Y-65235714D01*
X65953095Y-65235714D02*
X66048333Y-65235714D01*
X66048333Y-65235714D02*
X66191190Y-65283333D01*
X66191190Y-65283333D02*
X66762619Y-65854761D01*
X66762619Y-65854761D02*
X66762619Y-65235714D01*
D12*
%TO.C,U2*%
X71450000Y-65050000D02*
X71950000Y-65050000D01*
X71450000Y-65050000D02*
X71450000Y-58450000D01*
X81550000Y-65050000D02*
X82050000Y-65050000D01*
X71450000Y-58450000D02*
X71950000Y-58450000D01*
X81550000Y-58450000D02*
X82050000Y-58450000D01*
X82050000Y-58450000D02*
X82050000Y-65050000D01*
D10*
X73070000Y-67100000D02*
G75*
G03*
X73070000Y-67100000I-100000J0D01*
G01*
D12*
%TO.C,U3*%
X71200000Y-80050000D02*
X71700000Y-80050000D01*
X71200000Y-80050000D02*
X71200000Y-73450000D01*
X81300000Y-80050000D02*
X81800000Y-80050000D01*
X71200000Y-73450000D02*
X71700000Y-73450000D01*
X81300000Y-73450000D02*
X81800000Y-73450000D01*
X81800000Y-73450000D02*
X81800000Y-80050000D01*
D10*
X72820000Y-82100000D02*
G75*
G03*
X72820000Y-82100000I-100000J0D01*
G01*
D13*
%TO.C,RV3*%
X95880000Y-60880000D02*
X95880000Y-65600000D01*
X94690000Y-60880000D02*
X95870000Y-60880000D01*
X91790000Y-60880000D02*
X92320000Y-60880000D01*
X89340000Y-60880000D02*
X90170000Y-60880000D01*
X86130000Y-60880000D02*
X87620000Y-60880000D01*
X86130000Y-60880000D02*
X86130000Y-65600000D01*
X95870000Y-69410000D02*
X95870000Y-72470000D01*
X86130000Y-69410000D02*
X86130000Y-72470000D01*
X86130000Y-72470000D02*
X95870000Y-72470000D01*
%TO.C,RV4*%
X63880000Y-91630000D02*
X63880000Y-96350000D01*
X62690000Y-91630000D02*
X63870000Y-91630000D01*
X59790000Y-91630000D02*
X60320000Y-91630000D01*
X57340000Y-91630000D02*
X58170000Y-91630000D01*
X54130000Y-91630000D02*
X55620000Y-91630000D01*
X54130000Y-91630000D02*
X54130000Y-96350000D01*
X63870000Y-100160000D02*
X63870000Y-103220000D01*
X54130000Y-100160000D02*
X54130000Y-103220000D01*
X54130000Y-103220000D02*
X63870000Y-103220000D01*
D12*
%TO.C,U1*%
X56300000Y-88740000D02*
X56300000Y-88240000D01*
X56300000Y-88740000D02*
X49700000Y-88740000D01*
X56300000Y-78640000D02*
X56300000Y-78140000D01*
X49700000Y-88740000D02*
X49700000Y-88240000D01*
X49700000Y-78640000D02*
X49700000Y-78140000D01*
X49700000Y-78140000D02*
X56300000Y-78140000D01*
D10*
X58450000Y-87220000D02*
G75*
G03*
X58450000Y-87220000I-100000J0D01*
G01*
D13*
%TO.C,RV1*%
X95880000Y-91630000D02*
X95880000Y-96350000D01*
X94690000Y-91630000D02*
X95870000Y-91630000D01*
X91790000Y-91630000D02*
X92320000Y-91630000D01*
X89340000Y-91630000D02*
X90170000Y-91630000D01*
X86130000Y-91630000D02*
X87620000Y-91630000D01*
X86130000Y-91630000D02*
X86130000Y-96350000D01*
X95870000Y-100160000D02*
X95870000Y-103220000D01*
X86130000Y-100160000D02*
X86130000Y-103220000D01*
X86130000Y-103220000D02*
X95870000Y-103220000D01*
%TO.C,RV2*%
X63880000Y-60880000D02*
X63880000Y-65600000D01*
X62690000Y-60880000D02*
X63870000Y-60880000D01*
X59790000Y-60880000D02*
X60320000Y-60880000D01*
X57340000Y-60880000D02*
X58170000Y-60880000D01*
X54130000Y-60880000D02*
X55620000Y-60880000D01*
X54130000Y-60880000D02*
X54130000Y-65600000D01*
X63870000Y-69410000D02*
X63870000Y-72470000D01*
X54130000Y-69410000D02*
X54130000Y-72470000D01*
X54130000Y-72470000D02*
X63870000Y-72470000D01*
%TD*%
%LPC*%
D14*
%TO.C,U2*%
X72937500Y-65712500D03*
D15*
X75480000Y-65720000D03*
D16*
X78020000Y-65720000D03*
D17*
X80560000Y-65720000D03*
D18*
X80560000Y-57780000D03*
D19*
X78020000Y-57780000D03*
D20*
X75480000Y-57780000D03*
D21*
X72940000Y-57780000D03*
%TD*%
D22*
%TO.C,Vin*%
X72250000Y-113000000D03*
%TD*%
%TO.C,OUT*%
X66250000Y-106000000D03*
%TD*%
D14*
%TO.C,U3*%
X72687500Y-80712500D03*
D15*
X75230000Y-80720000D03*
D16*
X77770000Y-80720000D03*
D17*
X80310000Y-80720000D03*
D18*
X80310000Y-72780000D03*
D19*
X77770000Y-72780000D03*
D20*
X75230000Y-72780000D03*
D21*
X72690000Y-72780000D03*
%TD*%
D22*
%TO.C,GND*%
X77750000Y-113000000D03*
%TD*%
D23*
%TO.C,RV3*%
X95800000Y-67500000D03*
X86200000Y-67500000D03*
D24*
X93500000Y-60000000D03*
D25*
X91000000Y-60000000D03*
X88500000Y-60000000D03*
%TD*%
D23*
%TO.C,RV4*%
X63800000Y-98250000D03*
X54200000Y-98250000D03*
D24*
X61500000Y-90750000D03*
D25*
X59000000Y-90750000D03*
X56500000Y-90750000D03*
%TD*%
D14*
%TO.C,U1*%
X56962500Y-87252500D03*
D15*
X56970000Y-84710000D03*
D16*
X56970000Y-82170000D03*
D17*
X56970000Y-79630000D03*
D18*
X49030000Y-79630000D03*
D19*
X49030000Y-82170000D03*
D20*
X49030000Y-84710000D03*
D21*
X49030000Y-87250000D03*
%TD*%
D23*
%TO.C,RV1*%
X95800000Y-98250000D03*
X86200000Y-98250000D03*
D24*
X93500000Y-90750000D03*
D25*
X91000000Y-90750000D03*
X88500000Y-90750000D03*
%TD*%
D22*
%TO.C,IN*%
X75000000Y-112250000D03*
%TD*%
D23*
%TO.C,RV2*%
X63800000Y-67500000D03*
X54200000Y-67500000D03*
D24*
X61500000Y-60000000D03*
D25*
X59000000Y-60000000D03*
X56500000Y-60000000D03*
%TD*%
D26*
%TO.C,R25*%
X72460000Y-75500000D03*
D27*
X77540000Y-75500000D03*
%TD*%
D26*
%TO.C,R23*%
X63250000Y-102250000D03*
D27*
X63250000Y-109870000D03*
%TD*%
D26*
%TO.C,R2*%
X48000000Y-101460000D03*
D27*
X48000000Y-106540000D03*
%TD*%
D24*
%TO.C,D6*%
X77250000Y-78000000D03*
D28*
X77250000Y-85620000D03*
%TD*%
D26*
%TO.C,R10*%
X82250000Y-101500000D03*
D27*
X87330000Y-101500000D03*
%TD*%
D26*
%TO.C,R22*%
X83460000Y-77750000D03*
D27*
X88540000Y-77750000D03*
%TD*%
D29*
%TO.C,C8*%
X68500000Y-97000000D03*
X68500000Y-92000000D03*
%TD*%
%TO.C,C11*%
X100250000Y-83750000D03*
X100250000Y-78750000D03*
%TD*%
D26*
%TO.C,R15*%
X78210000Y-90250000D03*
D27*
X83290000Y-90250000D03*
%TD*%
D29*
%TO.C,C24*%
X69250000Y-62500000D03*
X69250000Y-57500000D03*
%TD*%
D26*
%TO.C,R5*%
X97120000Y-101000000D03*
D27*
X89500000Y-101000000D03*
%TD*%
D24*
%TO.C,D4*%
X88750000Y-80190000D03*
D28*
X88750000Y-87810000D03*
%TD*%
D29*
%TO.C,C20*%
X74250000Y-61500000D03*
X79250000Y-61500000D03*
%TD*%
D26*
%TO.C,R12*%
X100500000Y-107210000D03*
D27*
X100500000Y-112290000D03*
%TD*%
D30*
%TO.C,Q1*%
X74460000Y-100500000D03*
D31*
X77000000Y-100500000D03*
X79540000Y-100500000D03*
%TD*%
D29*
%TO.C,C16*%
X64750000Y-80500000D03*
X64750000Y-75500000D03*
%TD*%
D26*
%TO.C,R14*%
X72000000Y-97040000D03*
D27*
X72000000Y-91960000D03*
%TD*%
D29*
%TO.C,C19*%
X91000000Y-57250000D03*
X96000000Y-57250000D03*
%TD*%
D32*
%TO.C,C9*%
X91750000Y-97000000D03*
D29*
X89750000Y-97000000D03*
%TD*%
%TO.C,C18*%
X98500000Y-69750000D03*
X98500000Y-64750000D03*
%TD*%
D26*
%TO.C,R6*%
X74960000Y-106750000D03*
D27*
X80040000Y-106750000D03*
%TD*%
D26*
%TO.C,R11*%
X102750000Y-113810000D03*
D27*
X102750000Y-106190000D03*
%TD*%
D26*
%TO.C,R28*%
X95040000Y-62500000D03*
D27*
X89960000Y-62500000D03*
%TD*%
D32*
%TO.C,C22*%
X69205113Y-70500000D03*
D29*
X67205113Y-70500000D03*
%TD*%
D32*
%TO.C,C2*%
X49000000Y-109294888D03*
D29*
X49000000Y-111794888D03*
%TD*%
D26*
%TO.C,R21*%
X102750000Y-83790000D03*
D27*
X102750000Y-78710000D03*
%TD*%
D26*
%TO.C,R30*%
X88790000Y-57500000D03*
D27*
X83710000Y-57500000D03*
%TD*%
D24*
%TO.C,D5*%
X80750000Y-85310000D03*
D28*
X80750000Y-77690000D03*
%TD*%
D29*
%TO.C,C25*%
X50750000Y-95750000D03*
X50750000Y-90750000D03*
%TD*%
%TO.C,C4*%
X87250000Y-105000000D03*
X87250000Y-110000000D03*
%TD*%
D26*
%TO.C,R29*%
X61540000Y-65250000D03*
D27*
X56460000Y-65250000D03*
%TD*%
D26*
%TO.C,R32*%
X65000000Y-85250000D03*
D27*
X65000000Y-90330000D03*
%TD*%
D26*
%TO.C,R7*%
X74960000Y-104500000D03*
D27*
X80040000Y-104500000D03*
%TD*%
D29*
%TO.C,C6*%
X77750000Y-95750000D03*
X82750000Y-95750000D03*
%TD*%
%TO.C,C17*%
X99250000Y-62250000D03*
X99250000Y-57250000D03*
%TD*%
%TO.C,C5*%
X90500000Y-103500000D03*
X95500000Y-103500000D03*
%TD*%
D26*
%TO.C,R17*%
X74750000Y-92250000D03*
D27*
X74750000Y-97330000D03*
%TD*%
D30*
%TO.C,Q3*%
X73500000Y-84710000D03*
D31*
X73500000Y-87250000D03*
X73500000Y-89790000D03*
%TD*%
D26*
%TO.C,R31*%
X79560000Y-70500000D03*
D27*
X71940000Y-70500000D03*
%TD*%
D29*
%TO.C,C21*%
X82250000Y-72000000D03*
X82250000Y-67000000D03*
%TD*%
D26*
%TO.C,R27*%
X61540000Y-62750000D03*
D27*
X56460000Y-62750000D03*
%TD*%
D24*
%TO.C,D3*%
X92500000Y-87810000D03*
D28*
X92500000Y-80190000D03*
%TD*%
D26*
%TO.C,R24*%
X47250000Y-74190000D03*
D27*
X47250000Y-81810000D03*
%TD*%
D24*
%TO.C,D2*%
X96250000Y-87810000D03*
D28*
X96250000Y-80190000D03*
%TD*%
D26*
%TO.C,R19*%
X71500000Y-100960000D03*
D27*
X71500000Y-106040000D03*
%TD*%
D26*
%TO.C,R20*%
X69000000Y-107310000D03*
D27*
X69000000Y-99690000D03*
%TD*%
D29*
%TO.C,C13*%
X88500000Y-74750000D03*
X83500000Y-74750000D03*
%TD*%
D26*
%TO.C,R8*%
X90500000Y-113370000D03*
D27*
X90500000Y-105750000D03*
%TD*%
D26*
%TO.C,R26*%
X64290000Y-82750000D03*
D27*
X59210000Y-82750000D03*
%TD*%
D26*
%TO.C,R3*%
X79960000Y-113000000D03*
D27*
X85040000Y-113000000D03*
%TD*%
D26*
%TO.C,R13*%
X84500000Y-92500000D03*
D27*
X76880000Y-92500000D03*
%TD*%
D33*
%TO.C,C12*%
X96250000Y-76000000D03*
X91250000Y-76000000D03*
%TD*%
D29*
%TO.C,C23*%
X68750000Y-79500000D03*
X68750000Y-74500000D03*
%TD*%
D32*
%TO.C,C7*%
X99750000Y-102000000D03*
D29*
X102250000Y-102000000D03*
%TD*%
D34*
%TO.C,C15*%
X59277401Y-79000000D03*
D35*
X60777401Y-79000000D03*
%TD*%
D26*
%TO.C,R9*%
X93000000Y-107210000D03*
D27*
X93000000Y-112290000D03*
%TD*%
D30*
%TO.C,Q2*%
X96500000Y-112250000D03*
D31*
X96500000Y-109710000D03*
X96500000Y-107170000D03*
%TD*%
D36*
%TO.C,D1*%
X53420000Y-112500000D03*
D37*
X63580000Y-112500000D03*
%TD*%
D29*
%TO.C,C10*%
X100750000Y-91250000D03*
X100750000Y-86250000D03*
%TD*%
D26*
%TO.C,R4*%
X74960000Y-109250000D03*
D27*
X80040000Y-109250000D03*
%TD*%
D26*
%TO.C,R1*%
X50500000Y-101460000D03*
D27*
X50500000Y-106540000D03*
%TD*%
D32*
%TO.C,C1*%
X55500000Y-108432379D03*
D29*
X55500000Y-105932379D03*
%TD*%
D26*
%TO.C,R16*%
X76940000Y-88000000D03*
D27*
X84560000Y-88000000D03*
%TD*%
D29*
%TO.C,C3*%
X83000000Y-110000000D03*
X83000000Y-105000000D03*
%TD*%
D33*
%TO.C,C14*%
X59000000Y-95500000D03*
X59000000Y-100500000D03*
%TD*%
D26*
%TO.C,R18*%
X96210000Y-94500000D03*
D27*
X101290000Y-94500000D03*
%TD*%
M02*
