%TF.GenerationSoftware,KiCad,Pcbnew,7.0.1*%
%TF.CreationDate,2023-06-03T22:26:13+02:00*%
%TF.ProjectId,SwedishChainsaw,53776564-6973-4684-9368-61696e736177,rev?*%
%TF.SameCoordinates,Original*%
%TF.FileFunction,Legend,Top*%
%TF.FilePolarity,Positive*%
%FSLAX46Y46*%
G04 Gerber Fmt 4.6, Leading zero omitted, Abs format (unit mm)*
G04 Created by KiCad (PCBNEW 7.0.1) date 2023-06-03 22:26:13*
%MOMM*%
%LPD*%
G01*
G04 APERTURE LIST*
G04 Aperture macros list*
%AMRoundRect*
0 Rectangle with rounded corners*
0 $1 Rounding radius*
0 $2 $3 $4 $5 $6 $7 $8 $9 X,Y pos of 4 corners*
0 Add a 4 corners polygon primitive as box body*
4,1,4,$2,$3,$4,$5,$6,$7,$8,$9,$2,$3,0*
0 Add four circle primitives for the rounded corners*
1,1,$1+$1,$2,$3*
1,1,$1+$1,$4,$5*
1,1,$1+$1,$6,$7*
1,1,$1+$1,$8,$9*
0 Add four rect primitives between the rounded corners*
20,1,$1+$1,$2,$3,$4,$5,0*
20,1,$1+$1,$4,$5,$6,$7,0*
20,1,$1+$1,$6,$7,$8,$9,0*
20,1,$1+$1,$8,$9,$2,$3,0*%
G04 Aperture macros list end*
%ADD10C,0.200000*%
%ADD11C,0.150000*%
%ADD12C,0.127000*%
%ADD13C,0.120000*%
%ADD14R,1.325000X1.325000*%
%ADD15C,1.390000*%
%ADD16C,1.390034*%
%ADD17C,1.340148*%
%ADD18C,1.360000*%
%ADD19C,1.360036*%
%ADD20C,1.360588*%
%ADD21C,1.310152*%
%ADD22RoundRect,0.250000X-0.550000X-0.550000X0.550000X-0.550000X0.550000X0.550000X-0.550000X0.550000X0*%
%ADD23C,3.240000*%
%ADD24R,1.800000X1.800000*%
%ADD25C,1.800000*%
%ADD26C,1.400000*%
%ADD27O,1.400000X1.400000*%
%ADD28O,1.800000X1.800000*%
%ADD29C,1.600000*%
%ADD30R,1.500000X1.500000*%
%ADD31C,1.500000*%
%ADD32R,1.600000X1.600000*%
%ADD33C,2.000000*%
%ADD34R,1.200000X1.200000*%
%ADD35C,1.200000*%
%ADD36R,2.200000X2.200000*%
%ADD37O,2.200000X2.200000*%
G04 APERTURE END LIST*
D10*
G36*
X49951158Y-74357292D02*
G01*
X49965904Y-74359788D01*
X49979729Y-74364935D01*
X49993059Y-74371370D01*
X50008036Y-74379755D01*
X50021202Y-74387866D01*
X50035422Y-74397226D01*
X50050872Y-74408642D01*
X50066265Y-74420541D01*
X50081601Y-74432925D01*
X50096879Y-74445792D01*
X50112101Y-74459143D01*
X50127265Y-74472977D01*
X50142371Y-74487295D01*
X50157421Y-74502097D01*
X50172413Y-74517383D01*
X50187348Y-74533152D01*
X50202226Y-74549406D01*
X50217047Y-74566142D01*
X50231810Y-74583363D01*
X50246516Y-74601067D01*
X50261165Y-74619255D01*
X50275757Y-74637927D01*
X50289820Y-74656964D01*
X50302976Y-74676246D01*
X50315225Y-74695775D01*
X50326567Y-74715550D01*
X50337001Y-74735572D01*
X50346528Y-74755839D01*
X50355148Y-74776353D01*
X50362860Y-74797112D01*
X50369665Y-74818118D01*
X50375562Y-74839370D01*
X50380553Y-74860868D01*
X50384636Y-74882612D01*
X50387811Y-74904603D01*
X50390079Y-74926839D01*
X50391440Y-74949322D01*
X50391894Y-74972051D01*
X50391458Y-74995958D01*
X50390148Y-75019318D01*
X50387966Y-75042131D01*
X50384910Y-75064398D01*
X50380982Y-75086118D01*
X50376181Y-75107291D01*
X50370506Y-75127918D01*
X50363959Y-75147998D01*
X50356539Y-75167531D01*
X50348245Y-75186517D01*
X50339079Y-75204957D01*
X50329040Y-75222850D01*
X50318128Y-75240197D01*
X50306342Y-75256997D01*
X50293684Y-75273250D01*
X50280153Y-75288956D01*
X50265769Y-75303907D01*
X50250552Y-75317893D01*
X50234502Y-75330915D01*
X50217619Y-75342972D01*
X50199904Y-75354065D01*
X50181355Y-75364193D01*
X50161973Y-75373356D01*
X50141759Y-75381555D01*
X50120712Y-75388789D01*
X50098831Y-75395059D01*
X50076118Y-75400364D01*
X50052572Y-75404704D01*
X50028193Y-75408080D01*
X50002981Y-75410492D01*
X49976937Y-75411939D01*
X49950059Y-75412421D01*
X49931592Y-75412222D01*
X49912827Y-75411625D01*
X49893765Y-75410631D01*
X49874405Y-75409238D01*
X49854747Y-75407448D01*
X49834791Y-75405260D01*
X49814538Y-75402674D01*
X49793988Y-75399690D01*
X49773139Y-75396308D01*
X49751993Y-75392529D01*
X49730549Y-75388351D01*
X49708808Y-75383776D01*
X49686769Y-75378803D01*
X49664432Y-75373432D01*
X49641798Y-75367663D01*
X49618866Y-75361496D01*
X49595973Y-75355022D01*
X49573459Y-75348422D01*
X49551323Y-75341696D01*
X49529564Y-75334843D01*
X49508183Y-75327865D01*
X49487180Y-75320761D01*
X49466555Y-75313531D01*
X49446308Y-75306175D01*
X49426438Y-75298694D01*
X49406947Y-75291086D01*
X49387833Y-75283352D01*
X49369097Y-75275492D01*
X49350738Y-75267507D01*
X49332758Y-75259395D01*
X49315155Y-75251158D01*
X49297930Y-75242794D01*
X49280754Y-75233866D01*
X49263939Y-75224757D01*
X49247484Y-75215467D01*
X49231390Y-75205998D01*
X49215656Y-75196348D01*
X49200283Y-75186517D01*
X49185271Y-75176507D01*
X49170619Y-75166316D01*
X49156328Y-75155945D01*
X49142397Y-75145393D01*
X49128828Y-75134661D01*
X49115618Y-75123749D01*
X49102770Y-75112656D01*
X49090282Y-75101383D01*
X49078155Y-75089930D01*
X49066388Y-75078297D01*
X49055120Y-75066514D01*
X49044578Y-75054706D01*
X49034764Y-75042873D01*
X49025676Y-75031013D01*
X49013408Y-75013175D01*
X49002775Y-74995279D01*
X48993779Y-74977326D01*
X48986418Y-74959314D01*
X48980693Y-74941245D01*
X48976603Y-74923117D01*
X48974150Y-74904932D01*
X48973332Y-74886688D01*
X48973931Y-74869008D01*
X48975727Y-74852101D01*
X48978722Y-74835967D01*
X48982914Y-74820605D01*
X48988305Y-74806017D01*
X48994893Y-74792201D01*
X49002679Y-74779157D01*
X49011663Y-74766887D01*
X49021844Y-74755390D01*
X49033224Y-74744665D01*
X49041475Y-74737944D01*
X49054526Y-74728582D01*
X49068124Y-74720140D01*
X49082270Y-74712619D01*
X49096962Y-74706019D01*
X49112203Y-74700340D01*
X49127990Y-74695582D01*
X49144325Y-74691745D01*
X49161208Y-74688829D01*
X49178638Y-74686833D01*
X49196615Y-74685759D01*
X49208904Y-74685554D01*
X49225270Y-74686238D01*
X49241672Y-74688289D01*
X49258109Y-74691708D01*
X49272225Y-74695726D01*
X49284009Y-74699842D01*
X49297825Y-74705231D01*
X49313097Y-74711940D01*
X49327457Y-74719105D01*
X49340906Y-74726726D01*
X49349954Y-74732449D01*
X49362136Y-74741539D01*
X49372468Y-74752194D01*
X49377798Y-74765788D01*
X49374792Y-74780664D01*
X49363252Y-74791243D01*
X49347023Y-74793998D01*
X49332238Y-74791415D01*
X49317976Y-74787122D01*
X49316615Y-74786671D01*
X49301417Y-74782206D01*
X49286941Y-74779601D01*
X49281810Y-74779344D01*
X49265943Y-74779639D01*
X49250398Y-74780524D01*
X49235174Y-74782000D01*
X49220273Y-74784066D01*
X49205693Y-74786723D01*
X49188623Y-74790690D01*
X49185823Y-74791434D01*
X49170568Y-74796513D01*
X49156541Y-74803415D01*
X49143741Y-74812140D01*
X49132168Y-74822689D01*
X49126106Y-74829535D01*
X49116827Y-74842248D01*
X49109827Y-74855381D01*
X49104617Y-74870906D01*
X49102385Y-74886980D01*
X49102292Y-74891085D01*
X49103407Y-74908936D01*
X49106751Y-74926679D01*
X49112325Y-74944313D01*
X49120129Y-74961839D01*
X49130163Y-74979255D01*
X49142426Y-74996563D01*
X49156919Y-75013762D01*
X49173641Y-75030853D01*
X49192594Y-75047834D01*
X49213775Y-75064707D01*
X49237187Y-75081471D01*
X49249729Y-75089812D01*
X49262828Y-75098126D01*
X49276485Y-75106413D01*
X49290699Y-75114673D01*
X49305471Y-75122905D01*
X49320800Y-75131110D01*
X49336686Y-75139289D01*
X49353130Y-75147439D01*
X49370131Y-75155563D01*
X49387690Y-75163660D01*
X49402413Y-75170054D01*
X49417365Y-75176322D01*
X49432546Y-75182464D01*
X49447957Y-75188481D01*
X49463596Y-75194371D01*
X49479464Y-75200136D01*
X49495561Y-75205774D01*
X49511887Y-75211287D01*
X49528442Y-75216674D01*
X49545226Y-75221934D01*
X49562239Y-75227069D01*
X49579481Y-75232078D01*
X49596952Y-75236961D01*
X49614652Y-75241718D01*
X49632581Y-75246349D01*
X49650739Y-75250854D01*
X49668924Y-75255113D01*
X49687026Y-75259098D01*
X49705046Y-75262807D01*
X49722982Y-75266242D01*
X49740835Y-75269402D01*
X49758605Y-75272287D01*
X49776292Y-75274897D01*
X49793896Y-75277233D01*
X49811417Y-75279293D01*
X49828855Y-75281079D01*
X49846210Y-75282591D01*
X49863482Y-75283827D01*
X49880671Y-75284789D01*
X49897777Y-75285476D01*
X49914801Y-75285888D01*
X49931741Y-75286025D01*
X49948838Y-75285697D01*
X49965645Y-75284712D01*
X49982163Y-75283069D01*
X49998390Y-75280770D01*
X50014328Y-75277814D01*
X50029976Y-75274201D01*
X50045335Y-75269932D01*
X50060403Y-75265005D01*
X50075182Y-75259422D01*
X50089671Y-75253181D01*
X50099169Y-75248656D01*
X50112981Y-75241369D01*
X50126251Y-75233522D01*
X50138981Y-75225115D01*
X50151170Y-75216147D01*
X50162818Y-75206619D01*
X50173925Y-75196531D01*
X50184490Y-75185882D01*
X50194515Y-75174673D01*
X50203999Y-75162904D01*
X50212942Y-75150575D01*
X50218604Y-75142044D01*
X50226526Y-75128852D01*
X50233669Y-75115241D01*
X50240033Y-75101211D01*
X50245617Y-75086763D01*
X50250423Y-75071896D01*
X50254449Y-75056611D01*
X50257696Y-75040907D01*
X50260163Y-75024785D01*
X50261852Y-75008244D01*
X50262761Y-74991284D01*
X50262934Y-74979745D01*
X50262651Y-74961166D01*
X50261800Y-74942799D01*
X50260384Y-74924644D01*
X50258400Y-74906701D01*
X50255850Y-74888969D01*
X50252733Y-74871450D01*
X50249049Y-74854142D01*
X50244799Y-74837046D01*
X50239982Y-74820162D01*
X50234598Y-74803489D01*
X50228647Y-74787029D01*
X50222130Y-74770780D01*
X50215046Y-74754743D01*
X50207395Y-74738918D01*
X50199178Y-74723304D01*
X50190394Y-74707903D01*
X50181162Y-74692571D01*
X50171600Y-74677260D01*
X50161710Y-74661968D01*
X50151490Y-74646697D01*
X50140942Y-74631445D01*
X50130064Y-74616214D01*
X50118857Y-74601003D01*
X50107321Y-74585812D01*
X50095455Y-74570640D01*
X50083261Y-74555489D01*
X50070737Y-74540358D01*
X50057884Y-74525247D01*
X50044702Y-74510156D01*
X50031191Y-74495085D01*
X50017351Y-74480034D01*
X50003182Y-74465003D01*
X49989718Y-74456027D01*
X49975086Y-74447280D01*
X49960656Y-74438857D01*
X49955188Y-74435694D01*
X49942100Y-74427621D01*
X49929323Y-74418381D01*
X49918454Y-74408221D01*
X49910469Y-74394861D01*
X49909759Y-74389898D01*
X49912093Y-74374958D01*
X49920383Y-74364253D01*
X49934178Y-74358821D01*
X49949886Y-74357299D01*
X49951158Y-74357292D01*
G37*
G36*
X49758817Y-73089672D02*
G01*
X49773341Y-73091668D01*
X49788105Y-73099044D01*
X49798890Y-73109691D01*
X49807948Y-73124331D01*
X49814179Y-73139581D01*
X49816336Y-73146458D01*
X49820694Y-73161686D01*
X49824150Y-73177971D01*
X49826704Y-73195312D01*
X49828144Y-73210569D01*
X49828958Y-73226560D01*
X49829159Y-73239881D01*
X49829159Y-73255636D01*
X49829159Y-73271401D01*
X49829159Y-73287091D01*
X49829159Y-73299598D01*
X49847319Y-73300278D01*
X49862775Y-73300976D01*
X49879056Y-73301812D01*
X49896160Y-73302785D01*
X49914089Y-73303896D01*
X49932843Y-73305144D01*
X49952420Y-73306529D01*
X49967644Y-73307658D01*
X49982849Y-73308810D01*
X49997552Y-73309929D01*
X50016374Y-73311372D01*
X50034303Y-73312757D01*
X50051339Y-73314085D01*
X50067481Y-73315356D01*
X50082731Y-73316570D01*
X50100538Y-73318006D01*
X50103932Y-73318283D01*
X50170610Y-73324511D01*
X50237655Y-73324511D01*
X50400321Y-73337334D01*
X50421403Y-73339733D01*
X50440412Y-73343220D01*
X50457347Y-73347796D01*
X50472208Y-73353460D01*
X50488797Y-73362704D01*
X50501700Y-73373884D01*
X50510917Y-73386999D01*
X50516447Y-73402049D01*
X50518290Y-73419033D01*
X50514626Y-73434168D01*
X50505410Y-73446698D01*
X50493045Y-73456908D01*
X50479593Y-73465042D01*
X50463278Y-73472836D01*
X50459672Y-73474354D01*
X50445458Y-73480021D01*
X50428673Y-73486043D01*
X50412979Y-73490883D01*
X50398376Y-73494543D01*
X50382293Y-73497377D01*
X50365516Y-73498534D01*
X50351203Y-73494751D01*
X50336921Y-73487167D01*
X50327780Y-73481315D01*
X50314316Y-73473369D01*
X50299570Y-73467118D01*
X50283542Y-73462562D01*
X50268465Y-73459965D01*
X50266231Y-73459699D01*
X50250174Y-73457473D01*
X50231678Y-73455189D01*
X50216206Y-73453438D01*
X50199363Y-73451655D01*
X50181147Y-73449840D01*
X50161560Y-73447993D01*
X50140601Y-73446114D01*
X50125866Y-73444843D01*
X50110522Y-73443558D01*
X50094568Y-73442258D01*
X50078004Y-73440944D01*
X50069494Y-73440282D01*
X50052499Y-73438951D01*
X50035954Y-73437706D01*
X50019858Y-73436547D01*
X50004212Y-73435474D01*
X49989015Y-73434486D01*
X49974267Y-73433585D01*
X49952989Y-73432393D01*
X49932721Y-73431395D01*
X49913464Y-73430590D01*
X49895219Y-73429978D01*
X49877984Y-73429560D01*
X49861761Y-73429334D01*
X49851507Y-73429291D01*
X49853196Y-73446917D01*
X49855148Y-73465355D01*
X49857363Y-73484606D01*
X49859197Y-73499578D01*
X49861180Y-73515008D01*
X49863310Y-73530894D01*
X49865589Y-73547238D01*
X49868016Y-73564038D01*
X49870591Y-73581297D01*
X49872390Y-73593056D01*
X49874182Y-73608807D01*
X49876054Y-73625130D01*
X49878315Y-73644762D01*
X49880266Y-73661658D01*
X49882437Y-73680414D01*
X49884826Y-73701032D01*
X49886540Y-73715811D01*
X49888352Y-73731417D01*
X49890261Y-73747851D01*
X49892268Y-73765111D01*
X49894371Y-73783199D01*
X49896412Y-73801367D01*
X49898321Y-73818960D01*
X49900099Y-73835977D01*
X49901745Y-73852419D01*
X49903259Y-73868286D01*
X49904641Y-73883577D01*
X49905892Y-73898293D01*
X49907521Y-73919289D01*
X49908854Y-73938990D01*
X49909891Y-73957396D01*
X49910632Y-73974508D01*
X49911076Y-73990326D01*
X49911224Y-74004849D01*
X49927578Y-74005960D01*
X49944489Y-74007093D01*
X49961958Y-74008250D01*
X49979986Y-74009429D01*
X49998572Y-74010631D01*
X50017716Y-74011856D01*
X50037418Y-74013104D01*
X50057678Y-74014375D01*
X50078497Y-74015669D01*
X50099873Y-74016985D01*
X50121808Y-74018325D01*
X50144301Y-74019687D01*
X50167351Y-74021073D01*
X50190960Y-74022481D01*
X50215128Y-74023912D01*
X50239853Y-74025366D01*
X50264203Y-74026786D01*
X50287337Y-74028114D01*
X50309255Y-74029350D01*
X50329956Y-74030495D01*
X50349440Y-74031548D01*
X50367708Y-74032510D01*
X50384760Y-74033380D01*
X50400595Y-74034159D01*
X50422067Y-74035155D01*
X50440802Y-74035945D01*
X50456800Y-74036529D01*
X50473873Y-74036986D01*
X50483485Y-74037090D01*
X50498159Y-74036303D01*
X50513504Y-74034410D01*
X50526350Y-74032327D01*
X50540878Y-74030024D01*
X50556117Y-74028234D01*
X50569581Y-74027564D01*
X50585022Y-74030641D01*
X50598308Y-74038672D01*
X50609631Y-74049995D01*
X50616475Y-74059071D01*
X50624898Y-74072152D01*
X50631990Y-74085771D01*
X50637057Y-74100797D01*
X50638091Y-74109996D01*
X50635541Y-74124496D01*
X50627890Y-74137083D01*
X50615139Y-74147757D01*
X50605851Y-74152861D01*
X50591626Y-74158856D01*
X50576839Y-74163379D01*
X50561492Y-74166430D01*
X50545584Y-74168008D01*
X50536242Y-74168248D01*
X50521587Y-74167854D01*
X50506566Y-74166973D01*
X50491019Y-74165788D01*
X50475906Y-74164466D01*
X50473227Y-74164218D01*
X50457513Y-74162724D01*
X50442521Y-74161539D01*
X50425942Y-74160547D01*
X50410344Y-74159976D01*
X50397756Y-74159822D01*
X50380643Y-74155494D01*
X50364569Y-74151900D01*
X50349531Y-74149040D01*
X50332856Y-74146576D01*
X50317675Y-74145167D01*
X50306165Y-74144801D01*
X50290720Y-74142715D01*
X50275344Y-74140765D01*
X50260037Y-74138949D01*
X50244799Y-74137267D01*
X50229629Y-74135720D01*
X50214528Y-74134308D01*
X50199496Y-74133030D01*
X50184532Y-74131886D01*
X50169637Y-74130877D01*
X50154811Y-74130003D01*
X50140053Y-74129263D01*
X50125364Y-74128658D01*
X50103460Y-74128002D01*
X50081710Y-74127649D01*
X50067295Y-74127581D01*
X50046443Y-74127581D01*
X50027161Y-74127581D01*
X50009451Y-74127581D01*
X49993313Y-74127581D01*
X49974239Y-74127581D01*
X49957959Y-74127581D01*
X49941537Y-74127581D01*
X49925879Y-74127581D01*
X49928363Y-74142507D01*
X49930687Y-74157423D01*
X49932851Y-74172331D01*
X49934855Y-74187230D01*
X49936698Y-74202121D01*
X49938381Y-74217003D01*
X49939904Y-74231877D01*
X49941266Y-74246741D01*
X49942468Y-74261598D01*
X49943510Y-74276446D01*
X49944392Y-74291285D01*
X49945113Y-74306115D01*
X49945674Y-74320937D01*
X49946075Y-74335751D01*
X49946315Y-74350556D01*
X49946395Y-74365352D01*
X49945545Y-74381177D01*
X49942995Y-74396230D01*
X49938744Y-74410509D01*
X49932794Y-74424016D01*
X49925143Y-74436750D01*
X49922215Y-74440823D01*
X49912388Y-74451780D01*
X49899001Y-74461697D01*
X49883547Y-74468529D01*
X49868653Y-74471930D01*
X49852240Y-74473063D01*
X49836211Y-74471987D01*
X49820588Y-74468203D01*
X49806219Y-74460804D01*
X49800216Y-74455844D01*
X49791538Y-74443695D01*
X49786208Y-74428760D01*
X49783386Y-74412498D01*
X49782334Y-74396188D01*
X49782264Y-74390265D01*
X49782264Y-74275959D01*
X49782264Y-74255487D01*
X49782264Y-74235975D01*
X49782264Y-74217423D01*
X49782264Y-74199830D01*
X49782264Y-74183196D01*
X49782264Y-74167522D01*
X49782264Y-74152808D01*
X49782264Y-74134682D01*
X49782264Y-74118261D01*
X49782264Y-74107065D01*
X49761750Y-74107065D01*
X49741701Y-74107065D01*
X49722114Y-74107065D01*
X49702992Y-74107065D01*
X49684333Y-74107065D01*
X49666138Y-74107065D01*
X49648406Y-74107065D01*
X49631139Y-74107065D01*
X49614335Y-74107065D01*
X49597994Y-74107065D01*
X49582117Y-74107065D01*
X49566704Y-74107065D01*
X49551755Y-74107065D01*
X49530200Y-74107065D01*
X49509689Y-74107065D01*
X49494580Y-74107065D01*
X49479568Y-74107065D01*
X49464655Y-74107065D01*
X49449840Y-74107065D01*
X49435123Y-74107065D01*
X49405982Y-74107065D01*
X49377234Y-74107065D01*
X49348878Y-74107065D01*
X49320914Y-74107065D01*
X49293343Y-74107065D01*
X49266163Y-74107065D01*
X49239375Y-74107065D01*
X49212980Y-74107065D01*
X49186977Y-74107065D01*
X49161366Y-74107065D01*
X49136147Y-74107065D01*
X49111320Y-74107065D01*
X49086885Y-74107065D01*
X49074815Y-74107065D01*
X48997512Y-74107065D01*
X48982007Y-74105663D01*
X48967869Y-74101455D01*
X48953386Y-74093212D01*
X48942179Y-74082994D01*
X48937794Y-74077756D01*
X48928801Y-74064565D01*
X48922016Y-74050638D01*
X48917441Y-74035974D01*
X48915074Y-74020575D01*
X48914713Y-74011444D01*
X48917301Y-73996080D01*
X48926397Y-73982353D01*
X48939981Y-73973314D01*
X48956113Y-73967847D01*
X48971805Y-73964360D01*
X48987832Y-73961596D01*
X49004194Y-73959552D01*
X49020890Y-73958230D01*
X49037922Y-73957629D01*
X49043674Y-73957588D01*
X49061139Y-73958152D01*
X49078498Y-73959414D01*
X49093493Y-73960834D01*
X49110183Y-73962660D01*
X49128566Y-73964891D01*
X49148642Y-73967529D01*
X49170413Y-73970572D01*
X49185867Y-73972826D01*
X49202075Y-73975260D01*
X49219035Y-73977874D01*
X49236748Y-73980669D01*
X49251683Y-73980669D01*
X49280220Y-73980669D01*
X49306976Y-73980669D01*
X49331951Y-73980669D01*
X49355147Y-73980669D01*
X49376562Y-73980669D01*
X49396197Y-73980669D01*
X49414051Y-73980669D01*
X49430126Y-73980669D01*
X49450899Y-73980669D01*
X49467667Y-73980669D01*
X49483792Y-73980669D01*
X49493935Y-73980669D01*
X49782264Y-73980669D01*
X49782069Y-73959423D01*
X49781485Y-73936259D01*
X49780512Y-73911178D01*
X49779150Y-73884178D01*
X49777398Y-73855261D01*
X49776376Y-73840084D01*
X49775257Y-73824427D01*
X49774041Y-73808290D01*
X49772727Y-73791674D01*
X49771316Y-73774579D01*
X49769808Y-73757004D01*
X49768202Y-73738950D01*
X49766499Y-73720416D01*
X49764699Y-73701403D01*
X49762801Y-73681911D01*
X49760806Y-73661939D01*
X49758714Y-73641488D01*
X49756524Y-73620557D01*
X49754237Y-73599147D01*
X49751853Y-73577257D01*
X49749371Y-73554888D01*
X49746792Y-73532040D01*
X49744116Y-73508712D01*
X49741343Y-73484905D01*
X49738472Y-73460618D01*
X49735504Y-73435852D01*
X49732438Y-73410607D01*
X49716381Y-73408655D01*
X49700094Y-73406913D01*
X49680167Y-73404932D01*
X49664861Y-73403480D01*
X49647939Y-73401921D01*
X49629398Y-73400257D01*
X49609241Y-73398487D01*
X49587467Y-73396610D01*
X49564075Y-73394628D01*
X49539067Y-73392540D01*
X49512441Y-73390346D01*
X49484198Y-73388047D01*
X49469470Y-73386857D01*
X49454338Y-73385641D01*
X49438801Y-73384398D01*
X49422861Y-73383129D01*
X49406019Y-73383104D01*
X49389750Y-73383026D01*
X49374054Y-73382897D01*
X49358930Y-73382717D01*
X49337317Y-73382350D01*
X49316993Y-73381867D01*
X49297956Y-73381268D01*
X49280208Y-73380553D01*
X49263747Y-73379723D01*
X49248574Y-73378776D01*
X49230348Y-73377333D01*
X49222093Y-73376535D01*
X49057595Y-73362613D01*
X49038474Y-73360810D01*
X49019807Y-73359064D01*
X49001594Y-73357375D01*
X48983836Y-73355744D01*
X48966532Y-73354169D01*
X48949683Y-73352652D01*
X48933287Y-73351193D01*
X48917347Y-73349790D01*
X48901860Y-73348445D01*
X48886828Y-73347157D01*
X48858127Y-73344753D01*
X48831244Y-73342577D01*
X48806178Y-73340631D01*
X48782930Y-73338914D01*
X48761499Y-73337425D01*
X48741885Y-73336166D01*
X48724089Y-73335136D01*
X48708111Y-73334334D01*
X48687551Y-73333561D01*
X48671081Y-73333304D01*
X48655419Y-73331815D01*
X48641406Y-73327350D01*
X48627611Y-73318769D01*
X48618325Y-73309490D01*
X48609509Y-73297148D01*
X48602602Y-73282223D01*
X48598883Y-73266198D01*
X48598175Y-73254902D01*
X48601189Y-73238591D01*
X48610230Y-73225656D01*
X48625300Y-73216094D01*
X48642463Y-73210704D01*
X48659207Y-73208080D01*
X48678630Y-73206955D01*
X48683904Y-73206908D01*
X48702324Y-73207409D01*
X48716991Y-73208190D01*
X48734370Y-73209332D01*
X48754459Y-73210835D01*
X48769358Y-73212037D01*
X48785463Y-73213400D01*
X48802772Y-73214922D01*
X48821286Y-73216605D01*
X48841005Y-73218449D01*
X48861930Y-73220452D01*
X48884059Y-73222616D01*
X48907393Y-73224940D01*
X48931933Y-73227424D01*
X48948032Y-73228779D01*
X48963679Y-73230094D01*
X48978873Y-73231369D01*
X48993613Y-73232605D01*
X49021736Y-73234959D01*
X49048047Y-73237156D01*
X49072546Y-73239195D01*
X49095234Y-73241077D01*
X49116109Y-73242802D01*
X49135173Y-73244369D01*
X49152425Y-73245778D01*
X49167865Y-73247031D01*
X49187629Y-73248614D01*
X49203315Y-73249843D01*
X49220401Y-73251104D01*
X49222459Y-73251238D01*
X49242734Y-73252789D01*
X49262891Y-73254329D01*
X49282931Y-73255858D01*
X49302853Y-73257375D01*
X49322659Y-73258880D01*
X49342346Y-73260374D01*
X49361917Y-73261857D01*
X49381370Y-73263328D01*
X49400706Y-73264788D01*
X49419924Y-73266236D01*
X49439025Y-73267673D01*
X49458009Y-73269098D01*
X49476875Y-73270512D01*
X49495624Y-73271915D01*
X49514256Y-73273306D01*
X49532770Y-73274685D01*
X49550789Y-73276028D01*
X49567935Y-73277307D01*
X49584208Y-73278524D01*
X49599608Y-73279677D01*
X49621072Y-73281289D01*
X49640571Y-73282760D01*
X49658106Y-73284089D01*
X49673677Y-73285276D01*
X49691383Y-73286638D01*
X49708604Y-73287987D01*
X49716318Y-73288607D01*
X49713013Y-73273133D01*
X49708204Y-73257562D01*
X49702408Y-73242325D01*
X49700931Y-73238782D01*
X49696698Y-73224537D01*
X49692866Y-73209415D01*
X49689947Y-73194108D01*
X49688523Y-73179405D01*
X49688475Y-73176500D01*
X49690648Y-73161846D01*
X49696230Y-73148090D01*
X49703931Y-73135490D01*
X49714262Y-73122364D01*
X49715952Y-73120446D01*
X49727395Y-73108455D01*
X49739056Y-73098357D01*
X49752621Y-73090753D01*
X49758817Y-73089672D01*
G37*
G36*
X49695066Y-71737101D02*
G01*
X49709234Y-71741179D01*
X49717784Y-71744748D01*
X49731231Y-71752322D01*
X49742658Y-71762736D01*
X49747459Y-71769295D01*
X49755960Y-71783277D01*
X49761400Y-71796896D01*
X49765727Y-71811081D01*
X49769746Y-71827585D01*
X49771639Y-71836706D01*
X49774498Y-71851194D01*
X49777314Y-71865723D01*
X49780028Y-71880245D01*
X49781898Y-71892027D01*
X49798264Y-71891340D01*
X49815550Y-71890610D01*
X49831641Y-71889923D01*
X49847183Y-71889236D01*
X49849675Y-71889096D01*
X49866283Y-71881287D01*
X49881064Y-71875337D01*
X49897172Y-71869650D01*
X49914609Y-71864226D01*
X49933373Y-71859065D01*
X49948319Y-71855367D01*
X49964011Y-71851818D01*
X49980450Y-71848416D01*
X49991824Y-71846231D01*
X50018048Y-71841640D01*
X50043779Y-71837026D01*
X50069018Y-71832389D01*
X50093765Y-71827730D01*
X50118020Y-71823047D01*
X50141782Y-71818342D01*
X50165052Y-71813613D01*
X50187829Y-71808862D01*
X50210114Y-71804088D01*
X50231907Y-71799291D01*
X50253208Y-71794471D01*
X50274016Y-71789628D01*
X50294332Y-71784762D01*
X50314156Y-71779873D01*
X50333488Y-71774962D01*
X50352327Y-71770027D01*
X50366913Y-71766861D01*
X50381820Y-71763770D01*
X50397287Y-71760850D01*
X50411678Y-71759036D01*
X50427148Y-71761040D01*
X50441044Y-71767051D01*
X50453366Y-71777068D01*
X50455642Y-71779553D01*
X50464497Y-71791467D01*
X50470937Y-71806064D01*
X50473799Y-71822093D01*
X50473960Y-71827180D01*
X50471527Y-71842951D01*
X50464228Y-71857291D01*
X50453499Y-71868973D01*
X50449047Y-71872609D01*
X50436957Y-71881242D01*
X50424231Y-71889256D01*
X50411180Y-71896054D01*
X50405083Y-71898621D01*
X50386702Y-71903332D01*
X50367829Y-71907941D01*
X50353350Y-71911329D01*
X50338595Y-71914660D01*
X50323563Y-71917932D01*
X50308254Y-71921147D01*
X50292668Y-71924304D01*
X50276806Y-71927402D01*
X50260666Y-71930443D01*
X50244249Y-71933426D01*
X50227316Y-71936422D01*
X50209765Y-71939501D01*
X50191596Y-71942664D01*
X50172808Y-71945911D01*
X50153402Y-71949241D01*
X50133378Y-71952656D01*
X50112736Y-71956154D01*
X50091475Y-71959735D01*
X50076958Y-71962170D01*
X50062166Y-71964641D01*
X50047100Y-71967150D01*
X50031758Y-71969696D01*
X50014275Y-71972474D01*
X49999349Y-71975070D01*
X49983587Y-71977998D01*
X49966988Y-71981258D01*
X49949555Y-71984850D01*
X49931285Y-71988774D01*
X49912180Y-71993031D01*
X49897302Y-71996441D01*
X49882769Y-71999812D01*
X49865195Y-72003896D01*
X49849682Y-72007511D01*
X49833189Y-72011370D01*
X49817647Y-72015032D01*
X49803028Y-72018545D01*
X49802048Y-72018789D01*
X49804107Y-72033579D01*
X49806438Y-72049832D01*
X49809041Y-72067548D01*
X49811917Y-72086726D01*
X49815064Y-72107367D01*
X49818483Y-72129471D01*
X49822173Y-72153037D01*
X49826136Y-72178066D01*
X49830371Y-72204557D01*
X49834877Y-72232511D01*
X49837233Y-72247036D01*
X49839656Y-72261927D01*
X49842147Y-72277184D01*
X49844706Y-72292806D01*
X49847333Y-72308794D01*
X49850028Y-72325148D01*
X49852792Y-72341867D01*
X49855623Y-72358952D01*
X49858522Y-72376403D01*
X49861489Y-72394219D01*
X49864524Y-72412401D01*
X49867627Y-72430949D01*
X49887411Y-72544521D01*
X50005013Y-72586287D01*
X50172442Y-72644539D01*
X50186627Y-72649032D01*
X50200608Y-72653445D01*
X50227952Y-72662027D01*
X50254475Y-72670286D01*
X50280176Y-72678222D01*
X50305056Y-72685834D01*
X50329114Y-72693122D01*
X50352351Y-72700087D01*
X50374767Y-72706729D01*
X50396361Y-72713048D01*
X50417133Y-72719043D01*
X50437084Y-72724714D01*
X50456214Y-72730062D01*
X50474522Y-72735087D01*
X50492009Y-72739788D01*
X50508674Y-72744166D01*
X50524518Y-72748220D01*
X50540066Y-72752616D01*
X50554468Y-72758845D01*
X50567726Y-72766905D01*
X50579839Y-72776796D01*
X50589937Y-72788108D01*
X50597848Y-72802476D01*
X50601815Y-72816707D01*
X50602920Y-72830286D01*
X50601674Y-72844927D01*
X50597366Y-72859768D01*
X50589982Y-72873106D01*
X50587166Y-72876814D01*
X50576068Y-72887053D01*
X50562465Y-72893501D01*
X50546358Y-72896155D01*
X50542836Y-72896231D01*
X50527243Y-72894651D01*
X50511430Y-72891393D01*
X50495558Y-72887319D01*
X50481095Y-72883172D01*
X50465064Y-72878235D01*
X50447464Y-72872507D01*
X50442819Y-72870952D01*
X50424981Y-72864970D01*
X50409022Y-72859663D01*
X50394940Y-72855032D01*
X50379977Y-72850193D01*
X50365895Y-72845780D01*
X50352693Y-72842009D01*
X50338703Y-72836582D01*
X50323792Y-72831160D01*
X50308474Y-72825756D01*
X50294326Y-72820853D01*
X50278495Y-72815435D01*
X50260981Y-72809501D01*
X50256339Y-72807937D01*
X50240715Y-72802784D01*
X50224479Y-72797354D01*
X50207630Y-72791647D01*
X50190171Y-72785664D01*
X50172099Y-72779403D01*
X50153415Y-72772865D01*
X50134120Y-72766051D01*
X50114213Y-72758959D01*
X50093694Y-72751591D01*
X50079675Y-72746525D01*
X50065384Y-72741335D01*
X50058136Y-72738695D01*
X50043963Y-72733523D01*
X50024162Y-72726290D01*
X50006113Y-72719689D01*
X49989815Y-72713720D01*
X49975269Y-72708381D01*
X49958600Y-72702244D01*
X49942142Y-72696151D01*
X49927276Y-72690566D01*
X49924780Y-72689602D01*
X49928575Y-72705455D01*
X49932267Y-72720728D01*
X49935856Y-72735422D01*
X49940482Y-72754113D01*
X49944924Y-72771773D01*
X49949183Y-72788402D01*
X49953259Y-72804001D01*
X49957151Y-72818570D01*
X49959951Y-72828820D01*
X49963814Y-72843666D01*
X49968373Y-72861779D01*
X49972257Y-72877967D01*
X49976162Y-72895498D01*
X49979012Y-72910024D01*
X49981228Y-72925311D01*
X49981566Y-72931402D01*
X49979827Y-72946729D01*
X49973817Y-72961040D01*
X49963513Y-72972489D01*
X49959584Y-72975366D01*
X49945559Y-72983094D01*
X49930962Y-72987960D01*
X49915792Y-72989963D01*
X49912690Y-72990020D01*
X49896503Y-72988774D01*
X49882120Y-72984467D01*
X49869867Y-72975236D01*
X49869092Y-72974267D01*
X49861127Y-72961531D01*
X49854486Y-72946648D01*
X49849586Y-72932474D01*
X49847843Y-72926639D01*
X49844271Y-72911515D01*
X49840699Y-72896230D01*
X49837127Y-72880783D01*
X49833555Y-72865176D01*
X49829983Y-72849408D01*
X49826411Y-72833478D01*
X49822839Y-72817388D01*
X49819267Y-72801137D01*
X49815695Y-72784724D01*
X49812123Y-72768151D01*
X49809741Y-72757013D01*
X49806288Y-72740734D01*
X49803074Y-72725556D01*
X49799158Y-72707031D01*
X49795666Y-72690465D01*
X49792598Y-72675856D01*
X49789358Y-72660348D01*
X49786344Y-72645776D01*
X49785195Y-72640143D01*
X49768335Y-72634509D01*
X49752100Y-72629288D01*
X49736492Y-72624477D01*
X49721510Y-72620078D01*
X49707155Y-72616091D01*
X49690754Y-72611849D01*
X49688108Y-72611200D01*
X49673042Y-72606666D01*
X49658581Y-72602173D01*
X49642928Y-72597189D01*
X49628563Y-72592527D01*
X49618499Y-72589218D01*
X49602266Y-72583894D01*
X49587656Y-72579300D01*
X49572062Y-72574563D01*
X49555485Y-72569683D01*
X49537923Y-72564660D01*
X49523166Y-72560538D01*
X49515551Y-72558443D01*
X49406741Y-72526936D01*
X49389142Y-72522032D01*
X49372022Y-72517257D01*
X49355379Y-72512612D01*
X49339215Y-72508097D01*
X49323529Y-72503711D01*
X49308320Y-72499454D01*
X49293590Y-72495327D01*
X49279337Y-72491330D01*
X49252267Y-72483724D01*
X49227108Y-72476635D01*
X49203861Y-72470065D01*
X49182526Y-72464013D01*
X49163103Y-72458479D01*
X49145592Y-72453463D01*
X49129992Y-72448965D01*
X49110179Y-72443189D01*
X49094667Y-72438579D01*
X49080676Y-72434246D01*
X49065770Y-72428888D01*
X49050588Y-72422750D01*
X49037086Y-72416497D01*
X49029019Y-72412264D01*
X49017338Y-72402984D01*
X49010126Y-72389503D01*
X49008503Y-72377093D01*
X49008966Y-72361109D01*
X49010357Y-72346130D01*
X49013152Y-72329923D01*
X49017210Y-72315084D01*
X49021692Y-72303454D01*
X49008503Y-72296127D01*
X48997603Y-72285227D01*
X48995552Y-72281472D01*
X49086905Y-72281472D01*
X49129036Y-72299057D01*
X49144017Y-72306247D01*
X49158733Y-72313114D01*
X49173186Y-72319659D01*
X49187374Y-72325882D01*
X49201299Y-72331783D01*
X49214959Y-72337363D01*
X49232762Y-72344301D01*
X49250096Y-72350666D01*
X49266960Y-72356459D01*
X49275216Y-72359141D01*
X49295068Y-72365575D01*
X49316340Y-72372422D01*
X49339032Y-72379680D01*
X49363143Y-72387351D01*
X49388674Y-72395434D01*
X49415625Y-72403929D01*
X49429633Y-72408331D01*
X49443995Y-72412836D01*
X49458713Y-72417445D01*
X49473785Y-72422156D01*
X49489213Y-72426970D01*
X49504995Y-72431887D01*
X49521132Y-72436908D01*
X49537624Y-72442031D01*
X49554471Y-72447257D01*
X49571673Y-72452587D01*
X49589230Y-72458019D01*
X49607142Y-72463555D01*
X49625409Y-72469194D01*
X49644030Y-72474935D01*
X49663007Y-72480780D01*
X49682338Y-72486728D01*
X49702024Y-72492778D01*
X49722066Y-72498932D01*
X49742462Y-72505189D01*
X49763213Y-72511549D01*
X49723646Y-72286601D01*
X49691772Y-72087299D01*
X49685544Y-72043702D01*
X49669570Y-72048134D01*
X49652537Y-72052803D01*
X49635535Y-72057440D01*
X49620815Y-72061444D01*
X49604408Y-72065898D01*
X49586314Y-72070803D01*
X49566533Y-72076159D01*
X49545064Y-72081966D01*
X49537533Y-72084002D01*
X49522460Y-72088107D01*
X49507743Y-72092182D01*
X49493380Y-72096225D01*
X49472502Y-72102230D01*
X49452422Y-72108164D01*
X49433140Y-72114028D01*
X49414658Y-72119821D01*
X49396973Y-72125543D01*
X49380088Y-72131194D01*
X49364000Y-72136774D01*
X49348712Y-72142284D01*
X49338963Y-72145917D01*
X49324303Y-72151486D01*
X49309584Y-72157337D01*
X49294807Y-72163473D01*
X49279973Y-72169891D01*
X49265080Y-72176593D01*
X49250130Y-72183578D01*
X49235121Y-72190847D01*
X49220055Y-72198399D01*
X49204931Y-72206234D01*
X49189748Y-72214353D01*
X49179595Y-72219923D01*
X49164960Y-72228059D01*
X49151555Y-72235705D01*
X49135595Y-72245139D01*
X49121822Y-72253703D01*
X49107681Y-72263184D01*
X49095222Y-72272766D01*
X49086905Y-72281472D01*
X48995552Y-72281472D01*
X48990551Y-72272313D01*
X48986606Y-72257469D01*
X48985141Y-72242260D01*
X48985055Y-72237142D01*
X48988211Y-72220175D01*
X48995662Y-72205720D01*
X49004778Y-72193951D01*
X49016699Y-72181998D01*
X49031425Y-72169862D01*
X49044310Y-72160640D01*
X49058774Y-72151315D01*
X49074815Y-72141887D01*
X49091899Y-72132443D01*
X49109492Y-72123069D01*
X49127594Y-72113767D01*
X49146204Y-72104535D01*
X49165323Y-72095374D01*
X49184951Y-72086284D01*
X49198319Y-72080264D01*
X49211914Y-72074274D01*
X49225734Y-72068317D01*
X49239780Y-72062390D01*
X49254053Y-72056496D01*
X49268551Y-72050632D01*
X49283276Y-72044801D01*
X49297064Y-72039654D01*
X49312050Y-72034243D01*
X49328233Y-72028569D01*
X49345615Y-72022630D01*
X49364194Y-72016427D01*
X49383972Y-72009960D01*
X49404947Y-72003229D01*
X49419596Y-71998595D01*
X49434777Y-71993844D01*
X49450490Y-71988976D01*
X49466736Y-71983990D01*
X49483515Y-71978886D01*
X49492103Y-71976290D01*
X49509009Y-71971194D01*
X49525105Y-71966347D01*
X49540391Y-71961749D01*
X49554866Y-71957400D01*
X49575061Y-71951343D01*
X49593433Y-71945846D01*
X49609983Y-71940910D01*
X49624710Y-71936534D01*
X49641511Y-71931571D01*
X49657957Y-71926768D01*
X49665394Y-71924633D01*
X49662903Y-71909521D01*
X49659459Y-71894408D01*
X49655502Y-71880669D01*
X49650728Y-71866175D01*
X49645976Y-71852093D01*
X49638821Y-71839213D01*
X49632055Y-71830111D01*
X49623162Y-71817585D01*
X49615719Y-71804738D01*
X49614836Y-71803000D01*
X49611813Y-71787796D01*
X49615630Y-71772990D01*
X49616667Y-71770760D01*
X49625102Y-71757056D01*
X49636623Y-71746717D01*
X49651229Y-71739745D01*
X49666204Y-71736448D01*
X49680415Y-71735589D01*
X49695066Y-71737101D01*
G37*
G36*
X48986521Y-70382972D02*
G01*
X49003625Y-70384557D01*
X49018669Y-70389309D01*
X49031652Y-70397230D01*
X49042575Y-70408320D01*
X49051436Y-70422578D01*
X49053932Y-70428035D01*
X49059787Y-70442861D01*
X49065445Y-70459405D01*
X49069830Y-70473876D01*
X49074089Y-70489447D01*
X49078222Y-70506116D01*
X49082229Y-70523885D01*
X49086110Y-70542753D01*
X49088004Y-70552599D01*
X49091288Y-70569501D01*
X49094547Y-70587233D01*
X49097780Y-70605797D01*
X49100987Y-70625191D01*
X49104168Y-70645415D01*
X49107324Y-70666471D01*
X49110454Y-70688357D01*
X49112526Y-70703410D01*
X49114587Y-70718831D01*
X49116636Y-70734622D01*
X49118674Y-70750782D01*
X49120700Y-70767312D01*
X49121709Y-70775715D01*
X49123617Y-70792327D01*
X49125401Y-70808459D01*
X49127063Y-70824109D01*
X49128601Y-70839279D01*
X49130017Y-70853968D01*
X49131909Y-70875100D01*
X49133524Y-70895150D01*
X49134863Y-70914117D01*
X49135924Y-70932003D01*
X49136709Y-70948808D01*
X49137217Y-70964530D01*
X49137463Y-70983810D01*
X49155166Y-70984882D01*
X49170382Y-70985643D01*
X49188328Y-70986442D01*
X49209005Y-70987278D01*
X49232412Y-70988151D01*
X49258550Y-70989061D01*
X49287418Y-70990008D01*
X49302876Y-70990496D01*
X49319017Y-70990993D01*
X49335841Y-70991499D01*
X49353347Y-70992015D01*
X49371535Y-70992539D01*
X49390407Y-70993074D01*
X49409961Y-70993617D01*
X49430197Y-70994170D01*
X49451116Y-70994732D01*
X49472718Y-70995303D01*
X49495003Y-70995884D01*
X49517970Y-70996474D01*
X49541620Y-70997073D01*
X49565952Y-70997682D01*
X49590967Y-70998300D01*
X49616665Y-70998927D01*
X49643046Y-70999563D01*
X49669538Y-71000197D01*
X49695570Y-71000814D01*
X49721143Y-71001416D01*
X49746257Y-71002002D01*
X49770912Y-71002572D01*
X49795107Y-71003127D01*
X49818842Y-71003666D01*
X49842119Y-71004189D01*
X49864936Y-71004696D01*
X49887293Y-71005188D01*
X49909191Y-71005663D01*
X49930630Y-71006124D01*
X49951609Y-71006568D01*
X49972129Y-71006997D01*
X49992190Y-71007409D01*
X50011791Y-71007807D01*
X50030933Y-71008188D01*
X50049615Y-71008554D01*
X50067838Y-71008903D01*
X50085602Y-71009238D01*
X50102906Y-71009556D01*
X50119751Y-71009859D01*
X50136137Y-71010146D01*
X50152063Y-71010417D01*
X50167530Y-71010672D01*
X50182537Y-71010912D01*
X50211174Y-71011344D01*
X50237972Y-71011713D01*
X50262934Y-71012020D01*
X50262934Y-70992198D01*
X50262934Y-70970928D01*
X50262934Y-70955943D01*
X50262934Y-70940314D01*
X50262934Y-70924041D01*
X50262934Y-70907124D01*
X50262934Y-70889562D01*
X50262934Y-70871357D01*
X50262934Y-70852508D01*
X50262934Y-70833015D01*
X50262934Y-70812878D01*
X50262934Y-70792097D01*
X50262934Y-70770672D01*
X50262934Y-70748602D01*
X50262934Y-70725889D01*
X50262934Y-70707049D01*
X50262934Y-70689270D01*
X50262934Y-70672553D01*
X50262934Y-70656898D01*
X50262934Y-70635407D01*
X50262934Y-70616305D01*
X50262934Y-70599592D01*
X50262934Y-70581025D01*
X50262934Y-70563789D01*
X50262934Y-70551866D01*
X50263591Y-70536822D01*
X50265561Y-70522191D01*
X50269521Y-70505641D01*
X50275269Y-70489653D01*
X50281618Y-70476395D01*
X50290702Y-70462834D01*
X50301925Y-70452603D01*
X50315286Y-70445703D01*
X50330786Y-70442134D01*
X50340603Y-70441591D01*
X50355372Y-70442369D01*
X50371064Y-70445532D01*
X50384772Y-70451821D01*
X50387864Y-70454047D01*
X50397464Y-70466669D01*
X50401756Y-70480802D01*
X50403479Y-70496722D01*
X50403618Y-70503506D01*
X50402897Y-70519632D01*
X50401810Y-70534796D01*
X50400487Y-70551171D01*
X50399110Y-70567198D01*
X50398489Y-70574214D01*
X50396248Y-70589275D01*
X50394219Y-70605675D01*
X50392821Y-70620811D01*
X50391997Y-70636565D01*
X50391894Y-70643824D01*
X50391894Y-70664032D01*
X50391894Y-70679351D01*
X50391894Y-70696146D01*
X50391894Y-70714419D01*
X50391894Y-70734168D01*
X50391894Y-70755394D01*
X50391894Y-70778098D01*
X50391894Y-70802278D01*
X50391894Y-70827935D01*
X50391894Y-70855068D01*
X50391894Y-70883679D01*
X50391894Y-70898538D01*
X50391894Y-70913767D01*
X50391894Y-70929365D01*
X50391894Y-70945331D01*
X50391894Y-70961668D01*
X50391894Y-70978373D01*
X50391894Y-70995447D01*
X50391894Y-71012891D01*
X50391894Y-71030704D01*
X50405336Y-71038583D01*
X50417085Y-71049123D01*
X50421936Y-71054884D01*
X50430001Y-71067740D01*
X50434198Y-71081972D01*
X50434392Y-71085659D01*
X50431370Y-71100680D01*
X50423046Y-71112766D01*
X50422302Y-71113503D01*
X50415341Y-71124860D01*
X50415341Y-71216817D01*
X50418403Y-71236602D01*
X50421266Y-71255749D01*
X50423932Y-71274258D01*
X50426401Y-71292128D01*
X50428672Y-71309360D01*
X50430746Y-71325954D01*
X50432622Y-71341909D01*
X50434301Y-71357226D01*
X50435782Y-71371905D01*
X50437633Y-71392727D01*
X50439041Y-71412112D01*
X50440003Y-71430062D01*
X50440522Y-71446575D01*
X50440621Y-71456786D01*
X50440077Y-71474474D01*
X50438445Y-71491087D01*
X50435726Y-71506623D01*
X50431919Y-71521083D01*
X50425631Y-71537644D01*
X50417644Y-71552524D01*
X50407957Y-71565723D01*
X50405816Y-71568161D01*
X50393222Y-71577938D01*
X50378972Y-71584202D01*
X50364357Y-71587868D01*
X50347528Y-71589963D01*
X50331810Y-71590509D01*
X50317316Y-71588242D01*
X50303663Y-71582890D01*
X50290152Y-71575381D01*
X50288579Y-71574389D01*
X50276182Y-71564945D01*
X50266540Y-71552378D01*
X50262934Y-71537386D01*
X50267067Y-71522370D01*
X50272562Y-71508345D01*
X50274658Y-71503314D01*
X50280325Y-71488058D01*
X50284137Y-71473613D01*
X50286198Y-71458515D01*
X50286381Y-71452756D01*
X50286381Y-71437830D01*
X50286381Y-71421629D01*
X50286381Y-71404153D01*
X50286381Y-71385402D01*
X50286381Y-71365376D01*
X50286381Y-71344075D01*
X50286381Y-71329165D01*
X50286381Y-71313689D01*
X50286381Y-71297646D01*
X50286381Y-71281037D01*
X50286381Y-71263861D01*
X50286381Y-71246118D01*
X50286381Y-71227808D01*
X50286381Y-71144277D01*
X49988893Y-71132187D01*
X49973917Y-71131509D01*
X49956606Y-71130719D01*
X49940017Y-71129955D01*
X49924149Y-71129217D01*
X49909002Y-71128504D01*
X49901699Y-71128157D01*
X49885287Y-71127301D01*
X49870033Y-71126655D01*
X49854016Y-71126174D01*
X49837803Y-71125961D01*
X49836120Y-71125959D01*
X49160910Y-71105809D01*
X49159491Y-71130612D01*
X49158162Y-71153728D01*
X49156926Y-71175159D01*
X49155781Y-71194904D01*
X49154728Y-71212963D01*
X49153766Y-71229337D01*
X49152896Y-71244024D01*
X49151763Y-71262894D01*
X49150835Y-71277972D01*
X49149748Y-71294671D01*
X49149187Y-71300348D01*
X49153401Y-71326229D01*
X49157344Y-71350746D01*
X49161015Y-71373902D01*
X49164414Y-71395695D01*
X49167541Y-71416125D01*
X49170396Y-71435193D01*
X49172979Y-71452899D01*
X49175290Y-71469242D01*
X49177329Y-71484223D01*
X49179878Y-71504140D01*
X49181816Y-71520991D01*
X49183447Y-71538691D01*
X49183991Y-71550942D01*
X49183064Y-71565625D01*
X49179638Y-71582364D01*
X49174692Y-71596378D01*
X49167891Y-71610082D01*
X49159236Y-71623477D01*
X49157613Y-71625680D01*
X49147043Y-71637633D01*
X49135391Y-71647112D01*
X49120429Y-71655046D01*
X49103995Y-71659614D01*
X49088736Y-71660851D01*
X49072588Y-71659431D01*
X49058353Y-71655171D01*
X49044778Y-71647106D01*
X49040010Y-71642899D01*
X49030350Y-71630305D01*
X49024268Y-71615422D01*
X49021853Y-71600069D01*
X49021692Y-71594539D01*
X49021972Y-71579793D01*
X49022814Y-71565047D01*
X49023157Y-71560833D01*
X49024119Y-71546087D01*
X49025081Y-71531341D01*
X49025355Y-71527128D01*
X49027255Y-71511207D01*
X49028833Y-71495500D01*
X49030089Y-71480009D01*
X49031023Y-71464731D01*
X49031634Y-71449669D01*
X49031924Y-71434821D01*
X49031950Y-71428942D01*
X49031950Y-71412724D01*
X49031950Y-71396839D01*
X49031950Y-71378366D01*
X49031950Y-71362814D01*
X49031950Y-71345805D01*
X49031950Y-71327342D01*
X49031950Y-71307423D01*
X49031950Y-71286049D01*
X49031950Y-71270991D01*
X49031950Y-71255286D01*
X49031950Y-71239588D01*
X49031950Y-71224643D01*
X49031950Y-71203636D01*
X49031950Y-71184324D01*
X49031950Y-71166705D01*
X49031950Y-71150780D01*
X49031950Y-71132181D01*
X49031950Y-71116594D01*
X49031950Y-71101344D01*
X49031950Y-71094452D01*
X49016346Y-71092088D01*
X49000858Y-71087059D01*
X48987188Y-71080350D01*
X48976995Y-71073935D01*
X48965134Y-71063517D01*
X48956662Y-71051312D01*
X48951579Y-71037322D01*
X48949884Y-71021545D01*
X48953633Y-71006806D01*
X48963748Y-70996098D01*
X48972599Y-70991137D01*
X48986924Y-70985297D01*
X49001175Y-70981520D01*
X49008503Y-70980879D01*
X49008302Y-70966137D01*
X49007701Y-70949755D01*
X49006699Y-70931733D01*
X49005297Y-70912071D01*
X49003494Y-70890769D01*
X49001290Y-70867827D01*
X48998685Y-70843245D01*
X48995680Y-70817022D01*
X48992274Y-70789160D01*
X48990421Y-70774614D01*
X48988467Y-70759658D01*
X48986413Y-70744292D01*
X48984260Y-70728515D01*
X48982006Y-70712329D01*
X48979651Y-70695733D01*
X48977197Y-70678727D01*
X48974643Y-70661310D01*
X48971988Y-70643484D01*
X48969233Y-70625248D01*
X48966378Y-70606602D01*
X48963423Y-70587545D01*
X48960367Y-70568079D01*
X48957212Y-70548203D01*
X48953383Y-70532954D01*
X48947307Y-70517823D01*
X48939814Y-70503255D01*
X48934131Y-70493614D01*
X48926565Y-70480969D01*
X48919568Y-70468060D01*
X48914713Y-70454413D01*
X48916717Y-70438671D01*
X48922728Y-70423501D01*
X48931563Y-70410338D01*
X48935230Y-70406053D01*
X48946129Y-70395955D01*
X48959924Y-70388044D01*
X48975341Y-70383784D01*
X48986521Y-70382972D01*
G37*
G36*
X50307997Y-69072854D02*
G01*
X50322415Y-69076500D01*
X50333292Y-69087440D01*
X50339796Y-69102621D01*
X50343229Y-69119365D01*
X50344674Y-69135439D01*
X50345000Y-69149057D01*
X50336975Y-69162599D01*
X50326945Y-69173755D01*
X50312903Y-69187835D01*
X50301312Y-69198846D01*
X50287938Y-69211156D01*
X50272781Y-69224766D01*
X50255841Y-69239675D01*
X50237118Y-69255884D01*
X50216612Y-69273392D01*
X50194322Y-69292200D01*
X50182509Y-69302091D01*
X50170249Y-69312307D01*
X50157544Y-69322848D01*
X50144394Y-69333714D01*
X50130797Y-69344904D01*
X50116755Y-69356420D01*
X50102533Y-69368009D01*
X50088444Y-69379469D01*
X50074489Y-69390798D01*
X50060666Y-69401998D01*
X50046977Y-69413067D01*
X50033421Y-69424005D01*
X50019998Y-69434814D01*
X50006708Y-69445492D01*
X49993551Y-69456040D01*
X49980527Y-69466458D01*
X49967636Y-69476745D01*
X49954879Y-69486903D01*
X49942254Y-69496930D01*
X49929763Y-69506826D01*
X49917404Y-69516593D01*
X49905179Y-69526229D01*
X49893087Y-69535736D01*
X49881128Y-69545112D01*
X49869302Y-69554357D01*
X49857609Y-69563473D01*
X49834623Y-69581313D01*
X49812168Y-69598632D01*
X49790247Y-69615431D01*
X49768857Y-69631708D01*
X49748000Y-69647465D01*
X49727676Y-69662700D01*
X49715234Y-69671772D01*
X49702731Y-69680725D01*
X49686863Y-69692002D01*
X49672753Y-69701985D01*
X49656750Y-69713276D01*
X49638853Y-69725873D01*
X49625870Y-69734998D01*
X49612046Y-69744704D01*
X49597380Y-69754991D01*
X49581872Y-69765859D01*
X49573803Y-69771510D01*
X49550370Y-69787878D01*
X49528339Y-69803275D01*
X49507711Y-69817702D01*
X49488486Y-69831159D01*
X49470663Y-69843645D01*
X49454242Y-69855162D01*
X49439224Y-69865707D01*
X49425608Y-69875283D01*
X49413395Y-69883888D01*
X49397705Y-69894977D01*
X49385171Y-69903882D01*
X49371293Y-69913873D01*
X49367173Y-69916957D01*
X49495401Y-69916957D01*
X49653304Y-69916957D01*
X49672041Y-69916957D01*
X49690976Y-69916957D01*
X49710109Y-69916957D01*
X49729439Y-69916957D01*
X49748966Y-69916957D01*
X49768691Y-69916957D01*
X49788614Y-69916957D01*
X49808734Y-69916957D01*
X49829051Y-69916957D01*
X49849566Y-69916957D01*
X49870279Y-69916957D01*
X49891189Y-69916957D01*
X49912296Y-69916957D01*
X49933601Y-69916957D01*
X49955103Y-69916957D01*
X49976803Y-69916957D01*
X49998326Y-69916957D01*
X50019296Y-69916957D01*
X50039714Y-69916957D01*
X50059579Y-69916957D01*
X50078892Y-69916957D01*
X50097652Y-69916957D01*
X50115860Y-69916957D01*
X50133516Y-69916957D01*
X50150619Y-69916957D01*
X50167170Y-69916957D01*
X50183168Y-69916957D01*
X50198614Y-69916957D01*
X50213508Y-69916957D01*
X50234812Y-69916957D01*
X50254874Y-69916957D01*
X50269528Y-69919888D01*
X50283450Y-69925750D01*
X50296639Y-69934542D01*
X50307579Y-69944640D01*
X50309096Y-69946266D01*
X50318518Y-69957912D01*
X50326452Y-69971479D01*
X50331363Y-69985320D01*
X50333276Y-70001221D01*
X50332177Y-70016058D01*
X50327712Y-70031514D01*
X50318833Y-70044549D01*
X50315690Y-70047383D01*
X50302159Y-70054724D01*
X50287676Y-70058640D01*
X50272337Y-70060638D01*
X50257207Y-70061291D01*
X50254508Y-70061304D01*
X50238381Y-70061304D01*
X50220659Y-70061304D01*
X50202759Y-70061304D01*
X50187162Y-70061304D01*
X50169704Y-70061304D01*
X50150385Y-70061304D01*
X50129205Y-70061304D01*
X50114051Y-70061304D01*
X50098070Y-70061304D01*
X50083012Y-70059636D01*
X50068108Y-70058021D01*
X50053359Y-70056459D01*
X50038765Y-70054950D01*
X50010040Y-70052091D01*
X49981933Y-70049443D01*
X49954444Y-70047008D01*
X49927573Y-70044784D01*
X49901321Y-70042772D01*
X49875687Y-70040971D01*
X49850671Y-70039383D01*
X49826273Y-70038006D01*
X49802494Y-70036841D01*
X49779333Y-70035888D01*
X49756790Y-70035147D01*
X49734866Y-70034617D01*
X49713559Y-70034299D01*
X49692871Y-70034193D01*
X49676622Y-70034193D01*
X49660482Y-70034193D01*
X49644451Y-70034193D01*
X49628528Y-70034193D01*
X49612715Y-70034193D01*
X49597010Y-70034193D01*
X49581413Y-70034193D01*
X49565926Y-70034193D01*
X49550547Y-70034193D01*
X49535277Y-70034193D01*
X49520116Y-70034193D01*
X49505064Y-70034193D01*
X49490120Y-70034193D01*
X49475285Y-70034193D01*
X49460559Y-70034193D01*
X49445942Y-70034193D01*
X49424880Y-70034193D01*
X49405382Y-70034193D01*
X49387450Y-70034193D01*
X49371083Y-70034193D01*
X49356281Y-70034193D01*
X49338979Y-70034193D01*
X49321263Y-70034193D01*
X49305743Y-70034193D01*
X49301960Y-70034193D01*
X49240778Y-70034193D01*
X49234549Y-70034193D01*
X49219079Y-70033227D01*
X49203880Y-70029933D01*
X49190586Y-70024302D01*
X49179646Y-70013723D01*
X49174054Y-69998957D01*
X49172634Y-69983269D01*
X49172634Y-69973011D01*
X49176719Y-69958154D01*
X49184638Y-69945052D01*
X49193975Y-69933077D01*
X49205979Y-69919773D01*
X49216732Y-69908924D01*
X49228987Y-69897328D01*
X49242741Y-69884984D01*
X49257997Y-69871894D01*
X49274442Y-69858046D01*
X49285971Y-69848463D01*
X49297953Y-69838600D01*
X49310386Y-69828456D01*
X49323272Y-69818032D01*
X49336610Y-69807327D01*
X49350400Y-69796342D01*
X49364642Y-69785077D01*
X49379337Y-69773530D01*
X49394484Y-69761704D01*
X49410083Y-69749596D01*
X49426134Y-69737209D01*
X49442638Y-69724541D01*
X49459594Y-69711592D01*
X49477002Y-69698363D01*
X49485875Y-69691643D01*
X49498788Y-69681490D01*
X49511561Y-69671547D01*
X49524193Y-69661815D01*
X49536685Y-69652293D01*
X49543761Y-69646946D01*
X49555962Y-69637577D01*
X49567884Y-69628384D01*
X49579524Y-69619365D01*
X49592484Y-69609273D01*
X49597250Y-69605547D01*
X49615872Y-69590659D01*
X49633360Y-69576679D01*
X49649715Y-69563606D01*
X49664936Y-69551440D01*
X49679024Y-69540181D01*
X49691978Y-69529830D01*
X49703799Y-69520386D01*
X49719405Y-69507922D01*
X49732461Y-69497498D01*
X49745902Y-69486777D01*
X49757563Y-69477499D01*
X49759183Y-69476221D01*
X49782705Y-69457337D01*
X49805597Y-69439018D01*
X49827859Y-69421262D01*
X49849492Y-69404070D01*
X49870495Y-69387442D01*
X49890868Y-69371378D01*
X49910612Y-69355877D01*
X49929726Y-69340941D01*
X49948210Y-69326568D01*
X49966064Y-69312759D01*
X49983289Y-69299514D01*
X49999884Y-69286833D01*
X50015850Y-69274716D01*
X50031186Y-69263163D01*
X50045892Y-69252173D01*
X50059968Y-69241748D01*
X50073415Y-69231886D01*
X50086232Y-69222588D01*
X50098419Y-69213854D01*
X50120905Y-69198077D01*
X50140872Y-69184556D01*
X50158320Y-69173290D01*
X50173249Y-69164280D01*
X50190920Y-69154994D01*
X50199553Y-69151622D01*
X50187777Y-69160400D01*
X50173449Y-69166826D01*
X50157568Y-69172055D01*
X50141796Y-69176216D01*
X50123715Y-69180198D01*
X50107733Y-69183198D01*
X50090560Y-69186152D01*
X50072196Y-69189060D01*
X50057641Y-69191211D01*
X50042417Y-69193336D01*
X50026523Y-69195435D01*
X50009959Y-69197509D01*
X49992726Y-69199557D01*
X49974823Y-69201579D01*
X49962515Y-69202913D01*
X49943707Y-69204812D01*
X49924790Y-69206524D01*
X49905763Y-69208049D01*
X49886626Y-69209387D01*
X49867380Y-69210539D01*
X49848025Y-69211504D01*
X49828560Y-69212282D01*
X49808986Y-69212873D01*
X49789302Y-69213278D01*
X49769508Y-69213496D01*
X49756252Y-69213538D01*
X49732378Y-69213678D01*
X49707560Y-69214099D01*
X49681797Y-69214800D01*
X49655090Y-69215782D01*
X49627438Y-69217044D01*
X49598841Y-69218586D01*
X49584189Y-69219463D01*
X49569300Y-69220410D01*
X49554176Y-69221427D01*
X49538815Y-69222513D01*
X49523218Y-69223671D01*
X49507385Y-69224898D01*
X49491316Y-69226195D01*
X49475010Y-69227562D01*
X49458469Y-69229000D01*
X49441691Y-69230508D01*
X49424677Y-69232085D01*
X49407428Y-69233733D01*
X49389942Y-69235451D01*
X49372219Y-69237240D01*
X49354261Y-69239098D01*
X49336067Y-69241026D01*
X49317636Y-69243025D01*
X49298969Y-69245094D01*
X49280067Y-69247232D01*
X49260928Y-69249441D01*
X49242582Y-69251274D01*
X49225602Y-69252927D01*
X49209987Y-69254400D01*
X49191291Y-69256083D01*
X49175022Y-69257445D01*
X49158099Y-69258698D01*
X49142798Y-69259539D01*
X49135631Y-69259699D01*
X49119197Y-69258704D01*
X49104380Y-69255720D01*
X49087138Y-69248644D01*
X49072770Y-69238031D01*
X49061275Y-69223880D01*
X49052654Y-69206192D01*
X49048074Y-69190604D01*
X49045110Y-69173026D01*
X49043763Y-69153458D01*
X49043674Y-69146493D01*
X49046696Y-69131243D01*
X49055764Y-69118466D01*
X49068657Y-69109315D01*
X49083391Y-69102978D01*
X49092034Y-69100331D01*
X49109391Y-69096531D01*
X49126510Y-69093955D01*
X49141235Y-69092294D01*
X49157577Y-69090864D01*
X49175535Y-69089666D01*
X49195109Y-69088700D01*
X49216300Y-69087966D01*
X49231325Y-69087606D01*
X49247069Y-69087348D01*
X49263531Y-69087193D01*
X49280711Y-69087142D01*
X49298855Y-69087142D01*
X49318298Y-69087142D01*
X49339040Y-69087142D01*
X49361082Y-69087142D01*
X49384424Y-69087142D01*
X49409065Y-69087142D01*
X49435005Y-69087142D01*
X49462245Y-69087142D01*
X49490784Y-69087142D01*
X49505541Y-69087142D01*
X49520623Y-69087142D01*
X49536029Y-69087142D01*
X49551761Y-69087142D01*
X49567817Y-69087142D01*
X49584198Y-69087142D01*
X49600904Y-69087142D01*
X49617935Y-69087142D01*
X49635291Y-69087142D01*
X49652972Y-69087142D01*
X49670977Y-69087142D01*
X49689308Y-69087142D01*
X49707963Y-69087142D01*
X49726943Y-69087142D01*
X49745046Y-69087113D01*
X49763084Y-69087026D01*
X49781058Y-69086881D01*
X49798968Y-69086678D01*
X49816813Y-69086417D01*
X49834594Y-69086099D01*
X49852310Y-69085722D01*
X49869962Y-69085287D01*
X49887550Y-69084794D01*
X49905073Y-69084244D01*
X49916720Y-69083845D01*
X49933981Y-69083230D01*
X49950869Y-69082621D01*
X49967383Y-69082019D01*
X49983524Y-69081423D01*
X49999291Y-69080834D01*
X50014685Y-69080251D01*
X50029705Y-69079675D01*
X50044352Y-69079105D01*
X50063300Y-69078355D01*
X50081584Y-69077616D01*
X50099774Y-69076765D01*
X50117115Y-69075998D01*
X50133606Y-69075314D01*
X50149246Y-69074714D01*
X50164037Y-69074198D01*
X50182435Y-69073640D01*
X50199322Y-69073230D01*
X50214698Y-69072970D01*
X50231793Y-69072854D01*
X50307997Y-69072854D01*
G37*
G36*
X49963981Y-67779954D02*
G01*
X49984485Y-67780595D01*
X50004918Y-67782517D01*
X50025280Y-67785721D01*
X50045571Y-67790207D01*
X50065792Y-67795974D01*
X50085941Y-67803022D01*
X50106020Y-67811352D01*
X50119367Y-67817618D01*
X50132682Y-67824453D01*
X50145965Y-67831857D01*
X50159217Y-67839831D01*
X50172438Y-67848375D01*
X50179036Y-67852861D01*
X50192025Y-67862156D01*
X50204705Y-67871906D01*
X50217075Y-67882111D01*
X50229137Y-67892771D01*
X50240889Y-67903887D01*
X50252332Y-67915457D01*
X50263466Y-67927483D01*
X50274291Y-67939964D01*
X50284807Y-67952900D01*
X50295014Y-67966290D01*
X50304911Y-67980136D01*
X50314500Y-67994438D01*
X50323779Y-68009194D01*
X50332749Y-68024405D01*
X50341410Y-68040071D01*
X50349762Y-68056193D01*
X50357703Y-68072633D01*
X50365132Y-68089349D01*
X50372049Y-68106339D01*
X50378453Y-68123604D01*
X50384345Y-68141144D01*
X50389725Y-68158958D01*
X50394592Y-68177047D01*
X50398947Y-68195411D01*
X50402789Y-68214050D01*
X50406119Y-68232964D01*
X50408937Y-68252152D01*
X50411243Y-68271615D01*
X50413036Y-68291353D01*
X50414317Y-68311366D01*
X50415085Y-68331653D01*
X50415341Y-68352215D01*
X50415250Y-68369407D01*
X50414975Y-68386178D01*
X50414517Y-68402529D01*
X50413876Y-68418458D01*
X50413052Y-68433967D01*
X50412044Y-68449056D01*
X50410853Y-68463723D01*
X50408724Y-68484935D01*
X50406182Y-68505201D01*
X50403229Y-68524520D01*
X50399863Y-68542892D01*
X50396084Y-68560318D01*
X50391894Y-68576796D01*
X50387347Y-68592052D01*
X50380604Y-68610058D01*
X50373082Y-68625397D01*
X50364782Y-68638068D01*
X50353311Y-68650155D01*
X50340625Y-68658075D01*
X50323795Y-68662076D01*
X50320819Y-68662159D01*
X50304958Y-68659493D01*
X50289495Y-68653733D01*
X50274065Y-68646228D01*
X50259672Y-68638164D01*
X50247152Y-68630527D01*
X50243883Y-68628454D01*
X50231432Y-68620182D01*
X50218203Y-68610277D01*
X50205753Y-68599028D01*
X50195948Y-68586784D01*
X50190812Y-68572433D01*
X50190760Y-68570935D01*
X50192157Y-68554586D01*
X50197831Y-68540718D01*
X50211733Y-68533602D01*
X50213108Y-68533565D01*
X50227583Y-68537540D01*
X50232526Y-68541259D01*
X50244982Y-68548586D01*
X50251754Y-68534521D01*
X50255240Y-68526605D01*
X50260392Y-68512797D01*
X50264938Y-68497598D01*
X50268862Y-68482253D01*
X50272152Y-68467833D01*
X50275459Y-68451928D01*
X50276123Y-68448569D01*
X50279078Y-68430929D01*
X50281082Y-68415979D01*
X50282765Y-68400286D01*
X50284127Y-68383848D01*
X50285169Y-68366666D01*
X50285890Y-68348740D01*
X50286291Y-68330070D01*
X50286381Y-68315579D01*
X50286197Y-68300264D01*
X50285643Y-68285188D01*
X50284720Y-68270348D01*
X50283427Y-68255747D01*
X50280797Y-68234290D01*
X50277335Y-68213367D01*
X50273043Y-68192979D01*
X50267920Y-68173126D01*
X50261966Y-68153807D01*
X50255182Y-68135023D01*
X50247566Y-68116773D01*
X50239120Y-68099057D01*
X50230049Y-68081989D01*
X50220560Y-68065681D01*
X50210652Y-68050133D01*
X50200326Y-68035344D01*
X50189581Y-68021316D01*
X50178417Y-68008047D01*
X50166834Y-67995539D01*
X50154834Y-67983790D01*
X50142414Y-67972801D01*
X50129576Y-67962572D01*
X50120785Y-67956175D01*
X50107438Y-67947271D01*
X50094187Y-67939242D01*
X50081034Y-67932090D01*
X50063646Y-67923915D01*
X50046429Y-67917298D01*
X50029385Y-67912237D01*
X50012512Y-67908734D01*
X49995811Y-67906788D01*
X49983398Y-67906350D01*
X49967654Y-67907097D01*
X49952297Y-67909338D01*
X49937326Y-67913073D01*
X49922742Y-67918302D01*
X49908544Y-67925026D01*
X49894732Y-67933243D01*
X49881307Y-67942955D01*
X49868268Y-67954160D01*
X49855616Y-67966860D01*
X49843349Y-67981054D01*
X49835387Y-67991346D01*
X49823548Y-68008164D01*
X49811799Y-68026882D01*
X49804017Y-68040416D01*
X49796275Y-68054795D01*
X49788572Y-68070017D01*
X49780910Y-68086084D01*
X49773288Y-68102996D01*
X49765706Y-68120752D01*
X49758164Y-68139352D01*
X49750662Y-68158796D01*
X49743200Y-68179085D01*
X49735779Y-68200218D01*
X49728397Y-68222196D01*
X49721055Y-68245018D01*
X49713754Y-68268684D01*
X49706137Y-68291938D01*
X49698676Y-68314531D01*
X49691368Y-68336463D01*
X49684216Y-68357733D01*
X49677218Y-68378343D01*
X49670374Y-68398291D01*
X49663685Y-68417578D01*
X49657151Y-68436204D01*
X49650771Y-68454169D01*
X49644545Y-68471472D01*
X49638475Y-68488115D01*
X49632558Y-68504096D01*
X49626797Y-68519416D01*
X49621190Y-68534075D01*
X49615737Y-68548073D01*
X49610439Y-68561409D01*
X49602362Y-68580521D01*
X49593931Y-68598976D01*
X49585146Y-68616774D01*
X49576007Y-68633915D01*
X49566513Y-68650399D01*
X49556665Y-68666227D01*
X49546463Y-68681397D01*
X49535907Y-68695911D01*
X49524996Y-68709767D01*
X49513732Y-68722967D01*
X49506025Y-68731402D01*
X49494024Y-68743187D01*
X49481515Y-68753813D01*
X49468496Y-68763280D01*
X49454969Y-68771588D01*
X49440933Y-68778736D01*
X49426388Y-68784725D01*
X49411335Y-68789555D01*
X49395773Y-68793226D01*
X49379702Y-68795738D01*
X49363122Y-68797090D01*
X49351786Y-68797348D01*
X49336562Y-68796825D01*
X49321389Y-68795258D01*
X49306268Y-68792647D01*
X49291198Y-68788990D01*
X49276180Y-68784289D01*
X49261214Y-68778543D01*
X49246299Y-68771752D01*
X49231435Y-68763917D01*
X49216623Y-68755037D01*
X49201863Y-68745112D01*
X49187154Y-68734143D01*
X49172496Y-68722129D01*
X49157891Y-68709070D01*
X49143336Y-68694966D01*
X49128833Y-68679818D01*
X49114382Y-68663625D01*
X49100128Y-68646675D01*
X49086218Y-68629255D01*
X49072651Y-68611366D01*
X49059427Y-68593008D01*
X49046547Y-68574180D01*
X49034011Y-68554883D01*
X49021818Y-68535117D01*
X49009968Y-68514881D01*
X48998462Y-68494176D01*
X48987299Y-68473001D01*
X48976480Y-68451357D01*
X48966004Y-68429243D01*
X48955872Y-68406660D01*
X48946083Y-68383608D01*
X48936638Y-68360086D01*
X48927536Y-68336095D01*
X48918885Y-68311929D01*
X48910792Y-68287975D01*
X48903257Y-68264233D01*
X48896281Y-68240703D01*
X48889862Y-68217384D01*
X48884002Y-68194278D01*
X48878699Y-68171383D01*
X48873955Y-68148700D01*
X48869769Y-68126228D01*
X48866141Y-68103969D01*
X48863072Y-68081921D01*
X48860560Y-68060085D01*
X48858607Y-68038461D01*
X48857211Y-68017049D01*
X48856374Y-67995849D01*
X48856095Y-67974860D01*
X48856465Y-67957962D01*
X48857576Y-67942578D01*
X48860210Y-67924420D01*
X48864159Y-67908953D01*
X48870948Y-67893402D01*
X48881810Y-67880290D01*
X48895635Y-67873232D01*
X48898227Y-67872644D01*
X48913502Y-67870075D01*
X48929512Y-67868136D01*
X48946260Y-67866829D01*
X48961201Y-67866211D01*
X48974064Y-67866050D01*
X48990767Y-67867628D01*
X49004831Y-67873295D01*
X49014250Y-67884597D01*
X49016929Y-67899023D01*
X49014758Y-67914125D01*
X49009235Y-67927965D01*
X49002183Y-67941429D01*
X48997145Y-67952512D01*
X48992908Y-67967504D01*
X48989452Y-67981088D01*
X48986605Y-67996604D01*
X48985403Y-68011831D01*
X48985055Y-68027983D01*
X48985551Y-68048859D01*
X48987039Y-68070547D01*
X48988582Y-68085456D01*
X48990565Y-68100726D01*
X48992989Y-68116357D01*
X48995854Y-68132348D01*
X48999160Y-68148700D01*
X49002907Y-68165412D01*
X49007094Y-68182485D01*
X49011723Y-68199919D01*
X49016792Y-68217714D01*
X49022301Y-68235869D01*
X49028252Y-68254384D01*
X49034643Y-68273261D01*
X49041475Y-68292498D01*
X49048630Y-68311700D01*
X49055987Y-68330565D01*
X49063547Y-68349092D01*
X49071311Y-68367282D01*
X49079278Y-68385134D01*
X49087448Y-68402647D01*
X49095822Y-68419824D01*
X49104398Y-68436662D01*
X49113178Y-68453163D01*
X49122161Y-68469326D01*
X49131348Y-68485151D01*
X49140737Y-68500638D01*
X49150330Y-68515788D01*
X49160126Y-68530600D01*
X49170125Y-68545074D01*
X49180327Y-68559211D01*
X49190547Y-68572742D01*
X49200689Y-68585400D01*
X49210754Y-68597185D01*
X49220742Y-68608098D01*
X49235579Y-68622829D01*
X49250242Y-68635596D01*
X49264730Y-68646400D01*
X49279045Y-68655238D01*
X49293187Y-68662113D01*
X49307154Y-68667024D01*
X49325506Y-68670516D01*
X49334567Y-68670952D01*
X49352422Y-68669753D01*
X49369579Y-68666158D01*
X49386039Y-68660165D01*
X49401800Y-68651775D01*
X49413908Y-68643337D01*
X49425568Y-68633365D01*
X49436782Y-68621859D01*
X49447596Y-68609019D01*
X49458054Y-68595046D01*
X49468158Y-68579939D01*
X49477907Y-68563699D01*
X49484985Y-68550775D01*
X49491864Y-68537213D01*
X49498544Y-68523014D01*
X49505024Y-68508178D01*
X49511304Y-68492703D01*
X49513353Y-68487404D01*
X49519536Y-68470692D01*
X49525996Y-68452705D01*
X49532734Y-68433443D01*
X49539748Y-68412906D01*
X49544578Y-68398506D01*
X49549531Y-68383539D01*
X49554607Y-68368006D01*
X49559806Y-68351906D01*
X49565129Y-68335239D01*
X49570574Y-68318006D01*
X49576143Y-68300206D01*
X49581834Y-68281839D01*
X49587649Y-68262905D01*
X49593586Y-68243405D01*
X49597886Y-68228845D01*
X49602222Y-68214521D01*
X49606593Y-68200432D01*
X49615443Y-68172960D01*
X49624436Y-68146430D01*
X49633572Y-68120842D01*
X49642852Y-68096196D01*
X49652274Y-68072491D01*
X49661840Y-68049727D01*
X49671548Y-68027906D01*
X49681400Y-68007026D01*
X49691395Y-67987088D01*
X49701533Y-67968091D01*
X49711814Y-67950036D01*
X49722238Y-67932923D01*
X49732806Y-67916751D01*
X49743516Y-67901522D01*
X49748925Y-67894260D01*
X49759940Y-67880418D01*
X49771279Y-67867469D01*
X49782941Y-67855414D01*
X49794926Y-67844251D01*
X49807235Y-67833981D01*
X49819868Y-67824605D01*
X49832824Y-67816121D01*
X49846103Y-67808531D01*
X49859706Y-67801833D01*
X49873632Y-67796028D01*
X49887881Y-67791117D01*
X49902454Y-67787098D01*
X49917351Y-67783973D01*
X49932571Y-67781740D01*
X49948114Y-67780401D01*
X49963981Y-67779954D01*
G37*
G36*
X49695066Y-66436543D02*
G01*
X49709234Y-66440621D01*
X49717784Y-66444190D01*
X49731231Y-66451763D01*
X49742658Y-66462177D01*
X49747459Y-66468736D01*
X49755960Y-66482718D01*
X49761400Y-66496338D01*
X49765727Y-66510523D01*
X49769746Y-66527026D01*
X49771639Y-66536147D01*
X49774498Y-66550636D01*
X49777314Y-66565164D01*
X49780028Y-66579687D01*
X49781898Y-66591468D01*
X49798264Y-66590782D01*
X49815550Y-66590052D01*
X49831641Y-66589365D01*
X49847183Y-66588678D01*
X49849675Y-66588538D01*
X49866283Y-66580729D01*
X49881064Y-66574778D01*
X49897172Y-66569091D01*
X49914609Y-66563667D01*
X49933373Y-66558507D01*
X49948319Y-66554809D01*
X49964011Y-66551260D01*
X49980450Y-66547858D01*
X49991824Y-66545673D01*
X50018048Y-66541082D01*
X50043779Y-66536468D01*
X50069018Y-66531831D01*
X50093765Y-66527172D01*
X50118020Y-66522489D01*
X50141782Y-66517783D01*
X50165052Y-66513055D01*
X50187829Y-66508304D01*
X50210114Y-66503530D01*
X50231907Y-66498732D01*
X50253208Y-66493913D01*
X50274016Y-66489070D01*
X50294332Y-66484204D01*
X50314156Y-66479315D01*
X50333488Y-66474404D01*
X50352327Y-66469469D01*
X50366913Y-66466303D01*
X50381820Y-66463212D01*
X50397287Y-66460292D01*
X50411678Y-66458478D01*
X50427148Y-66460482D01*
X50441044Y-66466492D01*
X50453366Y-66476510D01*
X50455642Y-66478995D01*
X50464497Y-66490909D01*
X50470937Y-66505506D01*
X50473799Y-66521534D01*
X50473960Y-66526622D01*
X50471527Y-66542393D01*
X50464228Y-66556733D01*
X50453499Y-66568415D01*
X50449047Y-66572051D01*
X50436957Y-66580684D01*
X50424231Y-66588698D01*
X50411180Y-66595496D01*
X50405083Y-66598063D01*
X50386702Y-66602774D01*
X50367829Y-66607382D01*
X50353350Y-66610771D01*
X50338595Y-66614101D01*
X50323563Y-66617374D01*
X50308254Y-66620589D01*
X50292668Y-66623745D01*
X50276806Y-66626844D01*
X50260666Y-66629885D01*
X50244249Y-66632868D01*
X50227316Y-66635863D01*
X50209765Y-66638943D01*
X50191596Y-66642106D01*
X50172808Y-66645353D01*
X50153402Y-66648683D01*
X50133378Y-66652097D01*
X50112736Y-66655595D01*
X50091475Y-66659177D01*
X50076958Y-66661611D01*
X50062166Y-66664083D01*
X50047100Y-66666592D01*
X50031758Y-66669138D01*
X50014275Y-66671916D01*
X49999349Y-66674512D01*
X49983587Y-66677440D01*
X49966988Y-66680700D01*
X49949555Y-66684292D01*
X49931285Y-66688216D01*
X49912180Y-66692472D01*
X49897302Y-66695882D01*
X49882769Y-66699254D01*
X49865195Y-66703338D01*
X49849682Y-66706953D01*
X49833189Y-66710812D01*
X49817647Y-66714474D01*
X49803028Y-66717987D01*
X49802048Y-66718230D01*
X49804107Y-66733021D01*
X49806438Y-66749274D01*
X49809041Y-66766990D01*
X49811917Y-66786168D01*
X49815064Y-66806809D01*
X49818483Y-66828913D01*
X49822173Y-66852479D01*
X49826136Y-66877507D01*
X49830371Y-66903999D01*
X49834877Y-66931953D01*
X49837233Y-66946478D01*
X49839656Y-66961369D01*
X49842147Y-66976626D01*
X49844706Y-66992248D01*
X49847333Y-67008236D01*
X49850028Y-67024590D01*
X49852792Y-67041309D01*
X49855623Y-67058394D01*
X49858522Y-67075845D01*
X49861489Y-67093661D01*
X49864524Y-67111843D01*
X49867627Y-67130390D01*
X49887411Y-67243963D01*
X50005013Y-67285729D01*
X50172442Y-67343981D01*
X50186627Y-67348474D01*
X50200608Y-67352886D01*
X50227952Y-67361469D01*
X50254475Y-67369728D01*
X50280176Y-67377663D01*
X50305056Y-67385275D01*
X50329114Y-67392564D01*
X50352351Y-67399529D01*
X50374767Y-67406171D01*
X50396361Y-67412489D01*
X50417133Y-67418484D01*
X50437084Y-67424156D01*
X50456214Y-67429504D01*
X50474522Y-67434528D01*
X50492009Y-67439230D01*
X50508674Y-67443607D01*
X50524518Y-67447662D01*
X50540066Y-67452058D01*
X50554468Y-67458286D01*
X50567726Y-67466346D01*
X50579839Y-67476238D01*
X50589937Y-67487550D01*
X50597848Y-67501917D01*
X50601815Y-67516148D01*
X50602920Y-67529727D01*
X50601674Y-67544369D01*
X50597366Y-67559209D01*
X50589982Y-67572547D01*
X50587166Y-67576256D01*
X50576068Y-67586495D01*
X50562465Y-67592942D01*
X50546358Y-67595597D01*
X50542836Y-67595673D01*
X50527243Y-67594093D01*
X50511430Y-67590834D01*
X50495558Y-67586761D01*
X50481095Y-67582614D01*
X50465064Y-67577676D01*
X50447464Y-67571949D01*
X50442819Y-67570394D01*
X50424981Y-67564412D01*
X50409022Y-67559105D01*
X50394940Y-67554474D01*
X50379977Y-67549635D01*
X50365895Y-67545222D01*
X50352693Y-67541451D01*
X50338703Y-67536024D01*
X50323792Y-67530602D01*
X50308474Y-67525198D01*
X50294326Y-67520295D01*
X50278495Y-67514876D01*
X50260981Y-67508943D01*
X50256339Y-67507379D01*
X50240715Y-67502226D01*
X50224479Y-67496796D01*
X50207630Y-67491089D01*
X50190171Y-67485105D01*
X50172099Y-67478845D01*
X50153415Y-67472307D01*
X50134120Y-67465492D01*
X50114213Y-67458401D01*
X50093694Y-67451032D01*
X50079675Y-67445966D01*
X50065384Y-67440777D01*
X50058136Y-67438136D01*
X50043963Y-67432964D01*
X50024162Y-67425732D01*
X50006113Y-67419131D01*
X49989815Y-67413161D01*
X49975269Y-67407822D01*
X49958600Y-67401686D01*
X49942142Y-67395593D01*
X49927276Y-67390008D01*
X49924780Y-67389043D01*
X49928575Y-67404897D01*
X49932267Y-67420170D01*
X49935856Y-67434864D01*
X49940482Y-67453554D01*
X49944924Y-67471214D01*
X49949183Y-67487844D01*
X49953259Y-67503443D01*
X49957151Y-67518012D01*
X49959951Y-67528262D01*
X49963814Y-67543108D01*
X49968373Y-67561220D01*
X49972257Y-67577409D01*
X49976162Y-67594940D01*
X49979012Y-67609466D01*
X49981228Y-67624753D01*
X49981566Y-67630844D01*
X49979827Y-67646171D01*
X49973817Y-67660482D01*
X49963513Y-67671931D01*
X49959584Y-67674808D01*
X49945559Y-67682536D01*
X49930962Y-67687401D01*
X49915792Y-67689405D01*
X49912690Y-67689462D01*
X49896503Y-67688216D01*
X49882120Y-67683908D01*
X49869867Y-67674678D01*
X49869092Y-67673709D01*
X49861127Y-67660973D01*
X49854486Y-67646090D01*
X49849586Y-67631916D01*
X49847843Y-67626081D01*
X49844271Y-67610957D01*
X49840699Y-67595671D01*
X49837127Y-67580225D01*
X49833555Y-67564618D01*
X49829983Y-67548849D01*
X49826411Y-67532920D01*
X49822839Y-67516830D01*
X49819267Y-67500578D01*
X49815695Y-67484166D01*
X49812123Y-67467593D01*
X49809741Y-67456454D01*
X49806288Y-67440175D01*
X49803074Y-67424997D01*
X49799158Y-67406473D01*
X49795666Y-67389906D01*
X49792598Y-67375298D01*
X49789358Y-67359790D01*
X49786344Y-67345218D01*
X49785195Y-67339584D01*
X49768335Y-67333951D01*
X49752100Y-67328729D01*
X49736492Y-67323919D01*
X49721510Y-67319520D01*
X49707155Y-67315533D01*
X49690754Y-67311291D01*
X49688108Y-67310642D01*
X49673042Y-67306108D01*
X49658581Y-67301615D01*
X49642928Y-67296631D01*
X49628563Y-67291968D01*
X49618499Y-67288660D01*
X49602266Y-67283336D01*
X49587656Y-67278742D01*
X49572062Y-67274005D01*
X49555485Y-67269125D01*
X49537923Y-67264102D01*
X49523166Y-67259980D01*
X49515551Y-67257885D01*
X49406741Y-67226378D01*
X49389142Y-67221474D01*
X49372022Y-67216699D01*
X49355379Y-67212054D01*
X49339215Y-67207539D01*
X49323529Y-67203153D01*
X49308320Y-67198896D01*
X49293590Y-67194769D01*
X49279337Y-67190772D01*
X49252267Y-67183165D01*
X49227108Y-67176077D01*
X49203861Y-67169507D01*
X49182526Y-67163455D01*
X49163103Y-67157921D01*
X49145592Y-67152905D01*
X49129992Y-67148407D01*
X49110179Y-67142631D01*
X49094667Y-67138021D01*
X49080676Y-67133688D01*
X49065770Y-67128329D01*
X49050588Y-67122192D01*
X49037086Y-67115939D01*
X49029019Y-67111706D01*
X49017338Y-67102426D01*
X49010126Y-67088945D01*
X49008503Y-67076535D01*
X49008966Y-67060551D01*
X49010357Y-67045571D01*
X49013152Y-67029365D01*
X49017210Y-67014526D01*
X49021692Y-67002896D01*
X49008503Y-66995568D01*
X48997603Y-66984669D01*
X48995552Y-66980914D01*
X49086905Y-66980914D01*
X49129036Y-66998499D01*
X49144017Y-67005688D01*
X49158733Y-67012556D01*
X49173186Y-67019101D01*
X49187374Y-67025324D01*
X49201299Y-67031225D01*
X49214959Y-67036804D01*
X49232762Y-67043742D01*
X49250096Y-67050108D01*
X49266960Y-67055901D01*
X49275216Y-67058583D01*
X49295068Y-67065017D01*
X49316340Y-67071864D01*
X49339032Y-67079122D01*
X49363143Y-67086793D01*
X49388674Y-67094876D01*
X49415625Y-67103371D01*
X49429633Y-67107773D01*
X49443995Y-67112278D01*
X49458713Y-67116886D01*
X49473785Y-67121598D01*
X49489213Y-67126412D01*
X49504995Y-67131329D01*
X49521132Y-67136349D01*
X49537624Y-67141473D01*
X49554471Y-67146699D01*
X49571673Y-67152029D01*
X49589230Y-67157461D01*
X49607142Y-67162997D01*
X49625409Y-67168635D01*
X49644030Y-67174377D01*
X49663007Y-67180222D01*
X49682338Y-67186169D01*
X49702024Y-67192220D01*
X49722066Y-67198374D01*
X49742462Y-67204631D01*
X49763213Y-67210990D01*
X49723646Y-66986043D01*
X49691772Y-66786741D01*
X49685544Y-66743143D01*
X49669570Y-66747576D01*
X49652537Y-66752245D01*
X49635535Y-66756882D01*
X49620815Y-66760885D01*
X49604408Y-66765340D01*
X49586314Y-66770245D01*
X49566533Y-66775601D01*
X49545064Y-66781408D01*
X49537533Y-66783443D01*
X49522460Y-66787549D01*
X49507743Y-66791624D01*
X49493380Y-66795666D01*
X49472502Y-66801672D01*
X49452422Y-66807606D01*
X49433140Y-66813470D01*
X49414658Y-66819263D01*
X49396973Y-66824985D01*
X49380088Y-66830636D01*
X49364000Y-66836216D01*
X49348712Y-66841725D01*
X49338963Y-66845359D01*
X49324303Y-66850927D01*
X49309584Y-66856779D01*
X49294807Y-66862914D01*
X49279973Y-66869333D01*
X49265080Y-66876035D01*
X49250130Y-66883020D01*
X49235121Y-66890289D01*
X49220055Y-66897841D01*
X49204931Y-66905676D01*
X49189748Y-66913795D01*
X49179595Y-66919364D01*
X49164960Y-66927500D01*
X49151555Y-66935147D01*
X49135595Y-66944581D01*
X49121822Y-66953144D01*
X49107681Y-66962626D01*
X49095222Y-66972208D01*
X49086905Y-66980914D01*
X48995552Y-66980914D01*
X48990551Y-66971755D01*
X48986606Y-66956910D01*
X48985141Y-66941701D01*
X48985055Y-66936584D01*
X48988211Y-66919616D01*
X48995662Y-66905162D01*
X49004778Y-66893393D01*
X49016699Y-66881440D01*
X49031425Y-66869304D01*
X49044310Y-66860082D01*
X49058774Y-66850757D01*
X49074815Y-66841329D01*
X49091899Y-66831885D01*
X49109492Y-66822511D01*
X49127594Y-66813209D01*
X49146204Y-66803977D01*
X49165323Y-66794816D01*
X49184951Y-66785726D01*
X49198319Y-66779705D01*
X49211914Y-66773716D01*
X49225734Y-66767758D01*
X49239780Y-66761832D01*
X49254053Y-66755937D01*
X49268551Y-66750074D01*
X49283276Y-66744242D01*
X49297064Y-66739096D01*
X49312050Y-66733685D01*
X49328233Y-66728010D01*
X49345615Y-66722072D01*
X49364194Y-66715869D01*
X49383972Y-66709402D01*
X49404947Y-66702671D01*
X49419596Y-66698037D01*
X49434777Y-66693286D01*
X49450490Y-66688417D01*
X49466736Y-66683431D01*
X49483515Y-66678328D01*
X49492103Y-66675732D01*
X49509009Y-66670636D01*
X49525105Y-66665789D01*
X49540391Y-66661191D01*
X49554866Y-66656842D01*
X49575061Y-66650785D01*
X49593433Y-66645288D01*
X49609983Y-66640352D01*
X49624710Y-66635976D01*
X49641511Y-66631013D01*
X49657957Y-66626210D01*
X49665394Y-66624075D01*
X49662903Y-66608962D01*
X49659459Y-66593850D01*
X49655502Y-66580111D01*
X49650728Y-66565617D01*
X49645976Y-66551535D01*
X49638821Y-66538655D01*
X49632055Y-66529553D01*
X49623162Y-66517027D01*
X49615719Y-66504179D01*
X49614836Y-66502442D01*
X49611813Y-66487238D01*
X49615630Y-66472432D01*
X49616667Y-66470202D01*
X49625102Y-66456498D01*
X49636623Y-66446159D01*
X49651229Y-66439187D01*
X49666204Y-66435890D01*
X49680415Y-66435031D01*
X49695066Y-66436543D01*
G37*
G36*
X49129403Y-65038084D02*
G01*
X49148535Y-65038134D01*
X49167831Y-65038284D01*
X49187290Y-65038535D01*
X49206912Y-65038885D01*
X49226697Y-65039336D01*
X49246645Y-65039887D01*
X49266757Y-65040538D01*
X49287031Y-65041290D01*
X49307469Y-65042141D01*
X49328070Y-65043093D01*
X49348834Y-65044145D01*
X49369761Y-65045297D01*
X49390851Y-65046549D01*
X49412104Y-65047901D01*
X49433521Y-65049354D01*
X49455101Y-65050907D01*
X49476606Y-65052472D01*
X49497799Y-65054055D01*
X49518681Y-65055655D01*
X49539250Y-65057272D01*
X49559507Y-65058907D01*
X49579453Y-65060558D01*
X49599086Y-65062227D01*
X49618408Y-65063913D01*
X49637417Y-65065616D01*
X49656114Y-65067336D01*
X49674500Y-65069073D01*
X49692573Y-65070828D01*
X49710335Y-65072599D01*
X49727784Y-65074388D01*
X49744922Y-65076194D01*
X49761748Y-65078018D01*
X49783455Y-65080112D01*
X49798155Y-65081697D01*
X49813039Y-65083435D01*
X49828105Y-65085324D01*
X49843355Y-65087365D01*
X49858788Y-65089557D01*
X49874405Y-65091901D01*
X49890204Y-65094397D01*
X49906187Y-65097045D01*
X49922353Y-65099844D01*
X49938702Y-65102795D01*
X49955234Y-65105897D01*
X49971949Y-65109152D01*
X49988848Y-65112558D01*
X50005929Y-65116116D01*
X50014539Y-65117951D01*
X50031664Y-65121672D01*
X50048508Y-65125508D01*
X50065071Y-65129457D01*
X50081355Y-65133522D01*
X50097357Y-65137701D01*
X50113079Y-65141994D01*
X50128521Y-65146402D01*
X50143682Y-65150924D01*
X50158563Y-65155561D01*
X50173163Y-65160312D01*
X50187483Y-65165178D01*
X50201522Y-65170158D01*
X50215281Y-65175253D01*
X50235393Y-65183110D01*
X50254874Y-65191224D01*
X50273075Y-65199470D01*
X50289487Y-65207857D01*
X50304108Y-65216385D01*
X50316938Y-65225056D01*
X50331261Y-65236837D01*
X50342401Y-65248869D01*
X50351850Y-65264265D01*
X50356325Y-65280053D01*
X50356723Y-65286479D01*
X50351972Y-65301954D01*
X50340337Y-65315358D01*
X50328702Y-65324365D01*
X50313965Y-65333430D01*
X50300876Y-65340266D01*
X50286041Y-65347134D01*
X50269461Y-65354034D01*
X50257438Y-65358653D01*
X50238072Y-65365765D01*
X50217206Y-65373224D01*
X50202461Y-65378391D01*
X50187049Y-65383711D01*
X50170971Y-65389187D01*
X50154225Y-65394817D01*
X50136813Y-65400601D01*
X50118734Y-65406540D01*
X50099988Y-65412634D01*
X50080575Y-65418882D01*
X50060495Y-65425285D01*
X50039748Y-65431843D01*
X50018334Y-65438554D01*
X49996254Y-65445421D01*
X49973506Y-65452442D01*
X49854438Y-65488346D01*
X49839129Y-65493007D01*
X49823795Y-65497739D01*
X49808435Y-65502544D01*
X49793049Y-65507419D01*
X49777637Y-65512367D01*
X49762200Y-65517386D01*
X49746737Y-65522476D01*
X49731248Y-65527638D01*
X49715733Y-65532872D01*
X49700193Y-65538177D01*
X49684626Y-65543554D01*
X49669035Y-65549002D01*
X49653417Y-65554522D01*
X49637773Y-65560113D01*
X49622104Y-65565776D01*
X49606409Y-65571510D01*
X49591096Y-65577102D01*
X49576573Y-65582427D01*
X49556270Y-65589915D01*
X49537744Y-65596805D01*
X49520996Y-65603096D01*
X49506025Y-65608788D01*
X49488829Y-65615445D01*
X49474793Y-65621038D01*
X49459663Y-65627431D01*
X49456200Y-65629030D01*
X49737201Y-65710729D01*
X49763639Y-65718449D01*
X49789554Y-65726037D01*
X49814947Y-65733495D01*
X49839818Y-65740822D01*
X49864166Y-65748018D01*
X49887992Y-65755083D01*
X49911295Y-65762017D01*
X49934076Y-65768820D01*
X49956335Y-65775493D01*
X49978071Y-65782034D01*
X49999285Y-65788444D01*
X50019977Y-65794723D01*
X50040147Y-65800872D01*
X50059794Y-65806889D01*
X50078918Y-65812776D01*
X50097520Y-65818531D01*
X50115600Y-65824156D01*
X50133158Y-65829650D01*
X50150193Y-65835012D01*
X50166706Y-65840244D01*
X50182697Y-65845345D01*
X50198165Y-65850315D01*
X50213111Y-65855154D01*
X50227534Y-65859862D01*
X50254814Y-65868885D01*
X50280004Y-65877384D01*
X50303105Y-65885360D01*
X50324117Y-65892812D01*
X50338456Y-65898708D01*
X50352603Y-65904017D01*
X50355990Y-65905268D01*
X50370844Y-65912136D01*
X50383670Y-65921613D01*
X50394466Y-65933698D01*
X50399588Y-65941538D01*
X50406480Y-65955643D01*
X50411403Y-65971580D01*
X50414095Y-65987028D01*
X50415280Y-66003877D01*
X50415341Y-66008949D01*
X50404143Y-66020906D01*
X50390145Y-66027609D01*
X50374915Y-66033319D01*
X50356102Y-66039339D01*
X50339640Y-66044056D01*
X50321163Y-66048947D01*
X50300669Y-66054012D01*
X50286264Y-66057447D01*
X50271715Y-66060881D01*
X50257023Y-66064316D01*
X50242189Y-66067751D01*
X50227211Y-66071185D01*
X50212089Y-66074620D01*
X50196825Y-66078055D01*
X50181418Y-66081489D01*
X50165867Y-66084924D01*
X50150174Y-66088359D01*
X50134337Y-66091793D01*
X50118357Y-66095228D01*
X50102235Y-66098663D01*
X50085969Y-66102097D01*
X50069559Y-66105532D01*
X50053007Y-66108967D01*
X50034373Y-66113253D01*
X50016298Y-66117412D01*
X49998781Y-66121442D01*
X49981824Y-66125344D01*
X49965425Y-66129119D01*
X49949585Y-66132765D01*
X49934304Y-66136283D01*
X49919582Y-66139673D01*
X49891814Y-66146068D01*
X49866282Y-66151952D01*
X49842985Y-66157322D01*
X49821923Y-66162181D01*
X49803097Y-66166527D01*
X49786506Y-66170361D01*
X49772150Y-66173683D01*
X49754808Y-66177705D01*
X49739510Y-66181274D01*
X49733904Y-66182606D01*
X49708440Y-66188897D01*
X49683798Y-66195039D01*
X49659977Y-66201033D01*
X49636978Y-66206878D01*
X49614800Y-66212573D01*
X49593443Y-66218120D01*
X49572908Y-66223519D01*
X49553195Y-66228768D01*
X49534303Y-66233868D01*
X49516232Y-66238820D01*
X49498983Y-66243623D01*
X49482555Y-66248277D01*
X49466949Y-66252782D01*
X49452164Y-66257138D01*
X49431527Y-66263394D01*
X49425059Y-66265404D01*
X49406690Y-66271300D01*
X49389776Y-66277035D01*
X49374318Y-66282609D01*
X49360315Y-66288022D01*
X49343909Y-66294988D01*
X49330090Y-66301669D01*
X49316455Y-66309617D01*
X49304159Y-66319993D01*
X49294381Y-66331602D01*
X49282222Y-66342937D01*
X49269599Y-66351438D01*
X49254287Y-66357774D01*
X49238344Y-66360253D01*
X49236015Y-66360293D01*
X49221615Y-66357219D01*
X49208448Y-66349090D01*
X49197864Y-66338929D01*
X49193883Y-66334281D01*
X49184586Y-66320794D01*
X49177946Y-66306345D01*
X49173962Y-66290935D01*
X49172634Y-66274563D01*
X49173027Y-66258742D01*
X49174369Y-66243406D01*
X49176664Y-66230233D01*
X49183065Y-66215858D01*
X49194158Y-66204895D01*
X49199745Y-66201290D01*
X49217204Y-66192841D01*
X49236745Y-66185392D01*
X49252843Y-66179897D01*
X49271395Y-66173978D01*
X49292404Y-66167635D01*
X49315869Y-66160869D01*
X49341789Y-66153679D01*
X49370165Y-66146065D01*
X49385274Y-66142100D01*
X49400997Y-66138028D01*
X49417334Y-66133851D01*
X49434284Y-66129568D01*
X49451849Y-66125178D01*
X49470028Y-66120683D01*
X49488821Y-66116082D01*
X49508227Y-66111375D01*
X49528248Y-66106562D01*
X49548882Y-66101644D01*
X49570130Y-66096619D01*
X49591993Y-66091489D01*
X49614469Y-66086252D01*
X49630108Y-66081764D01*
X49646610Y-66077386D01*
X49662847Y-66073299D01*
X49677854Y-66069657D01*
X49694203Y-66065800D01*
X49697634Y-66065003D01*
X49720516Y-66059563D01*
X49743000Y-66054235D01*
X49765086Y-66049019D01*
X49786775Y-66043914D01*
X49808065Y-66038921D01*
X49828958Y-66034039D01*
X49849453Y-66029270D01*
X49869550Y-66024611D01*
X49889250Y-66020065D01*
X49908551Y-66015630D01*
X49927454Y-66011306D01*
X49945960Y-66007095D01*
X49964068Y-66002994D01*
X49981778Y-65999006D01*
X49999090Y-65995129D01*
X50016004Y-65991364D01*
X50032817Y-65987236D01*
X50049183Y-65983281D01*
X50065103Y-65979497D01*
X50080576Y-65975885D01*
X50095603Y-65972444D01*
X50110183Y-65969176D01*
X50127780Y-65965332D01*
X50138004Y-65963154D01*
X50153787Y-65959893D01*
X50169964Y-65957042D01*
X50185029Y-65955181D01*
X50200413Y-65955445D01*
X50202850Y-65956193D01*
X50186187Y-65955602D01*
X50168595Y-65951613D01*
X50150014Y-65946747D01*
X50133448Y-65942121D01*
X50114628Y-65936658D01*
X50093554Y-65930358D01*
X50078253Y-65925692D01*
X50070226Y-65923220D01*
X50043553Y-65914643D01*
X50017390Y-65906316D01*
X49991736Y-65898237D01*
X49966591Y-65890408D01*
X49941956Y-65882827D01*
X49917830Y-65875495D01*
X49894214Y-65868413D01*
X49871107Y-65861579D01*
X49848510Y-65854995D01*
X49826422Y-65848659D01*
X49804844Y-65842573D01*
X49783775Y-65836735D01*
X49763216Y-65831147D01*
X49743166Y-65825807D01*
X49723626Y-65820717D01*
X49704595Y-65815875D01*
X49685654Y-65810862D01*
X49667117Y-65805898D01*
X49648983Y-65800982D01*
X49631253Y-65796115D01*
X49613927Y-65791296D01*
X49597004Y-65786526D01*
X49580485Y-65781805D01*
X49564369Y-65777132D01*
X49548657Y-65772508D01*
X49533348Y-65767933D01*
X49518443Y-65763406D01*
X49503942Y-65758929D01*
X49489844Y-65754499D01*
X49469454Y-65747947D01*
X49449972Y-65741503D01*
X49431529Y-65735234D01*
X49414393Y-65729203D01*
X49398564Y-65723410D01*
X49384043Y-65717856D01*
X49366715Y-65710820D01*
X49351712Y-65704209D01*
X49336225Y-65696540D01*
X49322435Y-65688211D01*
X49320645Y-65686915D01*
X49309744Y-65675880D01*
X49300584Y-65663744D01*
X49292953Y-65651109D01*
X49291336Y-65648080D01*
X49284960Y-65634331D01*
X49280323Y-65619190D01*
X49278263Y-65604192D01*
X49278147Y-65599720D01*
X49280203Y-65585158D01*
X49287684Y-65572111D01*
X49290603Y-65569312D01*
X49302743Y-65559974D01*
X49316492Y-65552568D01*
X49318447Y-65551727D01*
X49331745Y-65545442D01*
X49344092Y-65538904D01*
X49359768Y-65531417D01*
X49375594Y-65524539D01*
X49389378Y-65518863D01*
X49404805Y-65512741D01*
X49421875Y-65506176D01*
X49440586Y-65499166D01*
X49460940Y-65491712D01*
X49475421Y-65486495D01*
X49490632Y-65481081D01*
X49506573Y-65475470D01*
X49523244Y-65469661D01*
X49540219Y-65463788D01*
X49557162Y-65457983D01*
X49574073Y-65452247D01*
X49590953Y-65446580D01*
X49607802Y-65440982D01*
X49624619Y-65435452D01*
X49641404Y-65429991D01*
X49658158Y-65424598D01*
X49674881Y-65419275D01*
X49691572Y-65414019D01*
X49708231Y-65408833D01*
X49724859Y-65403715D01*
X49741456Y-65398667D01*
X49758021Y-65393686D01*
X49774555Y-65388775D01*
X49791057Y-65383932D01*
X49888510Y-65354623D01*
X49902987Y-65350454D01*
X49917110Y-65346375D01*
X49944294Y-65338485D01*
X49970061Y-65330954D01*
X49994412Y-65323779D01*
X50017345Y-65316963D01*
X50038862Y-65310504D01*
X50058962Y-65304404D01*
X50077645Y-65298661D01*
X50094912Y-65293275D01*
X50110761Y-65288248D01*
X50125194Y-65283578D01*
X50144186Y-65277244D01*
X50159991Y-65271716D01*
X50176106Y-65265596D01*
X50159990Y-65258259D01*
X50142142Y-65251176D01*
X50122563Y-65244348D01*
X50101253Y-65237775D01*
X50078210Y-65231457D01*
X50053437Y-65225393D01*
X50026931Y-65219585D01*
X49998694Y-65214030D01*
X49983926Y-65211349D01*
X49968725Y-65208731D01*
X49953091Y-65206177D01*
X49937024Y-65203686D01*
X49920525Y-65201260D01*
X49903592Y-65198896D01*
X49886227Y-65196597D01*
X49868428Y-65194361D01*
X49850197Y-65192189D01*
X49831533Y-65190081D01*
X49812436Y-65188036D01*
X49792906Y-65186055D01*
X49772943Y-65184138D01*
X49752547Y-65182284D01*
X49731718Y-65180494D01*
X49710457Y-65178768D01*
X49693778Y-65177038D01*
X49676259Y-65175419D01*
X49657898Y-65173912D01*
X49638695Y-65172517D01*
X49618651Y-65171233D01*
X49597765Y-65170061D01*
X49576038Y-65169000D01*
X49553469Y-65168052D01*
X49530059Y-65167214D01*
X49505808Y-65166489D01*
X49480715Y-65165875D01*
X49454780Y-65165373D01*
X49428004Y-65164982D01*
X49400386Y-65164703D01*
X49371927Y-65164535D01*
X49342627Y-65164480D01*
X49129403Y-65164480D01*
X49113457Y-65163813D01*
X49098459Y-65161509D01*
X49084240Y-65156572D01*
X49083241Y-65156053D01*
X49072804Y-65145584D01*
X49068128Y-65131530D01*
X49067121Y-65118318D01*
X49068599Y-65102801D01*
X49073033Y-65087573D01*
X49079456Y-65074281D01*
X49085806Y-65064462D01*
X49095400Y-65052922D01*
X49107233Y-65043880D01*
X49121673Y-65038728D01*
X49129403Y-65038084D01*
G37*
G36*
X48143866Y-69322121D02*
G01*
X48158909Y-69323083D01*
X48175013Y-69326464D01*
X48190246Y-69332279D01*
X48199919Y-69337508D01*
X48212139Y-69346450D01*
X48221644Y-69358717D01*
X48225198Y-69373778D01*
X48223946Y-69395472D01*
X48221719Y-69412211D01*
X48218379Y-69430769D01*
X48213925Y-69451148D01*
X48208358Y-69473348D01*
X48201678Y-69497368D01*
X48193884Y-69523208D01*
X48184977Y-69550868D01*
X48180106Y-69565381D01*
X48174956Y-69580349D01*
X48169528Y-69595772D01*
X48163822Y-69611650D01*
X48157837Y-69627984D01*
X48151575Y-69644772D01*
X48145033Y-69662015D01*
X48138214Y-69679714D01*
X48131116Y-69697868D01*
X48123739Y-69716476D01*
X48116085Y-69735540D01*
X48108152Y-69755059D01*
X48099940Y-69775033D01*
X48091451Y-69795462D01*
X48082683Y-69816346D01*
X48057404Y-69873133D01*
X48051227Y-69887807D01*
X48045245Y-69902064D01*
X48039457Y-69915903D01*
X48031141Y-69935878D01*
X48023263Y-69954912D01*
X48015823Y-69973006D01*
X48008820Y-69990160D01*
X48002256Y-70006374D01*
X47996129Y-70021648D01*
X47990440Y-70035981D01*
X47983537Y-70053629D01*
X47981933Y-70057780D01*
X47975813Y-70073860D01*
X47970094Y-70089311D01*
X47964776Y-70104131D01*
X47959859Y-70118322D01*
X47954276Y-70135175D01*
X47949319Y-70151044D01*
X47944988Y-70165930D01*
X47944197Y-70168789D01*
X47959493Y-70168801D01*
X47974516Y-70168837D01*
X47989266Y-70168898D01*
X48017946Y-70169093D01*
X48045532Y-70169385D01*
X48072024Y-70169774D01*
X48097424Y-70170261D01*
X48121730Y-70170845D01*
X48144942Y-70171526D01*
X48167062Y-70172304D01*
X48188088Y-70173180D01*
X48208020Y-70174153D01*
X48226859Y-70175224D01*
X48244605Y-70176392D01*
X48261257Y-70177657D01*
X48276816Y-70179019D01*
X48298105Y-70181245D01*
X48314866Y-70186178D01*
X48329979Y-70191498D01*
X48347564Y-70199191D01*
X48362219Y-70207572D01*
X48373942Y-70216639D01*
X48384475Y-70228940D01*
X48391070Y-70245117D01*
X48391894Y-70253785D01*
X48390292Y-70268847D01*
X48385487Y-70283302D01*
X48378339Y-70295917D01*
X48368102Y-70306972D01*
X48354269Y-70313799D01*
X48342069Y-70315334D01*
X48326677Y-70315103D01*
X48309353Y-70314407D01*
X48293441Y-70313473D01*
X48276187Y-70312218D01*
X48261418Y-70310981D01*
X48245791Y-70309538D01*
X48237655Y-70308740D01*
X48220997Y-70307098D01*
X48204636Y-70305563D01*
X48188573Y-70304133D01*
X48172808Y-70302809D01*
X48157341Y-70301592D01*
X48142171Y-70300480D01*
X48127299Y-70299473D01*
X48105549Y-70298163D01*
X48084469Y-70297091D01*
X48064058Y-70296257D01*
X48044317Y-70295661D01*
X48025246Y-70295304D01*
X48006845Y-70295184D01*
X47924413Y-70295184D01*
X47915885Y-70307251D01*
X47906088Y-70318637D01*
X47898401Y-70325959D01*
X47885238Y-70334224D01*
X47870111Y-70337860D01*
X47865429Y-70338049D01*
X47850418Y-70336620D01*
X47835426Y-70331803D01*
X47825129Y-70325959D01*
X47812283Y-70316685D01*
X47800674Y-70307000D01*
X47793621Y-70300314D01*
X47782582Y-70289596D01*
X47774937Y-70283094D01*
X47757278Y-70282347D01*
X47738883Y-70281843D01*
X47721758Y-70281517D01*
X47702493Y-70281259D01*
X47686639Y-70281111D01*
X47669580Y-70281001D01*
X47651317Y-70280931D01*
X47631850Y-70280898D01*
X47625094Y-70280896D01*
X47608027Y-70280970D01*
X47590897Y-70281192D01*
X47573706Y-70281563D01*
X47556452Y-70282081D01*
X47539136Y-70282748D01*
X47521758Y-70283562D01*
X47504317Y-70284525D01*
X47486814Y-70285636D01*
X47469249Y-70286895D01*
X47451622Y-70288302D01*
X47433932Y-70289857D01*
X47416180Y-70291561D01*
X47398366Y-70293412D01*
X47380490Y-70295412D01*
X47362551Y-70297560D01*
X47344550Y-70299856D01*
X47326487Y-70302300D01*
X47308362Y-70304892D01*
X47290174Y-70307632D01*
X47271924Y-70310520D01*
X47253612Y-70313557D01*
X47235238Y-70316741D01*
X47216801Y-70320074D01*
X47198302Y-70323555D01*
X47179741Y-70327184D01*
X47161118Y-70330961D01*
X47142432Y-70334886D01*
X47123684Y-70338959D01*
X47104874Y-70343181D01*
X47086002Y-70347550D01*
X47067067Y-70352068D01*
X47048070Y-70356734D01*
X47004473Y-70365526D01*
X46989125Y-70364141D01*
X46973647Y-70359167D01*
X46960366Y-70350574D01*
X46949283Y-70338364D01*
X46948053Y-70336584D01*
X46940344Y-70323428D01*
X46934529Y-70309606D01*
X46930607Y-70295118D01*
X46928578Y-70279963D01*
X46928269Y-70271004D01*
X46932844Y-70256894D01*
X46944050Y-70245302D01*
X46958524Y-70235997D01*
X46973465Y-70228784D01*
X46991394Y-70221777D01*
X47006801Y-70216657D01*
X47023890Y-70211653D01*
X47042153Y-70206804D01*
X47061220Y-70202148D01*
X47081093Y-70197685D01*
X47101771Y-70193415D01*
X47123254Y-70189339D01*
X47138023Y-70186728D01*
X47153150Y-70184204D01*
X47168634Y-70181765D01*
X47184477Y-70179413D01*
X47200677Y-70177146D01*
X47217235Y-70174965D01*
X47234150Y-70172870D01*
X47251424Y-70170860D01*
X47260195Y-70169888D01*
X47277786Y-70168025D01*
X47295389Y-70166281D01*
X47313003Y-70164659D01*
X47330628Y-70163156D01*
X47348265Y-70161773D01*
X47365914Y-70160511D01*
X47383574Y-70159369D01*
X47401245Y-70158347D01*
X47418928Y-70157446D01*
X47436622Y-70156664D01*
X47454328Y-70156003D01*
X47472045Y-70155462D01*
X47489774Y-70155042D01*
X47507514Y-70154741D01*
X47525265Y-70154561D01*
X47543028Y-70154501D01*
X47654036Y-70154501D01*
X47642908Y-70144448D01*
X47629302Y-70132236D01*
X47614733Y-70119181D01*
X47601658Y-70107474D01*
X47586741Y-70094125D01*
X47575773Y-70084314D01*
X47563986Y-70073772D01*
X47551381Y-70062501D01*
X47537957Y-70050499D01*
X47530938Y-70044225D01*
X47516696Y-70031465D01*
X47502453Y-70018740D01*
X47488211Y-70006049D01*
X47473968Y-69993392D01*
X47459726Y-69980769D01*
X47445484Y-69968181D01*
X47431241Y-69955628D01*
X47416999Y-69943108D01*
X47402756Y-69930623D01*
X47388514Y-69918173D01*
X47374272Y-69905756D01*
X47360029Y-69893374D01*
X47345787Y-69881027D01*
X47331544Y-69868714D01*
X47317302Y-69856435D01*
X47303060Y-69844190D01*
X47290941Y-69834028D01*
X47278902Y-69824013D01*
X47266944Y-69814144D01*
X47255066Y-69804422D01*
X47243268Y-69794847D01*
X47231550Y-69785419D01*
X47219912Y-69776137D01*
X47208354Y-69767002D01*
X47185479Y-69749171D01*
X47162925Y-69731928D01*
X47140691Y-69715271D01*
X47118778Y-69699201D01*
X47097186Y-69683718D01*
X47075914Y-69668822D01*
X47054962Y-69654512D01*
X47034331Y-69640789D01*
X47014021Y-69627653D01*
X46994031Y-69615104D01*
X46974362Y-69603141D01*
X46955013Y-69591765D01*
X46941345Y-69584407D01*
X46926441Y-69576531D01*
X46910304Y-69568136D01*
X46896505Y-69561046D01*
X46881916Y-69553624D01*
X46866538Y-69545870D01*
X46850369Y-69537785D01*
X46846203Y-69535711D01*
X46829288Y-69527394D01*
X46814627Y-69519660D01*
X46799474Y-69510814D01*
X46785941Y-69501403D01*
X46775157Y-69489750D01*
X46774030Y-69485519D01*
X46777945Y-69470453D01*
X46789692Y-69459691D01*
X46803641Y-69454444D01*
X46818630Y-69451922D01*
X46836678Y-69451081D01*
X46852346Y-69451385D01*
X46867842Y-69452295D01*
X46883166Y-69453812D01*
X46898319Y-69455935D01*
X46913299Y-69458666D01*
X46928109Y-69462003D01*
X46942746Y-69465948D01*
X46957212Y-69470498D01*
X46971614Y-69475525D01*
X46986246Y-69481077D01*
X47001107Y-69487157D01*
X47016196Y-69493763D01*
X47031515Y-69500895D01*
X47047062Y-69508555D01*
X47062839Y-69516740D01*
X47078845Y-69525453D01*
X47091838Y-69532895D01*
X47104805Y-69540474D01*
X47117746Y-69548191D01*
X47130662Y-69556045D01*
X47143552Y-69564036D01*
X47156416Y-69572165D01*
X47169255Y-69580431D01*
X47182068Y-69588834D01*
X47194855Y-69597375D01*
X47207616Y-69606053D01*
X47220351Y-69614869D01*
X47233061Y-69623822D01*
X47245745Y-69632912D01*
X47258403Y-69642140D01*
X47271036Y-69651505D01*
X47283642Y-69661008D01*
X47296293Y-69670695D01*
X47309150Y-69680706D01*
X47322213Y-69691040D01*
X47335483Y-69701697D01*
X47348958Y-69712678D01*
X47362640Y-69723982D01*
X47376527Y-69735610D01*
X47390621Y-69747561D01*
X47404920Y-69759836D01*
X47419426Y-69772434D01*
X47434138Y-69785356D01*
X47449056Y-69798601D01*
X47464180Y-69812169D01*
X47479510Y-69826061D01*
X47495046Y-69840276D01*
X47510788Y-69854815D01*
X47522220Y-69865639D01*
X47533251Y-69876132D01*
X47543881Y-69886293D01*
X47556605Y-69898527D01*
X47568704Y-69910243D01*
X47580176Y-69921440D01*
X47591022Y-69932117D01*
X47603442Y-69944323D01*
X47615425Y-69955937D01*
X47626970Y-69966958D01*
X47638077Y-69977386D01*
X47650481Y-69988804D01*
X47652205Y-69990369D01*
X47665752Y-70003710D01*
X47678915Y-70016622D01*
X47691695Y-70029104D01*
X47704091Y-70041157D01*
X47716104Y-70052780D01*
X47727733Y-70063974D01*
X47738979Y-70074739D01*
X47749841Y-70085075D01*
X47765415Y-70099773D01*
X47780126Y-70113505D01*
X47793974Y-70126271D01*
X47806959Y-70138071D01*
X47819081Y-70148906D01*
X47822930Y-70152302D01*
X47828755Y-70136460D01*
X47833975Y-70122152D01*
X47839259Y-70107641D01*
X47845527Y-70090405D01*
X47850874Y-70075689D01*
X47856775Y-70059441D01*
X47863230Y-70041660D01*
X47870130Y-70022520D01*
X47877364Y-70002329D01*
X47882373Y-69988286D01*
X47887531Y-69973776D01*
X47892837Y-69958799D01*
X47898293Y-69943356D01*
X47903897Y-69927446D01*
X47909650Y-69911070D01*
X47915552Y-69894227D01*
X47921603Y-69876918D01*
X47927802Y-69859142D01*
X47934151Y-69840900D01*
X47940648Y-69822191D01*
X47947294Y-69803016D01*
X47954089Y-69783374D01*
X47959019Y-69769505D01*
X47966183Y-69749243D01*
X47973071Y-69729632D01*
X47979682Y-69710672D01*
X47986015Y-69692362D01*
X47992072Y-69674703D01*
X47997852Y-69657693D01*
X48003355Y-69641335D01*
X48008581Y-69625627D01*
X48013530Y-69610569D01*
X48018203Y-69596161D01*
X48024082Y-69577620D01*
X48029812Y-69559731D01*
X48035393Y-69542495D01*
X48040826Y-69525911D01*
X48046109Y-69509980D01*
X48051244Y-69494701D01*
X48056230Y-69480075D01*
X48061067Y-69466102D01*
X48066049Y-69451444D01*
X48070959Y-69436793D01*
X48075657Y-69421876D01*
X48080397Y-69407146D01*
X48082316Y-69401256D01*
X48087215Y-69387113D01*
X48094027Y-69370421D01*
X48101160Y-69356201D01*
X48110526Y-69341905D01*
X48122427Y-69329849D01*
X48137224Y-69322816D01*
X48143866Y-69322121D01*
G37*
G36*
X47068220Y-68102861D02*
G01*
X47084157Y-68104624D01*
X47099361Y-68109913D01*
X47112064Y-68117434D01*
X47124205Y-68127655D01*
X47127571Y-68131071D01*
X47138273Y-68143585D01*
X47146975Y-68156766D01*
X47153680Y-68170613D01*
X47158386Y-68185127D01*
X47160177Y-68193719D01*
X47164499Y-68215306D01*
X47167143Y-68229869D01*
X47169599Y-68244569D01*
X47171866Y-68259407D01*
X47173944Y-68274382D01*
X47175833Y-68289495D01*
X47177533Y-68304745D01*
X47179044Y-68320132D01*
X47180367Y-68335657D01*
X47181500Y-68351319D01*
X47182445Y-68367118D01*
X47183200Y-68383055D01*
X47183767Y-68399129D01*
X47184145Y-68415341D01*
X47184334Y-68431690D01*
X47184357Y-68439916D01*
X47236381Y-68433688D01*
X47265371Y-68429922D01*
X47294181Y-68426229D01*
X47322810Y-68422606D01*
X47351259Y-68419056D01*
X47379528Y-68415577D01*
X47407616Y-68412169D01*
X47435525Y-68408833D01*
X47463252Y-68405569D01*
X47490800Y-68402376D01*
X47518167Y-68399255D01*
X47545354Y-68396205D01*
X47572360Y-68393227D01*
X47599186Y-68390321D01*
X47625832Y-68387486D01*
X47652298Y-68384722D01*
X47678583Y-68382030D01*
X47704712Y-68379457D01*
X47730710Y-68377050D01*
X47756576Y-68374809D01*
X47782310Y-68372734D01*
X47807912Y-68370825D01*
X47833383Y-68369082D01*
X47858722Y-68367504D01*
X47883930Y-68366093D01*
X47909006Y-68364848D01*
X47933950Y-68363769D01*
X47958763Y-68362856D01*
X47983444Y-68362109D01*
X48007993Y-68361528D01*
X48032411Y-68361113D01*
X48056697Y-68360864D01*
X48080851Y-68360781D01*
X48109404Y-68361130D01*
X48136905Y-68362178D01*
X48163352Y-68363924D01*
X48188745Y-68366368D01*
X48213085Y-68369511D01*
X48236372Y-68373352D01*
X48258606Y-68377891D01*
X48279787Y-68383129D01*
X48299914Y-68389066D01*
X48318988Y-68395700D01*
X48337008Y-68403033D01*
X48353975Y-68411065D01*
X48369889Y-68419794D01*
X48384750Y-68429223D01*
X48398557Y-68439349D01*
X48411311Y-68450174D01*
X48423157Y-68461722D01*
X48434238Y-68474108D01*
X48444555Y-68487333D01*
X48454107Y-68501396D01*
X48462896Y-68516298D01*
X48470920Y-68532039D01*
X48478180Y-68548619D01*
X48484676Y-68566037D01*
X48490407Y-68584293D01*
X48495375Y-68603389D01*
X48499578Y-68623323D01*
X48503017Y-68644095D01*
X48505692Y-68665706D01*
X48507602Y-68688156D01*
X48508749Y-68711445D01*
X48509131Y-68735572D01*
X48508905Y-68751152D01*
X48508226Y-68767028D01*
X48507096Y-68783198D01*
X48505513Y-68799663D01*
X48503478Y-68816422D01*
X48500991Y-68833477D01*
X48498051Y-68850826D01*
X48494659Y-68868470D01*
X48490815Y-68886409D01*
X48486519Y-68904643D01*
X48481771Y-68923172D01*
X48476570Y-68941995D01*
X48470917Y-68961113D01*
X48464812Y-68980526D01*
X48458255Y-69000234D01*
X48451245Y-69020237D01*
X48443895Y-69040215D01*
X48436316Y-69059850D01*
X48428508Y-69079141D01*
X48420471Y-69098089D01*
X48412204Y-69116694D01*
X48403709Y-69134955D01*
X48394985Y-69152872D01*
X48386032Y-69170446D01*
X48376850Y-69187677D01*
X48367439Y-69204564D01*
X48357799Y-69221107D01*
X48347930Y-69237308D01*
X48337832Y-69253164D01*
X48327506Y-69268678D01*
X48316950Y-69283847D01*
X48306165Y-69298674D01*
X48295256Y-69312870D01*
X48284418Y-69326151D01*
X48273651Y-69338516D01*
X48262957Y-69349965D01*
X48252334Y-69360498D01*
X48236533Y-69374580D01*
X48220894Y-69386601D01*
X48205415Y-69396562D01*
X48190098Y-69404461D01*
X48174941Y-69410300D01*
X48159945Y-69414078D01*
X48145111Y-69415796D01*
X48140202Y-69415910D01*
X48124401Y-69414297D01*
X48109057Y-69409459D01*
X48094168Y-69401394D01*
X48081769Y-69391915D01*
X48071692Y-69382205D01*
X48060074Y-69369295D01*
X48049126Y-69355844D01*
X48038848Y-69341852D01*
X48029239Y-69327319D01*
X48020301Y-69312245D01*
X48017470Y-69307100D01*
X48009750Y-69292211D01*
X48003628Y-69278867D01*
X47997949Y-69263480D01*
X47994844Y-69248110D01*
X47994755Y-69245551D01*
X47996060Y-69229912D01*
X48000649Y-69215657D01*
X48009622Y-69203965D01*
X48015638Y-69199755D01*
X48029119Y-69192611D01*
X48043728Y-69188215D01*
X48046779Y-69188032D01*
X48061532Y-69192057D01*
X48072625Y-69202056D01*
X48075722Y-69206350D01*
X48083438Y-69219241D01*
X48091603Y-69231942D01*
X48100268Y-69243353D01*
X48113492Y-69250594D01*
X48124448Y-69251779D01*
X48141789Y-69248920D01*
X48157125Y-69242168D01*
X48169974Y-69233908D01*
X48183337Y-69223106D01*
X48197216Y-69209762D01*
X48207964Y-69198087D01*
X48219001Y-69184981D01*
X48230327Y-69170446D01*
X48241589Y-69154845D01*
X48252567Y-69138542D01*
X48263262Y-69121538D01*
X48273673Y-69103831D01*
X48283801Y-69085422D01*
X48293646Y-69066311D01*
X48303207Y-69046499D01*
X48309424Y-69032900D01*
X48315514Y-69018990D01*
X48321479Y-69004768D01*
X48327318Y-68990233D01*
X48333031Y-68975387D01*
X48335840Y-68967847D01*
X48341208Y-68952754D01*
X48346230Y-68937793D01*
X48350906Y-68922964D01*
X48355235Y-68908267D01*
X48359218Y-68893701D01*
X48362854Y-68879267D01*
X48366144Y-68864964D01*
X48370430Y-68843757D01*
X48373937Y-68822847D01*
X48376664Y-68802232D01*
X48378612Y-68781914D01*
X48379781Y-68761892D01*
X48380170Y-68742166D01*
X48379997Y-68725724D01*
X48379475Y-68709919D01*
X48378606Y-68694752D01*
X48376905Y-68675521D01*
X48374587Y-68657423D01*
X48371650Y-68640458D01*
X48368095Y-68624627D01*
X48363922Y-68609930D01*
X48360387Y-68599651D01*
X48353104Y-68583622D01*
X48343621Y-68568739D01*
X48331938Y-68555000D01*
X48321007Y-68544833D01*
X48308668Y-68535399D01*
X48294921Y-68526698D01*
X48279766Y-68518730D01*
X48275757Y-68516852D01*
X48258457Y-68509897D01*
X48244055Y-68505289D01*
X48228430Y-68501203D01*
X48211581Y-68497639D01*
X48193508Y-68494596D01*
X48174211Y-68492074D01*
X48153692Y-68490075D01*
X48131948Y-68488597D01*
X48116772Y-68487901D01*
X48101053Y-68487438D01*
X48084790Y-68487206D01*
X48076454Y-68487177D01*
X48046782Y-68487460D01*
X48031089Y-68487814D01*
X48014825Y-68488310D01*
X47997990Y-68488948D01*
X47980584Y-68489727D01*
X47962608Y-68490648D01*
X47944060Y-68491711D01*
X47924941Y-68492915D01*
X47905251Y-68494261D01*
X47884990Y-68495748D01*
X47864158Y-68497378D01*
X47842755Y-68499149D01*
X47820781Y-68501061D01*
X47798236Y-68503116D01*
X47775120Y-68505312D01*
X47751433Y-68507650D01*
X47727175Y-68510129D01*
X47702346Y-68512750D01*
X47676946Y-68515513D01*
X47650975Y-68518417D01*
X47624433Y-68521463D01*
X47597319Y-68524651D01*
X47569635Y-68527981D01*
X47541380Y-68531452D01*
X47512554Y-68535065D01*
X47483157Y-68538819D01*
X47453189Y-68542715D01*
X47422650Y-68546753D01*
X47391539Y-68550933D01*
X47359858Y-68555254D01*
X47327606Y-68559717D01*
X47312726Y-68561751D01*
X47295484Y-68564121D01*
X47278912Y-68566413D01*
X47263009Y-68568629D01*
X47247776Y-68570767D01*
X47240411Y-68571807D01*
X47224330Y-68573876D01*
X47208571Y-68575810D01*
X47192800Y-68577585D01*
X47184357Y-68578401D01*
X47184357Y-68595025D01*
X47184357Y-68611283D01*
X47184357Y-68627174D01*
X47184357Y-68642698D01*
X47184357Y-68657857D01*
X47184357Y-68672649D01*
X47184357Y-68694150D01*
X47184357Y-68714826D01*
X47184357Y-68734679D01*
X47184357Y-68753707D01*
X47184357Y-68771910D01*
X47184357Y-68789290D01*
X47184357Y-68800418D01*
X47184300Y-68820554D01*
X47184129Y-68840295D01*
X47183842Y-68859640D01*
X47183442Y-68878591D01*
X47182926Y-68897147D01*
X47182297Y-68915308D01*
X47181553Y-68933074D01*
X47180694Y-68950444D01*
X47179721Y-68967420D01*
X47178633Y-68984001D01*
X47177431Y-69000187D01*
X47176114Y-69015978D01*
X47174683Y-69031374D01*
X47173138Y-69046375D01*
X47171477Y-69060980D01*
X47169703Y-69075191D01*
X47166457Y-69090303D01*
X47161528Y-69104223D01*
X47153835Y-69118671D01*
X47143943Y-69131563D01*
X47141127Y-69134542D01*
X47128693Y-69144801D01*
X47114840Y-69152128D01*
X47099567Y-69156524D01*
X47082875Y-69157990D01*
X47067948Y-69154974D01*
X47054339Y-69146774D01*
X47049169Y-69142236D01*
X47039783Y-69130418D01*
X47033987Y-69115846D01*
X47032683Y-69103768D01*
X47032927Y-69086968D01*
X47033505Y-69072279D01*
X47034423Y-69056965D01*
X47035681Y-69041024D01*
X47037278Y-69024457D01*
X47039215Y-69007264D01*
X47039644Y-69003750D01*
X47041551Y-68984508D01*
X47043336Y-68965065D01*
X47044997Y-68945421D01*
X47046536Y-68925577D01*
X47047951Y-68905533D01*
X47049243Y-68885289D01*
X47050413Y-68864844D01*
X47051459Y-68844199D01*
X47052382Y-68823353D01*
X47053182Y-68802307D01*
X47053859Y-68781061D01*
X47054413Y-68759614D01*
X47054843Y-68737967D01*
X47055151Y-68716120D01*
X47055336Y-68694072D01*
X47055397Y-68671824D01*
X47055397Y-68600017D01*
X47038533Y-68602181D01*
X47023111Y-68603726D01*
X47006943Y-68604748D01*
X46990868Y-68604886D01*
X46982124Y-68604413D01*
X46966754Y-68600363D01*
X46953655Y-68592925D01*
X46942596Y-68583297D01*
X46935963Y-68575837D01*
X46926666Y-68562900D01*
X46920026Y-68549733D01*
X46915730Y-68534648D01*
X46914713Y-68522714D01*
X46917759Y-68506892D01*
X46926895Y-68493130D01*
X46939886Y-68482779D01*
X46954732Y-68475163D01*
X46963440Y-68471789D01*
X46978416Y-68467352D01*
X46993134Y-68463815D01*
X47008291Y-68460512D01*
X47026078Y-68456888D01*
X47042201Y-68453757D01*
X47055397Y-68451273D01*
X47055339Y-68435126D01*
X47055165Y-68419520D01*
X47054876Y-68404454D01*
X47054309Y-68385209D01*
X47053536Y-68366925D01*
X47052557Y-68349603D01*
X47051372Y-68333242D01*
X47049981Y-68317843D01*
X47048803Y-68306926D01*
X47046858Y-68290360D01*
X47044832Y-68273599D01*
X47042891Y-68258342D01*
X47040762Y-68243718D01*
X47040376Y-68241713D01*
X47038160Y-68224035D01*
X47036319Y-68208325D01*
X47034606Y-68192070D01*
X47033291Y-68176688D01*
X47032683Y-68162578D01*
X47033635Y-68147107D01*
X47036846Y-68131711D01*
X47040743Y-68121179D01*
X47049789Y-68108657D01*
X47063463Y-68103147D01*
X47068220Y-68102861D01*
G37*
D11*
%TO.C,U2*%
X76210156Y-62515396D02*
X77023390Y-62515396D01*
X77023390Y-62515396D02*
X77119064Y-62467559D01*
X77119064Y-62467559D02*
X77166902Y-62419722D01*
X77166902Y-62419722D02*
X77214739Y-62324047D01*
X77214739Y-62324047D02*
X77214739Y-62132698D01*
X77214739Y-62132698D02*
X77166902Y-62037023D01*
X77166902Y-62037023D02*
X77119064Y-61989186D01*
X77119064Y-61989186D02*
X77023390Y-61941349D01*
X77023390Y-61941349D02*
X76210156Y-61941349D01*
X76305830Y-61510813D02*
X76257993Y-61462976D01*
X76257993Y-61462976D02*
X76210156Y-61367302D01*
X76210156Y-61367302D02*
X76210156Y-61128115D01*
X76210156Y-61128115D02*
X76257993Y-61032441D01*
X76257993Y-61032441D02*
X76305830Y-60984603D01*
X76305830Y-60984603D02*
X76401505Y-60936766D01*
X76401505Y-60936766D02*
X76497180Y-60936766D01*
X76497180Y-60936766D02*
X76640691Y-60984603D01*
X76640691Y-60984603D02*
X77214739Y-61558651D01*
X77214739Y-61558651D02*
X77214739Y-60936766D01*
%TO.C,Vin*%
X71226191Y-110962619D02*
X71559524Y-111962619D01*
X71559524Y-111962619D02*
X71892857Y-110962619D01*
X72226191Y-111962619D02*
X72226191Y-111295952D01*
X72226191Y-110962619D02*
X72178572Y-111010238D01*
X72178572Y-111010238D02*
X72226191Y-111057857D01*
X72226191Y-111057857D02*
X72273810Y-111010238D01*
X72273810Y-111010238D02*
X72226191Y-110962619D01*
X72226191Y-110962619D02*
X72226191Y-111057857D01*
X72702381Y-111295952D02*
X72702381Y-111962619D01*
X72702381Y-111391190D02*
X72750000Y-111343571D01*
X72750000Y-111343571D02*
X72845238Y-111295952D01*
X72845238Y-111295952D02*
X72988095Y-111295952D01*
X72988095Y-111295952D02*
X73083333Y-111343571D01*
X73083333Y-111343571D02*
X73130952Y-111438809D01*
X73130952Y-111438809D02*
X73130952Y-111962619D01*
%TO.C,OUT*%
X66720000Y-110462619D02*
X66910476Y-110462619D01*
X66910476Y-110462619D02*
X67005714Y-110510238D01*
X67005714Y-110510238D02*
X67100952Y-110605476D01*
X67100952Y-110605476D02*
X67148571Y-110795952D01*
X67148571Y-110795952D02*
X67148571Y-111129285D01*
X67148571Y-111129285D02*
X67100952Y-111319761D01*
X67100952Y-111319761D02*
X67005714Y-111415000D01*
X67005714Y-111415000D02*
X66910476Y-111462619D01*
X66910476Y-111462619D02*
X66720000Y-111462619D01*
X66720000Y-111462619D02*
X66624762Y-111415000D01*
X66624762Y-111415000D02*
X66529524Y-111319761D01*
X66529524Y-111319761D02*
X66481905Y-111129285D01*
X66481905Y-111129285D02*
X66481905Y-110795952D01*
X66481905Y-110795952D02*
X66529524Y-110605476D01*
X66529524Y-110605476D02*
X66624762Y-110510238D01*
X66624762Y-110510238D02*
X66720000Y-110462619D01*
X67577143Y-110462619D02*
X67577143Y-111272142D01*
X67577143Y-111272142D02*
X67624762Y-111367380D01*
X67624762Y-111367380D02*
X67672381Y-111415000D01*
X67672381Y-111415000D02*
X67767619Y-111462619D01*
X67767619Y-111462619D02*
X67958095Y-111462619D01*
X67958095Y-111462619D02*
X68053333Y-111415000D01*
X68053333Y-111415000D02*
X68100952Y-111367380D01*
X68100952Y-111367380D02*
X68148571Y-111272142D01*
X68148571Y-111272142D02*
X68148571Y-110462619D01*
X68481905Y-110462619D02*
X69053333Y-110462619D01*
X68767619Y-111462619D02*
X68767619Y-110462619D01*
%TO.C,U3*%
X75900156Y-77485396D02*
X76713390Y-77485396D01*
X76713390Y-77485396D02*
X76809064Y-77437559D01*
X76809064Y-77437559D02*
X76856902Y-77389722D01*
X76856902Y-77389722D02*
X76904739Y-77294047D01*
X76904739Y-77294047D02*
X76904739Y-77102698D01*
X76904739Y-77102698D02*
X76856902Y-77007023D01*
X76856902Y-77007023D02*
X76809064Y-76959186D01*
X76809064Y-76959186D02*
X76713390Y-76911349D01*
X76713390Y-76911349D02*
X75900156Y-76911349D01*
X75900156Y-76528651D02*
X75900156Y-75906766D01*
X75900156Y-75906766D02*
X76282854Y-76241627D01*
X76282854Y-76241627D02*
X76282854Y-76098115D01*
X76282854Y-76098115D02*
X76330691Y-76002441D01*
X76330691Y-76002441D02*
X76378529Y-75954603D01*
X76378529Y-75954603D02*
X76474203Y-75906766D01*
X76474203Y-75906766D02*
X76713390Y-75906766D01*
X76713390Y-75906766D02*
X76809064Y-75954603D01*
X76809064Y-75954603D02*
X76856902Y-76002441D01*
X76856902Y-76002441D02*
X76904739Y-76098115D01*
X76904739Y-76098115D02*
X76904739Y-76385139D01*
X76904739Y-76385139D02*
X76856902Y-76480813D01*
X76856902Y-76480813D02*
X76809064Y-76528651D01*
%TO.C,GND*%
X76988095Y-111010238D02*
X76892857Y-110962619D01*
X76892857Y-110962619D02*
X76750000Y-110962619D01*
X76750000Y-110962619D02*
X76607143Y-111010238D01*
X76607143Y-111010238D02*
X76511905Y-111105476D01*
X76511905Y-111105476D02*
X76464286Y-111200714D01*
X76464286Y-111200714D02*
X76416667Y-111391190D01*
X76416667Y-111391190D02*
X76416667Y-111534047D01*
X76416667Y-111534047D02*
X76464286Y-111724523D01*
X76464286Y-111724523D02*
X76511905Y-111819761D01*
X76511905Y-111819761D02*
X76607143Y-111915000D01*
X76607143Y-111915000D02*
X76750000Y-111962619D01*
X76750000Y-111962619D02*
X76845238Y-111962619D01*
X76845238Y-111962619D02*
X76988095Y-111915000D01*
X76988095Y-111915000D02*
X77035714Y-111867380D01*
X77035714Y-111867380D02*
X77035714Y-111534047D01*
X77035714Y-111534047D02*
X76845238Y-111534047D01*
X77464286Y-111962619D02*
X77464286Y-110962619D01*
X77464286Y-110962619D02*
X78035714Y-111962619D01*
X78035714Y-111962619D02*
X78035714Y-110962619D01*
X78511905Y-111962619D02*
X78511905Y-110962619D01*
X78511905Y-110962619D02*
X78750000Y-110962619D01*
X78750000Y-110962619D02*
X78892857Y-111010238D01*
X78892857Y-111010238D02*
X78988095Y-111105476D01*
X78988095Y-111105476D02*
X79035714Y-111200714D01*
X79035714Y-111200714D02*
X79083333Y-111391190D01*
X79083333Y-111391190D02*
X79083333Y-111534047D01*
X79083333Y-111534047D02*
X79035714Y-111724523D01*
X79035714Y-111724523D02*
X78988095Y-111819761D01*
X78988095Y-111819761D02*
X78892857Y-111915000D01*
X78892857Y-111915000D02*
X78750000Y-111962619D01*
X78750000Y-111962619D02*
X78511905Y-111962619D01*
%TO.C,RV3*%
X91462619Y-67095238D02*
X90986428Y-67428571D01*
X91462619Y-67666666D02*
X90462619Y-67666666D01*
X90462619Y-67666666D02*
X90462619Y-67285714D01*
X90462619Y-67285714D02*
X90510238Y-67190476D01*
X90510238Y-67190476D02*
X90557857Y-67142857D01*
X90557857Y-67142857D02*
X90653095Y-67095238D01*
X90653095Y-67095238D02*
X90795952Y-67095238D01*
X90795952Y-67095238D02*
X90891190Y-67142857D01*
X90891190Y-67142857D02*
X90938809Y-67190476D01*
X90938809Y-67190476D02*
X90986428Y-67285714D01*
X90986428Y-67285714D02*
X90986428Y-67666666D01*
X90462619Y-66809523D02*
X91462619Y-66476190D01*
X91462619Y-66476190D02*
X90462619Y-66142857D01*
X90462619Y-65904761D02*
X90462619Y-65285714D01*
X90462619Y-65285714D02*
X90843571Y-65619047D01*
X90843571Y-65619047D02*
X90843571Y-65476190D01*
X90843571Y-65476190D02*
X90891190Y-65380952D01*
X90891190Y-65380952D02*
X90938809Y-65333333D01*
X90938809Y-65333333D02*
X91034047Y-65285714D01*
X91034047Y-65285714D02*
X91272142Y-65285714D01*
X91272142Y-65285714D02*
X91367380Y-65333333D01*
X91367380Y-65333333D02*
X91415000Y-65380952D01*
X91415000Y-65380952D02*
X91462619Y-65476190D01*
X91462619Y-65476190D02*
X91462619Y-65761904D01*
X91462619Y-65761904D02*
X91415000Y-65857142D01*
X91415000Y-65857142D02*
X91367380Y-65904761D01*
%TO.C,RV4*%
X66762619Y-97795238D02*
X66286428Y-98128571D01*
X66762619Y-98366666D02*
X65762619Y-98366666D01*
X65762619Y-98366666D02*
X65762619Y-97985714D01*
X65762619Y-97985714D02*
X65810238Y-97890476D01*
X65810238Y-97890476D02*
X65857857Y-97842857D01*
X65857857Y-97842857D02*
X65953095Y-97795238D01*
X65953095Y-97795238D02*
X66095952Y-97795238D01*
X66095952Y-97795238D02*
X66191190Y-97842857D01*
X66191190Y-97842857D02*
X66238809Y-97890476D01*
X66238809Y-97890476D02*
X66286428Y-97985714D01*
X66286428Y-97985714D02*
X66286428Y-98366666D01*
X65762619Y-97509523D02*
X66762619Y-97176190D01*
X66762619Y-97176190D02*
X65762619Y-96842857D01*
X66095952Y-96080952D02*
X66762619Y-96080952D01*
X65715000Y-96319047D02*
X66429285Y-96557142D01*
X66429285Y-96557142D02*
X66429285Y-95938095D01*
%TO.C,U1*%
X52264603Y-82710156D02*
X52264603Y-83523390D01*
X52264603Y-83523390D02*
X52312440Y-83619064D01*
X52312440Y-83619064D02*
X52360278Y-83666902D01*
X52360278Y-83666902D02*
X52455952Y-83714739D01*
X52455952Y-83714739D02*
X52647301Y-83714739D01*
X52647301Y-83714739D02*
X52742976Y-83666902D01*
X52742976Y-83666902D02*
X52790813Y-83619064D01*
X52790813Y-83619064D02*
X52838650Y-83523390D01*
X52838650Y-83523390D02*
X52838650Y-82710156D01*
X53843233Y-83714739D02*
X53269186Y-83714739D01*
X53556209Y-83714739D02*
X53556209Y-82710156D01*
X53556209Y-82710156D02*
X53460535Y-82853668D01*
X53460535Y-82853668D02*
X53364860Y-82949342D01*
X53364860Y-82949342D02*
X53269186Y-82997180D01*
%TO.C,RV1*%
X98762619Y-97795238D02*
X98286428Y-98128571D01*
X98762619Y-98366666D02*
X97762619Y-98366666D01*
X97762619Y-98366666D02*
X97762619Y-97985714D01*
X97762619Y-97985714D02*
X97810238Y-97890476D01*
X97810238Y-97890476D02*
X97857857Y-97842857D01*
X97857857Y-97842857D02*
X97953095Y-97795238D01*
X97953095Y-97795238D02*
X98095952Y-97795238D01*
X98095952Y-97795238D02*
X98191190Y-97842857D01*
X98191190Y-97842857D02*
X98238809Y-97890476D01*
X98238809Y-97890476D02*
X98286428Y-97985714D01*
X98286428Y-97985714D02*
X98286428Y-98366666D01*
X97762619Y-97509523D02*
X98762619Y-97176190D01*
X98762619Y-97176190D02*
X97762619Y-96842857D01*
X98762619Y-95985714D02*
X98762619Y-96557142D01*
X98762619Y-96271428D02*
X97762619Y-96271428D01*
X97762619Y-96271428D02*
X97905476Y-96366666D01*
X97905476Y-96366666D02*
X98000714Y-96461904D01*
X98000714Y-96461904D02*
X98048333Y-96557142D01*
%TO.C,IN*%
X74476191Y-111212619D02*
X74476191Y-110212619D01*
X74952381Y-111212619D02*
X74952381Y-110212619D01*
X74952381Y-110212619D02*
X75523809Y-111212619D01*
X75523809Y-111212619D02*
X75523809Y-110212619D01*
%TO.C,RV2*%
X66762619Y-67045238D02*
X66286428Y-67378571D01*
X66762619Y-67616666D02*
X65762619Y-67616666D01*
X65762619Y-67616666D02*
X65762619Y-67235714D01*
X65762619Y-67235714D02*
X65810238Y-67140476D01*
X65810238Y-67140476D02*
X65857857Y-67092857D01*
X65857857Y-67092857D02*
X65953095Y-67045238D01*
X65953095Y-67045238D02*
X66095952Y-67045238D01*
X66095952Y-67045238D02*
X66191190Y-67092857D01*
X66191190Y-67092857D02*
X66238809Y-67140476D01*
X66238809Y-67140476D02*
X66286428Y-67235714D01*
X66286428Y-67235714D02*
X66286428Y-67616666D01*
X65762619Y-66759523D02*
X66762619Y-66426190D01*
X66762619Y-66426190D02*
X65762619Y-66092857D01*
X65857857Y-65807142D02*
X65810238Y-65759523D01*
X65810238Y-65759523D02*
X65762619Y-65664285D01*
X65762619Y-65664285D02*
X65762619Y-65426190D01*
X65762619Y-65426190D02*
X65810238Y-65330952D01*
X65810238Y-65330952D02*
X65857857Y-65283333D01*
X65857857Y-65283333D02*
X65953095Y-65235714D01*
X65953095Y-65235714D02*
X66048333Y-65235714D01*
X66048333Y-65235714D02*
X66191190Y-65283333D01*
X66191190Y-65283333D02*
X66762619Y-65854761D01*
X66762619Y-65854761D02*
X66762619Y-65235714D01*
D12*
%TO.C,U2*%
X71450000Y-65050000D02*
X71950000Y-65050000D01*
X71450000Y-65050000D02*
X71450000Y-58450000D01*
X81550000Y-65050000D02*
X82050000Y-65050000D01*
X71450000Y-58450000D02*
X71950000Y-58450000D01*
X81550000Y-58450000D02*
X82050000Y-58450000D01*
X82050000Y-58450000D02*
X82050000Y-65050000D01*
D10*
X73070000Y-67100000D02*
G75*
G03*
X73070000Y-67100000I-100000J0D01*
G01*
D12*
%TO.C,U3*%
X71200000Y-80050000D02*
X71700000Y-80050000D01*
X71200000Y-80050000D02*
X71200000Y-73450000D01*
X81300000Y-80050000D02*
X81800000Y-80050000D01*
X71200000Y-73450000D02*
X71700000Y-73450000D01*
X81300000Y-73450000D02*
X81800000Y-73450000D01*
X81800000Y-73450000D02*
X81800000Y-80050000D01*
D10*
X72820000Y-82100000D02*
G75*
G03*
X72820000Y-82100000I-100000J0D01*
G01*
%TO.C,G\u002A\u002A\u002A*%
G36*
X48490443Y-60272028D02*
G01*
X48550608Y-60275476D01*
X48594395Y-60283219D01*
X48631183Y-60296892D01*
X48668945Y-60317302D01*
X48712139Y-60346780D01*
X48737677Y-60372419D01*
X48740959Y-60383219D01*
X48720042Y-60393674D01*
X48666975Y-60401465D01*
X48584689Y-60406210D01*
X48560026Y-60406873D01*
X48476745Y-60407794D01*
X48418400Y-60405152D01*
X48374822Y-60397313D01*
X48335846Y-60382644D01*
X48302180Y-60365456D01*
X48245914Y-60331758D01*
X48219360Y-60306618D01*
X48223620Y-60289020D01*
X48259796Y-60277952D01*
X48328988Y-60272398D01*
X48404518Y-60271242D01*
X48490443Y-60272028D01*
G37*
G36*
X47820118Y-60905525D02*
G01*
X47837234Y-60950654D01*
X47844022Y-60984662D01*
X47861284Y-61036910D01*
X47898877Y-61110803D01*
X47954185Y-61201354D01*
X47970823Y-61226532D01*
X48023497Y-61305609D01*
X48075295Y-61384243D01*
X48119415Y-61452060D01*
X48143760Y-61490200D01*
X48179133Y-61542562D01*
X48211702Y-61584193D01*
X48229459Y-61601920D01*
X48248677Y-61631028D01*
X48247809Y-61650259D01*
X48232536Y-61673171D01*
X48207850Y-61672547D01*
X48165607Y-61648172D01*
X48165469Y-61648079D01*
X48082894Y-61583152D01*
X47998889Y-61501904D01*
X47925416Y-61416641D01*
X47886772Y-61361345D01*
X47840695Y-61273898D01*
X47803854Y-61180063D01*
X47778080Y-61087588D01*
X47765202Y-61004218D01*
X47767051Y-60937700D01*
X47778777Y-60904192D01*
X47799748Y-60888947D01*
X47820118Y-60905525D01*
G37*
G36*
X47469222Y-58788109D02*
G01*
X47537918Y-58788109D01*
X47539453Y-58801896D01*
X47563414Y-58797148D01*
X47604058Y-58781598D01*
X47649152Y-58765862D01*
X47681843Y-58764224D01*
X47718586Y-58778134D01*
X47749075Y-58794355D01*
X47830762Y-58845611D01*
X47889633Y-58900858D01*
X47937201Y-58971666D01*
X47950569Y-58996848D01*
X47986506Y-59097313D01*
X48004360Y-59214678D01*
X48002761Y-59334915D01*
X47990628Y-59408035D01*
X47958603Y-59489301D01*
X47907578Y-59541396D01*
X47835788Y-59565789D01*
X47798498Y-59568128D01*
X47747113Y-59574286D01*
X47726997Y-59590493D01*
X47736940Y-59613346D01*
X47775731Y-59639444D01*
X47831973Y-59662133D01*
X47885255Y-59671553D01*
X47930592Y-59657435D01*
X47977611Y-59615978D01*
X47992637Y-59598655D01*
X48045116Y-59531973D01*
X48081241Y-59473155D01*
X48104415Y-59412289D01*
X48118035Y-59339461D01*
X48125504Y-59244760D01*
X48127228Y-59206278D01*
X48128405Y-59089976D01*
X48119241Y-58998599D01*
X48096473Y-58922635D01*
X48056841Y-58852576D01*
X47997084Y-58778909D01*
X47971028Y-58750744D01*
X47922563Y-58701133D01*
X47887333Y-58672226D01*
X47855201Y-58658468D01*
X47816028Y-58654304D01*
X47794623Y-58654080D01*
X47707888Y-58662802D01*
X47632202Y-58686604D01*
X47576272Y-58721934D01*
X47553114Y-58752538D01*
X47537918Y-58788109D01*
X47469222Y-58788109D01*
X47539344Y-58691351D01*
X47553581Y-58677130D01*
X47613616Y-58628169D01*
X47673097Y-58601931D01*
X47744828Y-58594290D01*
X47801784Y-58597141D01*
X47862623Y-58605085D01*
X47908003Y-58620907D01*
X47952715Y-58651365D01*
X47988877Y-58682619D01*
X48044838Y-58741056D01*
X48097545Y-58809333D01*
X48123904Y-58851779D01*
X48144941Y-58893685D01*
X48159400Y-58932579D01*
X48168810Y-58976983D01*
X48174700Y-59035422D01*
X48178598Y-59116416D01*
X48180205Y-59165605D01*
X48182516Y-59259982D01*
X48182156Y-59327251D01*
X48178258Y-59375413D01*
X48169950Y-59412467D01*
X48156364Y-59446416D01*
X48147800Y-59463786D01*
X48101795Y-59544191D01*
X48051285Y-59616621D01*
X48002374Y-59673215D01*
X47961166Y-59706117D01*
X47958585Y-59707396D01*
X47885159Y-59725284D01*
X47805644Y-59719109D01*
X47736799Y-59690261D01*
X47734798Y-59688864D01*
X47686793Y-59645012D01*
X47630338Y-59578486D01*
X47572179Y-59498316D01*
X47519058Y-59413530D01*
X47492640Y-59364658D01*
X47458402Y-59281036D01*
X47431215Y-59184964D01*
X47413032Y-59087221D01*
X47405806Y-58998589D01*
X47411490Y-58929846D01*
X47412868Y-58924393D01*
X47464001Y-58795313D01*
X47469222Y-58788109D01*
G37*
G36*
X49916121Y-61077937D02*
G01*
X49991098Y-61094059D01*
X50071210Y-61115815D01*
X50147134Y-61141144D01*
X50161039Y-61146475D01*
X50206620Y-61166144D01*
X50251736Y-61190056D01*
X50300129Y-61221129D01*
X50355543Y-61262282D01*
X50421719Y-61316433D01*
X50502401Y-61386501D01*
X50601331Y-61475404D01*
X50708442Y-61573362D01*
X50805552Y-61661934D01*
X50900089Y-61746896D01*
X50987166Y-61823952D01*
X51061896Y-61888804D01*
X51119393Y-61937157D01*
X51147888Y-61959727D01*
X51201777Y-62004529D01*
X51269363Y-62067213D01*
X51341454Y-62138977D01*
X51400277Y-62201495D01*
X51470839Y-62278652D01*
X51545814Y-62359630D01*
X51615209Y-62433685D01*
X51659581Y-62480297D01*
X51731244Y-62561395D01*
X51772876Y-62624736D01*
X51784619Y-62670604D01*
X51767397Y-62698796D01*
X51739806Y-62701099D01*
X51725468Y-62685405D01*
X51693398Y-62640756D01*
X51640800Y-62576869D01*
X51572505Y-62498855D01*
X51493341Y-62411825D01*
X51408138Y-62320893D01*
X51321727Y-62231169D01*
X51238936Y-62147765D01*
X51164596Y-62075793D01*
X51103535Y-62020366D01*
X51075087Y-61997027D01*
X51005687Y-61940913D01*
X50913093Y-61861356D01*
X50798934Y-61759810D01*
X50664838Y-61637727D01*
X50512432Y-61496561D01*
X50469570Y-61456501D01*
X50350261Y-61351757D01*
X50242017Y-61273237D01*
X50137639Y-61217127D01*
X50029933Y-61179611D01*
X49911700Y-61156874D01*
X49902136Y-61155649D01*
X49841176Y-61154124D01*
X49809311Y-61170813D01*
X49803748Y-61209131D01*
X49817054Y-61259669D01*
X49849346Y-61327042D01*
X49904001Y-61412246D01*
X49976958Y-61509924D01*
X50064154Y-61614721D01*
X50161527Y-61721281D01*
X50187405Y-61747998D01*
X50234905Y-61799049D01*
X50288271Y-61860131D01*
X50315751Y-61893189D01*
X50365100Y-61946852D01*
X50429208Y-62007051D01*
X50491530Y-62058639D01*
X50544967Y-62100372D01*
X50587342Y-62135364D01*
X50610828Y-62157107D01*
X50612509Y-62159202D01*
X50617012Y-62187075D01*
X50593045Y-62203466D01*
X50579419Y-62204806D01*
X50552073Y-62193656D01*
X50506630Y-62164136D01*
X50450435Y-62122142D01*
X50390829Y-62073569D01*
X50335155Y-62024313D01*
X50290755Y-61980270D01*
X50271905Y-61957891D01*
X50241105Y-61923615D01*
X50214981Y-61906444D01*
X50211742Y-61905983D01*
X50181144Y-61921657D01*
X50146936Y-61963382D01*
X50114454Y-62023210D01*
X50091286Y-62085363D01*
X50080030Y-62129259D01*
X50074789Y-62171365D01*
X50075579Y-62221363D01*
X50082413Y-62288933D01*
X50091683Y-62358171D01*
X50103526Y-62439552D01*
X50114761Y-62511529D01*
X50123879Y-62564691D01*
X50128206Y-62585727D01*
X50127966Y-62628505D01*
X50116765Y-62653438D01*
X50103700Y-62694137D01*
X50108456Y-62756626D01*
X50128401Y-62834102D01*
X50160903Y-62919763D01*
X50203331Y-63006805D01*
X50253052Y-63088425D01*
X50307435Y-63157818D01*
X50315002Y-63165891D01*
X50358914Y-63218619D01*
X50375990Y-63256642D01*
X50374905Y-63266963D01*
X50362751Y-63287856D01*
X50345228Y-63290325D01*
X50317031Y-63271919D01*
X50272857Y-63230186D01*
X50254123Y-63211138D01*
X50199442Y-63143285D01*
X50144272Y-63055084D01*
X50094451Y-62957997D01*
X50055819Y-62863484D01*
X50034212Y-62783005D01*
X50033458Y-62777979D01*
X50037030Y-62696649D01*
X50054188Y-62653329D01*
X50072086Y-62615819D01*
X50073989Y-62587519D01*
X50059019Y-62552142D01*
X50047628Y-62531502D01*
X50010597Y-62435597D01*
X49992923Y-62319552D01*
X49995650Y-62193233D01*
X50005094Y-62128755D01*
X50022558Y-62055128D01*
X50047322Y-61991077D01*
X50084982Y-61924967D01*
X50141136Y-61845161D01*
X50142219Y-61843705D01*
X50142128Y-61820838D01*
X50117439Y-61781759D01*
X50070121Y-61727636D01*
X49989466Y-61640766D01*
X49928517Y-61572078D01*
X49882061Y-61514958D01*
X49844885Y-61462792D01*
X49811774Y-61408964D01*
X49793921Y-61377187D01*
X49748079Y-61276447D01*
X49731059Y-61194106D01*
X49742816Y-61130713D01*
X49783305Y-61086818D01*
X49818872Y-61070844D01*
X49855604Y-61069512D01*
X49916121Y-61077937D01*
G37*
G36*
X46475436Y-55877391D02*
G01*
X46583945Y-55877391D01*
X46594546Y-55897799D01*
X46623148Y-55938410D01*
X46664955Y-55992671D01*
X46699311Y-56035026D01*
X46814676Y-56174471D01*
X46854226Y-56148857D01*
X47058547Y-56148857D01*
X47068285Y-56200420D01*
X47102605Y-56244357D01*
X47112629Y-56253140D01*
X47161588Y-56289382D01*
X47192850Y-56297540D01*
X47209935Y-56275654D01*
X47214371Y-56238469D01*
X47360926Y-56238469D01*
X47362490Y-56320774D01*
X47375124Y-56376368D01*
X47397945Y-56402143D01*
X47407862Y-56403562D01*
X47424952Y-56390448D01*
X47449956Y-56360305D01*
X47477043Y-56310427D01*
X47490939Y-56268005D01*
X47492863Y-56233968D01*
X47477827Y-56206533D01*
X47439254Y-56174527D01*
X47433509Y-56170402D01*
X47366160Y-56122394D01*
X47360926Y-56238469D01*
X47214371Y-56238469D01*
X47216364Y-56221758D01*
X47216748Y-56195086D01*
X47215542Y-56136724D01*
X47209470Y-56104182D01*
X47194850Y-56088146D01*
X47171308Y-56080119D01*
X47110301Y-56074327D01*
X47073101Y-56094082D01*
X47058780Y-56139950D01*
X47058547Y-56148857D01*
X46854226Y-56148857D01*
X46874872Y-56135486D01*
X46912690Y-56107991D01*
X46933747Y-56086858D01*
X46935285Y-56082886D01*
X46921529Y-56067088D01*
X46885949Y-56041072D01*
X46854443Y-56021363D01*
X46816219Y-55997281D01*
X47181592Y-55997281D01*
X47196834Y-56008866D01*
X47235353Y-56025364D01*
X47286342Y-56043080D01*
X47338992Y-56058318D01*
X47382497Y-56067383D01*
X47388684Y-56068089D01*
X47406297Y-56059403D01*
X47514994Y-56059403D01*
X47518685Y-56085148D01*
X47534470Y-56123437D01*
X47558804Y-56165813D01*
X47588142Y-56203818D01*
X47590547Y-56206363D01*
X47632016Y-56246293D01*
X47658344Y-56261405D01*
X47676166Y-56254478D01*
X47683043Y-56245133D01*
X47677246Y-56225344D01*
X47653747Y-56189219D01*
X47619609Y-56145376D01*
X47581894Y-56102433D01*
X47547666Y-56069008D01*
X47526945Y-56054660D01*
X47514994Y-56059403D01*
X47406297Y-56059403D01*
X47413524Y-56055839D01*
X47422006Y-56041994D01*
X47419220Y-56010126D01*
X47408271Y-55998319D01*
X47392225Y-55993565D01*
X47601317Y-55993565D01*
X47624254Y-56023822D01*
X47672725Y-56070933D01*
X47731044Y-56122119D01*
X47768680Y-56149713D01*
X47789186Y-56155588D01*
X47796116Y-56141619D01*
X47796171Y-56136052D01*
X47792294Y-56102845D01*
X47783325Y-56050841D01*
X47771466Y-55990668D01*
X47758921Y-55932956D01*
X47747894Y-55888335D01*
X47740588Y-55867434D01*
X47740460Y-55867296D01*
X47725557Y-55874306D01*
X47698360Y-55902493D01*
X47684118Y-55920245D01*
X47648780Y-55958453D01*
X47616206Y-55980759D01*
X47606961Y-55983044D01*
X47601317Y-55993565D01*
X47392225Y-55993565D01*
X47379113Y-55989680D01*
X47331754Y-55984512D01*
X47277298Y-55982864D01*
X47226851Y-55984788D01*
X47191517Y-55990335D01*
X47181592Y-55997281D01*
X46816219Y-55997281D01*
X46788789Y-55980000D01*
X46719858Y-55932822D01*
X46697297Y-55916329D01*
X46637727Y-55875652D01*
X46600670Y-55860342D01*
X46584784Y-55869937D01*
X46583945Y-55877391D01*
X46475436Y-55877391D01*
X46470637Y-55866526D01*
X46460900Y-55825938D01*
X46473890Y-55781117D01*
X46509698Y-55758604D01*
X46563579Y-55758882D01*
X46630791Y-55782436D01*
X46670296Y-55804585D01*
X46724959Y-55836368D01*
X46774784Y-55860932D01*
X46794879Y-55868590D01*
X46838226Y-55887154D01*
X46889576Y-55916340D01*
X46900033Y-55923205D01*
X46963970Y-55956188D01*
X47025703Y-55961847D01*
X47098199Y-55941202D01*
X47103056Y-55939198D01*
X47138089Y-55922503D01*
X47156223Y-55902907D01*
X47160152Y-55883469D01*
X47235278Y-55883469D01*
X47246124Y-55910501D01*
X47256298Y-55917871D01*
X47299218Y-55927549D01*
X47320716Y-55915308D01*
X47322215Y-55906661D01*
X47307631Y-55870870D01*
X47274794Y-55845386D01*
X47257177Y-55841623D01*
X47239027Y-55854893D01*
X47235278Y-55883469D01*
X47160152Y-55883469D01*
X47163013Y-55869316D01*
X47164014Y-55817442D01*
X47168946Y-55752902D01*
X47185395Y-55719452D01*
X47215843Y-55716378D01*
X47262772Y-55742966D01*
X47304637Y-55776990D01*
X47364005Y-55822586D01*
X47428604Y-55863125D01*
X47461403Y-55879603D01*
X47509226Y-55898826D01*
X47538357Y-55900669D01*
X47560683Y-55880782D01*
X47588093Y-55834815D01*
X47589204Y-55832834D01*
X47611337Y-55799494D01*
X47646657Y-55752201D01*
X47671387Y-55721076D01*
X47733848Y-55644475D01*
X47772289Y-55689165D01*
X47798437Y-55731658D01*
X47828326Y-55798615D01*
X47858626Y-55880062D01*
X47886011Y-55966024D01*
X47907152Y-56046527D01*
X47918723Y-56111596D01*
X47919928Y-56131701D01*
X47926845Y-56180721D01*
X47944243Y-56234303D01*
X47967213Y-56281469D01*
X47990846Y-56311242D01*
X48002433Y-56316225D01*
X48020885Y-56304834D01*
X48055596Y-56275319D01*
X48089278Y-56243533D01*
X48135445Y-56203739D01*
X48172459Y-56182110D01*
X48188266Y-56180404D01*
X48208245Y-56205052D01*
X48225733Y-56259214D01*
X48239777Y-56337280D01*
X48249420Y-56433642D01*
X48253710Y-56542690D01*
X48253841Y-56565773D01*
X48253841Y-56739146D01*
X48310769Y-56699070D01*
X48352199Y-56668035D01*
X48381996Y-56642446D01*
X48385475Y-56638796D01*
X48415812Y-56616421D01*
X48450598Y-56605165D01*
X48476864Y-56607754D01*
X48483228Y-56618258D01*
X48483431Y-56643627D01*
X48483375Y-56696940D01*
X48483083Y-56770986D01*
X48482576Y-56858553D01*
X48482419Y-56881573D01*
X48482966Y-56974521D01*
X48485757Y-57051045D01*
X48490430Y-57105219D01*
X48496624Y-57131113D01*
X48497712Y-57132223D01*
X48516590Y-57154011D01*
X48543511Y-57195836D01*
X48571793Y-57245813D01*
X48594758Y-57292054D01*
X48605725Y-57322674D01*
X48605919Y-57324771D01*
X48617455Y-57346303D01*
X48647503Y-57385292D01*
X48690028Y-57434025D01*
X48698828Y-57443543D01*
X48791216Y-57542556D01*
X48837980Y-57502331D01*
X48902613Y-57464928D01*
X48989894Y-57439152D01*
X49088782Y-57426585D01*
X49188235Y-57428810D01*
X49259354Y-57441906D01*
X49327433Y-57472154D01*
X49402352Y-57522875D01*
X49472428Y-57584661D01*
X49525977Y-57648103D01*
X49536549Y-57665115D01*
X49555995Y-57697586D01*
X49575593Y-57718578D01*
X49603863Y-57732008D01*
X49649323Y-57741790D01*
X49720493Y-57751842D01*
X49727121Y-57752719D01*
X49797262Y-57763640D01*
X49858126Y-57778086D01*
X49919525Y-57799506D01*
X49991266Y-57831353D01*
X50083160Y-57877076D01*
X50088802Y-57879964D01*
X50166126Y-57918886D01*
X50231521Y-57950495D01*
X50279055Y-57972020D01*
X50302797Y-57980695D01*
X50304300Y-57980553D01*
X50302112Y-57962107D01*
X50290637Y-57918617D01*
X50272109Y-57858256D01*
X50264511Y-57835076D01*
X50235278Y-57726436D01*
X50210679Y-57592952D01*
X50195077Y-57469709D01*
X50185163Y-57352216D01*
X50183803Y-57262636D01*
X50183809Y-57262592D01*
X50280312Y-57262592D01*
X50280452Y-57311528D01*
X50284450Y-57376277D01*
X50292438Y-57483547D01*
X50300729Y-57564598D01*
X50311020Y-57628335D01*
X50325013Y-57683668D01*
X50344406Y-57739503D01*
X50362237Y-57783976D01*
X50395130Y-57867903D01*
X50429030Y-57961298D01*
X50452095Y-58030066D01*
X50472038Y-58087174D01*
X50494648Y-58134742D01*
X50525548Y-58181179D01*
X50570362Y-58234896D01*
X50634712Y-58304303D01*
X50637155Y-58306875D01*
X50692690Y-58368027D01*
X50754103Y-58440074D01*
X50817241Y-58517606D01*
X50877954Y-58595211D01*
X50932090Y-58667481D01*
X50975498Y-58729004D01*
X51004025Y-58774370D01*
X51013565Y-58797437D01*
X51027863Y-58810571D01*
X51040266Y-58812280D01*
X51058125Y-58803393D01*
X51057478Y-58771748D01*
X51055787Y-58763941D01*
X51021962Y-58621920D01*
X50986137Y-58478929D01*
X50950127Y-58341682D01*
X50915747Y-58216894D01*
X50884814Y-58111282D01*
X50859142Y-58031559D01*
X50853598Y-58016025D01*
X50826946Y-57941180D01*
X50803318Y-57870693D01*
X50786893Y-57817142D01*
X50784268Y-57807349D01*
X50759092Y-57726422D01*
X50722350Y-57632310D01*
X50677331Y-57531311D01*
X50627324Y-57429720D01*
X50575620Y-57333834D01*
X50525508Y-57249948D01*
X50480277Y-57184359D01*
X50443217Y-57143363D01*
X50433809Y-57136577D01*
X50402760Y-57120219D01*
X50380701Y-57120252D01*
X50355892Y-57140414D01*
X50329473Y-57169791D01*
X50302596Y-57201934D01*
X50286951Y-57229464D01*
X50280312Y-57262592D01*
X50183809Y-57262592D01*
X50192560Y-57194432D01*
X50212998Y-57141063D01*
X50246681Y-57095990D01*
X50294722Y-57053030D01*
X50355270Y-57016693D01*
X50412296Y-57009946D01*
X50471395Y-57033707D01*
X50538163Y-57088893D01*
X50543031Y-57093719D01*
X50579135Y-57139241D01*
X50624295Y-57210307D01*
X50674813Y-57299704D01*
X50726990Y-57400216D01*
X50777128Y-57504627D01*
X50821530Y-57605722D01*
X50856497Y-57696286D01*
X50865279Y-57722453D01*
X50889020Y-57793596D01*
X50917964Y-57876072D01*
X50938204Y-57931446D01*
X50955794Y-57984131D01*
X50979556Y-58063421D01*
X51007357Y-58161764D01*
X51037063Y-58271605D01*
X51066540Y-58385390D01*
X51067319Y-58388471D01*
X51113758Y-58571736D01*
X51153156Y-58725422D01*
X51186906Y-58854082D01*
X51216400Y-58962264D01*
X51243031Y-59054520D01*
X51268191Y-59135401D01*
X51293273Y-59209458D01*
X51319670Y-59281240D01*
X51348773Y-59355301D01*
X51381975Y-59436189D01*
X51404081Y-59489028D01*
X51447654Y-59591979D01*
X51487882Y-59685554D01*
X51522354Y-59764266D01*
X51548662Y-59822627D01*
X51564398Y-59855151D01*
X51566121Y-59858163D01*
X51581267Y-59887119D01*
X51607000Y-59940943D01*
X51639878Y-60012271D01*
X51676458Y-60093736D01*
X51681079Y-60104172D01*
X51718377Y-60186626D01*
X51753131Y-60259988D01*
X51781706Y-60316812D01*
X51800466Y-60349649D01*
X51801846Y-60351573D01*
X51816827Y-60368937D01*
X51831495Y-60372888D01*
X51852371Y-60360055D01*
X51885977Y-60327071D01*
X51920460Y-60290303D01*
X52011507Y-60192487D01*
X51888175Y-59946293D01*
X51764844Y-59700100D01*
X51774125Y-59515463D01*
X51781666Y-59407146D01*
X51792730Y-59302499D01*
X51806243Y-59208394D01*
X51821134Y-59131702D01*
X51836327Y-59079294D01*
X51844830Y-59062765D01*
X51872820Y-59047504D01*
X51917453Y-59040806D01*
X51919499Y-59040792D01*
X51962850Y-59047551D01*
X51999508Y-59072936D01*
X52028617Y-59106709D01*
X52100852Y-59205922D01*
X52169390Y-59314187D01*
X52238991Y-59439571D01*
X52314414Y-59590138D01*
X52316729Y-59594947D01*
X52359582Y-59682651D01*
X52400608Y-59764132D01*
X52435782Y-59831557D01*
X52461075Y-59877095D01*
X52465629Y-59884529D01*
X52559357Y-60042928D01*
X52656785Y-60228872D01*
X52754449Y-60435488D01*
X52824327Y-60596433D01*
X52859004Y-60678642D01*
X52892869Y-60757851D01*
X52921106Y-60822838D01*
X52933783Y-60851311D01*
X52977848Y-60949490D01*
X53009837Y-61023706D01*
X53032835Y-61081713D01*
X53049930Y-61131265D01*
X53063218Y-61176502D01*
X53079795Y-61240860D01*
X53085436Y-61281521D01*
X53079465Y-61308416D01*
X53061204Y-61331473D01*
X53052050Y-61340227D01*
X53027877Y-61371284D01*
X53029199Y-61405846D01*
X53034472Y-61421156D01*
X53050724Y-61497584D01*
X53051972Y-61590215D01*
X53039131Y-61683911D01*
X53013876Y-61761930D01*
X52998000Y-61799185D01*
X52987373Y-61836084D01*
X52981161Y-61880405D01*
X52978532Y-61939927D01*
X52978652Y-62022427D01*
X52979613Y-62081761D01*
X52980337Y-62198666D01*
X52976880Y-62299011D01*
X52968080Y-62395276D01*
X52952778Y-62499940D01*
X52929813Y-62625482D01*
X52928370Y-62632905D01*
X52911744Y-62718236D01*
X53094697Y-62900968D01*
X53160439Y-62965470D01*
X53218213Y-63019984D01*
X53263174Y-63060101D01*
X53290476Y-63081413D01*
X53295594Y-63083699D01*
X53313177Y-63066803D01*
X53333160Y-63018431D01*
X53354165Y-62942064D01*
X53357569Y-62927297D01*
X53354726Y-62879638D01*
X53333428Y-62820482D01*
X53299763Y-62763502D01*
X53269795Y-62730187D01*
X53235896Y-62705207D01*
X53185301Y-62672636D01*
X53153668Y-62653811D01*
X53103014Y-62621077D01*
X53077648Y-62592897D01*
X53077190Y-62590918D01*
X53351419Y-62590918D01*
X53359994Y-62619554D01*
X53379288Y-62653246D01*
X53399659Y-62676489D01*
X53406447Y-62679408D01*
X53425150Y-62669640D01*
X53463861Y-62643883D01*
X53514631Y-62607459D01*
X53520870Y-62602836D01*
X53601875Y-62537770D01*
X53659696Y-62481581D01*
X53693907Y-62436591D01*
X53704083Y-62405122D01*
X53689799Y-62389496D01*
X53650630Y-62392037D01*
X53586151Y-62415066D01*
X53552318Y-62430960D01*
X53478238Y-62472208D01*
X53415838Y-62515356D01*
X53371564Y-62555273D01*
X53351862Y-62586826D01*
X53351419Y-62590918D01*
X53077190Y-62590918D01*
X53070214Y-62560780D01*
X53070174Y-62557417D01*
X53074511Y-62524332D01*
X53090761Y-62496243D01*
X53123779Y-62469707D01*
X53178423Y-62441279D01*
X53259548Y-62407513D01*
X53307475Y-62389097D01*
X53382706Y-62359597D01*
X53447264Y-62332391D01*
X53492947Y-62311042D01*
X53509620Y-62301240D01*
X53542446Y-62283338D01*
X53601455Y-62259206D01*
X53678852Y-62231621D01*
X53766838Y-62203363D01*
X53857616Y-62177210D01*
X53857841Y-62177150D01*
X53932811Y-62163150D01*
X53982762Y-62170185D01*
X54011966Y-62199854D01*
X54022972Y-62238903D01*
X54025628Y-62253734D01*
X54026923Y-62266271D01*
X54024313Y-62279422D01*
X54015251Y-62296091D01*
X53997190Y-62319187D01*
X53967586Y-62351613D01*
X53923892Y-62396277D01*
X53863563Y-62456084D01*
X53784051Y-62533941D01*
X53682812Y-62632754D01*
X53649018Y-62665751D01*
X53569156Y-62744133D01*
X53510437Y-62803566D01*
X53468716Y-62849518D01*
X53439843Y-62887460D01*
X53419673Y-62922861D01*
X53404057Y-62961189D01*
X53388848Y-63007913D01*
X53388366Y-63009463D01*
X53348662Y-63137372D01*
X53442009Y-63220397D01*
X53518334Y-63289878D01*
X53570268Y-63341341D01*
X53601102Y-63378442D01*
X53614124Y-63404838D01*
X53615087Y-63412720D01*
X53609208Y-63436711D01*
X53590529Y-63476624D01*
X53557488Y-63535113D01*
X53508524Y-63614831D01*
X53442074Y-63718432D01*
X53374166Y-63821969D01*
X53306543Y-63923852D01*
X53252021Y-64004135D01*
X53204634Y-64070756D01*
X53158416Y-64131651D01*
X53107403Y-64194756D01*
X53045627Y-64268007D01*
X52991352Y-64331234D01*
X52933870Y-64398986D01*
X52882548Y-64461340D01*
X52843157Y-64511165D01*
X52822056Y-64540383D01*
X52780292Y-64595705D01*
X52715233Y-64667555D01*
X52631680Y-64751332D01*
X52534434Y-64842434D01*
X52428297Y-64936260D01*
X52318070Y-65028207D01*
X52287491Y-65052700D01*
X52244054Y-65089764D01*
X52212122Y-65121713D01*
X52203591Y-65133000D01*
X52181906Y-65150660D01*
X52141713Y-65155526D01*
X52079816Y-65147117D01*
X51993016Y-65124950D01*
X51878115Y-65088545D01*
X51853761Y-65080292D01*
X51764686Y-65049200D01*
X51690395Y-65021011D01*
X51624011Y-64992147D01*
X51558659Y-64959033D01*
X51487463Y-64918092D01*
X51403547Y-64865746D01*
X51300037Y-64798420D01*
X51255666Y-64769176D01*
X51155384Y-64704690D01*
X51040796Y-64633731D01*
X50927021Y-64565532D01*
X50841251Y-64516073D01*
X50752579Y-64464748D01*
X50664345Y-64411043D01*
X50586659Y-64361265D01*
X50529633Y-64321725D01*
X50528839Y-64321132D01*
X50476766Y-64285080D01*
X51756834Y-64285080D01*
X51756976Y-64285629D01*
X51774483Y-64304231D01*
X51813545Y-64333248D01*
X51856840Y-64360942D01*
X51950308Y-64417068D01*
X52097161Y-64293404D01*
X52156460Y-64243081D01*
X52204289Y-64201752D01*
X52235172Y-64174197D01*
X52244014Y-64165205D01*
X52228574Y-64167203D01*
X52188092Y-64176799D01*
X52131322Y-64191918D01*
X52131177Y-64191958D01*
X52053165Y-64211326D01*
X51961473Y-64230847D01*
X51884460Y-64244844D01*
X51815467Y-64258421D01*
X51771256Y-64272367D01*
X51756834Y-64285080D01*
X50476766Y-64285080D01*
X50469574Y-64280101D01*
X50413504Y-64246887D01*
X50372578Y-64228557D01*
X50371973Y-64228385D01*
X50338038Y-64217583D01*
X50277844Y-64197145D01*
X50198177Y-64169425D01*
X50105824Y-64136777D01*
X50037994Y-64112516D01*
X49811660Y-64022169D01*
X49570554Y-63909305D01*
X49322847Y-63778046D01*
X49076709Y-63632512D01*
X49038397Y-63608418D01*
X48926494Y-63530582D01*
X48801079Y-63431845D01*
X48669979Y-63319244D01*
X48541022Y-63199815D01*
X48422036Y-63080597D01*
X48320846Y-62968626D01*
X48303228Y-62947471D01*
X48239772Y-62876240D01*
X48187046Y-62834749D01*
X48139005Y-62821844D01*
X48089603Y-62836369D01*
X48032796Y-62877170D01*
X48015461Y-62892489D01*
X47973139Y-62923511D01*
X47913885Y-62958083D01*
X47848484Y-62990908D01*
X47787723Y-63016689D01*
X47742390Y-63030131D01*
X47733442Y-63030965D01*
X47703291Y-63038449D01*
X47649144Y-63058897D01*
X47578322Y-63089304D01*
X47498148Y-63126667D01*
X47487094Y-63132038D01*
X47399236Y-63174197D01*
X47334252Y-63202729D01*
X47283827Y-63220234D01*
X47239647Y-63229314D01*
X47193401Y-63232569D01*
X47164933Y-63232822D01*
X47025701Y-63220730D01*
X46911381Y-63184555D01*
X46820373Y-63123298D01*
X46751077Y-63035960D01*
X46711377Y-62949950D01*
X46692243Y-62880253D01*
X46686373Y-62809165D01*
X46695071Y-62732640D01*
X46719638Y-62646632D01*
X46761378Y-62547094D01*
X46821594Y-62429980D01*
X46901590Y-62291244D01*
X46948243Y-62214404D01*
X46983346Y-62154423D01*
X47009687Y-62103921D01*
X47022736Y-62071764D01*
X47023392Y-62067433D01*
X47030633Y-62042071D01*
X47050204Y-61992934D01*
X47078874Y-61927773D01*
X47104301Y-61873269D01*
X47196273Y-61669727D01*
X47265293Y-61492376D01*
X47311336Y-61341307D01*
X47334372Y-61216606D01*
X47335410Y-61126987D01*
X47325407Y-61076438D01*
X47305541Y-61006155D01*
X47279521Y-60928834D01*
X47270258Y-60904045D01*
X47213976Y-60752475D01*
X47171462Y-60625327D01*
X47140709Y-60515607D01*
X47119708Y-60416321D01*
X47108803Y-60341595D01*
X47098693Y-60266355D01*
X47087968Y-60217430D01*
X47073555Y-60186063D01*
X47052384Y-60163498D01*
X47044056Y-60156986D01*
X46954979Y-60083466D01*
X46866149Y-59997978D01*
X46785089Y-59908718D01*
X46719322Y-59823885D01*
X46681115Y-59761484D01*
X46644154Y-59680542D01*
X46609228Y-59589851D01*
X46578683Y-59497333D01*
X46554865Y-59410909D01*
X46540119Y-59338500D01*
X46539050Y-59322281D01*
X46637363Y-59322281D01*
X46644480Y-59361982D01*
X46661121Y-59423310D01*
X46688317Y-59511921D01*
X46689703Y-59516317D01*
X46717763Y-59601454D01*
X46745140Y-59677927D01*
X46768720Y-59737433D01*
X46785391Y-59771671D01*
X46785556Y-59771924D01*
X46825278Y-59823626D01*
X46885028Y-59890565D01*
X46957684Y-59965644D01*
X47036122Y-60041768D01*
X47113220Y-60111840D01*
X47181857Y-60168763D01*
X47190381Y-60175275D01*
X47253752Y-60224714D01*
X47332865Y-60288856D01*
X47417184Y-60359051D01*
X47489205Y-60420592D01*
X47563288Y-60482575D01*
X47636465Y-60539800D01*
X47700482Y-60586051D01*
X47747081Y-60615111D01*
X47748478Y-60615834D01*
X47797871Y-60646883D01*
X47826431Y-60676377D01*
X47831273Y-60699144D01*
X47809511Y-60710016D01*
X47801212Y-60710303D01*
X47746287Y-60697505D01*
X47674081Y-60659713D01*
X47583257Y-60596072D01*
X47472479Y-60505724D01*
X47445260Y-60482146D01*
X47375503Y-60421924D01*
X47312864Y-60369246D01*
X47263211Y-60328947D01*
X47232410Y-60305860D01*
X47228118Y-60303221D01*
X47208515Y-60295394D01*
X47201390Y-60305350D01*
X47204301Y-60340090D01*
X47207641Y-60361937D01*
X47225432Y-60447423D01*
X47255224Y-60552663D01*
X47298224Y-60681532D01*
X47355638Y-60837902D01*
X47357393Y-60842523D01*
X47390829Y-60931884D01*
X47431255Y-61041996D01*
X47474133Y-61160394D01*
X47514929Y-61274615D01*
X47524758Y-61302439D01*
X47561917Y-61406716D01*
X47600151Y-61511935D01*
X47635736Y-61607985D01*
X47664953Y-61684758D01*
X47673594Y-61706730D01*
X47714419Y-61801330D01*
X47767657Y-61913065D01*
X47830082Y-62036169D01*
X47898473Y-62164872D01*
X47969606Y-62293407D01*
X48040257Y-62416006D01*
X48107205Y-62526901D01*
X48167225Y-62620323D01*
X48217095Y-62690506D01*
X48236762Y-62714564D01*
X48272382Y-62755466D01*
X48322394Y-62813466D01*
X48378440Y-62878858D01*
X48405374Y-62910424D01*
X48510932Y-63026502D01*
X48633008Y-63147798D01*
X48763849Y-63267460D01*
X48895705Y-63378641D01*
X49020826Y-63474489D01*
X49117183Y-63539464D01*
X49430476Y-63722316D01*
X49732835Y-63875866D01*
X50028804Y-64002382D01*
X50097336Y-64028220D01*
X50407129Y-64142074D01*
X50714741Y-64164716D01*
X50825657Y-64171244D01*
X50961412Y-64176665D01*
X51111698Y-64180719D01*
X51266211Y-64183148D01*
X51414642Y-64183696D01*
X51461800Y-64183409D01*
X51602441Y-64181855D01*
X51713500Y-64179748D01*
X51800551Y-64176682D01*
X51869169Y-64172253D01*
X51924926Y-64166053D01*
X51973396Y-64157678D01*
X52020154Y-64146720D01*
X52040563Y-64141267D01*
X52109534Y-64120185D01*
X52167639Y-64098491D01*
X52204480Y-64080169D01*
X52209010Y-64076711D01*
X52243243Y-64054860D01*
X52294708Y-64031225D01*
X52315783Y-64023340D01*
X52370553Y-63997348D01*
X52414876Y-63964533D01*
X52425008Y-63953094D01*
X52456590Y-63909858D01*
X52363486Y-63909822D01*
X52301553Y-63913157D01*
X52220419Y-63922035D01*
X52135278Y-63934717D01*
X52115148Y-63938278D01*
X52035933Y-63951550D01*
X51984275Y-63956607D01*
X51953614Y-63953715D01*
X51939369Y-63945426D01*
X51931412Y-63925294D01*
X51951684Y-63902942D01*
X51962769Y-63895311D01*
X51996961Y-63868762D01*
X52034490Y-63836120D01*
X52178307Y-63836120D01*
X52181792Y-63850416D01*
X52205467Y-63851022D01*
X52213253Y-63849570D01*
X52250693Y-63843750D01*
X52309970Y-63836563D01*
X52374479Y-63829934D01*
X52440973Y-63822216D01*
X52484065Y-63811128D01*
X52515472Y-63791671D01*
X52546910Y-63758845D01*
X52550258Y-63754927D01*
X52595965Y-63703476D01*
X52642905Y-63653963D01*
X52654069Y-63642852D01*
X52703777Y-63594372D01*
X52627702Y-63505484D01*
X52551627Y-63416596D01*
X52491921Y-63483054D01*
X52453758Y-63524770D01*
X52399873Y-63582701D01*
X52338842Y-63647656D01*
X52302959Y-63685548D01*
X52237494Y-63756240D01*
X52196408Y-63805579D01*
X52178307Y-63836120D01*
X52034490Y-63836120D01*
X52051384Y-63821426D01*
X52121488Y-63757448D01*
X52202724Y-63680978D01*
X52285714Y-63600880D01*
X52409466Y-63467827D01*
X52523425Y-63321709D01*
X52623763Y-63168959D01*
X52706650Y-63016011D01*
X52768256Y-62869297D01*
X52804753Y-62735251D01*
X52806297Y-62726340D01*
X52819828Y-62653870D01*
X52835923Y-62579753D01*
X52841642Y-62556363D01*
X52848725Y-62513863D01*
X52856209Y-62443315D01*
X52863526Y-62351812D01*
X52870108Y-62246449D01*
X52875383Y-62134495D01*
X52880808Y-62009558D01*
X52886398Y-61914105D01*
X52892806Y-61842464D01*
X52900684Y-61788968D01*
X52910684Y-61747946D01*
X52923461Y-61713729D01*
X52923948Y-61712626D01*
X52948999Y-61632600D01*
X52951780Y-61546116D01*
X52951363Y-61540801D01*
X52944195Y-61483970D01*
X52930844Y-61450546D01*
X52905521Y-61428782D01*
X52892669Y-61421699D01*
X52857460Y-61397042D01*
X52841719Y-61373267D01*
X52841661Y-61372131D01*
X52856690Y-61339095D01*
X52894394Y-61305983D01*
X52942734Y-61282863D01*
X52973407Y-61267687D01*
X52982284Y-61255077D01*
X52974542Y-61221080D01*
X52951523Y-61156336D01*
X52913541Y-61061610D01*
X52860909Y-60937664D01*
X52793940Y-60785264D01*
X52742506Y-60670497D01*
X52655814Y-60480162D01*
X52580909Y-60319875D01*
X52516502Y-60187051D01*
X52461303Y-60079103D01*
X52414023Y-59993447D01*
X52373373Y-59927497D01*
X52368135Y-59919685D01*
X52338240Y-59873295D01*
X52318727Y-59838562D01*
X52314401Y-59826862D01*
X52306190Y-59806209D01*
X52284407Y-59763277D01*
X52253212Y-59706143D01*
X52241956Y-59686239D01*
X52201003Y-59609905D01*
X52161597Y-59528908D01*
X52131890Y-59460056D01*
X52130569Y-59456610D01*
X52105506Y-59402237D01*
X52070205Y-59340030D01*
X52029881Y-59277553D01*
X51989747Y-59222368D01*
X51955017Y-59182038D01*
X51930906Y-59164126D01*
X51928718Y-59163837D01*
X51918308Y-59180150D01*
X51907153Y-59224118D01*
X51896266Y-59288283D01*
X51886658Y-59365188D01*
X51879344Y-59447375D01*
X51875335Y-59527389D01*
X51874879Y-59560291D01*
X51875563Y-59612018D01*
X51879182Y-59654842D01*
X51888087Y-59696099D01*
X51904628Y-59743127D01*
X51931156Y-59803264D01*
X51970023Y-59883845D01*
X51994327Y-59933103D01*
X52035585Y-60019592D01*
X52069855Y-60097370D01*
X52094509Y-60159990D01*
X52106919Y-60201007D01*
X52107730Y-60211291D01*
X52092396Y-60242749D01*
X52058779Y-60286913D01*
X52023439Y-60324813D01*
X51982206Y-60369141D01*
X51953856Y-60407005D01*
X51945191Y-60427163D01*
X51940142Y-60457483D01*
X51927177Y-60507887D01*
X51915905Y-60545625D01*
X51900086Y-60618569D01*
X51906543Y-60665453D01*
X51935031Y-60685669D01*
X51970786Y-60682945D01*
X51995930Y-60682034D01*
X52026434Y-60693229D01*
X52066410Y-60719472D01*
X52119973Y-60763705D01*
X52191236Y-60828871D01*
X52241162Y-60876326D01*
X52320396Y-60956778D01*
X52393293Y-61039128D01*
X52456474Y-61118666D01*
X52506562Y-61190680D01*
X52540179Y-61250460D01*
X52553947Y-61293296D01*
X52551308Y-61308852D01*
X52533019Y-61324269D01*
X52508755Y-61316249D01*
X52475609Y-61282369D01*
X52430672Y-61220205D01*
X52413216Y-61193774D01*
X52359967Y-61119816D01*
X52295188Y-61041929D01*
X52224021Y-60965040D01*
X52151604Y-60894076D01*
X52083077Y-60833963D01*
X52023580Y-60789626D01*
X51978252Y-60765993D01*
X51964234Y-60763422D01*
X51908406Y-60750589D01*
X51859367Y-60718015D01*
X51827983Y-60674588D01*
X51822146Y-60647190D01*
X51813290Y-60603130D01*
X51790750Y-60543635D01*
X51760564Y-60482370D01*
X51728774Y-60433001D01*
X51725904Y-60429443D01*
X51709769Y-60402846D01*
X51683710Y-60352203D01*
X51651826Y-60285703D01*
X51629126Y-60236087D01*
X51587382Y-60144119D01*
X51541005Y-60043568D01*
X51497966Y-59951676D01*
X51484721Y-59923817D01*
X51449505Y-59847772D01*
X51404956Y-59748036D01*
X51354898Y-59633519D01*
X51303154Y-59513132D01*
X51253550Y-59395783D01*
X51209907Y-59290383D01*
X51176051Y-59205842D01*
X51171151Y-59193162D01*
X51140809Y-59128035D01*
X51103166Y-59065073D01*
X51089261Y-59046036D01*
X51021018Y-58958260D01*
X50974969Y-58894841D01*
X50949848Y-58853955D01*
X50943973Y-58836875D01*
X50933434Y-58813499D01*
X50905582Y-58768776D01*
X50864879Y-58708960D01*
X50815786Y-58640303D01*
X50762765Y-58569058D01*
X50710279Y-58501480D01*
X50667199Y-58448978D01*
X50567296Y-58344276D01*
X50444655Y-58235631D01*
X50309540Y-58131218D01*
X50172215Y-58039210D01*
X50099516Y-57996884D01*
X49951832Y-57923795D01*
X49820442Y-57875865D01*
X49699203Y-57851186D01*
X49616125Y-57846731D01*
X49559063Y-57850309D01*
X49522685Y-57863669D01*
X49492758Y-57892508D01*
X49488523Y-57897787D01*
X49448810Y-57948130D01*
X49557587Y-58024254D01*
X49642296Y-58093450D01*
X49697739Y-58163253D01*
X49706666Y-58179478D01*
X49738978Y-58255960D01*
X49745786Y-58316712D01*
X49725802Y-58371493D01*
X49677736Y-58430060D01*
X49672907Y-58434934D01*
X49579323Y-58505060D01*
X49464131Y-58553431D01*
X49335090Y-58577618D01*
X49218398Y-58577174D01*
X49071647Y-58551073D01*
X48943750Y-58502898D01*
X48863630Y-58453299D01*
X48823669Y-58424666D01*
X48796522Y-58415553D01*
X48767374Y-58423745D01*
X48744014Y-58435395D01*
X48687912Y-58454103D01*
X48609310Y-58467563D01*
X48520583Y-58474964D01*
X48434105Y-58475491D01*
X48362251Y-58468331D01*
X48337188Y-58462125D01*
X48275241Y-58434542D01*
X48245227Y-58404060D01*
X48248531Y-58372394D01*
X48256702Y-58362440D01*
X48285437Y-58345738D01*
X48324494Y-58352133D01*
X48331042Y-58354534D01*
X48392301Y-58368094D01*
X48472609Y-58373146D01*
X48558545Y-58370152D01*
X48636691Y-58359574D01*
X48693288Y-58342045D01*
X48714409Y-58326687D01*
X48852397Y-58326687D01*
X48868420Y-58361096D01*
X48890555Y-58380626D01*
X48932177Y-58400670D01*
X48973350Y-58407255D01*
X49002453Y-58399855D01*
X49009420Y-58386017D01*
X48994058Y-58343133D01*
X48947002Y-58306277D01*
X48942399Y-58303800D01*
X48894748Y-58290095D01*
X48862960Y-58300372D01*
X48852397Y-58326687D01*
X48714409Y-58326687D01*
X48761562Y-58292399D01*
X48799497Y-58229544D01*
X48807478Y-58157353D01*
X48785890Y-58079702D01*
X48775037Y-58062764D01*
X49233954Y-58062764D01*
X49263086Y-58095740D01*
X49282146Y-58109332D01*
X49327181Y-58136285D01*
X49351031Y-58140304D01*
X49360047Y-58120316D01*
X49360977Y-58095983D01*
X49353194Y-58037729D01*
X49329477Y-58009866D01*
X49288037Y-58010599D01*
X49278786Y-58013548D01*
X49239199Y-58035676D01*
X49233954Y-58062764D01*
X48775037Y-58062764D01*
X48735119Y-58000468D01*
X48655550Y-57923524D01*
X48651333Y-57920204D01*
X48622429Y-57900981D01*
X48589881Y-57889254D01*
X48544470Y-57883337D01*
X48476979Y-57881543D01*
X48440433Y-57881610D01*
X48313082Y-57888589D01*
X48214743Y-57908741D01*
X48141307Y-57943452D01*
X48088666Y-57994108D01*
X48082940Y-58002226D01*
X48057018Y-58049703D01*
X48043476Y-58092093D01*
X48042907Y-58099254D01*
X48028062Y-58134536D01*
X47986612Y-58181598D01*
X47923188Y-58236083D01*
X47842418Y-58293635D01*
X47823184Y-58306020D01*
X47772682Y-58343907D01*
X47714607Y-58396026D01*
X47673772Y-58437917D01*
X47542684Y-58593434D01*
X47438180Y-58743275D01*
X47355093Y-58896849D01*
X47288253Y-59063566D01*
X47238161Y-59230928D01*
X47185898Y-59429853D01*
X47276029Y-59472609D01*
X47345599Y-59508513D01*
X47417673Y-59550042D01*
X47445260Y-59567456D01*
X47501897Y-59602766D01*
X47556083Y-59633404D01*
X47577094Y-59643937D01*
X47622304Y-59671654D01*
X47673484Y-59712436D01*
X47691350Y-59729132D01*
X47728523Y-59764097D01*
X47785021Y-59815094D01*
X47853341Y-59875437D01*
X47925980Y-59938437D01*
X47930227Y-59942082D01*
X48037372Y-60038093D01*
X48117012Y-60118547D01*
X48168548Y-60182699D01*
X48191382Y-60229809D01*
X48185338Y-60258723D01*
X48168999Y-60264285D01*
X48144400Y-60251145D01*
X48106597Y-60215824D01*
X48072626Y-60179346D01*
X48003755Y-60108914D01*
X47914520Y-60025837D01*
X47812036Y-59936008D01*
X47703417Y-59845315D01*
X47595777Y-59759649D01*
X47496232Y-59684901D01*
X47411894Y-59626961D01*
X47386549Y-59611306D01*
X47315372Y-59568128D01*
X47248511Y-59525797D01*
X47196880Y-59491285D01*
X47183064Y-59481326D01*
X47126044Y-59442082D01*
X47052099Y-59395811D01*
X46974491Y-59350418D01*
X46906485Y-59313805D01*
X46882769Y-59302398D01*
X46828802Y-59285193D01*
X46765348Y-59274934D01*
X46704861Y-59272538D01*
X46659796Y-59278918D01*
X46647579Y-59285130D01*
X46638739Y-59298549D01*
X46637363Y-59322281D01*
X46539050Y-59322281D01*
X46536792Y-59288028D01*
X46538216Y-59278947D01*
X46565725Y-59235878D01*
X46618830Y-59209192D01*
X46691961Y-59198998D01*
X46779550Y-59205406D01*
X46876030Y-59228527D01*
X46975832Y-59268470D01*
X46979447Y-59270238D01*
X47039442Y-59299704D01*
X47087051Y-59322945D01*
X47113603Y-59335733D01*
X47115675Y-59336686D01*
X47125952Y-59326809D01*
X47128859Y-59304068D01*
X47133185Y-59266638D01*
X47144382Y-59209458D01*
X47156123Y-59160374D01*
X47170449Y-59088139D01*
X47178008Y-59015428D01*
X47178095Y-58976948D01*
X47172803Y-58898739D01*
X47078545Y-58964851D01*
X46984287Y-59030963D01*
X46949307Y-58987764D01*
X46928923Y-58955553D01*
X46921158Y-58917934D01*
X46923338Y-58871142D01*
X47023392Y-58871142D01*
X47062942Y-58835119D01*
X47106055Y-58801143D01*
X47141602Y-58778938D01*
X47180713Y-58758781D01*
X47132813Y-58689519D01*
X47128246Y-58683297D01*
X47210774Y-58683297D01*
X47231916Y-58721858D01*
X47247184Y-58740339D01*
X47288467Y-58779028D01*
X47316887Y-58785515D01*
X47333576Y-58759846D01*
X47336748Y-58744019D01*
X47329423Y-58693759D01*
X47295543Y-58661527D01*
X47259578Y-58654080D01*
X47219929Y-58661157D01*
X47210774Y-58683297D01*
X47128246Y-58683297D01*
X47102977Y-58648874D01*
X47081118Y-58623613D01*
X47075376Y-58619591D01*
X47064980Y-58634539D01*
X47051784Y-58673142D01*
X47038595Y-58724353D01*
X47028216Y-58777120D01*
X47023453Y-58820394D01*
X47023392Y-58824386D01*
X47023392Y-58871142D01*
X46923338Y-58871142D01*
X46923775Y-58861775D01*
X46925347Y-58847162D01*
X46937014Y-58775191D01*
X46955531Y-58691874D01*
X46970540Y-58636892D01*
X47002483Y-58531390D01*
X47122327Y-58531390D01*
X47131752Y-58556733D01*
X47155573Y-58589101D01*
X47177372Y-58593236D01*
X47218092Y-58584321D01*
X47228371Y-58583768D01*
X47245335Y-58575619D01*
X47246550Y-58545849D01*
X47243199Y-58526640D01*
X47227170Y-58455934D01*
X47212086Y-58417665D01*
X47194472Y-58409395D01*
X47170855Y-58428686D01*
X47147396Y-58459375D01*
X47123969Y-58499228D01*
X47122327Y-58531390D01*
X47002483Y-58531390D01*
X47004713Y-58524025D01*
X46913979Y-58336049D01*
X47027449Y-58336049D01*
X47045198Y-58373072D01*
X47067923Y-58402111D01*
X47089032Y-58402158D01*
X47118930Y-58374094D01*
X47140514Y-58329689D01*
X47138047Y-58303782D01*
X47126527Y-58276758D01*
X47107868Y-58269119D01*
X47069626Y-58276668D01*
X47062942Y-58278446D01*
X47029694Y-58299287D01*
X47027449Y-58336049D01*
X46913979Y-58336049D01*
X46913074Y-58334174D01*
X46821434Y-58144322D01*
X46737469Y-58144322D01*
X46683774Y-58141529D01*
X46653692Y-58130149D01*
X46635917Y-58105682D01*
X46634897Y-58103486D01*
X46627327Y-58073513D01*
X46627475Y-58072317D01*
X46918966Y-58072317D01*
X46927873Y-58119495D01*
X46944785Y-58162854D01*
X46964851Y-58197024D01*
X46982959Y-58203957D01*
X47012399Y-58188090D01*
X47015096Y-58186327D01*
X47046219Y-58161388D01*
X47058547Y-58142897D01*
X47050065Y-58107167D01*
X47029474Y-58065883D01*
X47004061Y-58030394D01*
X46981109Y-58012050D01*
X46974499Y-58011954D01*
X46941976Y-58020582D01*
X46934065Y-58021277D01*
X46920750Y-58035884D01*
X46918966Y-58072317D01*
X46627475Y-58072317D01*
X46632081Y-58035081D01*
X46640084Y-58011050D01*
X46731476Y-58011050D01*
X46733108Y-58034552D01*
X46749054Y-58038855D01*
X46772964Y-58032184D01*
X46776066Y-58025671D01*
X46769315Y-57999625D01*
X46757404Y-57973274D01*
X46746719Y-57958920D01*
X46743381Y-57962711D01*
X46736271Y-57996800D01*
X46731476Y-58011050D01*
X46640084Y-58011050D01*
X46650852Y-57978719D01*
X46662401Y-57949680D01*
X46708511Y-57836709D01*
X46673174Y-57700626D01*
X46782709Y-57700626D01*
X46787060Y-57736993D01*
X46797434Y-57782035D01*
X46813696Y-57836282D01*
X46832190Y-57889359D01*
X46849262Y-57930888D01*
X46861254Y-57950491D01*
X46862418Y-57950900D01*
X46878967Y-57941320D01*
X46908685Y-57919304D01*
X46935737Y-57892542D01*
X46936586Y-57866130D01*
X46926956Y-57844598D01*
X46908653Y-57797189D01*
X46893946Y-57740290D01*
X46893192Y-57736253D01*
X46878233Y-57682044D01*
X46855366Y-57657936D01*
X46819206Y-57658965D01*
X46811758Y-57661153D01*
X46788822Y-57674269D01*
X46782709Y-57700626D01*
X46673174Y-57700626D01*
X46668572Y-57682903D01*
X46646763Y-57604267D01*
X46626958Y-57555644D01*
X46603521Y-57532730D01*
X46570817Y-57531224D01*
X46523211Y-57546822D01*
X46501836Y-57555588D01*
X46444429Y-57570191D01*
X46407982Y-57556742D01*
X46391684Y-57514794D01*
X46390589Y-57494079D01*
X46397328Y-57441197D01*
X46405741Y-57408053D01*
X46478720Y-57408053D01*
X46486919Y-57444051D01*
X46514544Y-57459251D01*
X46556769Y-57447434D01*
X46562087Y-57444225D01*
X46575437Y-57419478D01*
X46575402Y-57406848D01*
X46691516Y-57406848D01*
X46694827Y-57440387D01*
X46704879Y-57476250D01*
X46722303Y-57524208D01*
X46741328Y-57543829D01*
X46769801Y-57541375D01*
X46781358Y-57537269D01*
X46796600Y-57519676D01*
X46798447Y-57479207D01*
X46795544Y-57453775D01*
X46786630Y-57407165D01*
X46772884Y-57386838D01*
X46747592Y-57383974D01*
X46742797Y-57384459D01*
X46706241Y-57391267D01*
X46691516Y-57406848D01*
X46575402Y-57406848D01*
X46575296Y-57367901D01*
X46572881Y-57347816D01*
X46561178Y-57293170D01*
X46546334Y-57267647D01*
X46530589Y-57273459D01*
X46520588Y-57296190D01*
X46503698Y-57339182D01*
X46494773Y-57357474D01*
X46478720Y-57408053D01*
X46405741Y-57408053D01*
X46414811Y-57372324D01*
X46438934Y-57299615D01*
X46454257Y-57262601D01*
X46465591Y-57235223D01*
X46479267Y-57211281D01*
X46636679Y-57211281D01*
X46636679Y-57262601D01*
X46706322Y-57235244D01*
X46749199Y-57215961D01*
X46764754Y-57199082D01*
X46759350Y-57176938D01*
X46757551Y-57173479D01*
X46729978Y-57148056D01*
X46701091Y-57149276D01*
X46665163Y-57157574D01*
X46649862Y-57159722D01*
X46640501Y-57175166D01*
X46636679Y-57211281D01*
X46479267Y-57211281D01*
X46490680Y-57191301D01*
X46494297Y-57186961D01*
X46508273Y-57166077D01*
X46518496Y-57134938D01*
X46525954Y-57087284D01*
X46531634Y-57016857D01*
X46536144Y-56925467D01*
X46628487Y-56925467D01*
X46641550Y-56956100D01*
X46656881Y-56971000D01*
X46696382Y-56997698D01*
X46722265Y-56996667D01*
X46733389Y-56984132D01*
X46737515Y-56957289D01*
X46735254Y-56910042D01*
X46732289Y-56886511D01*
X46722509Y-56837256D01*
X46709241Y-56814939D01*
X46687150Y-56811392D01*
X46683532Y-56811857D01*
X46652928Y-56829521D01*
X46634348Y-56875371D01*
X46633612Y-56878716D01*
X46628487Y-56925467D01*
X46536144Y-56925467D01*
X46536418Y-56919916D01*
X46543450Y-56751651D01*
X46834213Y-56751651D01*
X46834901Y-56826432D01*
X46840148Y-56924298D01*
X46845519Y-57001761D01*
X46866481Y-57188467D01*
X46903180Y-57396837D01*
X46953815Y-57618065D01*
X47016585Y-57843348D01*
X47019925Y-57854287D01*
X47053392Y-57949959D01*
X47098398Y-58059654D01*
X47150867Y-58175028D01*
X47206724Y-58287740D01*
X47261894Y-58389445D01*
X47312300Y-58471802D01*
X47341035Y-58511578D01*
X47417101Y-58606377D01*
X47444364Y-58564548D01*
X47468512Y-58529703D01*
X47506054Y-58477898D01*
X47549033Y-58420104D01*
X47550727Y-58417857D01*
X47621612Y-58338176D01*
X47706399Y-58263776D01*
X47741840Y-58238225D01*
X47817973Y-58186154D01*
X47870926Y-58145435D01*
X47907515Y-58109087D01*
X47934558Y-58070127D01*
X47958872Y-58021575D01*
X47963512Y-58011217D01*
X48020863Y-57917661D01*
X48100649Y-57849388D01*
X48154831Y-57821828D01*
X48752035Y-57821828D01*
X48759954Y-57854967D01*
X48784808Y-57893387D01*
X48811065Y-57925591D01*
X48849648Y-57969670D01*
X48878292Y-57992307D01*
X48909542Y-57999089D01*
X48955943Y-57995599D01*
X48965744Y-57994445D01*
X49033168Y-57984004D01*
X49112941Y-57968259D01*
X49163377Y-57956596D01*
X49237656Y-57932909D01*
X49311813Y-57901193D01*
X49351825Y-57879260D01*
X49415692Y-57826973D01*
X49444818Y-57772760D01*
X49439159Y-57716069D01*
X49398671Y-57656344D01*
X49329269Y-57597267D01*
X49232258Y-57547950D01*
X49126537Y-57528844D01*
X49019809Y-57539131D01*
X48919777Y-57577990D01*
X48834147Y-57644603D01*
X48828696Y-57650500D01*
X48788957Y-57705210D01*
X48761471Y-57762904D01*
X48756394Y-57781713D01*
X48752035Y-57821828D01*
X48154831Y-57821828D01*
X48161277Y-57818549D01*
X48218125Y-57794793D01*
X48165672Y-57677884D01*
X48139866Y-57617443D01*
X48131345Y-57594946D01*
X48242056Y-57594946D01*
X48243145Y-57618683D01*
X48259292Y-57660856D01*
X48270874Y-57686134D01*
X48302626Y-57740415D01*
X48333642Y-57771471D01*
X48359185Y-57777240D01*
X48374518Y-57755664D01*
X48376886Y-57732247D01*
X48369432Y-57696179D01*
X48350994Y-57649888D01*
X48327466Y-57604967D01*
X48304738Y-57573009D01*
X48291655Y-57564522D01*
X48268479Y-57573088D01*
X48254686Y-57580936D01*
X48242056Y-57594946D01*
X48131345Y-57594946D01*
X48121143Y-57568010D01*
X48113267Y-57539592D01*
X48113219Y-57538514D01*
X48110149Y-57526554D01*
X48412212Y-57526554D01*
X48423276Y-57567818D01*
X48441646Y-57617492D01*
X48462802Y-57664234D01*
X48482221Y-57696703D01*
X48492645Y-57704875D01*
X48518001Y-57693295D01*
X48554744Y-57664309D01*
X48567893Y-57651787D01*
X48600512Y-57616392D01*
X48611187Y-57590208D01*
X48603797Y-57558590D01*
X48596983Y-57541926D01*
X48579021Y-57506540D01*
X48556782Y-57491372D01*
X48517267Y-57489850D01*
X48496908Y-57491328D01*
X48448703Y-57496694D01*
X48417658Y-57502864D01*
X48412977Y-57505042D01*
X48412212Y-57526554D01*
X48110149Y-57526554D01*
X48105667Y-57509097D01*
X48085180Y-57455527D01*
X48055009Y-57384861D01*
X48050349Y-57374586D01*
X48138689Y-57374586D01*
X48155765Y-57431783D01*
X48155784Y-57431828D01*
X48174980Y-57473606D01*
X48189386Y-57487467D01*
X48206228Y-57478530D01*
X48212792Y-57472212D01*
X48229598Y-57450510D01*
X48231003Y-57425605D01*
X48217215Y-57384078D01*
X48214270Y-57376639D01*
X48190871Y-57328724D01*
X48170185Y-57313595D01*
X48148796Y-57329420D01*
X48142761Y-57338280D01*
X48138689Y-57374586D01*
X48050349Y-57374586D01*
X48018405Y-57304152D01*
X47991054Y-57246616D01*
X48292615Y-57246616D01*
X48298142Y-57278569D01*
X48312809Y-57311439D01*
X48334724Y-57351692D01*
X48357182Y-57367009D01*
X48394253Y-57364901D01*
X48408243Y-57362384D01*
X48452601Y-57352551D01*
X48479408Y-57343718D01*
X48481583Y-57342268D01*
X48479131Y-57323430D01*
X48463251Y-57286004D01*
X48455926Y-57271822D01*
X48431061Y-57231847D01*
X48406444Y-57216485D01*
X48368440Y-57218054D01*
X48362235Y-57219031D01*
X48312354Y-57229809D01*
X48292615Y-57246616D01*
X47991054Y-57246616D01*
X47978619Y-57220457D01*
X47938904Y-57140831D01*
X47902510Y-57072329D01*
X47902403Y-57072143D01*
X47993787Y-57072143D01*
X48001495Y-57102247D01*
X48032078Y-57153687D01*
X48036826Y-57160901D01*
X48072536Y-57207345D01*
X48100233Y-57222657D01*
X48124898Y-57208370D01*
X48136929Y-57191755D01*
X48144010Y-57151577D01*
X48131657Y-57109307D01*
X48109305Y-57070522D01*
X48076868Y-57055962D01*
X48049564Y-57054495D01*
X48009596Y-57058013D01*
X47993787Y-57072143D01*
X47902403Y-57072143D01*
X47882067Y-57036932D01*
X47865446Y-57010305D01*
X48202801Y-57010305D01*
X48215132Y-57053804D01*
X48218251Y-57062139D01*
X48243127Y-57098746D01*
X48281974Y-57105631D01*
X48313815Y-57096602D01*
X48329735Y-57085812D01*
X48325747Y-57066367D01*
X48305266Y-57035079D01*
X48271829Y-57000712D01*
X48238313Y-56984395D01*
X48235067Y-56984183D01*
X48208926Y-56989509D01*
X48202801Y-57010305D01*
X47865446Y-57010305D01*
X47815655Y-56930538D01*
X47757161Y-56845092D01*
X47698518Y-56770234D01*
X47631656Y-56695600D01*
X47600307Y-56663556D01*
X47741944Y-56663556D01*
X47745956Y-56682624D01*
X47767128Y-56722639D01*
X47801464Y-56776468D01*
X47820334Y-56803561D01*
X47876485Y-56875588D01*
X47922872Y-56918187D01*
X47964204Y-56933967D01*
X48005188Y-56925538D01*
X48022816Y-56915797D01*
X48037160Y-56894167D01*
X48032686Y-56856365D01*
X48008280Y-56798580D01*
X47966541Y-56723266D01*
X47911073Y-56629338D01*
X47832683Y-56639940D01*
X47782582Y-56649057D01*
X47748328Y-56659588D01*
X47741944Y-56663556D01*
X47600307Y-56663556D01*
X47556418Y-56618694D01*
X47426743Y-56503483D01*
X47337449Y-56444882D01*
X47536453Y-56444882D01*
X47539761Y-56479930D01*
X47565412Y-56508106D01*
X47590277Y-56525137D01*
X47629298Y-56550005D01*
X47652367Y-56559094D01*
X47674185Y-56553841D01*
X47707671Y-56536598D01*
X47745793Y-56510864D01*
X47767135Y-56485516D01*
X47762398Y-56457159D01*
X47739399Y-56425609D01*
X47710090Y-56405643D01*
X47701285Y-56404114D01*
X47681907Y-56391659D01*
X47674462Y-56383589D01*
X47814580Y-56383589D01*
X47829797Y-56423705D01*
X47865304Y-56468142D01*
X47912547Y-56524026D01*
X47956536Y-56583629D01*
X47972397Y-56608269D01*
X48033326Y-56708018D01*
X48080747Y-56779845D01*
X48117240Y-56827084D01*
X48145387Y-56853069D01*
X48167769Y-56861137D01*
X48168076Y-56861138D01*
X48193463Y-56854174D01*
X48193293Y-56847540D01*
X48288997Y-56847540D01*
X48296372Y-56868696D01*
X48315340Y-56908665D01*
X48341168Y-56958697D01*
X48369123Y-57010043D01*
X48394471Y-57053952D01*
X48412478Y-57081675D01*
X48418317Y-57086583D01*
X48418756Y-57067733D01*
X48417445Y-57021650D01*
X48414652Y-56956203D01*
X48412321Y-56909877D01*
X48403253Y-56738893D01*
X48346125Y-56783712D01*
X48310281Y-56816068D01*
X48290412Y-56842230D01*
X48288997Y-56847540D01*
X48193293Y-56847540D01*
X48192779Y-56827501D01*
X48191990Y-56824948D01*
X48176696Y-56792386D01*
X48147672Y-56741898D01*
X48111448Y-56684791D01*
X48074023Y-56625843D01*
X48043099Y-56572471D01*
X48025831Y-56537269D01*
X47991564Y-56464228D01*
X47971308Y-56434092D01*
X48070669Y-56434092D01*
X48083679Y-56477435D01*
X48119355Y-56537984D01*
X48120061Y-56539064D01*
X48145078Y-56573410D01*
X48159757Y-56580149D01*
X48169111Y-56565844D01*
X48178184Y-56526819D01*
X48182294Y-56481017D01*
X48179470Y-56421365D01*
X48172345Y-56370162D01*
X48161160Y-56314238D01*
X48110715Y-56362568D01*
X48079842Y-56398840D01*
X48070669Y-56434092D01*
X47971308Y-56434092D01*
X47951215Y-56404198D01*
X47910429Y-56364270D01*
X47877849Y-56351381D01*
X47830601Y-56359449D01*
X47814580Y-56383589D01*
X47674462Y-56383589D01*
X47654207Y-56361633D01*
X47653683Y-56360969D01*
X47617692Y-56330399D01*
X47585769Y-56334614D01*
X47558641Y-56373402D01*
X47551955Y-56390569D01*
X47536453Y-56444882D01*
X47337449Y-56444882D01*
X47301958Y-56421590D01*
X47180125Y-56371849D01*
X47126422Y-56359758D01*
X47052908Y-56364093D01*
X46985773Y-56402769D01*
X46925414Y-56475487D01*
X46891479Y-56537723D01*
X46866718Y-56592991D01*
X46849400Y-56642214D01*
X46838806Y-56692673D01*
X46834213Y-56751651D01*
X46543450Y-56751651D01*
X46546083Y-56688660D01*
X46492565Y-56629882D01*
X46465352Y-56596892D01*
X46660024Y-56596892D01*
X46671414Y-56641780D01*
X46692590Y-56665415D01*
X46719870Y-56662443D01*
X46737520Y-56645810D01*
X46752579Y-56614064D01*
X46765539Y-56567084D01*
X46766103Y-56564193D01*
X46766777Y-56505081D01*
X46744083Y-56468071D01*
X46705915Y-56456848D01*
X46683757Y-56465947D01*
X46669379Y-56498079D01*
X46662103Y-56536108D01*
X46660024Y-56596892D01*
X46465352Y-56596892D01*
X46436826Y-56562311D01*
X46401251Y-56508023D01*
X46482184Y-56508023D01*
X46507033Y-56546139D01*
X46516698Y-56556788D01*
X46552141Y-56589394D01*
X46573861Y-56591951D01*
X46588121Y-56563326D01*
X46593116Y-56543000D01*
X46595831Y-56491178D01*
X46575100Y-56465442D01*
X46530464Y-56465274D01*
X46524965Y-56466569D01*
X46488037Y-56482855D01*
X46482184Y-56508023D01*
X46401251Y-56508023D01*
X46396050Y-56500087D01*
X46374953Y-56450818D01*
X46373077Y-56437073D01*
X46389695Y-56412762D01*
X46437247Y-56395836D01*
X46512085Y-56387340D01*
X46549419Y-56386536D01*
X46591532Y-56383484D01*
X46618299Y-56368573D01*
X46641473Y-56333170D01*
X46652689Y-56310675D01*
X46652907Y-56310189D01*
X46763287Y-56310189D01*
X46765725Y-56344781D01*
X46780817Y-56365443D01*
X46822407Y-56384315D01*
X46876821Y-56379099D01*
X46932714Y-56351239D01*
X46940652Y-56345091D01*
X46972681Y-56313949D01*
X46979990Y-56286462D01*
X46972498Y-56259542D01*
X46949437Y-56215453D01*
X46922092Y-56204252D01*
X46883511Y-56224189D01*
X46871074Y-56234015D01*
X46829066Y-56264871D01*
X46793188Y-56285250D01*
X46790485Y-56286315D01*
X46763287Y-56310189D01*
X46652907Y-56310189D01*
X46674425Y-56262192D01*
X46687599Y-56225898D01*
X46689412Y-56216472D01*
X46678694Y-56194086D01*
X46650992Y-56155291D01*
X46622875Y-56120949D01*
X46578122Y-56062469D01*
X46534398Y-55994318D01*
X46496852Y-55925877D01*
X46475436Y-55877391D01*
G37*
D13*
%TO.C,RV3*%
X95880000Y-60880000D02*
X95880000Y-65600000D01*
X94690000Y-60880000D02*
X95870000Y-60880000D01*
X91790000Y-60880000D02*
X92320000Y-60880000D01*
X89340000Y-60880000D02*
X90170000Y-60880000D01*
X86130000Y-60880000D02*
X87620000Y-60880000D01*
X86130000Y-60880000D02*
X86130000Y-65600000D01*
X95870000Y-69410000D02*
X95870000Y-72470000D01*
X86130000Y-69410000D02*
X86130000Y-72470000D01*
X86130000Y-72470000D02*
X95870000Y-72470000D01*
%TO.C,RV4*%
X63880000Y-91630000D02*
X63880000Y-96350000D01*
X62690000Y-91630000D02*
X63870000Y-91630000D01*
X59790000Y-91630000D02*
X60320000Y-91630000D01*
X57340000Y-91630000D02*
X58170000Y-91630000D01*
X54130000Y-91630000D02*
X55620000Y-91630000D01*
X54130000Y-91630000D02*
X54130000Y-96350000D01*
X63870000Y-100160000D02*
X63870000Y-103220000D01*
X54130000Y-100160000D02*
X54130000Y-103220000D01*
X54130000Y-103220000D02*
X63870000Y-103220000D01*
D12*
%TO.C,U1*%
X56300000Y-88740000D02*
X56300000Y-88240000D01*
X56300000Y-88740000D02*
X49700000Y-88740000D01*
X56300000Y-78640000D02*
X56300000Y-78140000D01*
X49700000Y-88740000D02*
X49700000Y-88240000D01*
X49700000Y-78640000D02*
X49700000Y-78140000D01*
X49700000Y-78140000D02*
X56300000Y-78140000D01*
D10*
X58450000Y-87220000D02*
G75*
G03*
X58450000Y-87220000I-100000J0D01*
G01*
D13*
%TO.C,RV1*%
X95880000Y-91630000D02*
X95880000Y-96350000D01*
X94690000Y-91630000D02*
X95870000Y-91630000D01*
X91790000Y-91630000D02*
X92320000Y-91630000D01*
X89340000Y-91630000D02*
X90170000Y-91630000D01*
X86130000Y-91630000D02*
X87620000Y-91630000D01*
X86130000Y-91630000D02*
X86130000Y-96350000D01*
X95870000Y-100160000D02*
X95870000Y-103220000D01*
X86130000Y-100160000D02*
X86130000Y-103220000D01*
X86130000Y-103220000D02*
X95870000Y-103220000D01*
%TO.C,RV2*%
X63880000Y-60880000D02*
X63880000Y-65600000D01*
X62690000Y-60880000D02*
X63870000Y-60880000D01*
X59790000Y-60880000D02*
X60320000Y-60880000D01*
X57340000Y-60880000D02*
X58170000Y-60880000D01*
X54130000Y-60880000D02*
X55620000Y-60880000D01*
X54130000Y-60880000D02*
X54130000Y-65600000D01*
X63870000Y-69410000D02*
X63870000Y-72470000D01*
X54130000Y-69410000D02*
X54130000Y-72470000D01*
X54130000Y-72470000D02*
X63870000Y-72470000D01*
%TD*%
%LPC*%
D14*
%TO.C,U2*%
X72937500Y-65712500D03*
D15*
X75480000Y-65720000D03*
D16*
X78020000Y-65720000D03*
D17*
X80560000Y-65720000D03*
D18*
X80560000Y-57780000D03*
D19*
X78020000Y-57780000D03*
D20*
X75480000Y-57780000D03*
D21*
X72940000Y-57780000D03*
%TD*%
D22*
%TO.C,Vin*%
X72250000Y-113000000D03*
%TD*%
%TO.C,OUT*%
X67720000Y-113000000D03*
%TD*%
D14*
%TO.C,U3*%
X72687500Y-80712500D03*
D15*
X75230000Y-80720000D03*
D16*
X77770000Y-80720000D03*
D17*
X80310000Y-80720000D03*
D18*
X80310000Y-72780000D03*
D19*
X77770000Y-72780000D03*
D20*
X75230000Y-72780000D03*
D21*
X72690000Y-72780000D03*
%TD*%
D22*
%TO.C,GND*%
X77750000Y-113000000D03*
%TD*%
D23*
%TO.C,RV3*%
X95800000Y-67500000D03*
X86200000Y-67500000D03*
D24*
X93500000Y-60000000D03*
D25*
X91000000Y-60000000D03*
X88500000Y-60000000D03*
%TD*%
D23*
%TO.C,RV4*%
X63800000Y-98250000D03*
X54200000Y-98250000D03*
D24*
X61500000Y-90750000D03*
D25*
X59000000Y-90750000D03*
X56500000Y-90750000D03*
%TD*%
D14*
%TO.C,U1*%
X56962500Y-87252500D03*
D15*
X56970000Y-84710000D03*
D16*
X56970000Y-82170000D03*
D17*
X56970000Y-79630000D03*
D18*
X49030000Y-79630000D03*
D19*
X49030000Y-82170000D03*
D20*
X49030000Y-84710000D03*
D21*
X49030000Y-87250000D03*
%TD*%
D23*
%TO.C,RV1*%
X95800000Y-98250000D03*
X86200000Y-98250000D03*
D24*
X93500000Y-90750000D03*
D25*
X91000000Y-90750000D03*
X88500000Y-90750000D03*
%TD*%
D22*
%TO.C,IN*%
X75000000Y-112250000D03*
%TD*%
D23*
%TO.C,RV2*%
X63800000Y-67500000D03*
X54200000Y-67500000D03*
D24*
X61500000Y-60000000D03*
D25*
X59000000Y-60000000D03*
X56500000Y-60000000D03*
%TD*%
D26*
%TO.C,R25*%
X72460000Y-75500000D03*
D27*
X77540000Y-75500000D03*
%TD*%
D26*
%TO.C,R23*%
X63250000Y-102250000D03*
D27*
X63250000Y-109870000D03*
%TD*%
D26*
%TO.C,R2*%
X48000000Y-101460000D03*
D27*
X48000000Y-106540000D03*
%TD*%
D24*
%TO.C,D6*%
X77250000Y-78000000D03*
D28*
X77250000Y-85620000D03*
%TD*%
D26*
%TO.C,R10*%
X82250000Y-101500000D03*
D27*
X87330000Y-101500000D03*
%TD*%
D26*
%TO.C,R22*%
X83460000Y-77750000D03*
D27*
X88540000Y-77750000D03*
%TD*%
D29*
%TO.C,C8*%
X68500000Y-97000000D03*
X68500000Y-92000000D03*
%TD*%
%TO.C,C11*%
X100250000Y-83750000D03*
X100250000Y-78750000D03*
%TD*%
D26*
%TO.C,R15*%
X78210000Y-90250000D03*
D27*
X83290000Y-90250000D03*
%TD*%
D29*
%TO.C,C24*%
X69250000Y-62500000D03*
X69250000Y-57500000D03*
%TD*%
D26*
%TO.C,R5*%
X97120000Y-101000000D03*
D27*
X89500000Y-101000000D03*
%TD*%
D24*
%TO.C,D4*%
X88750000Y-80190000D03*
D28*
X88750000Y-87810000D03*
%TD*%
D29*
%TO.C,C20*%
X74250000Y-61500000D03*
X79250000Y-61500000D03*
%TD*%
D26*
%TO.C,R12*%
X100500000Y-107210000D03*
D27*
X100500000Y-112290000D03*
%TD*%
D30*
%TO.C,Q1*%
X74460000Y-100500000D03*
D31*
X77000000Y-100500000D03*
X79540000Y-100500000D03*
%TD*%
D29*
%TO.C,C16*%
X64750000Y-80500000D03*
X64750000Y-75500000D03*
%TD*%
D26*
%TO.C,R14*%
X72000000Y-97040000D03*
D27*
X72000000Y-91960000D03*
%TD*%
D29*
%TO.C,C19*%
X91000000Y-57250000D03*
X96000000Y-57250000D03*
%TD*%
D32*
%TO.C,C9*%
X91750000Y-97000000D03*
D29*
X89750000Y-97000000D03*
%TD*%
%TO.C,C18*%
X98500000Y-69750000D03*
X98500000Y-64750000D03*
%TD*%
D26*
%TO.C,R6*%
X74960000Y-106750000D03*
D27*
X80040000Y-106750000D03*
%TD*%
D26*
%TO.C,R11*%
X102750000Y-113810000D03*
D27*
X102750000Y-106190000D03*
%TD*%
D26*
%TO.C,R28*%
X95040000Y-62500000D03*
D27*
X89960000Y-62500000D03*
%TD*%
D32*
%TO.C,C22*%
X69205113Y-70500000D03*
D29*
X67205113Y-70500000D03*
%TD*%
D32*
%TO.C,C2*%
X49000000Y-109294888D03*
D29*
X49000000Y-111794888D03*
%TD*%
D26*
%TO.C,R21*%
X102750000Y-83790000D03*
D27*
X102750000Y-78710000D03*
%TD*%
D26*
%TO.C,R30*%
X88790000Y-57500000D03*
D27*
X83710000Y-57500000D03*
%TD*%
D24*
%TO.C,D5*%
X80750000Y-85310000D03*
D28*
X80750000Y-77690000D03*
%TD*%
D29*
%TO.C,C25*%
X50750000Y-95750000D03*
X50750000Y-90750000D03*
%TD*%
%TO.C,C4*%
X87250000Y-105000000D03*
X87250000Y-110000000D03*
%TD*%
D26*
%TO.C,R29*%
X61540000Y-65250000D03*
D27*
X56460000Y-65250000D03*
%TD*%
D26*
%TO.C,R32*%
X65000000Y-85250000D03*
D27*
X65000000Y-90330000D03*
%TD*%
D26*
%TO.C,R7*%
X74960000Y-104500000D03*
D27*
X80040000Y-104500000D03*
%TD*%
D29*
%TO.C,C6*%
X77750000Y-95750000D03*
X82750000Y-95750000D03*
%TD*%
%TO.C,C17*%
X99250000Y-62250000D03*
X99250000Y-57250000D03*
%TD*%
%TO.C,C5*%
X90500000Y-103500000D03*
X95500000Y-103500000D03*
%TD*%
D26*
%TO.C,R17*%
X74750000Y-92250000D03*
D27*
X74750000Y-97330000D03*
%TD*%
D30*
%TO.C,Q3*%
X73500000Y-84710000D03*
D31*
X73500000Y-87250000D03*
X73500000Y-89790000D03*
%TD*%
D26*
%TO.C,R31*%
X79560000Y-70500000D03*
D27*
X71940000Y-70500000D03*
%TD*%
D29*
%TO.C,C21*%
X82250000Y-72000000D03*
X82250000Y-67000000D03*
%TD*%
D26*
%TO.C,R27*%
X61540000Y-62750000D03*
D27*
X56460000Y-62750000D03*
%TD*%
D24*
%TO.C,D3*%
X92500000Y-87810000D03*
D28*
X92500000Y-80190000D03*
%TD*%
D26*
%TO.C,R24*%
X47250000Y-74190000D03*
D27*
X47250000Y-81810000D03*
%TD*%
D24*
%TO.C,D2*%
X96250000Y-87810000D03*
D28*
X96250000Y-80190000D03*
%TD*%
D26*
%TO.C,R19*%
X71500000Y-100960000D03*
D27*
X71500000Y-106040000D03*
%TD*%
D26*
%TO.C,R20*%
X69000000Y-107310000D03*
D27*
X69000000Y-99690000D03*
%TD*%
D29*
%TO.C,C13*%
X88500000Y-74750000D03*
X83500000Y-74750000D03*
%TD*%
D26*
%TO.C,R8*%
X90500000Y-113370000D03*
D27*
X90500000Y-105750000D03*
%TD*%
D26*
%TO.C,R26*%
X64290000Y-82750000D03*
D27*
X59210000Y-82750000D03*
%TD*%
D26*
%TO.C,R3*%
X79960000Y-113000000D03*
D27*
X85040000Y-113000000D03*
%TD*%
D26*
%TO.C,R13*%
X84500000Y-92500000D03*
D27*
X76880000Y-92500000D03*
%TD*%
D33*
%TO.C,C12*%
X96250000Y-76000000D03*
X91250000Y-76000000D03*
%TD*%
D29*
%TO.C,C23*%
X68750000Y-79500000D03*
X68750000Y-74500000D03*
%TD*%
D32*
%TO.C,C7*%
X99750000Y-102000000D03*
D29*
X102250000Y-102000000D03*
%TD*%
D34*
%TO.C,C15*%
X59277401Y-79000000D03*
D35*
X60777401Y-79000000D03*
%TD*%
D26*
%TO.C,R9*%
X93000000Y-107210000D03*
D27*
X93000000Y-112290000D03*
%TD*%
D30*
%TO.C,Q2*%
X96500000Y-112250000D03*
D31*
X96500000Y-109710000D03*
X96500000Y-107170000D03*
%TD*%
D36*
%TO.C,D1*%
X53420000Y-112500000D03*
D37*
X63580000Y-112500000D03*
%TD*%
D29*
%TO.C,C10*%
X100750000Y-91250000D03*
X100750000Y-86250000D03*
%TD*%
D26*
%TO.C,R4*%
X74960000Y-109250000D03*
D27*
X80040000Y-109250000D03*
%TD*%
D26*
%TO.C,R1*%
X50500000Y-101460000D03*
D27*
X50500000Y-106540000D03*
%TD*%
D32*
%TO.C,C1*%
X55500000Y-108432379D03*
D29*
X55500000Y-105932379D03*
%TD*%
D26*
%TO.C,R16*%
X76940000Y-88000000D03*
D27*
X84560000Y-88000000D03*
%TD*%
D29*
%TO.C,C3*%
X83000000Y-110000000D03*
X83000000Y-105000000D03*
%TD*%
D33*
%TO.C,C14*%
X59000000Y-95500000D03*
X59000000Y-100500000D03*
%TD*%
D26*
%TO.C,R18*%
X96210000Y-94500000D03*
D27*
X101290000Y-94500000D03*
%TD*%
M02*
