%TF.GenerationSoftware,KiCad,Pcbnew,7.0.1*%
%TF.CreationDate,2023-03-24T12:57:03+01:00*%
%TF.ProjectId,SwedishChainsaw,53776564-6973-4684-9368-61696e736177,rev?*%
%TF.SameCoordinates,Original*%
%TF.FileFunction,Soldermask,Top*%
%TF.FilePolarity,Negative*%
%FSLAX46Y46*%
G04 Gerber Fmt 4.6, Leading zero omitted, Abs format (unit mm)*
G04 Created by KiCad (PCBNEW 7.0.1) date 2023-03-24 12:57:03*
%MOMM*%
%LPD*%
G01*
G04 APERTURE LIST*
G04 Aperture macros list*
%AMRoundRect*
0 Rectangle with rounded corners*
0 $1 Rounding radius*
0 $2 $3 $4 $5 $6 $7 $8 $9 X,Y pos of 4 corners*
0 Add a 4 corners polygon primitive as box body*
4,1,4,$2,$3,$4,$5,$6,$7,$8,$9,$2,$3,0*
0 Add four circle primitives for the rounded corners*
1,1,$1+$1,$2,$3*
1,1,$1+$1,$4,$5*
1,1,$1+$1,$6,$7*
1,1,$1+$1,$8,$9*
0 Add four rect primitives between the rounded corners*
20,1,$1+$1,$2,$3,$4,$5,0*
20,1,$1+$1,$4,$5,$6,$7,0*
20,1,$1+$1,$6,$7,$8,$9,0*
20,1,$1+$1,$8,$9,$2,$3,0*%
G04 Aperture macros list end*
%ADD10C,2.340000*%
%ADD11RoundRect,0.250001X-0.899999X-0.899999X0.899999X-0.899999X0.899999X0.899999X-0.899999X0.899999X0*%
%ADD12C,1.600000*%
%ADD13O,1.400000X1.400000*%
%ADD14C,1.400000*%
%ADD15R,1.500000X1.500000*%
%ADD16C,1.500000*%
%ADD17O,2.800000X2.800000*%
%ADD18R,2.800000X2.800000*%
%ADD19R,1.600000X1.600000*%
%ADD20R,1.200000X1.200000*%
%ADD21C,1.200000*%
%ADD22C,2.000000*%
G04 APERTURE END LIST*
D10*
%TO.C,RV2*%
X195000000Y-87600000D03*
X190000000Y-87600000D03*
X185000000Y-87600000D03*
%TD*%
D11*
%TO.C,In*%
X163600000Y-107200000D03*
%TD*%
%TO.C,GND*%
X158600000Y-107200000D03*
%TD*%
%TO.C,+9V*%
X153600000Y-107200000D03*
%TD*%
D12*
%TO.C,U3*%
X183575000Y-106250000D03*
X181075000Y-106250000D03*
X178575000Y-106250000D03*
X176075000Y-106250000D03*
X176075000Y-100175000D03*
X178575000Y-100175000D03*
X181075000Y-100175000D03*
X183575000Y-100175000D03*
%TD*%
%TO.C,U2*%
X190825000Y-47712500D03*
X188325000Y-47712500D03*
X185825000Y-47712500D03*
X183325000Y-47712500D03*
X183325000Y-53787500D03*
X185825000Y-53787500D03*
X188325000Y-53787500D03*
X190825000Y-53787500D03*
%TD*%
%TO.C,U1*%
X172250000Y-53325000D03*
X172250000Y-50825000D03*
X172250000Y-48325000D03*
X172250000Y-45825000D03*
X178325000Y-45825000D03*
X178325000Y-48325000D03*
X178325000Y-50825000D03*
X178325000Y-53325000D03*
%TD*%
D13*
%TO.C,R32*%
X169500000Y-89520000D03*
D14*
X169500000Y-94600000D03*
%TD*%
%TO.C,R31*%
X185700000Y-91100000D03*
D13*
X185700000Y-96180000D03*
%TD*%
%TO.C,R30*%
X194250000Y-68580000D03*
D14*
X194250000Y-63500000D03*
%TD*%
D13*
%TO.C,R29*%
X195750000Y-78830000D03*
D14*
X195750000Y-73750000D03*
%TD*%
%TO.C,R28*%
X194500000Y-50040000D03*
D13*
X194500000Y-44960000D03*
%TD*%
%TO.C,R27*%
X192670000Y-81000000D03*
D14*
X197750000Y-81000000D03*
%TD*%
%TO.C,R26*%
X173250000Y-105790000D03*
D13*
X173250000Y-100710000D03*
%TD*%
%TO.C,R25*%
X190500000Y-105580000D03*
D14*
X190500000Y-100500000D03*
%TD*%
%TO.C,R24*%
X185750000Y-45750000D03*
D13*
X180670000Y-45750000D03*
%TD*%
D14*
%TO.C,R23*%
X179250000Y-77250000D03*
D13*
X174170000Y-77250000D03*
%TD*%
D14*
%TO.C,R22*%
X184750000Y-62750000D03*
D13*
X189830000Y-62750000D03*
%TD*%
%TO.C,R21*%
X179330000Y-74750000D03*
D14*
X174250000Y-74750000D03*
%TD*%
D13*
%TO.C,R20*%
X159760000Y-52000000D03*
D14*
X164840000Y-52000000D03*
%TD*%
%TO.C,R19*%
X159750000Y-45500000D03*
D13*
X164830000Y-45500000D03*
%TD*%
%TO.C,R18*%
X168250000Y-47580000D03*
D14*
X168250000Y-42500000D03*
%TD*%
D13*
%TO.C,R17*%
X161000000Y-62830000D03*
D14*
X161000000Y-57750000D03*
%TD*%
%TO.C,R16*%
X152460000Y-55000000D03*
D13*
X157540000Y-55000000D03*
%TD*%
%TO.C,R15*%
X165170000Y-60500000D03*
D14*
X170250000Y-60500000D03*
%TD*%
D13*
%TO.C,R14*%
X157540000Y-48000000D03*
D14*
X152460000Y-48000000D03*
%TD*%
D13*
%TO.C,R13*%
X170250000Y-62920000D03*
D14*
X170250000Y-68000000D03*
%TD*%
D13*
%TO.C,R12*%
X152420000Y-64000000D03*
D14*
X157500000Y-64000000D03*
%TD*%
D13*
%TO.C,R11*%
X161000000Y-65170000D03*
D14*
X161000000Y-70250000D03*
%TD*%
D13*
%TO.C,R10*%
X152420000Y-69500000D03*
D14*
X157500000Y-69500000D03*
%TD*%
D13*
%TO.C,R9*%
X152420000Y-72000000D03*
D14*
X157500000Y-72000000D03*
%TD*%
D13*
%TO.C,R8*%
X157580000Y-75000000D03*
D14*
X152500000Y-75000000D03*
%TD*%
D13*
%TO.C,R7*%
X152420000Y-81750000D03*
D14*
X157500000Y-81750000D03*
%TD*%
D13*
%TO.C,R6*%
X171750000Y-87210000D03*
D14*
X171750000Y-92290000D03*
%TD*%
D13*
%TO.C,R5*%
X166000000Y-70210000D03*
D14*
X166000000Y-75290000D03*
%TD*%
D13*
%TO.C,R4*%
X164580000Y-84250000D03*
D14*
X159500000Y-84250000D03*
%TD*%
D13*
%TO.C,R3*%
X152460000Y-84250000D03*
D14*
X157540000Y-84250000D03*
%TD*%
%TO.C,R2*%
X165200000Y-98660000D03*
D13*
X165200000Y-103740000D03*
%TD*%
D14*
%TO.C,R1*%
X159400000Y-96600000D03*
D13*
X164480000Y-96600000D03*
%TD*%
D15*
%TO.C,Q3*%
X152460000Y-51860000D03*
D16*
X155000000Y-51860000D03*
X157540000Y-51860000D03*
%TD*%
%TO.C,Q2*%
X161000000Y-77580000D03*
X161000000Y-75040000D03*
D15*
X161000000Y-72500000D03*
%TD*%
D16*
%TO.C,Q1*%
X171830000Y-79500000D03*
X169290000Y-79500000D03*
D15*
X166750000Y-79500000D03*
%TD*%
D17*
%TO.C,D8*%
X153600000Y-101680000D03*
D18*
X153600000Y-96600000D03*
%TD*%
%TO.C,D6*%
X187000000Y-72250000D03*
D17*
X187000000Y-77330000D03*
%TD*%
D18*
%TO.C,D5*%
X191750000Y-77500000D03*
D17*
X191750000Y-72420000D03*
%TD*%
%TO.C,D4*%
X174250000Y-68080000D03*
D18*
X174250000Y-63000000D03*
%TD*%
D17*
%TO.C,D3*%
X179000000Y-63000000D03*
D18*
X179000000Y-68080000D03*
%TD*%
D17*
%TO.C,D2*%
X179250000Y-58250000D03*
D18*
X174170000Y-58250000D03*
%TD*%
D12*
%TO.C,C22*%
X180600000Y-93800000D03*
D19*
X182600000Y-93800000D03*
%TD*%
D12*
%TO.C,C21*%
X189300000Y-91200000D03*
X189300000Y-96200000D03*
%TD*%
%TO.C,C20*%
X194250000Y-61400000D03*
X194250000Y-56400000D03*
%TD*%
%TO.C,C19*%
X181750000Y-42500000D03*
X176750000Y-42500000D03*
%TD*%
%TO.C,C18*%
X197750000Y-49300000D03*
X197750000Y-54300000D03*
%TD*%
%TO.C,C17*%
X197800000Y-47200000D03*
X197800000Y-42200000D03*
%TD*%
%TO.C,C16*%
X187250000Y-100500000D03*
X187250000Y-105500000D03*
%TD*%
D20*
%TO.C,C15*%
X195600000Y-94800000D03*
D21*
X194100000Y-94800000D03*
%TD*%
D22*
%TO.C,C14*%
X183000000Y-67500000D03*
X190500000Y-67500000D03*
%TD*%
D12*
%TO.C,C13*%
X183000000Y-72250000D03*
X183000000Y-77250000D03*
%TD*%
D22*
%TO.C,C12*%
X183250000Y-58250000D03*
X190750000Y-58250000D03*
%TD*%
D12*
%TO.C,C11*%
X174250000Y-72000000D03*
X179250000Y-72000000D03*
%TD*%
%TO.C,C10*%
X168250000Y-54750000D03*
X168250000Y-49750000D03*
%TD*%
%TO.C,C9*%
X166000000Y-64500000D03*
D19*
X166000000Y-66500000D03*
%TD*%
D12*
%TO.C,C8*%
X152500000Y-45500000D03*
X157500000Y-45500000D03*
%TD*%
%TO.C,C7*%
X153700000Y-59100000D03*
D19*
X156200000Y-59100000D03*
%TD*%
D12*
%TO.C,C6*%
X170250000Y-70250000D03*
X170250000Y-75250000D03*
%TD*%
%TO.C,C5*%
X152500000Y-66750000D03*
X157500000Y-66750000D03*
%TD*%
%TO.C,C4*%
X152500000Y-78250000D03*
X157500000Y-78250000D03*
%TD*%
%TO.C,C3*%
X171750000Y-84250000D03*
X166750000Y-84250000D03*
%TD*%
%TO.C,C2*%
X169200000Y-102500000D03*
D19*
X169200000Y-100000000D03*
%TD*%
D12*
%TO.C,C1*%
X159400000Y-102700000D03*
D19*
X159400000Y-100200000D03*
%TD*%
D10*
%TO.C,RV1*%
X165000000Y-42500000D03*
X160000000Y-42500000D03*
X155000000Y-42500000D03*
%TD*%
%TO.C,RV3*%
X195000000Y-42500000D03*
X190000000Y-42500000D03*
X185000000Y-42500000D03*
%TD*%
%TO.C,RV4*%
X165000000Y-87500000D03*
X160000000Y-87500000D03*
X155000000Y-87500000D03*
%TD*%
M02*
