M48
; DRILL file {KiCad 7.0.1} date Fri Mar 24 12:57:06 2023
; FORMAT={-:-/ absolute / inch / decimal}
; #@! TF.CreationDate,2023-03-24T12:57:06+01:00
; #@! TF.GenerationSoftware,Kicad,Pcbnew,7.0.1
; #@! TF.FileFunction,Plated,1,2,PTH
FMAT,2
INCH
; #@! TA.AperFunction,Plated,PTH,ComponentDrill
T1C0.0236
; #@! TA.AperFunction,Plated,PTH,ComponentDrill
T2C0.0276
; #@! TA.AperFunction,Plated,PTH,ComponentDrill
T3C0.0315
; #@! TA.AperFunction,Plated,PTH,ComponentDrill
T4C0.0394
; #@! TA.AperFunction,Plated,PTH,ComponentDrill
T5C0.0433
; #@! TA.AperFunction,Plated,PTH,ComponentDrill
T6C0.0512
; #@! TA.AperFunction,Plated,PTH,ComponentDrill
T7C0.0551
%
G90
G05
T1
X7.6417Y-3.7323
X7.7008Y-3.7323
T2
X6.0008Y-2.5197
X6.0008Y-2.7362
X6.0008Y-2.8346
X6.0008Y-3.2185
X6.0024Y-1.8898
X6.0024Y-2.1654
X6.0024Y-3.3169
X6.0039Y-2.9528
X6.2008Y-2.5197
X6.2008Y-2.7362
X6.2008Y-2.8346
X6.2008Y-3.2185
X6.2024Y-1.8898
X6.2024Y-2.1654
X6.2024Y-3.3169
X6.2039Y-2.9528
X6.2756Y-3.8031
X6.2795Y-3.3169
X6.2894Y-1.7913
X6.2898Y-2.0472
X6.3386Y-2.2736
X6.3386Y-2.4736
X6.3386Y-2.5657
X6.3386Y-2.7657
X6.4756Y-3.8031
X6.4795Y-3.3169
X6.4894Y-1.7913
X6.4898Y-2.0472
X6.5028Y-2.3819
X6.5039Y-3.8843
X6.5039Y-4.0843
X6.5354Y-2.7642
X6.5354Y-2.9642
X6.624Y-1.6732
X6.624Y-1.8732
X6.6732Y-3.5244
X6.6732Y-3.7244
X6.7028Y-2.3819
X6.7028Y-2.4772
X6.7028Y-2.6772
X6.7618Y-3.4335
X6.7618Y-3.6335
X6.8209Y-3.965
X6.8209Y-4.165
X6.8571Y-3.0413
X6.8602Y-2.9429
X7.0571Y-3.0413
X7.0602Y-2.9429
X7.113Y-1.8012
X7.2736Y-2.4705
X7.311Y-3.5866
X7.311Y-3.7866
X7.313Y-1.8012
X7.4736Y-2.4705
X7.5Y-3.9567
X7.5Y-4.1567
X7.5854Y-3.189
X7.6476Y-2.5
X7.6476Y-2.7
X7.6575Y-1.7701
X7.6575Y-1.9701
X7.7067Y-2.9035
X7.7067Y-3.1035
X7.7854Y-3.189
T3
X6.0024Y-2.0417
X6.0039Y-1.7913
X6.0039Y-2.628
X6.0039Y-3.0807
X6.0512Y-2.3268
X6.1024Y-2.0417
X6.1496Y-2.3268
X6.2008Y-1.7913
X6.2008Y-2.628
X6.2008Y-3.0807
X6.2024Y-2.0417
X6.2756Y-3.9449
X6.2756Y-4.0433
X6.3386Y-2.8543
X6.3386Y-2.9543
X6.3386Y-3.0543
X6.5354Y-2.5394
X6.5354Y-2.6181
X6.565Y-3.1299
X6.565Y-3.3169
X6.624Y-1.9587
X6.624Y-2.1555
X6.6614Y-3.937
X6.6614Y-4.0354
X6.665Y-3.1299
X6.7028Y-2.7657
X6.7028Y-2.9626
X6.7618Y-3.3169
X6.765Y-3.1299
X6.7815Y-1.8041
X6.7815Y-1.9026
X6.7815Y-2.001
X6.7815Y-2.0994
X6.8602Y-2.8346
X6.9321Y-3.9439
X6.9321Y-4.1831
X6.9587Y-1.6732
X7.0207Y-1.8041
X7.0207Y-1.9026
X7.0207Y-2.001
X7.0207Y-2.0994
X7.0305Y-3.9439
X7.0305Y-4.1831
X7.0571Y-2.8346
X7.1102Y-3.6929
X7.1289Y-3.9439
X7.1289Y-4.1831
X7.1555Y-1.6732
X7.189Y-3.6929
X7.2047Y-2.8445
X7.2047Y-3.0413
X7.2175Y-1.8784
X7.2175Y-2.1176
X7.2274Y-3.9439
X7.2274Y-4.1831
X7.3159Y-1.8784
X7.3159Y-2.1176
X7.372Y-3.9567
X7.372Y-4.1535
X7.4144Y-1.8784
X7.4144Y-2.1176
X7.4528Y-3.5906
X7.4528Y-3.7874
X7.5128Y-1.8784
X7.5128Y-2.1176
X7.6476Y-2.2205
X7.6476Y-2.4173
X7.7854Y-1.9409
X7.7854Y-2.1378
X7.7874Y-1.6614
X7.7874Y-1.8583
T4
X7.2047Y-2.6575
X7.2146Y-2.2933
X7.5Y-2.6575
X7.5098Y-2.2933
T5
X6.0472Y-4.2205
X6.2441Y-4.2205
X6.4409Y-4.2205
T6
X6.1024Y-1.6732
X6.1024Y-3.4449
X6.2992Y-1.6732
X6.2992Y-3.4449
X6.4961Y-1.6732
X6.4961Y-3.4449
X7.2835Y-1.6732
X7.2835Y-3.4488
X7.4803Y-1.6732
X7.4803Y-3.4488
X7.6772Y-1.6732
X7.6772Y-3.4488
T7
X6.0472Y-3.8031
X6.0472Y-4.0031
X6.8571Y-2.2933
X6.8602Y-2.4803
X6.8602Y-2.6803
X7.0472Y-2.4803
X7.0472Y-2.6803
X7.0571Y-2.2933
X7.3622Y-2.8445
X7.3622Y-3.0445
X7.5492Y-2.8512
X7.5492Y-3.0512
T0
M30
