M48
; DRILL file {KiCad 7.0.1} date Wed May 31 21:30:22 2023
; FORMAT={-:-/ absolute / inch / decimal}
; #@! TF.CreationDate,2023-05-31T21:30:22+02:00
; #@! TF.GenerationSoftware,Kicad,Pcbnew,7.0.1
; #@! TF.FileFunction,Plated,1,2,PTH
FMAT,2
INCH
; #@! TA.AperFunction,Plated,PTH,ComponentDrill
T1C0.0236
; #@! TA.AperFunction,Plated,PTH,ComponentDrill
T2C0.0276
; #@! TA.AperFunction,Plated,PTH,ComponentDrill
T3C0.0291
; #@! TA.AperFunction,Plated,PTH,ComponentDrill
T4C0.0315
; #@! TA.AperFunction,Plated,PTH,ComponentDrill
T5C0.0354
; #@! TA.AperFunction,Plated,PTH,ComponentDrill
T6C0.0394
; #@! TA.AperFunction,Plated,PTH,ComponentDrill
T7C0.0433
; #@! TA.AperFunction,Plated,PTH,ComponentDrill
T8C0.0709
%
G90
G05
T1
X2.3338Y-3.1102
X2.3928Y-3.1102
X2.6083Y-4.1732
X2.8445Y-4.4488
X2.9528Y-4.4193
X3.061Y-4.4488
T2
X1.8602Y-2.9209
X1.8602Y-3.2209
X1.8898Y-3.9945
X1.8898Y-4.1945
X1.9882Y-3.9945
X1.9882Y-4.1945
X2.2228Y-2.4705
X2.2228Y-2.5689
X2.3311Y-3.2579
X2.4228Y-2.4705
X2.4228Y-2.5689
X2.4902Y-4.0256
X2.4902Y-4.3256
X2.5311Y-3.2579
X2.5591Y-3.3563
X2.5591Y-3.5563
X2.7165Y-3.9248
X2.7165Y-4.2248
X2.815Y-3.9748
X2.815Y-4.1748
X2.8323Y-2.7756
X2.8346Y-3.6205
X2.8346Y-3.8205
X2.8528Y-2.9724
X2.9429Y-3.6319
X2.9429Y-3.8319
X2.9512Y-4.1142
X2.9512Y-4.2028
X2.9512Y-4.3012
X3.0268Y-3.6417
X3.0291Y-3.4646
X3.0528Y-2.9724
X3.0791Y-3.5531
X3.1323Y-2.7756
X3.148Y-4.4488
X3.1512Y-4.1142
X3.1512Y-4.2028
X3.1512Y-4.3012
X3.2382Y-3.9961
X3.2791Y-3.5531
X3.2858Y-3.061
X3.2957Y-2.2638
X3.3268Y-3.6417
X3.3291Y-3.4646
X3.348Y-4.4488
X3.4382Y-3.9961
X3.4858Y-3.061
X3.4957Y-2.2638
X3.5236Y-3.9764
X3.5417Y-2.4606
X3.563Y-4.1634
X3.563Y-4.4634
X3.6614Y-4.2209
X3.6614Y-4.4209
X3.7417Y-2.4606
X3.7878Y-3.7205
X3.8236Y-3.9764
X3.9567Y-4.2209
X3.9567Y-4.4209
X3.9878Y-3.7205
X4.0453Y-3.0988
X4.0453Y-3.2988
X4.0453Y-4.1807
X4.0453Y-4.4807
T3
X1.9303Y-3.135
X1.9303Y-3.235
X1.9303Y-3.335
X1.9303Y-3.435
X2.2429Y-3.135
X2.2429Y-3.235
X2.2429Y-3.335
X2.2429Y-3.435
X2.8618Y-2.8654
X2.8618Y-3.178
X2.8717Y-2.2748
X2.8717Y-2.5874
X2.9618Y-2.8654
X2.9618Y-3.178
X2.9717Y-2.2748
X2.9717Y-2.5874
X3.0618Y-2.8654
X3.0618Y-3.178
X3.0717Y-2.2748
X3.0717Y-2.5874
X3.1618Y-2.8654
X3.1618Y-3.178
X3.1717Y-2.2748
X3.1717Y-2.5874
T4
X1.9291Y-4.3029
X1.9291Y-4.4014
X1.998Y-3.5728
X1.998Y-3.7697
X2.185Y-4.1706
X2.185Y-4.269
X2.5492Y-2.9724
X2.5492Y-3.1693
X2.6459Y-2.7756
X2.6969Y-3.622
X2.6969Y-3.8189
X2.7067Y-2.9331
X2.7067Y-3.1299
X2.7246Y-2.7756
X2.7264Y-2.2638
X2.7264Y-2.4606
X2.8937Y-3.335
X2.8937Y-3.435
X2.8937Y-3.535
X2.9232Y-2.4213
X2.9315Y-3.9567
X3.0315Y-3.9567
X3.061Y-3.7697
X3.1201Y-2.4213
X3.1315Y-3.9567
X3.2382Y-2.6378
X3.2382Y-2.8346
X3.2579Y-3.7697
X3.2677Y-4.1339
X3.2677Y-4.3307
X3.2874Y-2.9429
X3.435Y-4.1339
X3.435Y-4.3307
X3.4843Y-2.9429
X3.5335Y-3.8189
X3.563Y-4.0748
X3.5827Y-2.2539
X3.6122Y-3.8189
X3.7598Y-4.0748
X3.7795Y-2.2539
X3.7992Y-4.2193
X3.7992Y-4.3193
X3.7992Y-4.4193
X3.878Y-2.5492
X3.878Y-2.7461
X3.9075Y-2.2539
X3.9075Y-2.4508
X3.9272Y-4.0157
X3.9469Y-3.1004
X3.9469Y-3.2972
X3.9665Y-3.3957
X3.9665Y-3.5925
X4.0256Y-4.0157
T5
X3.0413Y-3.0709
X3.0413Y-3.3709
X3.1791Y-3.0587
X3.1791Y-3.3587
X3.4941Y-3.1571
X3.4941Y-3.4571
X3.6417Y-3.1571
X3.6417Y-3.4571
X3.7894Y-3.1571
X3.7894Y-3.4571
T6
X2.2244Y-2.3622
X2.2244Y-3.5728
X2.3228Y-2.3622
X2.3228Y-3.5728
X2.3228Y-3.7598
X2.3228Y-3.9567
X2.4213Y-2.3622
X2.4213Y-3.5728
X3.4843Y-2.3622
X3.4843Y-3.5728
X3.5827Y-2.3622
X3.5827Y-3.5728
X3.5925Y-2.9921
X3.6811Y-2.3622
X3.6811Y-3.5728
X3.7894Y-2.9921
T7
X2.1031Y-4.4291
X2.5031Y-4.4291
T8
X2.1339Y-2.6575
X2.1339Y-3.8681
X2.5118Y-2.6575
X2.5118Y-3.8681
X3.3937Y-2.6575
X3.3937Y-3.8681
X3.7717Y-2.6575
X3.7717Y-3.8681
T0
M30
