%TF.GenerationSoftware,KiCad,Pcbnew,7.0.1*%
%TF.CreationDate,2023-05-31T21:26:11+02:00*%
%TF.ProjectId,SwedishChainsaw,53776564-6973-4684-9368-61696e736177,rev?*%
%TF.SameCoordinates,Original*%
%TF.FileFunction,Soldermask,Bot*%
%TF.FilePolarity,Negative*%
%FSLAX46Y46*%
G04 Gerber Fmt 4.6, Leading zero omitted, Abs format (unit mm)*
G04 Created by KiCad (PCBNEW 7.0.1) date 2023-05-31 21:26:11*
%MOMM*%
%LPD*%
G01*
G04 APERTURE LIST*
G04 Aperture macros list*
%AMRoundRect*
0 Rectangle with rounded corners*
0 $1 Rounding radius*
0 $2 $3 $4 $5 $6 $7 $8 $9 X,Y pos of 4 corners*
0 Add a 4 corners polygon primitive as box body*
4,1,4,$2,$3,$4,$5,$6,$7,$8,$9,$2,$3,0*
0 Add four circle primitives for the rounded corners*
1,1,$1+$1,$2,$3*
1,1,$1+$1,$4,$5*
1,1,$1+$1,$6,$7*
1,1,$1+$1,$8,$9*
0 Add four rect primitives between the rounded corners*
20,1,$1+$1,$2,$3,$4,$5,0*
20,1,$1+$1,$4,$5,$6,$7,0*
20,1,$1+$1,$6,$7,$8,$9,0*
20,1,$1+$1,$8,$9,$2,$3,0*%
G04 Aperture macros list end*
%ADD10R,1.325000X1.325000*%
%ADD11C,1.390000*%
%ADD12C,1.390034*%
%ADD13C,1.340148*%
%ADD14C,1.360000*%
%ADD15C,1.360036*%
%ADD16C,1.360588*%
%ADD17C,1.310152*%
%ADD18RoundRect,0.250000X-0.550000X-0.550000X0.550000X-0.550000X0.550000X0.550000X-0.550000X0.550000X0*%
%ADD19C,3.240000*%
%ADD20R,1.800000X1.800000*%
%ADD21C,1.800000*%
%ADD22C,1.400000*%
%ADD23O,1.400000X1.400000*%
%ADD24O,1.800000X1.800000*%
%ADD25C,1.600000*%
%ADD26R,1.500000X1.500000*%
%ADD27C,1.500000*%
%ADD28R,1.600000X1.600000*%
%ADD29C,2.000000*%
%ADD30R,1.200000X1.200000*%
%ADD31C,1.200000*%
%ADD32R,2.200000X2.200000*%
%ADD33O,2.200000X2.200000*%
G04 APERTURE END LIST*
D10*
%TO.C,U2*%
X72937500Y-65712500D03*
D11*
X75480000Y-65720000D03*
D12*
X78020000Y-65720000D03*
D13*
X80560000Y-65720000D03*
D14*
X80560000Y-57780000D03*
D15*
X78020000Y-57780000D03*
D16*
X75480000Y-57780000D03*
D17*
X72940000Y-57780000D03*
%TD*%
D18*
%TO.C,Vin*%
X72250000Y-113000000D03*
%TD*%
%TO.C,OUT*%
X66250000Y-106000000D03*
%TD*%
D10*
%TO.C,U3*%
X72687500Y-80712500D03*
D11*
X75230000Y-80720000D03*
D12*
X77770000Y-80720000D03*
D13*
X80310000Y-80720000D03*
D14*
X80310000Y-72780000D03*
D15*
X77770000Y-72780000D03*
D16*
X75230000Y-72780000D03*
D17*
X72690000Y-72780000D03*
%TD*%
D18*
%TO.C,GND*%
X77750000Y-113000000D03*
%TD*%
D19*
%TO.C,RV3*%
X95800000Y-67500000D03*
X86200000Y-67500000D03*
D20*
X93500000Y-60000000D03*
D21*
X91000000Y-60000000D03*
X88500000Y-60000000D03*
%TD*%
D19*
%TO.C,RV4*%
X63800000Y-98250000D03*
X54200000Y-98250000D03*
D20*
X61500000Y-90750000D03*
D21*
X59000000Y-90750000D03*
X56500000Y-90750000D03*
%TD*%
D10*
%TO.C,U1*%
X56962500Y-87252500D03*
D11*
X56970000Y-84710000D03*
D12*
X56970000Y-82170000D03*
D13*
X56970000Y-79630000D03*
D14*
X49030000Y-79630000D03*
D15*
X49030000Y-82170000D03*
D16*
X49030000Y-84710000D03*
D17*
X49030000Y-87250000D03*
%TD*%
D19*
%TO.C,RV1*%
X95800000Y-98250000D03*
X86200000Y-98250000D03*
D20*
X93500000Y-90750000D03*
D21*
X91000000Y-90750000D03*
X88500000Y-90750000D03*
%TD*%
D18*
%TO.C,IN*%
X75000000Y-112250000D03*
%TD*%
D19*
%TO.C,RV2*%
X63800000Y-67500000D03*
X54200000Y-67500000D03*
D20*
X61500000Y-60000000D03*
D21*
X59000000Y-60000000D03*
X56500000Y-60000000D03*
%TD*%
D22*
%TO.C,R25*%
X72460000Y-75500000D03*
D23*
X77540000Y-75500000D03*
%TD*%
D22*
%TO.C,R23*%
X63250000Y-102250000D03*
D23*
X63250000Y-109870000D03*
%TD*%
D22*
%TO.C,R2*%
X48000000Y-101460000D03*
D23*
X48000000Y-106540000D03*
%TD*%
D20*
%TO.C,D6*%
X77250000Y-78000000D03*
D24*
X77250000Y-85620000D03*
%TD*%
D22*
%TO.C,R10*%
X82250000Y-101500000D03*
D23*
X87330000Y-101500000D03*
%TD*%
D22*
%TO.C,R22*%
X83460000Y-77750000D03*
D23*
X88540000Y-77750000D03*
%TD*%
D25*
%TO.C,C8*%
X68500000Y-97000000D03*
X68500000Y-92000000D03*
%TD*%
%TO.C,C11*%
X100250000Y-83750000D03*
X100250000Y-78750000D03*
%TD*%
D22*
%TO.C,R15*%
X78210000Y-90250000D03*
D23*
X83290000Y-90250000D03*
%TD*%
D25*
%TO.C,C24*%
X69250000Y-62500000D03*
X69250000Y-57500000D03*
%TD*%
D22*
%TO.C,R5*%
X97120000Y-101000000D03*
D23*
X89500000Y-101000000D03*
%TD*%
D20*
%TO.C,D4*%
X88750000Y-80190000D03*
D24*
X88750000Y-87810000D03*
%TD*%
D25*
%TO.C,C20*%
X74250000Y-61500000D03*
X79250000Y-61500000D03*
%TD*%
D22*
%TO.C,R12*%
X100500000Y-107210000D03*
D23*
X100500000Y-112290000D03*
%TD*%
D26*
%TO.C,Q1*%
X74460000Y-100500000D03*
D27*
X77000000Y-100500000D03*
X79540000Y-100500000D03*
%TD*%
D25*
%TO.C,C16*%
X64750000Y-80500000D03*
X64750000Y-75500000D03*
%TD*%
D22*
%TO.C,R14*%
X72000000Y-97040000D03*
D23*
X72000000Y-91960000D03*
%TD*%
D25*
%TO.C,C19*%
X91000000Y-57250000D03*
X96000000Y-57250000D03*
%TD*%
D28*
%TO.C,C9*%
X91750000Y-97000000D03*
D25*
X89750000Y-97000000D03*
%TD*%
%TO.C,C18*%
X98500000Y-69750000D03*
X98500000Y-64750000D03*
%TD*%
D22*
%TO.C,R6*%
X74960000Y-106750000D03*
D23*
X80040000Y-106750000D03*
%TD*%
D22*
%TO.C,R11*%
X102750000Y-113810000D03*
D23*
X102750000Y-106190000D03*
%TD*%
D22*
%TO.C,R28*%
X95040000Y-62500000D03*
D23*
X89960000Y-62500000D03*
%TD*%
D28*
%TO.C,C22*%
X69205113Y-70500000D03*
D25*
X67205113Y-70500000D03*
%TD*%
D28*
%TO.C,C2*%
X49000000Y-109294888D03*
D25*
X49000000Y-111794888D03*
%TD*%
D22*
%TO.C,R21*%
X102750000Y-83790000D03*
D23*
X102750000Y-78710000D03*
%TD*%
D22*
%TO.C,R30*%
X88790000Y-57500000D03*
D23*
X83710000Y-57500000D03*
%TD*%
D20*
%TO.C,D5*%
X80750000Y-85310000D03*
D24*
X80750000Y-77690000D03*
%TD*%
D25*
%TO.C,C25*%
X50750000Y-95750000D03*
X50750000Y-90750000D03*
%TD*%
%TO.C,C4*%
X87250000Y-105000000D03*
X87250000Y-110000000D03*
%TD*%
D22*
%TO.C,R29*%
X61540000Y-65250000D03*
D23*
X56460000Y-65250000D03*
%TD*%
D22*
%TO.C,R32*%
X65000000Y-85250000D03*
D23*
X65000000Y-90330000D03*
%TD*%
D22*
%TO.C,R7*%
X74960000Y-104500000D03*
D23*
X80040000Y-104500000D03*
%TD*%
D25*
%TO.C,C6*%
X77750000Y-95750000D03*
X82750000Y-95750000D03*
%TD*%
%TO.C,C17*%
X99250000Y-62250000D03*
X99250000Y-57250000D03*
%TD*%
%TO.C,C5*%
X90500000Y-103500000D03*
X95500000Y-103500000D03*
%TD*%
D22*
%TO.C,R17*%
X74750000Y-92250000D03*
D23*
X74750000Y-97330000D03*
%TD*%
D26*
%TO.C,Q3*%
X73500000Y-84710000D03*
D27*
X73500000Y-87250000D03*
X73500000Y-89790000D03*
%TD*%
D22*
%TO.C,R31*%
X79560000Y-70500000D03*
D23*
X71940000Y-70500000D03*
%TD*%
D25*
%TO.C,C21*%
X82250000Y-72000000D03*
X82250000Y-67000000D03*
%TD*%
D22*
%TO.C,R27*%
X61540000Y-62750000D03*
D23*
X56460000Y-62750000D03*
%TD*%
D20*
%TO.C,D3*%
X92500000Y-87810000D03*
D24*
X92500000Y-80190000D03*
%TD*%
D22*
%TO.C,R24*%
X47250000Y-74190000D03*
D23*
X47250000Y-81810000D03*
%TD*%
D20*
%TO.C,D2*%
X96250000Y-87810000D03*
D24*
X96250000Y-80190000D03*
%TD*%
D22*
%TO.C,R19*%
X71500000Y-100960000D03*
D23*
X71500000Y-106040000D03*
%TD*%
D22*
%TO.C,R20*%
X69000000Y-107310000D03*
D23*
X69000000Y-99690000D03*
%TD*%
D25*
%TO.C,C13*%
X88500000Y-74750000D03*
X83500000Y-74750000D03*
%TD*%
D22*
%TO.C,R8*%
X90500000Y-113370000D03*
D23*
X90500000Y-105750000D03*
%TD*%
D22*
%TO.C,R26*%
X64290000Y-82750000D03*
D23*
X59210000Y-82750000D03*
%TD*%
D22*
%TO.C,R3*%
X79960000Y-113000000D03*
D23*
X85040000Y-113000000D03*
%TD*%
D22*
%TO.C,R13*%
X84500000Y-92500000D03*
D23*
X76880000Y-92500000D03*
%TD*%
D29*
%TO.C,C12*%
X96250000Y-76000000D03*
X91250000Y-76000000D03*
%TD*%
D25*
%TO.C,C23*%
X68750000Y-79500000D03*
X68750000Y-74500000D03*
%TD*%
D28*
%TO.C,C7*%
X99750000Y-102000000D03*
D25*
X102250000Y-102000000D03*
%TD*%
D30*
%TO.C,C15*%
X59277401Y-79000000D03*
D31*
X60777401Y-79000000D03*
%TD*%
D22*
%TO.C,R9*%
X93000000Y-107210000D03*
D23*
X93000000Y-112290000D03*
%TD*%
D26*
%TO.C,Q2*%
X96500000Y-112250000D03*
D27*
X96500000Y-109710000D03*
X96500000Y-107170000D03*
%TD*%
D32*
%TO.C,D1*%
X53420000Y-112500000D03*
D33*
X63580000Y-112500000D03*
%TD*%
D25*
%TO.C,C10*%
X100750000Y-91250000D03*
X100750000Y-86250000D03*
%TD*%
D22*
%TO.C,R4*%
X74960000Y-109250000D03*
D23*
X80040000Y-109250000D03*
%TD*%
D22*
%TO.C,R1*%
X50500000Y-101460000D03*
D23*
X50500000Y-106540000D03*
%TD*%
D28*
%TO.C,C1*%
X55500000Y-108432379D03*
D25*
X55500000Y-105932379D03*
%TD*%
D22*
%TO.C,R16*%
X76940000Y-88000000D03*
D23*
X84560000Y-88000000D03*
%TD*%
D25*
%TO.C,C3*%
X83000000Y-110000000D03*
X83000000Y-105000000D03*
%TD*%
D29*
%TO.C,C14*%
X59000000Y-95500000D03*
X59000000Y-100500000D03*
%TD*%
D22*
%TO.C,R18*%
X96210000Y-94500000D03*
D23*
X101290000Y-94500000D03*
%TD*%
M02*
