%TF.GenerationSoftware,KiCad,Pcbnew,7.0.1*%
%TF.CreationDate,2023-06-01T15:57:55+02:00*%
%TF.ProjectId,SwedishChainsaw,53776564-6973-4684-9368-61696e736177,rev?*%
%TF.SameCoordinates,Original*%
%TF.FileFunction,Drillmap*%
%TF.FilePolarity,Positive*%
%FSLAX45Y45*%
G04 Gerber Fmt 4.5, Leading zero omitted, Abs format (unit mm)*
G04 Created by KiCad (PCBNEW 7.0.1) date 2023-06-01 15:57:55*
%MOMM*%
%LPD*%
G01*
G04 APERTURE LIST*
%ADD10C,0.100000*%
%ADD11C,0.200000*%
G04 APERTURE END LIST*
D10*
X10450000Y-11525000D02*
X4550000Y-11525000D01*
X4550000Y-11525000D02*
X4550000Y-5475000D01*
X4550000Y-5475000D02*
X10450000Y-5475000D01*
X10450000Y-5475000D02*
X10450000Y-11525000D01*
D11*
X4792619Y-11842524D02*
X4792619Y-11642524D01*
X4792619Y-11642524D02*
X4840238Y-11642524D01*
X4840238Y-11642524D02*
X4868810Y-11652048D01*
X4868810Y-11652048D02*
X4887857Y-11671095D01*
X4887857Y-11671095D02*
X4897381Y-11690143D01*
X4897381Y-11690143D02*
X4906905Y-11728238D01*
X4906905Y-11728238D02*
X4906905Y-11756809D01*
X4906905Y-11756809D02*
X4897381Y-11794905D01*
X4897381Y-11794905D02*
X4887857Y-11813952D01*
X4887857Y-11813952D02*
X4868810Y-11833000D01*
X4868810Y-11833000D02*
X4840238Y-11842524D01*
X4840238Y-11842524D02*
X4792619Y-11842524D01*
X4992619Y-11842524D02*
X4992619Y-11709190D01*
X4992619Y-11747286D02*
X5002143Y-11728238D01*
X5002143Y-11728238D02*
X5011667Y-11718714D01*
X5011667Y-11718714D02*
X5030714Y-11709190D01*
X5030714Y-11709190D02*
X5049762Y-11709190D01*
X5116429Y-11842524D02*
X5116429Y-11709190D01*
X5116429Y-11642524D02*
X5106905Y-11652048D01*
X5106905Y-11652048D02*
X5116429Y-11661571D01*
X5116429Y-11661571D02*
X5125952Y-11652048D01*
X5125952Y-11652048D02*
X5116429Y-11642524D01*
X5116429Y-11642524D02*
X5116429Y-11661571D01*
X5240238Y-11842524D02*
X5221190Y-11833000D01*
X5221190Y-11833000D02*
X5211667Y-11813952D01*
X5211667Y-11813952D02*
X5211667Y-11642524D01*
X5345000Y-11842524D02*
X5325952Y-11833000D01*
X5325952Y-11833000D02*
X5316429Y-11813952D01*
X5316429Y-11813952D02*
X5316429Y-11642524D01*
X5573571Y-11842524D02*
X5573571Y-11642524D01*
X5573571Y-11642524D02*
X5640238Y-11785381D01*
X5640238Y-11785381D02*
X5706905Y-11642524D01*
X5706905Y-11642524D02*
X5706905Y-11842524D01*
X5887857Y-11842524D02*
X5887857Y-11737762D01*
X5887857Y-11737762D02*
X5878333Y-11718714D01*
X5878333Y-11718714D02*
X5859286Y-11709190D01*
X5859286Y-11709190D02*
X5821190Y-11709190D01*
X5821190Y-11709190D02*
X5802143Y-11718714D01*
X5887857Y-11833000D02*
X5868809Y-11842524D01*
X5868809Y-11842524D02*
X5821190Y-11842524D01*
X5821190Y-11842524D02*
X5802143Y-11833000D01*
X5802143Y-11833000D02*
X5792619Y-11813952D01*
X5792619Y-11813952D02*
X5792619Y-11794905D01*
X5792619Y-11794905D02*
X5802143Y-11775857D01*
X5802143Y-11775857D02*
X5821190Y-11766333D01*
X5821190Y-11766333D02*
X5868809Y-11766333D01*
X5868809Y-11766333D02*
X5887857Y-11756809D01*
X5983095Y-11709190D02*
X5983095Y-11909190D01*
X5983095Y-11718714D02*
X6002143Y-11709190D01*
X6002143Y-11709190D02*
X6040238Y-11709190D01*
X6040238Y-11709190D02*
X6059286Y-11718714D01*
X6059286Y-11718714D02*
X6068809Y-11728238D01*
X6068809Y-11728238D02*
X6078333Y-11747286D01*
X6078333Y-11747286D02*
X6078333Y-11804428D01*
X6078333Y-11804428D02*
X6068809Y-11823476D01*
X6068809Y-11823476D02*
X6059286Y-11833000D01*
X6059286Y-11833000D02*
X6040238Y-11842524D01*
X6040238Y-11842524D02*
X6002143Y-11842524D01*
X6002143Y-11842524D02*
X5983095Y-11833000D01*
X6164048Y-11823476D02*
X6173571Y-11833000D01*
X6173571Y-11833000D02*
X6164048Y-11842524D01*
X6164048Y-11842524D02*
X6154524Y-11833000D01*
X6154524Y-11833000D02*
X6164048Y-11823476D01*
X6164048Y-11823476D02*
X6164048Y-11842524D01*
X6164048Y-11718714D02*
X6173571Y-11728238D01*
X6173571Y-11728238D02*
X6164048Y-11737762D01*
X6164048Y-11737762D02*
X6154524Y-11728238D01*
X6154524Y-11728238D02*
X6164048Y-11718714D01*
X6164048Y-11718714D02*
X6164048Y-11737762D01*
M02*
